<svg width="886" height="153" viewBox="0 0 886 153" fill="none" xmlns="http://www.w3.org/2000/svg">
<g clip-path="url(#clip0)">
<rect width="886" height="152.759" fill="url(#paint0_linear)"/>
<rect opacity="0.4" x="-78.2837" y="124.213" width="889.318" height="99.0691" transform="rotate(-25.0264 -78.2837 124.213)" fill="url(#paint1_linear)"/>
<rect opacity="0.4" x="808.795" y="-118.282" width="983.195" height="99.0691" transform="rotate(154.974 808.795 -118.282)" fill="url(#paint2_linear)"/>
<rect opacity="0.4" x="25.0005" y="314.95" width="889.318" height="99.0691" transform="rotate(-25.5449 25.0005 314.95)" fill="url(#paint3_linear)"/>
<rect opacity="0.4" x="159" y="300.95" width="889.318" height="113.624" transform="rotate(-25.5449 159 300.95)" fill="url(#paint4_linear)"/>
<rect opacity="0.4" x="-68.5063" y="272.254" width="889.318" height="99.0691" transform="rotate(-25.0264 -68.5063 272.254)" fill="url(#paint5_linear)"/>
</g>
<defs>
<linearGradient id="paint0_linear" x1="870.315" y1="33.7492" x2="-46.7284" y2="57.0045" gradientUnits="userSpaceOnUse">
<stop stop-color="#00FFF3"/>
<stop offset="1" stop-color="#6C63FF"/>
<stop offset="1" stop-color="#6C63FF"/>
</linearGradient>
<linearGradient id="paint1_linear" x1="795.29" y1="146.1" x2="-124.362" y2="182.195" gradientUnits="userSpaceOnUse">
<stop stop-color="#00FFF3"/>
<stop offset="1" stop-color="#6C63FF"/>
</linearGradient>
<linearGradient id="paint2_linear" x1="1774.58" y1="-96.3948" x2="758.2" y2="-52.2922" gradientUnits="userSpaceOnUse">
<stop stop-color="#00FFF3"/>
<stop offset="1" stop-color="#6C63FF"/>
</linearGradient>
<linearGradient id="paint3_linear" x1="898.575" y1="336.838" x2="-21.0781" y2="372.933" gradientUnits="userSpaceOnUse">
<stop stop-color="#00FFF3"/>
<stop offset="1" stop-color="#6C63FF"/>
</linearGradient>
<linearGradient id="paint4_linear" x1="1032.57" y1="326.053" x2="112.583" y2="357.536" gradientUnits="userSpaceOnUse">
<stop stop-color="#00FFF3"/>
<stop offset="1" stop-color="#6C63FF"/>
</linearGradient>
<linearGradient id="paint5_linear" x1="805.068" y1="294.141" x2="-114.585" y2="330.236" gradientUnits="userSpaceOnUse">
<stop stop-color="#00FFF3"/>
<stop offset="1" stop-color="#00FFF3" stop-opacity="0"/>
</linearGradient>
<clipPath id="clip0">
<rect width="886" height="152.759" fill="white"/>
</clipPath>
</defs>
</svg>
