<svg width="451" height="225" viewBox="0 0 451 225" fill="none" xmlns="http://www.w3.org/2000/svg">
<path opacity="0.1" d="M75.8101 224.187C97.6283 224.187 115.316 221.308 115.316 217.756C115.316 214.204 97.6283 211.325 75.8101 211.325C53.9918 211.325 36.3046 214.204 36.3046 217.756C36.3046 221.308 53.9918 224.187 75.8101 224.187Z" fill="#229993"/>
<path d="M31.1315 118.881C31.1315 118.881 34.8065 120.376 39.3174 122.167C39.472 122.683 39.5907 123.209 39.6727 123.741C39.7523 124.783 41.8164 126.25 41.8164 126.25C41.8164 126.25 45.6444 126.942 48.5262 127.753C50.7648 128.366 51.0741 127.141 50.7863 126.663L51.457 126.92C51.607 133.119 51.7785 137.639 51.7785 137.639C51.7785 137.639 52.7585 137.639 54.305 137.712C54.3234 137.908 54.3418 138.11 54.3632 138.325C54.9543 144.45 56.0414 154.556 56.8836 155.395C58.1086 156.58 57.5665 165.314 57.0949 166.858C56.6233 168.401 57.0949 179.508 57.0949 179.508C57.0949 179.508 58.9906 186.295 58.8313 193.7C58.6721 201.105 60.8832 204.964 60.8832 204.964L61.6763 205.022C61.6763 205.227 61.6518 205.429 61.6426 205.634C61.6059 206.305 61.5783 206.976 61.5691 207.585C61.5199 208.516 61.2007 209.412 60.6504 210.164C59.3809 211.978 58.5057 214.038 58.081 216.212C57.9883 216.698 57.9228 217.189 57.885 217.682C57.885 217.804 57.8697 217.872 57.8697 217.872C57.8697 217.872 58.6047 220.034 65.5013 220.753C72.3979 221.473 71.3996 216.484 71.3996 216.484C71.3996 216.484 71.4333 216.344 71.4761 216.086C71.7778 214.4 71.7872 212.674 71.5037 210.984C71.2618 209.667 71.47 207.389 71.7701 205.3C71.8008 205.083 71.8344 204.869 71.8651 204.657C72.4421 204.537 72.9838 204.285 73.4483 203.922C75.6074 201.953 73.4483 186.298 73.4483 186.298C73.4483 186.298 69.5529 173.494 70.5023 171.641C71.4516 169.788 72.5541 165.317 72.5541 165.317V149.735C74.0853 147.264 74.7744 143.883 75.0592 140.805C75.0776 140.6 75.0959 140.398 75.1112 140.193C76.3883 140.217 77.6133 140.171 78.7249 140.095L79.0312 140.707C80.838 144.208 82.6755 147.674 83.1257 148.186C84.072 149.267 83.2819 154.204 83.1257 156.672C82.9695 159.14 84.8621 164.077 84.8621 164.077C82.4948 165.464 82.0201 181.818 82.0201 181.818C82.0201 181.818 83.7565 185.829 80.1245 190.304C76.4924 194.778 77.9134 203.264 78.3881 202.955C78.5136 202.872 79.2823 202.997 80.3756 203.178C80.177 203.911 79.8218 204.592 79.3344 205.175C78.1615 206.633 77.7603 208.917 77.6439 210.742C77.5756 211.694 77.5756 212.648 77.6439 213.6L80.2745 215.437C80.2745 215.437 81.9068 215.437 81.9068 216.879C81.9068 218.322 85.9064 219.758 85.9064 219.758C85.9064 219.758 91.8536 221.403 96.435 219.758C97.9203 219.225 98.3736 218.31 98.199 217.198C97.8376 214.874 94.7292 211.686 92.4875 209.37C90.9747 207.799 90.2856 205.717 89.9794 203.913C89.9457 203.72 89.9182 203.53 89.8937 203.343C90.0782 203.239 90.2431 203.104 90.3806 202.942C92.2762 200.627 94.3281 194.303 94.3281 194.303C94.3281 194.303 93.391 187.841 95.4428 181.968C96.974 177.622 98.8329 167.436 99.6965 162.448C100.012 160.638 100.07 158.792 99.868 156.966C99.4699 153.325 98.8574 146.578 99.0749 141.237C99.1484 139.495 99.0963 136.723 98.9769 133.474V133.428C100.101 131.306 102.538 127.842 106.605 127.557C112.501 127.144 109.447 123.907 109.447 123.907C109.447 123.907 105.99 99.6125 103.711 95.3006C103.677 95.2254 103.637 95.1527 103.592 95.0831C103.255 94.5472 102.888 93.4753 102.499 92.0452C100.254 83.7613 97.3813 63.3532 97.3813 63.3532L97.0291 58.3889C100.545 60.1131 107.068 63.2582 109.698 64.177C113.373 65.4632 118.488 64.6394 119.752 60.4224C121.017 56.2054 115.753 47.6704 115.753 47.6704C114.978 44.6447 109.628 38.3453 106.844 35.2185C106.575 34.8112 106.308 34.407 106.048 34.0211C105.331 32.9523 104.685 32.0091 104.275 31.4548L104.235 31.5313C104.134 31.3905 104.039 31.2588 103.956 31.1485L103.889 31.2833C102.894 29.4458 101.776 27.5563 100.909 26.5426C98.8942 24.1907 90.105 21.6611 89.2352 22.3563C88.6013 22.8616 91.2319 25.0665 93.0725 26.4201L91.3146 25.2319L87.3855 21.8326L85.6552 20.6627C85.5832 20.614 85.5074 20.571 85.4286 20.5341C85.8789 18.7652 85.9335 16.9188 85.5883 15.1264C85.2432 13.334 84.5069 11.6399 83.4319 10.1647C83.3094 9.99625 83.1777 9.82781 83.046 9.6655C84.8559 8.15878 85.4286 5.66902 85.4286 3.47937V3.39669C85.2947 2.57603 84.9305 1.8103 84.3782 1.18867C84.4058 1.24379 84.4333 1.30504 84.4578 1.36323C84.1411 0.957998 83.7403 0.626301 83.2829 0.391023C82.8256 0.155745 82.3226 0.0224843 81.8088 0.000439786C80.2776 -0.0240597 78.9944 0.980422 77.65 1.66947C76.2669 2.36222 74.7506 2.74821 73.2046 2.80106C71.6587 2.85392 70.1195 2.57239 68.6924 1.97572C67.8625 1.62047 67.0264 1.14886 66.1261 1.22236C65.2257 1.29585 64.5121 1.87466 63.8997 2.47796C62.4269 3.89758 61.2688 5.61075 60.5004 7.50648C60.2737 8.06079 60.0716 8.65184 59.6337 9.06833C59.3002 9.34047 58.9388 9.57657 58.5557 9.77269C57.8955 10.1933 57.3274 10.7435 56.8858 11.3898C56.4441 12.0362 56.1382 12.7654 55.9863 13.5334C55.7005 15.0622 55.861 16.6411 56.4487 18.0811C56.8039 19.0779 57.3846 19.9792 58.1453 20.7148C58.718 21.2446 59.404 21.6335 60.0103 22.1327C60.2856 22.357 60.5427 22.6027 60.779 22.8677C58.0248 23.4773 55.5067 24.873 53.5302 26.8856C52.0452 28.3206 50.8039 29.988 49.8553 31.8223C47.292 36.6395 45.7363 39.6376 44.8115 41.5394C44.349 41.6803 44.0642 41.7476 44.0642 41.7476C44.0642 41.7476 40.5914 44.8315 40.6435 53.6758L37.9577 71.3645V80.414C37.9577 80.414 34.5002 90.2353 35.0668 98.363C35.0668 98.4732 35.0668 98.5804 35.0882 98.6876L34.8065 100.069C34.3727 100.66 34.1564 101.382 34.194 102.114C34.1764 102.365 34.195 102.617 34.2491 102.862L32.8404 109.82L33.1068 110.101L32.381 112.144C29.6462 116.514 31.1315 118.881 31.1315 118.881ZM51.4416 69.2698C51.6162 69.3892 51.7142 69.4505 51.7142 69.4505C51.7142 69.4505 53.2454 83.161 52.3267 91.3133L49.1019 91.0928L47.5707 90.6211L48.1189 86.2633C48.1189 86.2633 50.0819 74.7822 51.4294 69.2698H51.4416ZM64.114 29.4734L64.4203 29.0018C64.356 29.1702 64.2916 29.3356 64.2243 29.4887L64.114 29.4734ZM49.5582 91.2459L51.2273 91.4174L52.2838 91.6379C52.2654 91.7849 52.2471 91.9288 52.2287 92.0697L49.5582 91.2459ZM85.4286 31.9693C85.4278 31.8167 85.4175 31.6643 85.398 31.513L86.7087 32.2908L86.7883 32.3398C86.3351 32.2081 85.8696 32.0918 85.4286 31.9846V31.9693ZM95.6021 38.0329C95.4221 37.7506 95.2279 37.4777 95.0202 37.2152C95.9389 37.4357 96.5085 37.5643 96.5085 37.5643C97.2418 37.4369 97.996 37.5132 98.689 37.7848C98.9132 38.2412 99.1659 38.6831 99.4454 39.1078L101.865 43.7934C101.865 43.7934 101.338 43.8454 100.285 43.3309C99.231 42.8164 95.6021 38.0329 95.6021 38.0329ZM49.6379 126.231L50.3943 126.537C50.2259 126.59 49.9564 126.467 49.6379 126.231Z" fill="url(#paint0_linear)"/>
<path d="M75.8426 25.5654C76.8164 26.1381 76.8471 28.585 76.697 30.548C76.5898 31.9843 76.3908 33.1603 76.3908 33.1603L82.727 48.5644C82.727 48.5644 85.0759 37.5886 85.1126 32.6887C85.1154 32.3021 85.0565 31.9175 84.938 31.5494C83.8325 28.0184 77.6219 26.0585 75.8426 25.5654Z" fill="#12174E"/>
<path d="M75.3873 25.4434C75.3873 25.4434 75.5581 25.4831 75.8541 25.5655C75.7122 25.4838 75.551 25.4416 75.3873 25.4434Z" fill="#12174E"/>
<path d="M77.5837 212.966L80.1347 214.803C80.1347 214.803 81.718 214.803 81.718 216.234C81.718 217.664 85.5951 219.091 85.5951 219.091C85.5951 219.091 91.3647 220.723 95.8053 219.091C97.2446 218.561 97.6856 217.655 97.5172 216.549C97.165 214.243 94.1485 211.092 91.9772 208.78C90.5103 207.221 89.8335 205.154 89.5456 203.365C89.3333 202.085 89.2757 200.785 89.3741 199.491L80.0337 198.827C80.5686 200.236 80.5686 201.793 80.0337 203.203C79.8296 203.707 79.5542 204.179 79.216 204.605C78.0768 206.051 77.6848 208.32 77.5745 210.118C77.5106 211.066 77.5136 212.018 77.5837 212.966Z" fill="#12174E"/>
<path d="M58.3876 217.201C58.3876 217.201 59.1011 219.345 65.7895 220.062C72.4779 220.778 71.5071 215.823 71.5071 215.823C71.5071 215.823 71.5408 215.682 71.5836 215.428C71.8743 213.753 71.8826 212.041 71.6081 210.363C71.3754 209.058 71.5775 206.795 71.8684 204.722C72.2114 202.254 72.68 200.052 72.68 200.052L62.3167 200.817C62.3167 200.817 62.136 202.927 62.0319 205.059C61.9982 205.723 61.9706 206.388 61.9614 206.994C61.9133 207.915 61.603 208.802 61.0672 209.551C59.8403 211.362 58.9981 213.405 58.5928 215.554C58.5033 216.036 58.4399 216.523 58.4029 217.012C58.3876 217.134 58.3876 217.201 58.3876 217.201Z" fill="#12174E"/>
<path d="M77.5834 212.966L80.1344 214.803C80.1344 214.803 81.7177 214.803 81.7177 216.233C81.7177 217.663 85.5948 219.091 85.5948 219.091C85.5948 219.091 91.3644 220.723 95.8049 219.091C97.2443 218.561 97.6853 217.654 97.5169 216.549C97.379 216.549 97.2474 216.567 97.1371 216.57C95.318 216.628 93.5479 217.118 91.738 217.281C90.7068 217.357 89.672 217.373 88.6388 217.33C88.1263 217.326 87.6146 217.286 87.1076 217.21C85.8826 216.993 84.7465 216.359 83.6532 215.737C83.3858 215.612 83.1503 215.428 82.9641 215.198C82.8169 214.944 82.7134 214.666 82.6579 214.377C82.272 212.993 81.194 211.885 79.9568 211.156C79.2038 210.727 78.4058 210.383 77.5773 210.13C77.5129 211.074 77.5149 212.022 77.5834 212.966Z" fill="#12174E"/>
<path d="M58.3876 217.201C58.3876 217.201 59.1011 219.345 65.7895 220.062C72.4779 220.778 71.5071 215.823 71.5071 215.823C71.5071 215.823 71.5408 215.682 71.5836 215.428C71.2774 215.587 71.0171 215.734 70.8976 215.802C70.2852 216.16 69.737 216.653 69.1 216.987C67.5688 217.792 65.7313 217.554 64.0041 217.293C63.1926 217.171 62.381 217.048 61.5725 216.898C60.9562 216.814 60.3563 216.636 59.7932 216.371C59.375 216.128 58.9738 215.855 58.5928 215.557C58.5033 216.039 58.4399 216.526 58.4029 217.015C58.3876 217.134 58.3876 217.201 58.3876 217.201Z" fill="#12174E"/>
<path opacity="0.1" d="M77.5834 212.966L80.1344 214.803C80.1344 214.803 81.7177 214.803 81.7177 216.233C81.7177 217.663 85.5948 219.091 85.5948 219.091C85.5948 219.091 91.3644 220.723 95.8049 219.091C97.2443 218.561 97.6853 217.654 97.5169 216.549C97.379 216.549 97.2474 216.567 97.1371 216.57C95.318 216.628 93.5479 217.118 91.738 217.281C90.7068 217.357 89.672 217.373 88.6388 217.33C88.1263 217.326 87.6146 217.286 87.1076 217.21C85.8826 216.993 84.7465 216.359 83.6532 215.737C83.3858 215.612 83.1503 215.428 82.9641 215.198C82.8169 214.944 82.7134 214.666 82.6579 214.377C82.272 212.993 81.194 211.885 79.9568 211.156C79.2038 210.727 78.4058 210.383 77.5773 210.13C77.5129 211.074 77.5149 212.022 77.5834 212.966Z" fill="#12174E"/>
<path opacity="0.1" d="M58.3876 217.201C58.3876 217.201 59.1011 219.345 65.7895 220.062C72.4779 220.778 71.5071 215.823 71.5071 215.823C71.5071 215.823 71.5408 215.682 71.5836 215.428C71.2774 215.587 71.0171 215.734 70.8976 215.802C70.2852 216.16 69.737 216.653 69.1 216.987C67.5688 217.792 65.7313 217.554 64.0041 217.293C63.1926 217.171 62.381 217.048 61.5725 216.898C60.9562 216.814 60.3563 216.636 59.7932 216.371C59.375 216.128 58.9738 215.855 58.5928 215.557C58.5033 216.039 58.4399 216.526 58.4029 217.015C58.3876 217.134 58.3876 217.201 58.3876 217.201Z" fill="#12174E"/>
<path opacity="0.1" d="M80.032 198.827C80.567 200.236 80.567 201.793 80.032 203.203C82.7117 203.659 87.7065 204.581 89.544 203.365C89.3317 202.085 89.2741 200.785 89.3725 199.491L80.032 198.827Z" fill="#12174E"/>
<path opacity="0.1" d="M62.0353 205.059C63.9279 205.194 69.0208 205.46 71.8719 204.722C72.2149 202.254 72.6835 200.052 72.6835 200.052L62.3202 200.817C62.3202 200.817 62.1395 202.927 62.0353 205.059Z" fill="#12174E"/>
<path d="M54.5625 133.649C54.5625 133.649 54.7217 135.563 54.9759 138.242C55.5486 144.324 56.6051 154.366 57.4259 155.184C58.6019 156.363 58.0904 165.029 57.6311 166.561C57.1717 168.092 57.6311 179.117 57.6311 179.117C58.787 183.722 59.353 188.456 59.3154 193.204C59.1623 200.554 61.306 204.382 61.306 204.382C61.306 204.382 71.412 205.301 73.5037 203.347C75.5953 201.393 73.5037 185.854 73.5037 185.854C73.5037 185.854 69.7185 173.154 70.6373 171.317C71.556 169.479 72.6278 165.039 72.6278 165.039V149.573C74.1131 147.123 74.7715 143.755 75.0564 140.711C75.283 138.107 75.2902 135.488 75.0778 132.883C75.0778 132.883 76.9796 136.772 78.9181 140.619C80.6698 144.095 82.4521 147.534 82.8993 148.042C83.818 149.114 83.0524 154.014 82.8993 156.464C82.7461 158.914 84.5836 163.814 84.5836 163.814C82.2868 165.192 81.8274 181.423 81.8274 181.423C81.8274 181.423 83.5118 185.404 79.9899 189.844C76.4681 194.285 77.8462 202.707 78.3056 202.4C78.765 202.094 88.1054 204.697 89.9429 202.4C91.7803 200.104 93.7709 193.826 93.7709 193.826C93.7709 193.826 92.8522 187.394 94.8428 181.576C96.3189 177.264 98.1288 167.155 98.9679 162.203C99.2688 160.405 99.3193 158.575 99.118 156.764C98.7321 153.147 98.138 146.453 98.3493 141.145C98.4197 139.415 98.3707 136.665 98.2543 133.44C97.8593 122.385 96.6649 105.774 96.6649 105.774L88.3657 100.152L82.887 96.4399L81.5457 96.6451L56.55 100.507L55.5792 112.836L54.5625 133.649Z" fill="#12174E"/>
<path opacity="0.1" d="M88.3715 100.158L88.8094 102.565C88.8094 102.565 92.4843 120.174 93.2499 129.208C94.0156 138.242 97.2311 135.639 97.2311 135.639C97.5116 134.881 97.8558 134.147 98.2601 133.446C97.865 122.391 96.6707 105.78 96.6707 105.78L88.3715 100.158Z" fill="#12174E"/>
<path d="M62.1176 33.3536C62.1176 33.3536 79.2672 47.0825 76.1007 44.3263C74.3673 42.8135 75.5464 36.364 76.9673 30.8516C78.1372 26.3038 79.4694 22.39 79.4694 22.39C79.4694 22.39 64.5001 8.3855 65.5873 19.836C65.9701 23.8723 65.6516 26.7418 65.0789 28.7691C64.0285 32.4839 62.1176 33.3536 62.1176 33.3536Z" fill="#EFB7B9"/>
<path opacity="0.1" d="M63.5443 29.7036L74.416 38.2019L77.5795 34.6801C77.5795 34.6801 80.2867 33.5072 80.4888 34.8332C80.6909 36.1592 81.4596 44.3268 79.8763 45.0924C78.293 45.858 76.2535 46.3694 74.4681 46.1152C72.6827 45.8611 70.689 43.8674 69.363 43.1018C68.0369 42.3362 63.137 38.355 63.137 38.355L60.6871 34.9373L63.5443 29.7036Z" fill="#12174E"/>
<path d="M63.5443 30.0098L74.416 38.508L77.5795 34.9862C77.5795 34.9862 80.2867 33.8133 80.4888 35.1394C80.6909 36.4654 81.4596 44.6329 79.8763 45.3985C78.293 46.1641 76.2535 46.6756 74.4681 46.4214C72.6827 46.1672 70.689 44.1736 69.363 43.4079C68.0369 42.6423 63.137 38.6612 63.137 38.6612L60.6871 35.2435L63.5443 30.0098Z" fill="#229993"/>
<path opacity="0.1" d="M54.5625 133.649C54.5625 133.649 54.7217 135.563 54.9759 138.243C58.3446 138.371 64.8799 138.769 69.4674 139.97C71.2981 140.423 73.1739 140.668 75.0594 140.702C75.2861 138.098 75.2932 135.479 75.0809 132.874C75.0809 132.874 76.9826 136.763 78.9212 140.61C80.5793 140.498 82.229 140.284 83.8609 139.97L81.8182 113.428C81.8182 113.428 81.8856 104.519 81.5487 96.6362L56.55 100.507L55.5792 112.837L54.5625 133.649Z" fill="#12174E"/>
<path opacity="0.1" d="M73.3456 37.488C73.3456 37.488 65.9192 29.3695 64.1583 30.6588C62.3974 31.9481 61.2581 35.0901 61.2581 35.0901L67.3064 41.7234L73.3456 37.488Z" fill="#12174E"/>
<path d="M73.0391 37.1819C73.0391 37.1819 65.6126 29.0634 63.8517 30.3526C62.0908 31.6419 60.9516 34.784 60.9516 34.784L66.9999 41.4172L73.0391 37.1819Z" fill="#229993"/>
<path opacity="0.1" d="M79.2116 42.3852L74.9242 37.0106C74.9242 37.0106 75.5979 31.9301 77.1659 32.5793C78.7339 33.2285 79.2116 35.8285 79.2116 35.8285V42.3852Z" fill="#12174E"/>
<path d="M79.519 42.0293L75.253 36.6547C75.253 36.6547 75.9267 31.5741 77.4947 32.2233C79.0627 32.8726 79.519 35.4726 79.519 35.4726V42.0293Z" fill="#229993"/>
<path opacity="0.1" d="M59.8691 32.3828C59.8691 32.3828 68.6614 41.8764 73.9104 42.5134C74.3851 42.5716 74.8598 42.6512 75.3283 42.7461C76.7003 43.0156 79.6893 42.7461 79.2146 34.8971L79.8761 33.5067L83.9614 36.0087L85.3395 47.2357L87.7894 76.0226L91.4123 108.077C91.4123 108.077 80.2864 107.005 77.1719 109.814C74.0574 112.622 73.1908 94.5014 73.1908 94.5014L64.668 57.7521L55.5817 34.1192L59.8691 32.3828Z" fill="#12174E"/>
<path opacity="0.1" d="M55.5817 35.3439L64.668 58.9768L73.1908 95.7261C73.1908 95.7261 74.0605 113.843 77.1719 111.038C78.1887 110.12 80.0629 109.617 82.1239 109.357C84.6583 109.083 87.2114 109.026 89.7555 109.186C90.7722 109.241 91.4123 109.302 91.4123 109.302L87.7864 77.2473L85.3364 48.4604L83.9583 37.2334L79.8761 34.7314L79.2115 36.1218C79.2115 36.327 79.233 36.5291 79.2421 36.7343C79.53 43.9861 76.6605 44.2434 75.3283 43.98C74.8567 43.8851 74.3851 43.8054 73.9074 43.7473C70.1896 43.291 64.6955 38.4002 61.8077 35.5889C60.6164 34.4252 59.8661 33.6167 59.8661 33.6167L55.5817 35.3439Z" fill="#12174E"/>
<path d="M55.5817 34.425L64.668 58.0578L73.1908 94.8071C73.1908 94.8071 74.0605 112.925 77.1719 110.119C78.1887 109.201 80.0629 108.698 82.1239 108.438C84.6583 108.164 87.2114 108.107 89.7555 108.267C90.7722 108.322 91.4123 108.383 91.4123 108.383L87.7864 76.3284L85.3364 47.5414L83.9583 36.3145L79.8761 33.8125L79.2115 35.2028C79.2115 35.408 79.233 35.6101 79.2421 35.8153C79.53 43.0672 76.6605 43.3244 75.3283 43.0611C74.8567 42.9661 74.3851 42.8865 73.9074 42.8283C70.1896 42.372 64.6955 37.4813 61.8077 34.67C60.6164 33.5062 59.8661 32.6978 59.8661 32.6978L55.5817 34.425Z" fill="#E1E7EF"/>
<path opacity="0.1" d="M79.2118 35.2033C79.2118 35.4085 79.2332 35.6106 79.2424 35.8158L79.3129 35.8648C80.3908 36.5753 82.1211 48.574 82.1211 48.574L84.3659 79.1463L88.5002 101.962C88.5002 101.962 89.0422 104.562 89.7527 108.276C90.7694 108.331 91.4095 108.393 91.4095 108.393L87.7866 76.3289L85.3367 47.5419L83.9586 36.315L79.8763 33.813L79.2118 35.2033Z" fill="#12174E"/>
<path d="M76.4008 33.1609C76.4008 33.1609 78.8507 35.1453 79.9287 35.8558C81.0067 36.5663 82.7369 48.565 82.7369 48.565L84.9817 79.1373L89.116 101.953C89.116 101.953 92.7909 119.562 93.5566 128.596C94.3222 137.63 97.5377 135.027 97.5377 135.027C97.5377 135.027 99.9387 127.983 105.653 127.576C111.368 127.169 108.409 123.95 108.409 123.95C108.409 123.95 105.062 99.8272 102.86 95.5306C102.826 95.4568 102.787 95.3852 102.744 95.3162C102.419 94.7833 102.061 93.7207 101.684 92.2997C99.5069 84.0801 96.7231 63.819 96.7231 63.819L94.9867 38.707C90.5431 31.4643 76.7621 31.7154 76.7621 31.7154L76.4008 33.1609Z" fill="#12174E"/>
<path opacity="0.1" d="M55.5817 34.4254L64.668 58.0582L73.1908 94.8075C73.1908 94.8075 74.0605 112.925 77.1719 110.12C78.1887 109.201 80.0629 108.699 82.1239 108.438C82.0872 102.209 81.8973 91.0315 81 86.3337C80.2235 82.041 79.8991 77.6787 80.0322 73.3184L68.9033 49.073C68.9033 49.073 60.5337 38.7557 60.4816 37.2796C60.4633 36.7344 61.0574 35.7238 61.8107 34.6612C60.6194 33.4975 59.8691 32.689 59.8691 32.689L55.5817 34.4254Z" fill="#12174E"/>
<path d="M83.5515 139.366L81.5119 112.824C81.5119 112.824 81.6651 93.0192 80.388 86.3339C79.6096 82.0414 79.2842 77.679 79.4172 73.3185L68.2914 49.0732C68.2914 49.0732 59.9217 38.7558 59.8697 37.2797C59.8176 35.8036 64.252 30.8945 64.252 30.8945C64.252 30.8945 54.5624 32.0276 53.2854 36.3641C52.0084 40.7005 45.0168 42.3879 45.0168 42.3879C45.0168 42.3879 41.6481 45.4503 41.7002 54.2303C41.7522 63.0104 52.4187 69.8978 52.4187 69.8978C52.4187 69.8978 54.2041 86.435 52.6729 93.8889C51.1417 101.343 52.4677 137.578 52.4677 137.578C52.4677 137.578 62.7269 137.682 69.158 139.366C75.5892 141.051 83.5515 139.366 83.5515 139.366Z" fill="#12174E"/>
<path d="M68.4449 97.2575L60.5836 127.012C60.5836 127.012 59.5118 129.667 53.9994 127.625C48.487 125.582 32.4612 118.949 32.4612 118.949C32.4612 118.949 31.0311 116.6 33.6862 112.263L41.7006 88.7837L68.4449 97.2575Z" fill="#9899A1"/>
<path d="M58.2776 110.414L45.5685 96.4396L37.453 93.1475L34.1211 109.951L49.5497 126.718L58.2776 110.414Z" fill="#E1E7EF"/>
<path d="M44.696 115.081C44.696 115.081 48.475 117.301 49.4703 117.377C50.4656 117.454 53.9813 124.09 52.496 124.038C51.0107 123.986 47.5563 122.201 47.9023 123.119C48.2484 124.038 50.4993 126.794 51.1547 126.534C51.81 126.274 52.1132 128.555 49.3172 127.759C46.5212 126.963 42.8095 126.265 42.8095 126.265C42.8095 126.265 40.8189 124.81 40.7424 123.778C40.6658 122.746 38.9447 117.307 38.9447 117.307L44.696 115.081Z" fill="#EFB7B9"/>
<path d="M105.366 36.6829C105.366 36.6829 102.095 29.624 100.141 27.2874C98.1873 24.9507 89.6645 22.4426 88.8101 23.1316C87.9557 23.8207 93.0975 27.6916 94.0163 28.1877C94.935 28.6838 88.0782 33.2928 87.9404 33.3939C87.8026 33.4949 82.5811 32.9284 85.2607 34.6893C87.9404 36.4502 95.8629 38.2448 95.8629 38.2448C96.3963 38.1521 96.943 38.1693 97.4696 38.2951C97.9961 38.421 98.4915 38.6529 98.9254 38.9767C100.46 40.0914 105.366 36.6829 105.366 36.6829Z" fill="#EFB7B9"/>
<path opacity="0.1" d="M37.3269 115.436C37.7599 116.856 38.3409 118.226 39.0603 119.525C39.8259 118.833 47.1359 116.422 47.1359 116.422L46.3244 115.17L45.0014 113.13C45.0014 113.13 38.4845 111.715 37.3759 113.13C37.0023 113.605 37.0697 114.481 37.3269 115.436Z" fill="#12174E"/>
<path d="M37.0218 115.13C37.4547 116.55 38.0357 117.92 38.7551 119.219C39.5207 118.526 46.8308 116.116 46.8308 116.116L46.0192 114.864L44.6962 112.824C44.6962 112.824 38.1794 111.409 37.0708 112.824C36.6971 113.299 36.7645 114.175 37.0218 115.13Z" fill="#229993"/>
<path opacity="0.1" d="M97.8934 38.2778C98.1281 38.8033 98.4046 39.3092 98.7202 39.7906C99.8993 41.6495 101.685 43.8422 101.685 43.8422C101.685 43.8422 108.649 40.6389 108.649 40.498C108.649 40.3572 106.536 37.0283 104.818 34.4038C104.122 33.3442 103.495 32.4071 103.096 31.8589C103.096 31.8589 100.496 37.2978 97.9301 37.3345C97.2594 37.3437 97.6178 37.6132 97.8934 38.2778Z" fill="#12174E"/>
<path d="M98.1999 38.5844C98.4346 39.11 98.7111 39.6159 99.0268 40.0973C100.206 41.9562 101.991 44.1489 101.991 44.1489C101.991 44.1489 108.955 40.9455 108.955 40.8047C108.955 40.6638 106.842 37.3349 105.124 34.7104C104.429 33.6508 103.801 32.7137 103.403 32.1655C103.403 32.1655 100.803 37.6044 98.2366 37.6412C97.566 37.6504 97.9243 37.9199 98.1999 38.5844Z" fill="#229993"/>
<path opacity="0.1" d="M37.0218 115.13C38.406 114.478 42.0993 113.121 46.0192 114.864L44.6962 112.824C44.6962 112.824 38.1794 111.409 37.0708 112.824C36.6971 113.299 36.7645 114.175 37.0218 115.13Z" fill="#12174E"/>
<path d="M36.2892 98.5832C36.3198 99.0272 36.3474 99.4713 36.3749 99.9123C36.4515 101.263 36.5036 102.601 36.5373 103.893C36.6904 109.877 36.4423 114.814 36.4423 114.814C36.4423 114.814 41.1891 111.957 46.2421 114.355L46.7505 104.671V104.503L47.268 100.268L48.9463 86.5876C48.9463 86.5876 52.1098 67.6004 53.0806 66.8869C54.0514 66.1733 45.8838 50.8091 45.8838 50.8091L41.6975 54.2298L39.0944 71.7868V80.7689C39.0944 80.7689 35.7257 90.5198 36.2892 98.5832Z" fill="#12174E"/>
<path opacity="0.1" d="M98.0493 38.1528L99.0292 40.0974C100.208 41.9563 101.994 44.149 101.994 44.149C101.994 44.149 108.958 40.9457 108.958 40.8048C108.958 40.664 106.845 37.3351 105.127 34.7106C104.597 34.0981 104.275 33.7612 104.275 33.7612C106.318 38.8143 98.0493 38.1528 98.0493 38.1528Z" fill="#12174E"/>
<path d="M92.127 37.2799L94.9873 38.7131C94.9873 38.7131 98.5092 43.4599 99.5289 43.9713C100.549 44.4827 101.06 44.4307 101.06 44.4307L98.0498 38.4589C98.0498 38.4589 106.318 39.1204 104.276 34.0674C104.276 34.0674 113.515 44.1734 114.535 48.2587C114.535 48.2587 119.64 56.7294 118.415 60.9158C117.19 65.1022 112.238 65.9168 108.664 64.6428C105.09 63.3688 94.1176 57.7523 94.1176 57.7523L92.127 37.2799Z" fill="#12174E"/>
<path opacity="0.1" d="M102.387 47.2349C102.387 47.2349 110.095 55.8618 109.482 57.0347C108.87 58.2076 102.794 48.9713 102.387 47.2349Z" fill="#12174E"/>
<path opacity="0.2" d="M67.6029 24.0127C67.6029 24.0127 56.7557 20.7451 50.6308 32.5355C44.5059 44.3259 44.3008 45.1436 44.607 45.704C44.9132 46.2644 56.8047 43.153 57.4693 44.5311C58.1338 45.9092 50.7319 51.5747 50.7319 51.5747L79.4147 73.318L67.364 47.7038C66.5536 45.9095 65.4733 44.2498 64.1607 42.7824C62.1793 40.5652 59.469 37.169 60.4276 36.1216C61.2728 35.2029 62.6264 32.805 64.4516 30.0457C65.7899 28.0215 67.9153 25.7399 67.6029 24.0127Z" fill="#12174E"/>
<path d="M67.9093 23.7066C67.9093 23.7066 57.0621 20.439 50.9372 32.2294C44.8123 44.0198 44.6072 44.8374 44.9134 45.3979C45.2196 45.9583 57.1111 42.8468 57.7757 44.2249C58.4402 45.603 51.0383 51.2686 51.0383 51.2686L79.4148 73.3181L67.6704 47.3976C66.86 45.6033 65.7797 43.9437 64.4671 42.4763C62.4857 40.2591 59.7754 36.8628 60.734 35.8155C61.5792 34.8967 62.9328 32.4988 64.758 29.7396C66.0963 27.7153 68.2216 25.4338 67.9093 23.7066Z" fill="#12174E"/>
<path opacity="0.1" d="M67.9093 23.7066C67.9093 23.7066 57.0621 20.439 50.9372 32.2294C44.8123 44.0198 44.6072 44.8374 44.9134 45.3979C45.2196 45.9583 57.1111 42.8468 57.7757 44.2249C58.4402 45.603 51.0383 51.2686 51.0383 51.2686L79.4148 73.3181L67.1069 46.1512C66.6305 45.0951 65.985 44.1238 65.1959 43.2756C63.2574 41.187 59.6499 37.0006 60.734 35.8155C61.5792 34.8967 62.9328 32.4988 64.758 29.7396C66.0963 27.7153 68.2216 25.4338 67.9093 23.7066Z" fill="#12174E"/>
<path d="M65.6887 77.7561C66.9285 77.7561 67.9335 76.7511 67.9335 75.5114C67.9335 74.2716 66.9285 73.2666 65.6887 73.2666C64.449 73.2666 63.444 74.2716 63.444 75.5114C63.444 76.7511 64.449 77.7561 65.6887 77.7561Z" fill="#12174E"/>
<path d="M65.6887 91.6897C66.9285 91.6897 67.9335 90.6847 67.9335 89.445C67.9335 88.2052 66.9285 87.2002 65.6887 87.2002C64.449 87.2002 63.444 88.2052 63.444 89.445C63.444 90.6847 64.449 91.6897 65.6887 91.6897Z" fill="#12174E"/>
<path d="M36.5379 103.894C37.8303 104.2 43.9582 104.063 46.745 104.672V104.504L47.2626 100.268C44.1205 99.8763 37.2913 99.1321 36.3664 99.913C35.169 100.933 34.9975 103.542 36.5379 103.894Z" fill="#12174E"/>
<path opacity="0.1" d="M36.5379 104.2C37.8303 104.507 43.9582 104.369 46.745 104.978V104.81L47.2626 100.574C44.1205 100.182 37.2913 99.4382 36.3664 100.219C35.169 101.239 34.9975 103.848 36.5379 104.2Z" fill="#12174E"/>
<path opacity="0.1" d="M36.5379 103.894C37.8303 104.2 43.9582 104.063 46.745 104.672V104.504L47.2626 100.268C44.1205 99.8763 37.2913 99.1321 36.3664 99.913C35.169 100.933 34.9975 103.542 36.5379 103.894Z" fill="#12174E"/>
<path d="M37.8717 103.201C38.6193 103.201 39.2253 102.595 39.2253 101.848C39.2253 101.1 38.6193 100.494 37.8717 100.494C37.1242 100.494 36.5181 101.1 36.5181 101.848C36.5181 102.595 37.1242 103.201 37.8717 103.201Z" fill="#12174E"/>
<path opacity="0.1" d="M63.4435 107.259L57.7259 126.758C57.7259 126.758 56.1947 127.471 56.1947 126.197C56.1947 124.923 63.4435 107.259 63.4435 107.259Z" fill="white"/>
<path opacity="0.1" d="M65.6373 27.8105C65.9984 28.1002 66.3757 28.3691 66.7674 28.6159C68.712 29.8409 70.4423 31.5068 72.9229 31.5068C74.2987 31.5089 75.6655 31.2843 76.9684 30.8423C78.1382 26.2946 79.4704 22.3808 79.4704 22.3808C79.4704 22.3808 64.5012 8.37623 65.5883 19.8267C65.9711 23.863 66.21 25.7831 65.6373 27.8105Z" fill="#12174E"/>
<path d="M60.3482 18.3201C60.3482 20.8071 61.0857 23.2382 62.4674 25.3061C63.8491 27.3739 65.8129 28.9856 68.1106 29.9373C70.4083 30.8891 72.9365 31.1381 75.3757 30.6529C77.8149 30.1677 80.0555 28.9701 81.814 27.2116C83.5726 25.453 84.7702 23.2125 85.2554 20.7733C85.7405 18.3341 85.4915 15.8058 84.5398 13.5081C83.5881 11.2105 81.9764 9.2466 79.9086 7.86491C77.8407 6.48322 75.4096 5.74574 72.9226 5.74574C71.2692 5.73804 69.6306 6.05802 68.1015 6.68722C66.5724 7.31641 65.1832 8.24234 64.014 9.41151C62.8448 10.5807 61.9189 11.9699 61.2897 13.499C60.6605 15.0281 60.3405 16.6667 60.3482 18.3201Z" fill="#EFB7B9"/>
<path d="M80.0484 28.8461C80.164 29.1338 80.3705 29.3757 80.6364 29.5351L82.6331 30.7601L86.3662 33.0294L92.2737 36.6186C92.4125 36.7023 92.5534 36.7788 92.6963 36.8482C93.3888 37.2001 94.1527 37.3885 94.9293 37.3991C95.706 37.4097 96.4748 37.2422 97.1766 36.9095C97.7068 36.671 98.1728 36.3102 98.5364 35.8566C98.9 35.403 99.1509 34.8696 99.2683 34.3003C99.4255 33.5077 99.3593 32.687 99.077 31.9299C98.7947 31.1728 98.3074 30.5091 97.6697 30.0129C97.6377 29.9855 97.6001 29.9656 97.5594 29.9547C96.3021 29.6019 95.1193 29.0239 94.0683 28.2489L90.3504 25.6765L87.0308 22.6416L85.3525 21.4809C85.1066 21.3104 84.8169 21.214 84.5178 21.2032C84.2187 21.1923 83.9228 21.2675 83.6651 21.4197C81.944 22.415 78.5172 24.9752 80.0484 28.8461Z" fill="#E1E7EF"/>
<path d="M82.6331 30.7412L86.3662 33.0105C87.144 29.8746 89.1224 27.6604 90.8404 25.9883L87.0307 22.6196C84.1337 24.0559 82.9822 28.8456 82.6331 30.7412Z" fill="#72EEE8"/>
<path opacity="0.1" d="M92.687 36.829C93.3795 37.1808 94.1434 37.3693 94.9201 37.3799C95.6967 37.3905 96.4655 37.223 97.1674 36.8903C97.6975 36.6518 98.1636 36.291 98.5272 35.8374C98.8908 35.3838 99.1416 34.8504 99.259 34.2811C99.4162 33.4885 99.35 32.6678 99.0677 31.9107C98.7854 31.1536 98.2982 30.4898 97.6604 29.9937C96.7332 30.3861 95.8751 30.9248 95.1186 31.5892C94.0632 32.503 93.2987 33.7061 92.9198 35.0497C92.7698 35.6311 92.6916 36.2287 92.687 36.829Z" fill="#12174E"/>
<path opacity="0.1" d="M60.3481 18.3204C60.3455 20.1517 60.7449 21.9613 61.5179 23.6214C62.2765 24.3768 62.8544 25.2939 63.2084 26.3041C64.0598 27.3393 64.3936 27.9242 65.5297 28.6408C65.986 28.16 67.015 27.8691 67.2018 27.2474C67.6765 25.6457 67.407 23.9338 67.3825 22.2648C67.3825 21.5237 67.4866 20.6478 68.1389 20.2926C68.681 19.9863 69.3639 20.2068 69.8968 20.5069C70.4297 20.8071 70.9594 21.196 71.5719 21.2664C72.4907 21.3706 73.3298 20.7244 73.8443 19.9649C74.3588 19.2054 74.6558 18.3173 75.1428 17.5394C75.7859 16.5135 76.7352 15.7265 77.6693 14.9609C78.7381 14.0789 79.7762 13.102 80.9154 12.3119C81.5953 11.8372 82.4099 11.6167 83.0806 11.1389L83.1878 11.0593C81.6464 8.88051 79.4517 7.24865 76.9214 6.39988C74.391 5.55112 71.6563 5.52947 69.1128 6.33807C66.5693 7.14667 64.3491 8.74358 62.7734 10.8977C61.1977 13.0518 60.3483 15.6515 60.3481 18.3204Z" fill="#12174E"/>
<path d="M85.1212 4.41959C84.8548 2.65562 83.394 0.99884 81.6117 0.968216C80.1387 0.943716 78.8831 1.94207 77.5785 2.625C76.2425 3.3135 74.7707 3.698 73.2687 3.75094C71.7666 3.80389 70.2715 3.52397 68.8903 2.93124C68.091 2.57906 67.2764 2.11051 66.4036 2.18401C65.5308 2.2575 64.8356 2.82712 64.2293 3.40898C62.7978 4.82737 61.6758 6.52704 60.9341 8.40076C60.7167 8.952 60.5176 9.53693 60.095 9.95342C59.7702 10.2199 59.4193 10.4529 59.0476 10.6486C58.4074 11.0736 57.8584 11.6222 57.433 12.2622C57.0076 12.9022 56.7142 13.6207 56.5701 14.3756C56.294 15.8937 56.45 17.4589 57.0203 18.8927C57.3653 19.8759 57.9274 20.7688 58.6648 21.5049C59.2222 22.0286 59.8898 22.4237 60.4747 22.9106C61.4272 23.7213 62.1534 24.7649 62.5828 25.9397C63.0121 27.1145 63.1299 28.3805 62.9247 29.6143C64.5539 29.9879 66.1157 28.5302 66.5996 26.9285C67.0835 25.3269 66.8048 23.618 66.7803 21.9459C66.7803 21.2048 66.8844 20.332 67.5367 19.9768C68.0788 19.6705 68.7617 19.891 69.2945 20.1912C69.8274 20.4913 70.3542 20.8771 70.9697 20.9506C71.8884 21.0548 72.7276 20.4086 73.242 19.6491C73.7565 18.8896 74.0505 18.0015 74.5405 17.2237C75.1806 16.1977 76.133 15.4107 77.067 14.6451C78.1358 13.7631 79.174 12.7862 80.3102 11.9961C80.9931 11.5214 81.8077 11.3009 82.4784 10.8232C84.4934 9.38074 85.1212 6.73479 85.1212 4.41959Z" fill="#12174E"/>
<path opacity="0.1" d="M75.3873 25.4434C75.3873 25.4434 75.5581 25.4831 75.8541 25.5655C75.7122 25.4838 75.551 25.4416 75.3873 25.4434Z" fill="#12174E"/>
<g opacity="0.1">
<path opacity="0.1" d="M65.9756 25.9396C66.4503 24.3379 66.1808 22.626 66.1563 20.957C66.1563 20.2159 66.2605 19.34 66.9128 18.9848C67.4548 18.6785 68.1377 18.899 68.6706 19.1991C69.2035 19.4993 69.7302 19.8882 70.3457 19.9586C71.2645 20.0627 72.1036 19.4196 72.6181 18.6571C73.1326 17.8945 73.4266 17.0095 73.9166 16.2316C74.5566 15.2057 75.509 14.4187 76.4431 13.6531C77.5119 12.7741 78.55 11.7942 79.6862 11.004C80.3691 10.5294 81.1837 10.3089 81.8544 9.83113C83.8817 8.37953 84.5095 5.73358 84.5095 3.42144C84.4412 2.97809 84.3038 2.5482 84.1022 2.14746C84.6421 2.76995 84.9956 3.53205 85.122 4.34629C85.122 6.65844 84.5095 9.30439 82.4669 10.756C81.7962 11.2337 80.9816 11.4542 80.2987 11.9289C79.1625 12.719 78.1244 13.699 77.0556 14.5779C76.1215 15.3435 75.1691 16.1306 74.529 17.1565C74.0391 17.9344 73.7481 18.8225 73.2306 19.5819C72.713 20.3414 71.8708 20.9876 70.9582 20.8835C70.3457 20.813 69.8251 20.4211 69.2831 20.124C68.741 19.8269 68.0581 19.6156 67.5252 19.9096C66.8729 20.2649 66.7566 21.1346 66.7688 21.8818C66.7933 23.5509 67.0751 25.2505 66.5881 26.8644C66.1012 28.4783 64.5486 29.9269 62.9132 29.5471C62.9647 29.2597 62.9964 28.9691 63.0081 28.6774C64.3709 28.561 65.5683 27.3146 65.9756 25.9396Z" fill="#12174E"/>
<path opacity="0.1" d="M58.0532 20.5134C58.6106 21.0371 59.2782 21.4321 59.8631 21.919C60.5071 22.4617 61.0477 23.1164 61.4586 23.8514C61.1668 23.4805 60.8374 23.1408 60.4756 22.8378C59.8876 22.3508 59.223 21.9558 58.6657 21.4321C58.2208 21.0046 57.8448 20.5108 57.551 19.9683C57.7062 20.1608 57.874 20.3429 58.0532 20.5134Z" fill="#12174E"/>
</g>
<path opacity="0.1" d="M74.9707 129.829C75.1943 130.494 75.5127 131.143 75.5556 131.844C75.6291 133.036 74.9003 134.147 74.8482 135.342C74.7869 136.732 75.6322 137.978 76.4407 139.108C75.4821 139.108 74.4348 138.778 73.9478 137.954C73.7811 137.637 73.6604 137.297 73.5895 136.946C72.7229 133.489 71.8807 129.707 73.3874 126.479C73.6184 125.92 73.9565 125.413 74.3827 124.984C74.6369 126.614 74.4225 128.215 74.9707 129.829Z" fill="#12174E"/>
<path opacity="0.1" d="M98.9257 105.428L101.471 101.995C102.083 101.166 102.717 100.302 102.938 99.2944C103.176 98.1888 102.898 97.0435 102.861 95.9257C102.861 95.8001 102.861 95.6715 102.861 95.5429C102.827 95.4691 102.788 95.3975 102.745 95.3285C102.42 94.7957 102.062 93.733 101.685 92.312C101.314 92.6807 101.026 93.1245 100.84 93.6135C99.6546 96.5045 100.751 99.8977 99.771 102.862C99.4892 103.713 99.0298 104.528 98.9257 105.428Z" fill="#12174E"/>
<path opacity="0.1" d="M92.445 209.349C91.1875 210.25 89.7518 210.872 88.2343 211.172C86.7168 211.473 85.1525 211.445 83.6465 211.092" fill="#12174E"/>
<path opacity="0.1" d="M71.3602 209.854C70.7163 210.457 69.9556 210.922 69.125 211.219C68.2943 211.517 67.4116 211.641 66.5312 211.583C65.6508 211.526 64.7916 211.288 64.0066 210.886C63.2217 210.483 62.5277 209.923 61.9677 209.242" fill="#12174E"/>
<path opacity="0.1" d="M84.7988 163.688C86.02 163.969 87.2996 163.848 88.4458 163.341C89.5919 162.834 90.543 161.969 91.1565 160.876" fill="#12174E"/>
<path opacity="0.1" d="M70.2831 171.427C68.3427 171.57 66.4125 171.04 64.8167 169.927L70.2831 171.427Z" fill="#12174E"/>
<path opacity="0.1" d="M80.1885 189.93C81.8208 190.595 83.2755 191.627 84.8649 192.38C86.4543 193.133 88.2948 193.63 89.9792 193.103" fill="#12174E"/>
<rect x="0.000244141" y="106.731" width="9.22547" height="11.2756" fill="#C4C4C4" fill-opacity="0.01"/>
<g opacity="0.4" filter="url(#filter0_f)">
<path d="M300.048 118.357C314.08 118.357 325.455 117.555 325.455 116.564C325.455 115.573 314.08 114.771 300.048 114.771C286.015 114.771 274.64 115.573 274.64 116.564C274.64 117.555 286.015 118.357 300.048 118.357Z" fill="#12174E"/>
</g>
<path opacity="0.1" d="M317.12 105.847C317.042 105.847 316.968 105.829 316.893 105.815C316.97 105.807 317.048 105.818 317.12 105.847Z" fill="#12174E"/>
<path d="M206.248 122.458L206.135 128.676L205.212 179.094L197.312 197.597L170.083 197.908V125.32L198.5 123.071L206.248 122.458Z" fill="#12174E"/>
<path opacity="0.1" d="M206.248 122.458L206.135 128.676L205.212 179.094L197.312 197.597L170.083 197.908V125.32L198.5 123.071L206.248 122.458Z" fill="#12174E"/>
<path d="M206.248 122.458L206.135 128.676L205.212 179.094L197.312 197.597L199.391 128.796L199.384 128.75L198.5 123.071L206.248 122.458Z" fill="#12174E"/>
<path opacity="0.1" d="M198.5 123.071L206.248 122.458L206.135 128.676L199.384 128.75L170.083 129.078V125.32L198.5 123.071Z" fill="#12174E"/>
<path d="M450.999 125.32V197.488H444.661L419.3 178.991V123.286L441.957 121.157L443.346 121.795L444.661 122.401L450.999 125.32Z" fill="#12174E"/>
<path opacity="0.1" d="M451 121.795H444.662V197.489H451V121.795Z" fill="#12174E"/>
<path d="M451 119.44V125.32L139.53 128.796V121.312L168.835 115.386L423.873 113.518L451 119.44Z" fill="#12174E"/>
<path opacity="0.1" d="M451 119.44V125.32L139.53 128.796V121.312L451 119.44Z" fill="#12174E"/>
<path d="M236.783 149.683C236.783 149.683 239.008 152.591 235.757 156.984C232.507 161.376 229.824 165.092 230.907 167.82C230.907 167.82 235.814 159.663 239.804 159.55C243.795 159.437 241.162 154.587 236.783 149.683Z" fill="#229993"/>
<path opacity="0.1" d="M236.783 149.683C236.976 149.964 237.129 150.27 237.238 150.593C241.133 155.175 243.209 159.444 239.462 159.55C235.976 159.649 231.791 165.896 230.79 167.461C230.822 167.58 230.861 167.698 230.906 167.813C230.906 167.813 235.814 159.656 239.804 159.543C243.795 159.43 241.161 154.587 236.783 149.683Z" fill="#12174E"/>
<path d="M240.904 153.389C240.904 154.414 240.788 155.243 240.647 155.243C240.506 155.243 240.389 154.414 240.389 153.389C240.389 152.363 240.534 152.849 240.675 152.849C240.816 152.849 240.904 152.366 240.904 153.389Z" fill="#FFD037"/>
<path d="M242.321 154.611C241.422 155.101 240.639 155.397 240.558 155.273C240.477 155.15 241.164 154.649 242.063 154.159C242.962 153.669 242.606 154.025 242.673 154.159C242.74 154.293 243.22 154.121 242.321 154.611Z" fill="#FFD037"/>
<path d="M225.02 149.683C225.02 149.683 222.792 152.591 226.045 156.984C229.299 161.376 231.978 165.092 230.893 167.82C230.893 167.82 225.989 159.663 221.995 159.55C218.001 159.437 220.627 154.587 225.02 149.683Z" fill="#229993"/>
<path opacity="0.1" d="M225.02 149.683C224.825 149.963 224.672 150.269 224.565 150.593C220.666 155.175 218.593 159.444 222.337 159.55C225.827 159.649 230.011 165.896 231.012 167.461C230.977 167.584 230.938 167.704 230.893 167.813C230.893 167.813 225.989 159.656 221.995 159.543C218.001 159.43 220.627 154.587 225.02 149.683Z" fill="#12174E"/>
<path d="M220.882 153.389C220.882 154.414 220.998 155.243 221.139 155.243C221.28 155.243 221.396 154.414 221.396 153.389C221.396 152.363 221.252 152.849 221.111 152.849C220.97 152.849 220.882 152.366 220.882 153.389Z" fill="#FFD037"/>
<path d="M219.464 154.611C220.363 155.101 221.146 155.397 221.227 155.273C221.308 155.15 220.624 154.649 219.725 154.159C218.826 153.669 219.179 154.025 219.112 154.159C219.045 154.293 218.565 154.121 219.464 154.611Z" fill="#FFD037"/>
<path opacity="0.1" d="M230.896 190.075C243.742 190.075 254.156 188.476 254.156 186.504C254.156 184.531 243.742 182.933 230.896 182.933C218.051 182.933 207.637 184.531 207.637 186.504C207.637 188.476 218.051 190.075 230.896 190.075Z" fill="#229993"/>
<path d="M242.864 163.901L242.752 164.81L242.597 166.093L242.533 166.626L242.378 167.912L242.308 168.445L242.152 169.728L240.372 184.319C240.214 185.623 238.088 186.638 235.518 186.638H226.268C223.701 186.638 221.576 185.623 221.417 184.319L219.633 169.728L219.478 168.445L219.415 167.912L219.253 166.626L219.189 166.093L219.034 164.81L218.921 163.901C218.833 163.164 219.979 162.543 221.438 162.543H240.351C241.803 162.543 242.956 163.164 242.864 163.901Z" fill="#12174E"/>
<path d="M242.756 164.806L242.597 166.089H219.193L219.034 164.806H242.756Z" fill="#9D9CB5"/>
<path d="M242.533 166.625L242.378 167.908H219.415L219.256 166.625H242.533Z" fill="#9D9CB5"/>
<path d="M242.311 168.444L242.156 169.727H219.637L219.478 168.444H242.311Z" fill="#9D9CB5"/>
<path d="M288.72 220.857C305.292 220.857 318.726 216.982 318.726 212.202C318.726 207.423 305.292 203.548 288.72 203.548C272.148 203.548 258.713 207.423 258.713 212.202C258.713 216.982 272.148 220.857 288.72 220.857Z" fill="#12174E"/>
<path opacity="0.1" d="M288.72 211.145C292.035 211.145 294.723 210.37 294.723 209.414C294.723 208.459 292.035 207.684 288.72 207.684C285.404 207.684 282.716 208.459 282.716 209.414C282.716 210.37 285.404 211.145 288.72 211.145Z" fill="#12174E"/>
<path d="M291.551 163.763H285.382V209.414H291.551V163.763Z" fill="#12174E"/>
<path opacity="0.1" d="M291.551 166.022V171.31C290.317 170.929 287.501 169.325 285.382 168.063V163.763H286.669L291.551 166.022Z" fill="#12174E"/>
<path d="M277.016 143.888C277.016 143.888 297.385 138.646 302.454 134.722C307.523 130.799 327.43 149.264 324.8 156.226C322.17 163.188 312.596 168.24 312.596 168.24C312.596 168.24 286.114 172.548 281.609 163.562C277.104 154.576 277.016 143.888 277.016 143.888Z" fill="#12174E"/>
<path opacity="0.1" d="M277.016 143.888C277.016 143.888 297.385 138.646 302.454 134.722C307.523 130.799 327.43 149.264 324.8 156.226C322.17 163.188 312.596 168.24 312.596 168.24C312.596 168.24 286.114 172.548 281.609 163.562C277.104 154.576 277.016 143.888 277.016 143.888Z" fill="#12174E"/>
<path d="M275.254 141.773C275.254 141.773 295.623 136.531 300.692 132.607C305.761 128.683 325.668 147.149 323.038 154.111C320.408 161.073 310.834 166.125 310.834 166.125C310.834 166.125 284.352 170.433 279.847 161.447C275.342 152.461 275.254 141.773 275.254 141.773Z" fill="#12174E"/>
<path d="M256.775 126.163C254.741 125.666 249.132 125.208 246.463 134.158C245.842 136.237 245.051 138.261 244.098 140.211C241.535 145.467 238.232 156.272 252.774 158.651L287.673 166.583C287.673 166.583 306.357 168.874 307.591 167.993C308.824 167.112 308.648 165.173 308.648 165.173C308.648 165.173 288.026 165.173 283.972 158.827C279.918 152.482 279.741 143.845 279.741 143.845C279.741 143.845 280.249 130.509 258.943 126.635C258.224 126.505 257.497 126.339 256.775 126.163Z" fill="#12174E"/>
<path opacity="0.1" d="M256.775 126.222C254.741 125.725 249.132 125.267 246.463 134.218C245.842 136.298 245.05 138.323 244.098 140.274C241.535 145.526 238.232 156.335 252.774 158.714L287.673 166.646C287.673 166.646 306.357 168.937 307.591 168.056C308.824 167.175 308.648 165.236 308.648 165.236C308.648 165.236 288.026 165.236 283.972 158.891C279.918 152.545 279.741 143.908 279.741 143.908C279.741 143.908 280.249 130.573 258.943 126.698C258.224 126.564 257.497 126.399 256.775 126.222Z" fill="#12174E"/>
<path d="M329.934 117.043C329.732 115.752 329.068 114.579 328.067 113.741C327.065 112.902 325.793 112.456 324.487 112.485C320.007 112.569 307.214 113.112 299.416 116.56C297.703 117.318 295.986 118.055 294.223 118.675C292.63 119.243 290.73 120.148 289.789 121.449C288.848 122.75 266.699 139.78 298.602 156.173C298.602 156.173 315.699 161.041 322.397 149.619C322.397 149.619 327.156 137.348 326.803 133.1C326.451 128.852 329.976 117.395 329.976 117.395C329.976 117.395 329.969 117.275 329.934 117.043Z" fill="#12174E"/>
<path opacity="0.1" d="M329.933 120.131C329.531 117.664 327.183 115.88 324.486 115.926C319.466 116.01 304.015 116.631 296.838 120.956C296.838 120.956 291.374 124.21 289.788 124.21C288.201 124.21 266.698 141.131 298.601 156.265C298.601 156.265 315.698 160.756 322.396 150.212C322.396 150.212 327.155 138.885 326.802 134.965C326.45 131.045 329.975 120.466 329.975 120.466C329.975 120.466 329.968 120.343 329.933 120.131Z" fill="#12174E"/>
<path d="M312.879 156.184H307.238V168.194H312.879V156.184Z" fill="#12174E"/>
<defs>
<filter id="filter0_f" x="273.337" y="113.468" width="53.4214" height="6.19272" filterUnits="userSpaceOnUse" color-interpolation-filters="sRGB">
<feFlood flood-opacity="0" result="BackgroundImageFix"/>
<feBlend mode="normal" in="SourceGraphic" in2="BackgroundImageFix" result="shape"/>
<feGaussianBlur stdDeviation="0.651434" result="effect1_foregroundBlur"/>
</filter>
<linearGradient id="paint0_linear" x1="75.3409" y1="220.827" x2="75.3409" y2="0.00655464" gradientUnits="userSpaceOnUse">
<stop stop-color="#808080" stop-opacity="0.25"/>
<stop offset="0.54" stop-color="#808080" stop-opacity="0.12"/>
<stop offset="1" stop-color="#808080" stop-opacity="0.1"/>
</linearGradient>
</defs>
</svg>
