<svg width="115" height="49" viewBox="0 0 115 49" fill="none" xmlns="http://www.w3.org/2000/svg">
<path d="M53.1694 5.38583L57.1222 0.457722H55.6883L51.8515 4.87377H51.5025V0.458643H49.9516V10.9227H51.5025V6.04064L51.9289 6.01669L55.4562 10.9052H57.2769L53.1694 5.38583Z" fill="#EFF9FF"/>
<path d="M61.668 9.84608C60.4366 9.84608 59.4374 9.22535 59.4374 6.95332C59.4374 4.68221 60.4366 4.06147 61.668 4.06147C62.9002 4.06147 63.8995 4.80562 63.8995 6.95332C63.8995 9.10102 62.9002 9.84608 61.668 9.84608ZM61.668 2.98486C59.6197 2.98486 57.9583 3.83584 57.9583 6.95332C57.9583 10.0717 59.6197 10.9227 61.668 10.9227C63.7171 10.9227 65.3786 9.90134 65.3786 6.95332C65.3786 4.00621 63.7171 2.98486 61.668 2.98486Z" fill="#EFF9FF"/>
<path d="M70.9274 3.09906C69.6693 3.09906 69.0587 3.3422 68.7649 3.60559V3.07972H67.2518V10.9227H68.7649V4.90784C69.0606 4.56524 69.591 4.20054 70.4752 4.20054C72.0086 4.20054 72.3613 4.78996 72.3613 5.36004V10.9034H73.7575V5.00639C73.7575 5.00639 73.6792 3.09906 70.9274 3.09906Z" fill="#EFF9FF"/>
<path d="M79.5284 3.03091C78.682 3.03091 78.0244 3.37811 77.6266 3.65717V3.03091H76.0784V10.9227H77.6266V5.04415C77.9747 4.43723 78.7124 4.2033 79.1517 4.2033C79.6601 4.2033 80.2578 4.31382 80.2578 4.31382V3.34128C80.2578 3.34128 79.9925 3.03091 79.5284 3.03091Z" fill="#EFF9FF"/>
<path d="M85.91 9.2143C85.1041 10.0358 84.1629 10.0533 84.1629 10.0533C84.1629 10.0533 82.6221 10.2928 82.6221 8.76855C82.6221 7.24342 85.91 6.83267 85.91 6.83267V9.2143ZM84.4714 3.01341C81.7647 3.01341 81.6284 3.73269 81.6284 3.73269V4.81207C81.6284 4.81207 82.5871 4.04121 84.3517 4.04121C86.1163 4.04121 85.9275 4.98336 85.9275 4.98336C85.9275 4.98336 86.0978 5.51384 85.6355 5.72014C85.1732 5.92551 81.1311 6.40442 81.1311 8.87078C81.1311 11.3381 83.8212 10.8923 83.8212 10.8923C83.8212 10.8923 85.3104 10.8232 85.91 10.4816V10.8923L87.3494 10.8757V4.55511C87.3494 4.55511 87.1772 3.01341 84.4714 3.01341Z" fill="#EFF9FF"/>
<path d="M93.1421 10.022C91.7109 10.022 90.6324 9.04207 90.6324 7.08225C90.6324 5.12243 91.5359 4.10292 93.1614 4.10292C94.0879 4.10292 94.5686 4.45288 94.8109 4.75404V9.20048C94.6525 9.47769 94.2085 10.022 93.1421 10.022ZM94.8109 0V3.53284C94.5567 3.35969 93.9359 3.02538 92.9459 3.02538C91.6133 3.02538 89.1432 3.61296 89.1432 7.06291C89.1432 10.5119 90.8286 10.9227 92.6319 10.9227C93.7785 10.9227 94.4618 10.5994 94.8109 10.3627V10.8509H96.2255V0H94.8109Z" fill="#EFF9FF"/>
<path d="M62.6331 27.1226C61.2029 27.1226 60.1244 26.1427 60.1244 24.1829C60.1244 22.2231 61.027 21.2036 62.6525 21.2036C63.5799 21.2036 64.0597 21.5535 64.3019 21.8547V26.3011C64.1445 26.5783 63.6996 27.1226 62.6331 27.1226ZM64.3019 17.1006V20.6326C64.0478 20.4603 63.427 20.126 62.437 20.126C61.1043 20.126 58.6352 20.7136 58.6352 24.1626C58.6352 27.6126 60.3206 28.0243 62.1229 28.0243C63.2705 28.0243 63.9538 27.7001 64.3019 27.4634V27.9515H65.7175V17.1006H64.3019Z" fill="#EFF9FF"/>
<path d="M80.2053 20.2006C78.9472 20.2006 78.3385 20.4438 78.0428 20.7062V20.1813H76.5297V28.0243H78.0428V22.0094C78.3403 21.6668 78.8699 21.3021 79.7531 21.3021C81.2865 21.3021 81.6411 21.8915 81.6411 22.4616V28.0049H83.0363V22.1079C83.0363 22.1079 82.9571 20.2006 80.2053 20.2006Z" fill="#EFF9FF"/>
<path d="M90.4281 37.2486C89.1691 37.2486 88.5594 37.4917 88.2647 37.7542V37.2283H86.7506V45.0722H88.2647V39.0573C88.5613 38.7147 89.0908 38.3491 89.9749 38.3491C91.5084 38.3491 91.862 38.9385 91.862 39.5086V45.0528H93.2582V39.155C93.2582 39.155 93.1799 37.2486 90.4281 37.2486Z" fill="#EFF9FF"/>
<path d="M96.0305 28.0049C97.2886 28.0049 97.8973 27.7618 98.192 27.4993V28.0243H99.7061V20.1813H98.192V26.1961C97.8955 26.5387 97.3659 26.9044 96.4818 26.9044C94.9493 26.9044 94.5947 26.314 94.5947 25.7439V20.2006H93.1985V26.0976C93.1985 26.0976 93.2777 28.0049 96.0305 28.0049Z" fill="#EFF9FF"/>
<path d="M80.7754 45.0528C82.0334 45.0528 82.6422 44.8097 82.9378 44.5472V45.0722H84.4509V37.2283H82.9378V43.2441C82.6403 43.5867 82.1117 43.9514 81.2276 43.9514C79.6941 43.9514 79.3405 43.3619 79.3405 42.7919V37.2486H77.9452V43.1455C77.9452 43.1455 78.0235 45.0528 80.7754 45.0528Z" fill="#EFF9FF"/>
<path d="M89.3691 26.3148C88.5642 27.1354 87.6229 27.1538 87.6229 27.1538C87.6229 27.1538 86.0812 27.3933 86.0812 25.8691C86.0812 24.3449 89.3691 23.9332 89.3691 23.9332V26.3148ZM87.9315 20.114C85.2247 20.114 85.0884 20.8342 85.0884 20.8342V21.9126C85.0884 21.9126 86.0471 21.1418 87.8117 21.1418C89.5754 21.1418 89.3875 22.0839 89.3875 22.0839C89.3875 22.0839 89.5579 22.6153 89.0956 22.8207C88.6332 23.0261 84.5911 23.5059 84.5911 25.9713C84.5911 28.4386 87.2812 27.9928 87.2812 27.9928C87.2812 27.9928 88.7705 27.9238 89.3691 27.5821V27.9928L90.8095 27.9763V21.6557C90.8095 21.6557 90.6373 20.114 87.9315 20.114Z" fill="#EFF9FF"/>
<path d="M114.126 20.1325C113.279 20.1325 112.622 20.4788 112.225 20.7587V20.1325H110.676V28.0243H112.225V22.1457C112.572 21.5379 113.31 21.3039 113.75 21.3039C114.257 21.3039 114.855 21.4145 114.855 21.4145V20.4419C114.855 20.4419 114.59 20.1325 114.126 20.1325Z" fill="#EFF9FF"/>
<path d="M51.7594 23.0685L53.2311 18.8864L54.6642 23.0685H51.7594ZM54.0443 17.3382H52.4953L48.5462 28.0243H50.0179L51.4113 24.1525L55.0114 24.1912L56.2123 27.9469H57.9161L54.0443 17.3382Z" fill="#EFF9FF"/>
<path d="M74.0616 26.454C74.1085 26.3536 74.0616 26.2781 74.0616 26.2781V26.454ZM71.248 20.9742C73.2226 20.9742 73.2898 23.1265 73.2898 23.1265L69.0671 23.1035C69.0671 23.1035 69.2744 20.9742 71.248 20.9742ZM71.6228 26.9366C68.7568 26.9366 69.0671 24.1488 69.0671 24.1488H74.5266C74.5266 20.045 72.087 19.9289 71.1973 19.9289C70.3068 19.9289 67.5577 20.6261 67.5577 23.9941C67.5577 27.363 69.9126 28.0243 71.5003 28.0243C73.0872 28.0243 74.2319 27.4606 74.2319 27.4606L74.2209 26.1814C74.1306 26.3766 73.5191 26.9366 71.6228 26.9366Z" fill="#EFF9FF"/>
<path d="M108.109 26.454C108.155 26.3536 108.109 26.2781 108.109 26.2781V26.454ZM105.295 20.9742C107.27 20.9742 107.337 23.1265 107.337 23.1265L103.113 23.1035C103.113 23.1035 103.322 20.9742 105.295 20.9742ZM105.669 26.9366C102.804 26.9366 103.113 24.1488 103.113 24.1488H108.573C108.573 20.045 106.133 19.9289 105.243 19.9289C104.354 19.9289 101.604 20.6261 101.604 23.9941C101.604 27.363 103.96 28.0243 105.548 28.0243C107.134 28.0243 108.278 27.4606 108.278 27.4606L108.268 26.1814C108.178 26.3766 107.566 26.9366 105.669 26.9366Z" fill="#EFF9FF"/>
<path d="M101.078 38.6991V43.1456C100.835 43.4467 100.356 43.7967 99.4289 43.7967C97.8024 43.7967 96.9008 42.7781 96.9008 40.8174C96.9008 38.8575 97.9783 37.8786 99.4095 37.8786C100.476 37.8786 100.92 38.4219 101.078 38.6991ZM95.8067 47.2568C95.8067 47.2568 96.1318 48.07 98.8137 48.07C102.267 48.07 102.494 45.6322 102.494 45.6322V37.0488H101.078V37.5369C100.73 37.3011 100.046 36.9769 98.8993 36.9769C97.097 36.9769 95.4107 37.3886 95.4107 40.8367C95.4107 44.2876 97.8798 44.8742 99.2134 44.8742C100.203 44.8742 100.824 44.5399 101.078 44.3668C101.078 44.3668 101.535 47.0136 98.8947 47.0542C97.1071 47.0542 95.8039 46.1829 95.8039 46.1829L95.8067 47.2568Z" fill="#EFF9FF"/>
<path d="M61.5806 38.0655V36.987H59.0204V34.9646H57.6057V36.987H56.3256V38.0655H57.6057V43.3205C57.6057 43.3205 57.6067 45.0722 59.7627 45.0722C61.9186 45.0722 61.5134 44.5997 61.5134 44.5997V43.7239C61.5134 43.7239 60.9737 43.9265 60.0316 43.9265C59.0885 43.9265 59.0204 42.9843 59.0204 42.9843V38.0655H61.5806Z" fill="#EFF9FF"/>
<path d="M69.8057 35.1672C70.5913 35.1672 70.6696 35.2353 70.6742 35.2593L70.653 34.2766C70.653 34.2766 70.1152 34.0215 69.5368 34.0215C67.3808 34.0215 67.3799 35.7741 67.3799 35.7741V37.2568H66.1007V38.3344H67.3799V45.0722H68.7954V38.3344H70.4127V37.2568H68.7954V36.1112C68.7954 36.1112 68.8636 35.1672 69.8057 35.1672Z" fill="#EFF9FF"/>
<path d="M76.5206 38.0655V36.987H73.9612V34.9646H72.5457V36.987H71.2646V38.0655H72.5457V43.3205C72.5457 43.3205 72.5466 45.0722 74.7017 45.0722C76.8576 45.0722 76.4533 44.5997 76.4533 44.5997V43.7239C76.4533 43.7239 75.9146 43.9265 74.9706 43.9265C74.0284 43.9265 73.9612 42.9843 73.9612 42.9843V38.0655H76.5206Z" fill="#EFF9FF"/>
<path d="M64.617 45.0722H63.2015V37.209H64.617V45.0722Z" fill="#EFF9FF"/>
<path d="M64.7745 34.9287C64.7745 35.4067 64.3868 35.7944 63.9097 35.7944C63.4317 35.7944 63.044 35.4067 63.044 34.9287C63.044 34.4516 63.4317 34.0639 63.9097 34.0639C64.3868 34.0639 64.7745 34.4516 64.7745 34.9287Z" fill="#EFF9FF"/>
<path d="M55.1375 34.9065V36.253C55.1375 36.253 54.3787 35.4444 52.7375 35.4444C51.0954 35.4444 51.0217 36.4989 51.0217 36.8415C51.0217 37.919 52.0504 38.3602 53.2505 39.0702C54.4514 39.7803 55.3825 40.32 55.3825 41.9114C55.3825 43.5047 54.6964 45.0722 51.9031 45.0722C50.0179 45.0722 49.3566 44.2884 49.3566 44.2884V43.0387C49.3566 43.0387 50.3356 43.8473 51.9031 43.8473C53.4715 43.8473 53.9366 42.72 53.9366 42.2549C53.9366 41.7899 53.9126 41.0779 51.7327 40.0004C49.5519 38.9229 49.5519 37.8205 49.5519 36.8166C49.5519 35.8118 50.1155 34.1955 52.7854 34.1955C54.4275 34.1955 55.1375 34.9065 55.1375 34.9065Z" fill="#EFF9FF"/>
<path d="M33.7774 7.25447V23.7168H21.7275C22.42 22.771 32.7211 8.69763 33.7774 7.25447ZM20.4206 24.3799H34.4405V5.22558L20.4206 24.3799Z" fill="#EFF9FF"/>
<path d="M43.3647 43.9873H34.4323V31.0192H15.1472L6.0259 43.9873H0.662177V1.28476H43.3647V43.9873ZM6.84096 43.98C7.5105 43.0277 15.3056 31.9475 15.4916 31.6832H33.7692V43.98H6.84096ZM0 44.6504H44.0278V0.621666H0V44.6504Z" fill="#EFF9FF"/>
</svg>
