<svg width="395" height="351" viewBox="0 0 395 351" fill="none" xmlns="http://www.w3.org/2000/svg">
<g opacity="0.4">
<rect opacity="0.4" x="15.8854" y="253.224" width="309.008" height="34.4232" transform="rotate(-25.0264 15.8854 253.224)" fill="url(#paint0_linear)"/>
<rect opacity="0.4" x="324.115" y="168.965" width="341.627" height="34.4232" transform="rotate(154.974 324.115 168.965)" fill="url(#paint1_linear)"/>
<rect opacity="0.4" x="51.7733" y="319.499" width="309.008" height="34.4232" transform="rotate(-25.5449 51.7733 319.499)" fill="url(#paint2_linear)"/>
<rect opacity="0.4" x="98.3334" y="314.635" width="309.008" height="39.4806" transform="rotate(-25.5449 98.3334 314.635)" fill="url(#paint3_linear)"/>
<rect opacity="0.4" x="19.2824" y="304.663" width="309.008" height="34.4232" transform="rotate(-25.0264 19.2824 304.663)" fill="url(#paint4_linear)"/>
</g>
<path d="M119.017 78.6929H76.1113C74.2789 78.6929 72.7935 80.1783 72.7935 82.0107V165.6C72.7935 167.433 74.2789 168.918 76.1113 168.918H119.017C120.85 168.918 122.335 167.433 122.335 165.6V82.0107C122.335 80.1783 120.85 78.6929 119.017 78.6929Z" fill="url(#paint5_linear)"/>
<path d="M117.876 80.1763H77.2526C75.4202 80.1763 73.9348 81.6617 73.9348 83.4941V163.504C73.9348 165.336 75.4202 166.821 77.2526 166.821H117.876C119.708 166.821 121.194 165.336 121.194 163.504V83.4941C121.194 81.6617 119.708 80.1763 117.876 80.1763Z" fill="#12174E"/>
<path d="M115.993 86.1393L79.4039 86.1904L79.5024 156.701L116.091 156.65L115.993 86.1393Z" fill="url(#paint6_linear)"/>
<path d="M97.8048 164.744C99.4155 164.742 100.719 163.402 100.717 161.751C100.715 160.1 99.4071 158.763 97.7964 158.765C96.1858 158.768 94.8819 160.108 94.8842 161.759C94.8865 163.41 96.1941 164.746 97.8048 164.744Z" fill="#DBDBDB"/>
<path d="M92.1538 83.4783C92.4763 83.4778 92.7374 83.2101 92.7369 82.8803C92.7365 82.5504 92.4747 82.2834 92.1522 82.2839C91.8297 82.2843 91.5686 82.5521 91.5691 82.8819C91.5695 83.2117 91.8313 83.4787 92.1538 83.4783Z" fill="#DBDBDB"/>
<path d="M103.489 82.4175L95.1086 82.4292C94.9253 82.4295 94.777 82.5782 94.7773 82.7615L94.7776 82.9937C94.7778 83.177 94.9266 83.3253 95.1098 83.325L103.491 83.3133C103.674 83.3131 103.822 83.1643 103.822 82.9811L103.822 82.7488C103.821 82.5656 103.673 82.4173 103.489 82.4175Z" fill="#DBDBDB"/>
<path d="M108.105 127.054H87.3885V148.805H108.105V127.054Z" fill="url(#paint7_linear)"/>
<path d="M107.206 128H88.291V147.86H107.206V128Z" fill="#6C63FF"/>
<g opacity="0.5">
<path opacity="0.5" d="M99.1801 137V136.625H100.175V134.704C100.477 134.247 100.651 133.717 100.679 133.169C100.706 132.622 100.588 132.077 100.334 131.591C100.081 131.105 99.7022 130.695 99.2375 130.405C98.7727 130.114 98.2388 129.953 97.6909 129.938C97.143 129.923 96.601 130.055 96.1211 130.32C95.6412 130.585 95.2408 130.973 94.9613 131.444C94.6817 131.916 94.5333 132.453 94.5313 133.001C94.5293 133.55 94.6738 134.088 94.9499 134.562V136.625H96.0481V137.067C94.703 137.438 93.5167 138.24 92.6711 139.349C91.8255 140.459 91.3672 141.816 91.3666 143.211V148.805H104.137V143.211C104.136 141.768 103.645 140.367 102.745 139.239C101.844 138.11 100.588 137.321 99.1801 137Z" fill="url(#paint8_linear)"/>
</g>
<path d="M99.9532 133.105H95.2253V136.888H99.9532V133.105Z" fill="#F55F44"/>
<path d="M96.2472 137.087H99.2332C100.365 137.087 101.45 137.536 102.25 138.337C103.05 139.137 103.5 140.222 103.5 141.354V147.916H91.9805V141.347C91.9822 140.217 92.4325 139.133 93.2325 138.334C94.0325 137.536 95.1167 137.087 96.2472 137.087Z" fill="#FDD835"/>
<path d="M97.9956 135.196H97.2624C96.6852 135.196 96.2173 135.664 96.2173 136.241V137.681C96.2173 138.258 96.6852 138.726 97.2624 138.726H97.9956C98.5728 138.726 99.0408 138.258 99.0408 137.681V136.241C99.0408 135.664 98.5728 135.196 97.9956 135.196Z" fill="#FDA57D"/>
<path d="M97.0899 138.62L97.6174 139.389L98.1715 138.62H97.0899Z" fill="#FDA57D"/>
<path opacity="0.1" d="M94.1503 141.4C94.1503 141.4 93.5896 146.98 93.9512 147.342L94.1503 141.4Z" fill="#12174E"/>
<path opacity="0.1" d="M101.085 141.4C101.085 141.4 101.645 146.98 101.284 147.342L101.085 141.4Z" fill="#12174E"/>
<path opacity="0.05" d="M97.6307 136.911C98.1323 136.912 98.6207 136.751 99.0242 136.453C98.9714 136.122 98.8021 135.819 98.5468 135.601C98.2914 135.383 97.9667 135.263 97.6307 135.262C97.2948 135.263 96.9701 135.383 96.7147 135.601C96.4593 135.819 96.2901 136.122 96.2372 136.453C96.6407 136.751 97.1292 136.912 97.6307 136.911Z" fill="#12174E"/>
<path d="M97.6307 136.403C99.1681 136.403 100.414 135.157 100.414 133.62C100.414 132.082 99.1681 130.836 97.6307 130.836C96.0933 130.836 94.847 132.082 94.847 133.62C94.847 135.157 96.0933 136.403 97.6307 136.403Z" fill="#F55F44"/>
<path d="M97.6307 136.841C98.9299 136.841 99.9831 135.788 99.9831 134.489C99.9831 133.19 98.9299 132.137 97.6307 132.137C96.3316 132.137 95.2784 133.19 95.2784 134.489C95.2784 135.788 96.3316 136.841 97.6307 136.841Z" fill="#FDA57D"/>
<path d="M95.2717 134.635C95.3633 134.635 95.4376 134.501 95.4376 134.336C95.4376 134.171 95.3633 134.038 95.2717 134.038C95.1801 134.038 95.1058 134.171 95.1058 134.336C95.1058 134.501 95.1801 134.635 95.2717 134.635Z" fill="#FDA57D"/>
<path d="M99.993 134.635C100.085 134.635 100.159 134.501 100.159 134.336C100.159 134.171 100.085 134.038 99.993 134.038C99.9014 134.038 99.8271 134.171 99.8271 134.336C99.8271 134.501 99.9014 134.635 99.993 134.635Z" fill="#FDA57D"/>
<path d="M113.712 90.7236H81.7814V92.1105H113.712V90.7236Z" fill="white"/>
<path d="M113.712 93.4971H81.7814V94.8839H113.712V93.4971Z" fill="white"/>
<path d="M99.8304 96.2744H81.7814V97.6613H99.8304V96.2744Z" fill="white"/>
<path d="M108.158 99.0513H81.7814V100.438H108.158V99.0513Z" fill="white"/>
<path d="M103.994 101.828H81.7814V103.215H103.994V101.828Z" fill="white"/>
<path d="M113.712 104.605H81.7814V105.992H113.712V104.605Z" fill="white"/>
<path d="M110.939 108.769H83.1716V119.874H110.939V108.769Z" fill="white"/>
<path d="M279.063 164.668C279.063 164.668 283.708 196.582 310.977 207.183L255.802 207.259L200.626 207.335C227.852 196.658 232.427 164.731 232.427 164.731L279.063 164.668Z" fill="#12174E"/>
<path d="M311.469 207.176L200.076 207.332L200.086 214.073L311.479 213.918L311.469 207.176Z" fill="url(#paint9_linear)"/>
<path d="M310.985 207.176L200.634 207.331L200.641 212.533L310.992 212.379L310.985 207.176Z" fill="#12174E"/>
<path d="M345.343 49.8281L165.882 50.077C164.906 50.1004 163.979 50.5107 163.305 51.2175C162.631 51.9243 162.265 52.8698 162.289 53.846L162.428 158.55V162.037C162.428 170 168.609 176.433 176.214 176.423L335.34 176.204C342.941 176.204 349.096 169.738 349.086 161.782V158.298L348.946 53.5939C348.957 53.1099 348.873 52.6286 348.698 52.1773C348.523 51.7261 348.26 51.3138 347.925 50.964C347.591 50.6143 347.191 50.3339 346.747 50.139C346.304 49.9441 345.827 49.8385 345.343 49.8281Z" fill="url(#paint10_linear)" fill-opacity="0.67"/>
<path d="M168.012 53.335H343.024C343.97 53.335 344.877 53.7107 345.546 54.3796C346.215 55.0485 346.591 55.9557 346.591 56.9016V156.543H164.442V56.9016C164.442 56.433 164.534 55.9689 164.714 55.536C164.893 55.103 165.156 54.7097 165.488 54.3784C165.819 54.0472 166.213 53.7846 166.646 53.6055C167.079 53.4265 167.543 53.3345 168.012 53.335Z" fill="#12174E"/>
<path d="M334.119 173.105L177.398 173.321C175.728 173.323 174.075 172.996 172.531 172.359C170.988 171.722 169.585 170.788 168.403 169.609C167.221 168.43 166.283 167.029 165.642 165.488C165.001 163.946 164.67 162.293 164.667 160.623V156.31L346.816 156.058V160.371C346.819 162.041 346.493 163.695 345.856 165.239C345.219 166.783 344.285 168.186 343.105 169.368C341.926 170.551 340.526 171.49 338.984 172.131C337.442 172.772 335.789 173.103 334.119 173.105Z" fill="#C8CAD7"/>
<path d="M338.273 61.6958H173.44V145.013H338.273V61.6958Z" fill="url(#paint11_linear)"/>
<path d="M324.082 67.1899H294.906V97.8268H324.082V67.1899Z" fill="url(#paint12_linear)"/>
<path d="M322.815 68.5239H296.173V96.4966H322.815V68.5239Z" fill="#6C63FF"/>
<g opacity="0.5">
<path opacity="0.5" d="M311.316 80.9622L310.984 80.8428L310.964 80.8726H310.944V79.9702C310.944 79.859 310.935 79.7481 310.917 79.6384C311.455 79.2428 311.866 78.7001 312.102 78.0757C312.567 77.4734 312.853 76.7529 312.929 75.996C313.005 75.239 312.868 74.476 312.532 73.7932C312.197 73.1105 311.676 72.5355 311.031 72.1334C310.385 71.7312 309.639 71.5181 308.879 71.5181C308.118 71.5181 307.372 71.7312 306.727 72.1334C306.081 72.5355 305.561 73.1105 305.225 73.7932C304.89 74.476 304.752 75.239 304.828 75.996C304.904 76.7529 305.191 77.4734 305.655 78.0757C305.891 78.7001 306.302 79.2428 306.84 79.6384C306.822 79.7481 306.813 79.859 306.813 79.9702V80.9655C305.033 81.457 303.463 82.5189 302.344 83.9884C301.225 85.4579 300.619 87.2538 300.619 89.1008V96.5029H317.473V89.0909C317.474 87.2498 316.873 85.459 315.761 83.9914C314.649 82.5239 313.088 81.4601 311.316 80.9622Z" fill="url(#paint13_linear)"/>
</g>
<path d="M308.535 80.7798H309.564C311.581 80.7798 313.517 81.5813 314.943 83.0081C316.37 84.4348 317.172 86.3699 317.172 88.3876V96.0186H300.914V88.3876C300.914 87.3874 301.111 86.397 301.495 85.4731C301.878 84.5493 302.439 83.71 303.147 83.0034C303.855 82.2967 304.695 81.7366 305.62 81.3551C306.544 80.9735 307.535 80.7781 308.535 80.7798Z" fill="#514ABF"/>
<path d="M309.01 78.1289H308.761C307.731 78.1289 306.896 78.9637 306.896 79.9935V81.2377C306.896 82.2675 307.731 83.1023 308.761 83.1023H309.01C310.04 83.1023 310.874 82.2675 310.874 81.2377V79.9935C310.874 78.9637 310.04 78.1289 309.01 78.1289Z" fill="#FDA57D"/>
<path opacity="0.05" d="M305.516 81.6593L306.85 84.5193L308.174 83.1955L306.85 81.1616L305.516 81.6593Z" fill="#12174E"/>
<path d="M305.562 81.5196L306.89 84.3796L308.217 83.0525L306.89 81.022L306.279 81.2078C306.219 81.2263 306.16 81.2484 306.103 81.2741L305.562 81.5196Z" fill="white"/>
<path opacity="0.05" d="M312.258 81.5197L310.921 84.519L309.594 83.1952L310.957 81.0552L312.258 81.5197Z" fill="#12174E"/>
<path d="M312.211 81.3805L310.884 84.3665L309.557 83.0394L310.921 80.8994L311.17 80.9724C311.44 81.0495 311.704 81.1437 311.963 81.2544L312.211 81.3805Z" fill="white"/>
<path d="M308.12 82.9497L308.864 84.0313L309.647 82.9497H308.12Z" fill="#FDA57D"/>
<path opacity="0.1" d="M303.98 86.8682C303.98 86.8682 303.19 94.7281 303.701 95.239L303.98 86.8682Z" fill="#12174E"/>
<path opacity="0.1" d="M313.748 86.8682C313.748 86.8682 314.537 94.7281 314.026 95.239L313.748 86.8682Z" fill="#12174E"/>
<path opacity="0.05" d="M308.884 80.5408C309.59 80.5409 310.278 80.3154 310.848 79.8972C310.773 79.4301 310.534 79.0049 310.174 78.6979C309.814 78.3908 309.357 78.222 308.884 78.2217C308.411 78.222 307.953 78.3908 307.593 78.6979C307.233 79.0049 306.994 79.4301 306.919 79.8972C307.489 80.3154 308.177 80.5409 308.884 80.5408Z" fill="#12174E"/>
<path d="M308.884 79.8245C311.048 79.8245 312.802 78.0702 312.802 75.9062C312.802 73.7421 311.048 71.9878 308.884 71.9878C306.72 71.9878 304.965 73.7421 304.965 75.9062C304.965 78.0702 306.72 79.8245 308.884 79.8245Z" fill="#12174E"/>
<path d="M308.884 80.4484C310.714 80.4484 312.198 78.9644 312.198 77.1339C312.198 75.3033 310.714 73.8193 308.884 73.8193C307.053 73.8193 305.569 75.3033 305.569 77.1339C305.569 78.9644 307.053 80.4484 308.884 80.4484Z" fill="#FDA57D"/>
<path opacity="0.05" d="M306.213 73.8488L307.049 74.8707C307.049 74.8707 310.722 75.2025 311.14 74.3598C311.558 73.517 308.721 72.9165 308.721 72.9165L306.213 73.8488Z" fill="#12174E"/>
<path d="M306.213 73.756L307.049 74.7779C307.049 74.7779 310.722 75.1097 311.14 74.267C311.558 73.4243 308.721 72.8237 308.721 72.8237L306.213 73.756Z" fill="#12174E"/>
<path d="M305.562 77.3361C305.691 77.3361 305.795 77.1489 305.795 76.918C305.795 76.6872 305.691 76.5 305.562 76.5C305.434 76.5 305.33 76.6872 305.33 76.918C305.33 77.1489 305.434 77.3361 305.562 77.3361Z" fill="#FDA57D"/>
<path d="M312.211 77.3361C312.34 77.3361 312.444 77.1489 312.444 76.918C312.444 76.6872 312.34 76.5 312.211 76.5C312.083 76.5 311.979 76.6872 311.979 76.918C311.979 77.1489 312.083 77.3361 312.211 77.3361Z" fill="#FDA57D"/>
<path d="M324.252 103.942H295.075V134.579H324.252V103.942Z" fill="url(#paint14_linear)"/>
<path d="M322.984 105.272H296.342V133.245H322.984V105.272Z" fill="#6C63FF"/>
<g opacity="0.5">
<path opacity="0.5" d="M311.677 117.877V116.848C311.677 116.799 311.677 116.745 311.677 116.696C312.241 116.273 312.672 115.697 312.918 115.037C313.326 114.507 313.606 113.891 313.736 113.235C313.866 112.58 313.843 111.903 313.668 111.258C313.493 110.613 313.171 110.018 312.727 109.518C312.283 109.018 311.73 108.628 311.11 108.378C311.157 108.167 311.158 107.949 311.112 107.739C311.065 107.528 310.974 107.33 310.842 107.159C310.711 106.987 310.544 106.847 310.353 106.747C310.162 106.648 309.951 106.592 309.735 106.582C309.52 106.573 309.305 106.612 309.106 106.695C308.907 106.778 308.728 106.903 308.583 107.063C308.438 107.222 308.33 107.412 308.266 107.618C308.202 107.824 308.184 108.041 308.213 108.255C307.545 108.461 306.936 108.826 306.439 109.318C305.942 109.811 305.572 110.417 305.36 111.084C305.148 111.751 305.101 112.459 305.223 113.148C305.345 113.837 305.632 114.486 306.06 115.04C306.306 115.701 306.737 116.277 307.301 116.699C307.301 116.749 307.301 116.799 307.301 116.852V117.94C305.448 118.295 303.777 119.284 302.574 120.737C301.371 122.19 300.712 124.016 300.708 125.903V134.632H318.658V125.916C318.657 123.96 317.951 122.07 316.669 120.593C315.386 119.116 313.614 118.152 311.677 117.877Z" fill="url(#paint15_linear)"/>
</g>
<path d="M309.149 118.062H310.178C311.177 118.062 312.166 118.259 313.089 118.642C314.012 119.024 314.851 119.584 315.557 120.291C316.263 120.997 316.824 121.836 317.206 122.759C317.589 123.682 317.785 124.671 317.785 125.67V133.301H301.528V125.67C301.528 123.653 302.329 121.718 303.756 120.291C305.183 118.864 307.118 118.063 309.136 118.062H309.149Z" fill="white"/>
<path d="M309.62 115.412H309.371C308.342 115.412 307.507 116.246 307.507 117.276V118.52C307.507 119.55 308.342 120.385 309.371 120.385H309.62C310.65 120.385 311.485 119.55 311.485 118.52V117.276C311.485 116.246 310.65 115.412 309.62 115.412Z" fill="#FDB797"/>
<path d="M308.734 120.232L309.477 121.314L310.257 120.232H308.734Z" fill="#FDB797"/>
<path opacity="0.1" d="M304.594 124.147C304.594 124.147 303.804 132.007 304.315 132.518L304.594 124.147Z" fill="#12174E"/>
<path opacity="0.1" d="M314.361 124.147C314.361 124.147 315.151 132.007 314.64 132.518L314.361 124.147Z" fill="#12174E"/>
<path opacity="0.05" d="M309.511 117.824C310.217 117.824 310.905 117.598 311.475 117.18C311.4 116.713 311.161 116.288 310.801 115.981C310.441 115.674 309.984 115.505 309.511 115.505C309.033 115.499 308.569 115.664 308.204 115.972C307.838 116.28 307.596 116.708 307.52 117.18C308.097 117.604 308.795 117.829 309.511 117.824Z" fill="#12174E"/>
<path d="M309.497 117.107C311.662 117.107 313.416 115.352 313.416 113.188C313.416 111.024 311.662 109.27 309.497 109.27C307.333 109.27 305.579 111.024 305.579 113.188C305.579 115.352 307.333 117.107 309.497 117.107Z" fill="#FDD835"/>
<path d="M309.497 117.731C311.328 117.731 312.812 116.247 312.812 114.416C312.812 112.586 311.328 111.102 309.497 111.102C307.667 111.102 306.183 112.586 306.183 114.416C306.183 116.247 307.667 117.731 309.497 117.731Z" fill="#FDB797"/>
<path d="M306.173 114.618C306.301 114.618 306.405 114.431 306.405 114.2C306.405 113.969 306.301 113.782 306.173 113.782C306.045 113.782 305.941 113.969 305.941 114.2C305.941 114.431 306.045 114.618 306.173 114.618Z" fill="#FDB797"/>
<path d="M312.825 114.618C312.953 114.618 313.057 114.431 313.057 114.2C313.057 113.969 312.953 113.782 312.825 113.782C312.697 113.782 312.593 113.969 312.593 114.2C312.593 114.431 312.697 114.618 312.825 114.618Z" fill="#FDB797"/>
<path d="M309.663 110.601C310.398 110.601 310.994 110.005 310.994 109.27C310.994 108.536 310.398 107.94 309.663 107.94C308.929 107.94 308.333 108.536 308.333 109.27C308.333 110.005 308.929 110.601 309.663 110.601Z" fill="#FDD835"/>
<path d="M306.999 110.601C306.999 110.601 308.326 113.255 312.327 111.928L311 110.601H306.999Z" fill="#FDD835"/>
<path d="M259.992 72.1504H186.675V75.3388H259.992V72.1504Z" fill="white"/>
<path d="M259.992 78.5239H186.675V81.7124H259.992V78.5239Z" fill="white"/>
<path d="M228.114 84.9009H186.675V88.0893H228.114V84.9009Z" fill="white"/>
<path d="M247.242 91.2744H186.675V94.4629H247.242V91.2744Z" fill="white"/>
<path d="M237.676 97.6514H186.675V100.84H237.676V97.6514Z" fill="white"/>
<path d="M259.992 104.025H186.675V107.213H259.992V104.025Z" fill="white"/>
<path d="M253.615 113.59H189.863V139.091H253.615V113.59Z" fill="white"/>
<path d="M91.0448 215.596H55.9787V24.3335H263.18V40.2723" stroke="#12174E" stroke-width="1.16124" stroke-miterlimit="10" stroke-dasharray="2.32 2.32"/>
<path d="M263.243 38.3105L262.571 38.3051L259.564 38.2812L262.866 44.1072L266.261 38.3344L264.752 38.3225L263.243 38.3105Z" fill="#12174E"/>
<path d="M89.9607 215.205L89.9377 215.876C90.2866 215.888 90.6374 215.892 90.9873 215.9L91.0072 218.908L96.7844 215.521L90.9628 212.21L90.9829 215.229C90.6421 215.221 90.3006 215.216 89.9607 215.205Z" fill="#12174E"/>
<g opacity="0.5">
<path opacity="0.5" d="M57.0437 37.0874C63.6953 37.0874 69.0874 31.6953 69.0874 25.0437C69.0874 18.3922 63.6953 13 57.0437 13C50.3922 13 45 18.3922 45 25.0437C45 31.6953 50.3922 37.0874 57.0437 37.0874Z" fill="url(#paint16_linear)"/>
</g>
<path d="M69.7178 61.7721C83.0026 61.7721 93.7721 51.0026 93.7721 37.7178C93.7721 24.433 83.0026 13.6636 69.7178 13.6636C56.433 13.6636 45.6636 24.433 45.6636 37.7178C45.6636 51.0026 56.433 61.7721 69.7178 61.7721Z" fill="white"/>
<path d="M68.495 54.6047C59.2386 54.6047 48.2039 51.4161 48.2039 36.2239C48.2039 23.5673 56.9276 14.0225 68.495 14.0225C80.0624 14.0225 88.7861 23.5673 88.7861 36.2239C88.7861 51.4161 77.7514 54.6047 68.495 54.6047Z" fill="#001AFF" fill-opacity="0.7"/>
<path d="M68.495 54.6047C59.2386 54.6047 48.2039 51.4161 48.2039 36.2239C48.2039 23.5673 56.9276 14.0225 68.495 14.0225C80.0624 14.0225 88.7861 23.5673 88.7861 36.2239C88.7861 51.4161 77.7514 54.6047 68.495 54.6047Z" fill="url(#paint17_linear)" fill-opacity="0.5"/>
<path fill-rule="evenodd" clip-rule="evenodd" d="M55.5129 50.1897C59.1564 52.6984 63.9606 53.4857 68.495 53.4857C73.0294 53.4857 77.8336 52.6984 81.4771 50.1897C85.0452 47.7329 87.6671 43.5091 87.6671 36.2239C87.6671 24.0884 79.3517 15.1415 68.495 15.1415C57.6383 15.1415 49.3229 24.0884 49.3229 36.2239C49.3229 43.5091 51.9448 47.7329 55.5129 50.1897ZM48.2039 36.2239C48.2039 51.4161 59.2386 54.6047 68.495 54.6047C77.7514 54.6047 88.7861 51.4161 88.7861 36.2239C88.7861 23.5673 80.0624 14.0225 68.495 14.0225C56.9276 14.0225 48.2039 23.5673 48.2039 36.2239Z" fill="#12174E" fill-opacity="0.2"/>
<path fill-rule="evenodd" clip-rule="evenodd" d="M56.0098 50.1902C59.6533 52.6989 64.4575 53.4862 68.9919 53.4862C73.5263 53.4862 78.3305 52.6989 81.974 50.1902C85.5421 47.7334 88.164 43.5096 88.164 36.2244C88.164 24.0889 79.8486 15.142 68.9919 15.142C58.1352 15.142 49.8198 24.0889 49.8198 36.2244C49.8198 43.5096 52.4417 47.7334 56.0098 50.1902ZM48.7007 36.2244C48.7007 51.4166 59.7355 54.6052 68.9919 54.6052C78.2483 54.6052 89.283 51.4166 89.283 36.2244C89.283 23.5678 80.5593 14.0229 68.9919 14.0229C57.4245 14.0229 48.7007 23.5678 48.7007 36.2244Z" fill="white"/>
<path d="M75.2289 22.2344H73.4017C78.1109 22.2344 81.9284 26.0974 81.9284 30.8626C81.9284 35.6278 78.1109 39.4908 73.4017 39.4908H75.2289C79.938 39.4908 83.7556 35.6278 83.7556 30.8626C83.7556 26.0974 79.938 22.2344 75.2289 22.2344Z" fill="#E6E4FF"/>
<path d="M61.6793 21.6392C56.5854 21.6392 52.4561 25.7685 52.4561 30.8624C52.4561 35.9563 56.5854 40.0857 61.6793 40.0857H75.2067C80.3006 40.0857 84.43 35.9563 84.43 30.8624C84.43 25.7685 80.3006 21.6392 75.2067 21.6392H61.6793ZM83.2002 30.8624C83.1951 35.275 79.6193 38.8508 75.2067 38.8559H61.6793C57.2646 38.8559 53.6858 35.2771 53.6858 30.8624C53.6858 26.4477 57.2646 22.8689 61.6793 22.8689H75.2067C79.6193 22.874 83.1951 26.4498 83.2002 30.8624Z" fill="white"/>
<g filter="url(#filter0_f)">
<ellipse cx="68.5613" cy="66.5894" rx="10.8759" ry="1.53378" fill="#12174E" fill-opacity="0.3"/>
</g>
<circle cx="59.0798" cy="30.7544" r="2.50982" fill="#00FFF3"/>
<circle cx="71.9078" cy="30.7544" r="2.50982" fill="#00FFF3"/>
<path d="M185.772 123.161L105.209 123.274C102.062 123.278 99.5155 125.832 99.5199 128.978L99.703 260.132C99.7074 263.278 102.261 265.825 105.408 265.821L185.971 265.708C189.117 265.704 191.664 263.15 191.66 260.004L191.477 128.85C191.472 125.704 188.918 123.157 185.772 123.161Z" fill="url(#paint18_linear)"/>
<path d="M185.376 134.051L105.964 134.162L106.131 253.72L185.543 253.609L185.376 134.051Z" fill="url(#paint19_linear)"/>
<path d="M184.468 125.316L106.519 125.425C104.195 125.429 102.314 127.315 102.318 129.638L102.496 257.205C102.499 259.529 104.385 261.41 106.709 261.406L184.658 261.298C186.981 261.294 188.862 259.408 188.859 257.085L188.681 129.518C188.677 127.194 186.791 125.313 184.468 125.316Z" fill="#12174E"/>
<path d="M182.953 135.71L108.371 135.814L108.531 249.868L183.112 249.764L182.953 135.71Z" fill="url(#paint20_linear)"/>
<path d="M145.66 258.834C147.356 258.834 148.732 257.425 148.732 255.686C148.732 253.947 147.356 252.537 145.66 252.537C143.963 252.537 142.587 253.947 142.587 255.686C142.587 257.425 143.963 258.834 145.66 258.834Z" fill="#DBDBDB"/>
<path d="M132.752 131.895C133.318 131.894 133.777 131.424 133.776 130.845C133.775 130.266 133.315 129.798 132.749 129.798C132.183 129.799 131.725 130.269 131.725 130.848C131.726 131.427 132.186 131.896 132.752 131.895Z" fill="#DBDBDB"/>
<path d="M150.938 130.191L138.125 130.209C137.985 130.209 137.873 130.322 137.873 130.462L137.874 131.006C137.874 131.145 137.987 131.258 138.126 131.258L150.94 131.24C151.079 131.239 151.192 131.126 151.191 130.987L151.191 130.443C151.19 130.304 151.077 130.191 150.938 130.191Z" fill="#DBDBDB"/>
<path d="M174.468 206.031H145.291V236.668H174.468V206.031Z" fill="url(#paint21_linear)"/>
<path d="M173.201 207.365H146.559V235.338H173.201V207.365Z" fill="#6C63FF"/>
<g opacity="0.5">
<path opacity="0.5" d="M162.146 219.807L161.814 219.687L161.794 219.717H161.774V218.815C161.774 218.704 161.765 218.593 161.748 218.483C162.285 218.088 162.697 217.545 162.932 216.92C163.397 216.318 163.684 215.598 163.76 214.841C163.836 214.084 163.698 213.321 163.362 212.638C163.027 211.955 162.507 211.38 161.861 210.978C161.215 210.576 160.47 210.363 159.709 210.363C158.948 210.363 158.203 210.576 157.557 210.978C156.911 211.38 156.391 211.955 156.055 212.638C155.72 213.321 155.582 214.084 155.658 214.841C155.734 215.598 156.021 216.318 156.486 216.92C156.721 217.545 157.133 218.088 157.67 218.483C157.652 218.593 157.644 218.704 157.644 218.815V219.81C155.863 220.302 154.293 221.364 153.174 222.833C152.055 224.303 151.449 226.099 151.449 227.946V235.348H168.32V227.932C168.319 226.09 167.715 224.298 166.6 222.831C165.485 221.364 163.921 220.302 162.146 219.807Z" fill="url(#paint22_linear)"/>
</g>
<path d="M159.366 219.621H160.394C162.412 219.621 164.347 220.423 165.774 221.849C167.2 223.276 168.002 225.211 168.002 227.229V234.86H151.745V227.229C151.745 226.229 151.942 225.238 152.325 224.314C152.708 223.391 153.27 222.551 153.977 221.845C154.685 221.138 155.526 220.578 156.45 220.196C157.375 219.815 158.365 219.619 159.366 219.621Z" fill="#3AD29F"/>
<path d="M159.84 216.97H159.591C158.561 216.97 157.727 217.805 157.727 218.835V220.079C157.727 221.109 158.561 221.944 159.591 221.944H159.84C160.87 221.944 161.705 221.109 161.705 220.079V218.835C161.705 217.805 160.87 216.97 159.84 216.97Z" fill="#BE7C5E"/>
<path d="M158.951 221.791L159.694 222.873L160.477 221.791H158.951Z" fill="#BE7C5E"/>
<path opacity="0.1" d="M154.81 225.709C154.81 225.709 154.021 233.569 154.532 234.08L154.81 225.709Z" fill="#12174E"/>
<path opacity="0.1" d="M164.578 225.709C164.578 225.709 165.368 233.569 164.857 234.08L164.578 225.709Z" fill="#12174E"/>
<path opacity="0.05" d="M159.714 219.369C160.421 219.369 161.109 219.144 161.678 218.725C161.603 218.258 161.364 217.833 161.004 217.526C160.645 217.219 160.187 217.05 159.714 217.05C159.241 217.05 158.783 217.219 158.423 217.526C158.064 217.833 157.825 218.258 157.75 218.725C158.319 219.144 159.007 219.369 159.714 219.369Z" fill="#12174E"/>
<path d="M159.714 218.666C161.878 218.666 163.632 216.912 163.632 214.747C163.632 212.583 161.878 210.829 159.714 210.829C157.55 210.829 155.796 212.583 155.796 214.747C155.796 216.912 157.55 218.666 159.714 218.666Z" fill="#12174E"/>
<path d="M159.714 219.289C161.544 219.289 163.028 217.805 163.028 215.975C163.028 214.144 161.544 212.66 159.714 212.66C157.883 212.66 156.399 214.144 156.399 215.975C156.399 217.805 157.883 219.289 159.714 219.289Z" fill="#BE7C5E"/>
<path opacity="0.05" d="M157.043 212.69L157.879 213.712C157.879 213.712 161.552 214.044 161.97 213.201C162.388 212.358 159.551 211.758 159.551 211.758L157.043 212.69Z" fill="#12174E"/>
<path d="M157.043 212.597L157.879 213.619C157.879 213.619 161.552 213.951 161.97 213.108C162.388 212.266 159.551 211.665 159.551 211.665L157.043 212.597Z" fill="#12174E"/>
<path d="M156.393 216.177C156.521 216.177 156.625 215.99 156.625 215.759C156.625 215.528 156.521 215.341 156.393 215.341C156.264 215.341 156.161 215.528 156.161 215.759C156.161 215.99 156.264 216.177 156.393 216.177Z" fill="#BE7C5E"/>
<path d="M163.042 216.177C163.17 216.177 163.274 215.99 163.274 215.759C163.274 215.528 163.17 215.341 163.042 215.341C162.913 215.341 162.809 215.528 162.809 215.759C162.809 215.99 162.913 216.177 163.042 216.177Z" fill="#BE7C5E"/>
<path d="M157.123 211.104C157.382 210.773 157.74 210.533 158.145 210.418C158.878 210.126 159.641 209.827 160.427 209.88C160.504 209.879 160.579 209.901 160.643 209.943C160.696 209.999 160.739 210.063 160.772 210.132C161.011 210.487 161.681 210.464 161.768 210.882C161.791 211.018 161.735 211.164 161.768 211.297C161.854 211.629 162.322 211.596 162.597 211.785C162.744 211.917 162.833 212.101 162.845 212.299C162.858 212.496 162.792 212.69 162.664 212.84C162.39 213.129 162.037 213.33 161.648 213.417C160.967 213.678 160.225 213.744 159.508 213.606C158.503 213.344 156.151 212.694 157.123 211.104Z" fill="#12174E"/>
<path d="M144.608 205.7H115.431V236.337H144.608V205.7Z" fill="url(#paint23_linear)"/>
<path d="M143.34 207.033H116.698V235.006H143.34V207.033Z" fill="#6C63FF"/>
<g opacity="0.5">
<path opacity="0.5" d="M132.285 219.475L131.954 219.356L131.934 219.386H131.914V218.483C131.914 218.372 131.905 218.261 131.887 218.152C132.425 217.756 132.836 217.213 133.072 216.589C133.536 215.987 133.823 215.266 133.899 214.509C133.975 213.752 133.838 212.989 133.502 212.306C133.166 211.624 132.646 211.049 132.001 210.647C131.355 210.244 130.609 210.031 129.849 210.031C129.088 210.031 128.342 210.244 127.697 210.647C127.051 211.049 126.531 211.624 126.195 212.306C125.859 212.989 125.722 213.752 125.798 214.509C125.874 215.266 126.161 215.987 126.625 216.589C126.861 217.213 127.272 217.756 127.81 218.152C127.792 218.261 127.783 218.372 127.783 218.483V219.479C126.003 219.97 124.433 221.032 123.314 222.502C122.195 223.971 121.589 225.767 121.589 227.614V235.016H138.46V227.601C138.459 225.758 137.855 223.966 136.74 222.499C135.625 221.032 134.061 219.97 132.285 219.475Z" fill="url(#paint24_linear)"/>
</g>
<path d="M129.505 219.29H130.534C131.533 219.29 132.522 219.486 133.445 219.869C134.368 220.251 135.207 220.811 135.913 221.518C136.62 222.224 137.18 223.063 137.562 223.986C137.945 224.909 138.141 225.898 138.141 226.897V234.528H121.884V226.897C121.884 225.897 122.081 224.907 122.464 223.983C122.848 223.059 123.409 222.22 124.117 221.513C124.825 220.807 125.665 220.246 126.59 219.865C127.514 219.483 128.505 219.288 129.505 219.29Z" fill="#514ABF"/>
<path d="M129.98 216.639H129.731C128.701 216.639 127.866 217.473 127.866 218.503V219.747C127.866 220.777 128.701 221.612 129.731 221.612H129.98C131.009 221.612 131.844 220.777 131.844 219.747V218.503C131.844 217.473 131.009 216.639 129.98 216.639Z" fill="#FDA57D"/>
<path opacity="0.1" d="M124.95 225.377C124.95 225.377 124.16 233.237 124.671 233.748L124.95 225.377Z" fill="#12174E"/>
<path opacity="0.1" d="M134.717 225.377C134.717 225.377 135.507 233.237 134.996 233.748L134.717 225.377Z" fill="#12174E"/>
<path opacity="0.05" d="M129.853 219.037C130.56 219.037 131.248 218.812 131.818 218.394C131.743 217.927 131.504 217.501 131.144 217.194C130.784 216.887 130.327 216.719 129.853 216.718C129.38 216.719 128.923 216.887 128.563 217.194C128.203 217.501 127.964 217.927 127.889 218.394C128.459 218.812 129.147 219.037 129.853 219.037Z" fill="#12174E"/>
<path d="M129.853 218.334C132.018 218.334 133.772 216.579 133.772 214.415C133.772 212.251 132.018 210.497 129.853 210.497C127.689 210.497 125.935 212.251 125.935 214.415C125.935 216.579 127.689 218.334 129.853 218.334Z" fill="#12174E"/>
<path d="M129.853 218.958C131.684 218.958 133.168 217.474 133.168 215.643C133.168 213.813 131.684 212.329 129.853 212.329C128.023 212.329 126.539 213.813 126.539 215.643C126.539 217.474 128.023 218.958 129.853 218.958Z" fill="#FDA57D"/>
<path opacity="0.05" d="M127.183 212.359L128.019 213.38C128.019 213.38 131.692 213.712 132.11 212.87C132.528 212.027 129.691 211.426 129.691 211.426L127.183 212.359Z" fill="#12174E"/>
<path d="M127.183 212.265L128.019 213.287C128.019 213.287 131.692 213.619 132.11 212.776C132.528 211.934 129.691 211.333 129.691 211.333L127.183 212.265Z" fill="#12174E"/>
<path d="M126.532 215.845C126.661 215.845 126.765 215.658 126.765 215.427C126.765 215.196 126.661 215.009 126.532 215.009C126.404 215.009 126.3 215.196 126.3 215.427C126.3 215.658 126.404 215.845 126.532 215.845Z" fill="#FDA57D"/>
<path d="M133.181 215.845C133.31 215.845 133.414 215.658 133.414 215.427C133.414 215.196 133.31 215.009 133.181 215.009C133.053 215.009 132.949 215.196 132.949 215.427C132.949 215.658 133.053 215.845 133.181 215.845Z" fill="#FDA57D"/>
<path d="M170.736 150.302H116.546V152.657H170.736V150.302Z" fill="white"/>
<path d="M170.736 155.013H116.546V157.369H170.736V155.013Z" fill="white"/>
<path d="M147.176 159.725H116.546V162.08H147.176V159.725Z" fill="white"/>
<path d="M161.313 164.439H116.546V166.795H161.313V164.439Z" fill="white"/>
<path d="M154.243 169.15H116.546V171.506H154.243V169.15Z" fill="white"/>
<path d="M170.736 173.862H116.546V176.217H170.736V173.862Z" fill="white"/>
<path d="M166.024 180.932H118.901V199.781H166.024V180.932Z" fill="white"/>
<path d="M127.551 214.392C127.718 214.096 127.857 213.785 127.966 213.463C128.142 213.082 128.42 212.756 128.769 212.523C129.119 212.29 129.526 212.158 129.946 212.141C130.366 212.125 130.782 212.225 131.148 212.43C131.515 212.635 131.818 212.938 132.023 213.304C132.295 213.792 132.385 214.369 132.687 214.84C132.73 214.872 132.779 214.895 132.831 214.907C132.883 214.92 132.937 214.921 132.99 214.911C133.042 214.902 133.093 214.881 133.137 214.851C133.181 214.821 133.219 214.783 133.248 214.737C133.3 214.642 133.331 214.535 133.337 214.426C133.343 214.317 133.325 214.208 133.284 214.107C133.214 213.901 133.098 213.712 133.022 213.51C132.946 213.18 132.835 212.86 132.69 212.554C132.513 212.323 132.286 212.133 132.027 212C131.293 211.549 130.444 211.081 129.615 211.337C129.335 211.432 129.07 211.568 128.828 211.738L127.773 212.402C127.434 212.592 127.131 212.84 126.877 213.135C126.648 213.433 126.214 214.326 126.416 214.711C126.655 215.149 127.342 214.668 127.551 214.392Z" fill="#12174E"/>
<path d="M129.021 221.36V234.542H130.968L130.68 221.36H129.021Z" fill="white"/>
<path d="M128.696 221.181L129.824 222.823L131.011 221.181H128.696Z" fill="#FDA57D"/>
<path d="M354.881 161.264C355.025 160.874 353.952 158.704 353.952 158.596C353.952 158.489 352.839 157.287 352.839 156.604C352.839 155.92 351.37 154.467 351.37 154.467C351.37 154.467 349.399 153.648 349.184 151.87C348.969 150.093 346.828 150.056 346.828 150.056C346.828 150.056 346.828 149.894 346.828 149.647C346.828 149.092 346.812 148.108 346.566 147.566C346.311 147.075 345.873 146.704 345.346 146.535C345.346 146.535 345.131 145.144 344.702 144.718C344.462 144.466 344.29 144.158 344.202 143.822C344.115 143.485 344.115 143.132 344.202 142.796C344.416 142.123 343.916 140.413 342.874 140.178C341.832 139.942 340.654 139.536 340.654 139.536C340.654 139.536 340.536 139.56 340.366 139.583L340.222 139.536C339.974 139.583 339.723 139.614 339.471 139.631C339.251 139.638 339.035 139.566 338.863 139.429C338.497 139.023 335.617 138.272 335.067 138.272C334.517 138.272 332.986 137.557 332.986 137.557L331.446 136.384C331.014 136.054 330.216 134.719 330.1 134.525L330.085 134.499C329.954 134.195 329.845 133.882 329.76 133.562C330.284 133.013 330.732 132.396 331.093 131.729C331.129 131.661 331.161 131.59 331.197 131.52C331.276 131.519 331.353 131.507 331.428 131.483L331.525 131.446C331.887 131.254 332.159 130.928 332.284 130.538C332.313 130.459 332.334 130.381 332.355 130.302L332.37 130.224C332.37 130.169 332.394 130.114 332.404 130.061L332.42 129.97C332.42 129.915 332.438 129.862 332.444 129.807C332.449 129.752 332.444 129.747 332.444 129.718C332.444 129.69 332.459 129.582 332.47 129.517C332.494 129.265 332.532 129.015 332.582 128.768C332.797 127.802 333.368 126.985 333.789 126.092C333.847 125.964 333.905 125.83 333.954 125.702C334.004 125.574 334.054 125.417 334.096 125.27C334.096 125.226 334.119 125.181 334.13 125.137C334.159 125.029 334.182 124.925 334.203 124.815C334.203 124.767 334.221 124.72 334.229 124.673C334.253 124.527 334.274 124.377 334.287 124.228C334.36 123.377 334.233 122.521 333.918 121.728C333.656 121.06 333.25 120.458 332.978 119.79C332.567 118.777 332.454 117.63 331.954 116.667C331.111 115.049 329.124 114.237 327.503 114.847C326.718 115.138 326.05 115.701 325.26 115.952C324.212 116.29 323.066 116.036 321.971 115.884C320.877 115.732 319.662 115.719 318.782 116.434C317.766 117.259 317.489 118.806 316.536 119.712C316.135 120.091 315.641 120.335 315.227 120.686C314.929 120.923 314.7 121.236 314.565 121.592C314.555 121.616 314.547 121.642 314.541 121.668C314.53 121.697 314.522 121.728 314.517 121.759C314.517 121.796 314.504 121.83 314.499 121.867C314.494 121.903 314.499 121.916 314.499 121.94C314.495 122.004 314.495 122.067 314.499 122.131C314.505 122.191 314.514 122.25 314.528 122.309C314.528 122.327 314.528 122.343 314.528 122.359C314.528 122.374 314.554 122.458 314.572 122.508V122.537C314.591 122.592 314.614 122.644 314.635 122.699C314.656 122.754 314.659 122.751 314.672 122.78C314.68 122.803 314.69 122.824 314.701 122.846C314.839 123.11 314.951 123.387 315.033 123.673C315.078 123.855 315.066 124.046 314.999 124.22C314.903 124.419 314.769 124.597 314.604 124.744C313.89 125.485 313.339 126.367 312.986 127.333C312.944 127.443 312.905 127.553 312.871 127.666L312.918 127.679C313.02 127.71 313.125 127.733 313.232 127.747C313.292 127.747 313.352 127.763 313.413 127.765C313.657 127.78 313.903 127.761 314.143 127.71L314.326 127.668C314.575 127.601 314.817 127.514 315.052 127.407C315.052 127.48 315.052 127.551 315.052 127.624C315.052 127.697 315.052 127.705 315.052 127.747C315.055 129.322 315.498 130.865 316.33 132.202C317.163 133.539 318.352 134.618 319.764 135.316L319.796 135.546L319.819 135.74L319.722 135.648C319.722 135.648 319.076 135.326 318.468 136.253C318.019 136.858 317.411 137.326 316.711 137.604C316.711 137.604 310.19 138.636 309.938 139.492L306.893 139.67C306.893 139.67 305.817 139.811 305.71 142.052C305.603 144.293 305.029 144.508 305.029 144.508C305.029 144.508 303.775 146.715 303.883 147.854C303.99 148.993 302.89 149.556 302.89 149.556L302.746 151.585C302.746 151.585 301.563 151.407 301.241 152.794C300.919 154.182 300.346 154.823 300.346 154.823C300.346 154.823 298.374 156.46 298.267 157.847L297.049 158.596C297.049 158.596 294.216 157.955 293.572 156.816L293.373 156.63C293.367 156.622 293.362 156.613 293.358 156.604C292.934 156.206 292.036 155.368 292.172 155.557C292.256 155.736 292.276 155.938 292.229 156.13L292.02 155.894L291.457 155.289C291.457 155.289 287.244 150.449 284.563 150.108C284.279 150.183 284.019 150.329 283.808 150.534C283.597 150.738 283.442 150.994 283.359 151.276C283.019 152.433 282.663 154.35 283.548 155.292L287.784 159.819L287.894 159.9L288.815 161.083C288.661 161.455 288.53 161.816 288.42 162.144V162.175C288.396 162.246 288.375 162.317 288.355 162.382L288.331 162.453C288.31 162.521 288.292 162.586 288.271 162.649C288.25 162.712 288.25 162.728 288.237 162.767C288.224 162.806 288.237 162.811 288.218 162.835C288.116 163.191 288.053 163.466 288.019 163.62L287.781 163.547L288.014 163.647C288.013 163.659 288.013 163.671 288.014 163.683C288.007 163.708 288.002 163.733 287.998 163.759C288.069 163.791 288.142 163.825 288.218 163.853C289.472 164.401 295.738 167.15 296.073 167.566C296.431 168.029 298.798 169.38 300.948 168.241C303.097 167.102 303.566 165.361 303.566 165.361C303.566 165.361 305.645 162.481 305.715 162.052C305.786 161.623 307.399 161.128 307.399 161.128C307.399 161.128 307.543 165.896 306.718 167.639C305.893 169.383 304.362 177.106 304.362 177.106C304.462 177.086 304.566 177.08 304.668 177.088L304.576 177.533C304.702 177.51 304.831 177.51 304.956 177.533C304.841 178.41 304.171 182.487 304.171 182.487C304.171 182.487 303.953 184.338 303.597 184.979C303.241 185.62 303.202 188.964 303.202 188.964L302.629 191.383C302.629 191.383 302.704 191.55 302.846 191.802C302.846 191.802 303.461 193.166 304.498 193.933C304.45 194.312 304.352 194.684 304.207 195.038C303.984 195.579 303.886 196.163 303.922 196.747C303.922 196.747 303.312 199.486 303.385 200.271C303.458 201.057 302.99 202.976 302.99 202.976L302.346 209.168C302.346 209.168 301.916 214.54 302.131 216.001C302.346 217.462 301.987 219.452 301.987 219.452C301.987 219.452 302.416 223.688 302.309 224.149C302.202 224.609 301.665 226.604 301.987 227.707C302.309 228.809 302.131 231.835 302.131 231.835C302.131 231.835 302.346 235.823 302.594 237.103C302.843 238.383 302.524 240.022 302.524 240.022C302.524 240.022 302.262 242.761 302.165 242.761C302.068 242.761 301.118 244.646 303.024 246.497C304.93 248.348 303.744 248.068 303.744 248.068C303.744 248.068 302.238 247.322 302.416 248.853C302.587 250.312 302.822 249.929 302.843 249.9L302.487 251.071L302.749 251.105C302.681 251.186 302.613 251.27 302.539 251.367C302.323 251.639 302.082 251.89 301.82 252.118C301.388 252.437 301.351 253.147 301.351 253.147C301.351 253.147 298.701 256.027 296.227 257.488C294.918 258.258 293.805 258.907 293.316 259.446C292.873 259.928 292.947 260.318 293.863 260.622C295.798 261.263 299.201 261.583 301.639 260.766C303.092 260.28 304.398 259.435 305.438 258.31C305.438 258.31 306.977 257.524 308.483 257.81C309.988 258.095 312.999 256.137 312.999 256.137L312.944 255.634L312.784 254.179C312.682 254.057 312.605 253.915 312.56 253.762C312.515 253.609 312.502 253.449 312.522 253.291C312.541 252.86 312.499 252.429 312.397 252.011C312.371 251.869 312.344 251.731 312.318 251.597L312.593 251.547C312.593 251.547 312.234 249.733 312.881 249.374C313.528 249.016 313.344 244.358 313.344 244.358C313.344 244.358 312.522 243.29 312.09 243.112C311.658 242.934 312.054 240.727 312.127 240.444C312.2 240.161 312.742 234.619 312.742 234.619C312.742 234.619 312.528 232.877 312.813 232.129C313.098 231.38 312.454 228.5 312.454 228.5C312.454 228.5 312.24 228.144 312.635 227.715C313.03 227.285 312.884 223.481 312.884 223.481C312.884 223.481 312.85 221.559 312.85 221.059C312.85 220.559 313.279 218.747 313.672 218.143C314.064 217.538 313.816 215.653 313.816 215.653L313.837 215.509C313.837 215.457 313.858 215.388 313.871 215.31L313.902 215.119C314.075 214.076 314.309 213.045 314.601 212.029C315.067 210.534 315.604 207.903 315.604 207.903L318.939 199.195L318.976 199.093C318.976 199.093 320.516 201.939 320.516 204.576C320.516 204.576 320.911 207.741 320.804 208.594C320.696 209.448 321.128 213.469 321.128 213.469C321.128 213.469 321.592 219.229 321.592 219.491C321.592 219.753 322.165 224.188 322.524 224.863C322.882 225.539 322.165 227.605 321.95 227.817C321.736 228.029 322.021 233.262 322.021 233.262C322.021 233.262 321.484 237.389 321.377 238.237C321.27 239.085 320.84 242.366 321.199 243.646C321.558 244.926 321.414 245.104 321.414 245.104C321.414 245.104 322.704 246.413 321.937 246.528C321.663 246.588 321.404 246.706 321.179 246.874C320.954 247.042 320.768 247.256 320.632 247.502C320.496 247.748 320.414 248.02 320.392 248.3C320.37 248.58 320.407 248.861 320.502 249.126C320.948 250.426 321.473 251.698 322.073 252.935L322.668 252.809V253.233L322.71 255.354C322.71 255.354 322.971 257.383 322.819 257.846C322.673 258.763 322.575 259.687 322.526 260.614C322.5 260.918 322.484 261.122 322.484 261.122C322.484 261.122 322.484 263.007 326.464 262.431C330.443 261.855 331.166 260.302 331.166 260.302C331.166 260.302 331.166 260.229 331.197 260.106C331.255 259.747 331.383 258.983 331.491 258.559C331.635 257.988 330.344 255.417 330.344 255.417C330.344 255.417 330.129 253.673 329.771 253.281C329.62 253.056 329.522 252.801 329.483 252.534C329.449 252.39 329.42 252.241 329.396 252.094C329.49 252.108 329.578 252.124 329.658 252.142C329.658 252.142 329.441 250.898 330.268 250.505C331.095 250.113 330.875 249.296 330.768 248.934C330.661 248.573 331.09 246.578 331.09 246.578C331.033 246.38 331.029 246.17 331.08 245.97C331.13 245.769 331.233 245.586 331.378 245.439C331.881 244.942 332.273 241.454 332.273 241.454L332.344 228.003C332.344 228.003 332.606 225.617 332.31 224.657C332.014 223.696 331.737 221.847 332.13 221.347C332.522 220.847 332.166 218.535 332.166 218.535C332.166 218.535 332.166 213.66 332.703 212.451C333.24 211.241 333.062 203.591 333.062 203.591L333.206 198.572C333.206 198.572 334.376 197.465 334.098 191.689C335.347 191.611 336.756 191.566 336.978 191.739C337.374 192.058 339.916 193.697 341.429 192.663C341.751 192.522 343.22 191.276 343.22 191.276L342.589 180.607C342.982 181.201 343.222 181.596 343.222 181.596C343.222 180.101 347.451 175.263 347.451 175.263C347.451 175.263 351.391 170.174 352.252 169.569C353.114 168.964 354.795 165.759 354.795 165.759C355.044 165.149 355.331 164.555 355.656 163.982C356.038 163.364 354.729 161.657 354.881 161.264ZM345.636 165C344.563 165.107 342.304 167.563 342.269 168.097C342.19 168.45 342.026 168.777 341.793 169.053C341.775 168.838 341.756 168.621 341.741 168.398C341.479 165.257 341.217 161.421 341.337 161.049C341.552 160.411 341.479 157.528 341.479 157.528L341.518 157.473C342.241 159.706 344.484 162.34 344.484 162.34C344.484 162.34 344.88 163.479 345.346 163.513C345.812 163.547 345.636 165 345.636 165Z" fill="url(#paint25_linear)"/>
<path d="M288.181 164.191C288.181 164.191 289.49 157.34 293.679 157.306L296.75 163.626L294.703 165.04C294.703 165.04 290.265 165.178 288.181 164.191Z" fill="#12174E"/>
<path opacity="0.1" d="M296.764 163.623L294.714 165.037C294.714 165.037 291.572 165.136 289.346 164.584C288.946 164.492 288.555 164.359 288.181 164.188C288.181 164.188 288.181 164.149 288.205 164.079C288.204 164.07 288.204 164.061 288.205 164.052C288.395 163.193 288.658 162.351 288.99 161.536C289.119 161.227 289.252 160.911 289.425 160.594C290.04 159.41 290.904 158.238 292.088 157.675C292.525 157.46 293.002 157.335 293.488 157.308H293.614H293.677L293.742 157.447L294.79 159.583L296.764 163.623Z" fill="#12174E"/>
<path d="M331.658 192.09C331.658 192.09 336.072 191.666 336.459 191.982C336.847 192.299 339.355 193.925 340.84 192.901C342.324 191.878 341.334 188.309 341.334 188.168C341.334 188.026 341.193 182.976 341.193 182.976L338.543 179.41L335.224 173.158L328.443 172.488L328.618 182.41L328.584 187.492L331.658 192.09Z" fill="#12174E"/>
<path opacity="0.1" d="M331.658 192.09C331.658 192.09 336.072 191.666 336.459 191.982C336.847 192.299 339.355 193.925 340.84 192.901C342.324 191.878 341.334 188.309 341.334 188.168C341.334 188.026 341.193 182.976 341.193 182.976L338.543 179.41L335.224 173.158L328.443 172.488L328.618 182.41L328.584 187.492L331.658 192.09Z" fill="#12174E"/>
<path d="M292.808 157.122C292.808 157.122 292.457 161.431 289.771 161.502C289.771 161.502 289.011 161.044 287.988 160.279C285.631 158.512 281.887 155.122 282.922 151.964C284.403 147.445 291.609 155.779 291.609 155.779L292.164 156.399L292.808 157.122Z" fill="#FBBEBE"/>
<path opacity="0.1" d="M292.808 157.122C292.808 157.122 292.457 161.432 289.771 161.502C289.771 161.502 289.011 161.044 287.988 160.28L287.757 159.984C288.213 160.223 288.715 160.358 289.229 160.379C289.634 160.398 290.035 160.292 290.378 160.076C290.722 159.86 290.99 159.543 291.148 159.17C291.432 158.617 291.681 158.047 291.894 157.463C292.02 157.12 292.108 156.764 292.156 156.402L292.808 157.122Z" fill="#12174E"/>
<path d="M291.632 164.93L291.027 164.144L288.995 161.526L287.948 160.188C288.403 160.427 288.906 160.562 289.42 160.583C289.825 160.602 290.226 160.496 290.569 160.28C290.912 160.064 291.181 159.747 291.339 159.374C291.622 158.82 291.87 158.249 292.082 157.664C292.417 156.711 292.412 156.222 292.292 156.057C292.171 155.892 293.043 156.695 293.459 157.091L293.475 157.107L293.671 157.292L293.742 157.436L294.766 159.481C294.766 159.481 294.766 159.51 294.766 159.568C294.876 160.225 295.221 164.346 291.632 164.93Z" fill="#E7EFFD"/>
<path d="M312.8 255.825C312.8 255.825 309.831 257.768 308.349 257.482C306.867 257.197 305.346 257.98 305.346 257.98C304.324 259.096 303.036 259.935 301.602 260.417C299.201 261.229 295.842 260.91 293.939 260.273C293.035 259.972 292.965 259.585 293.399 259.106C293.881 258.582 294.988 257.927 296.279 257.166C298.701 255.728 301.319 252.869 301.319 252.869C301.319 252.869 301.356 252.162 301.78 251.846C302.038 251.619 302.277 251.37 302.492 251.102C302.872 250.652 303.228 250.183 303.228 250.183L311.951 250.468C311.951 250.468 312.098 251.097 312.213 251.738C312.313 252.155 312.355 252.583 312.336 253.011C312.314 253.167 312.325 253.326 312.368 253.478C312.411 253.63 312.485 253.771 312.585 253.893L312.739 255.336L312.8 255.825Z" fill="#12174E"/>
<path d="M331.056 258.273C330.951 258.695 330.825 259.452 330.768 259.808C330.749 259.928 330.739 260.004 330.739 260.004C330.739 260.004 330.032 261.557 326.113 262.122C322.194 262.688 322.186 260.813 322.186 260.813C322.186 260.813 322.201 260.611 322.228 260.308C322.285 259.388 322.39 258.473 322.542 257.564C322.68 257.103 322.434 255.09 322.434 255.09L322.392 252.995L322.364 251.532L328.867 250.851C328.908 251.337 328.978 251.821 329.077 252.299C329.118 252.563 329.215 252.815 329.359 253.04C329.715 253.43 329.927 255.158 329.927 255.158C329.927 255.158 331.197 257.705 331.056 258.273Z" fill="#12174E"/>
<path opacity="0.1" d="M311.951 250.468C311.951 250.468 312.098 251.097 312.213 251.738C311.27 251.914 307.149 252.626 306.121 252.126C304.956 251.56 302.455 251.243 302.455 251.243L302.497 251.102C302.877 250.652 303.233 250.183 303.233 250.183L311.951 250.468Z" fill="#12174E"/>
<path opacity="0.1" d="M329.071 252.304C327.424 252.024 323.814 252.699 322.392 252.99L322.363 251.527L328.867 250.851C328.905 251.339 328.974 251.824 329.071 252.304Z" fill="#12174E"/>
<path d="M332.75 198.763L332.611 203.738C332.611 203.738 332.786 211.33 332.257 212.532C331.729 213.734 331.734 218.572 331.734 218.572C331.734 218.572 332.087 220.865 331.697 221.36C331.307 221.855 331.59 223.69 331.875 224.643C332.161 225.596 331.909 227.966 331.909 227.966L331.839 241.318C331.839 241.318 331.451 244.777 330.956 245.274C330.813 245.42 330.711 245.601 330.66 245.798C330.61 245.996 330.612 246.204 330.668 246.4C330.668 246.4 330.244 248.377 330.349 248.73C330.454 249.084 330.668 249.898 329.857 250.285C329.045 250.673 329.254 251.909 329.254 251.909C327.314 251.45 321.803 252.694 321.803 252.694C321.209 251.467 320.689 250.206 320.248 248.916C320.153 248.654 320.115 248.376 320.137 248.098C320.158 247.821 320.238 247.551 320.372 247.307C320.506 247.063 320.69 246.85 320.912 246.683C321.135 246.516 321.39 246.398 321.662 246.337C322.403 246.232 321.138 244.926 321.138 244.926C321.138 244.926 321.28 244.748 320.926 243.478C320.573 242.208 320.997 238.957 321.102 238.108C321.206 237.26 321.74 233.163 321.74 233.163C321.74 233.163 321.458 227.971 321.67 227.759C321.882 227.547 322.589 225.497 322.235 224.827C321.882 224.156 321.316 219.742 321.316 219.494C321.316 219.245 320.858 213.524 320.858 213.524C320.858 213.524 320.431 209.534 320.534 208.699C320.636 207.864 320.248 204.706 320.248 204.706C320.248 202.088 318.732 199.269 318.732 199.269L318.693 199.371L315.41 207.992C315.41 207.992 314.886 210.61 314.423 212.087C314.133 213.095 313.902 214.12 313.732 215.155L313.7 215.344C313.7 215.422 313.677 215.49 313.669 215.543L313.648 215.684C313.648 215.684 313.894 217.556 313.506 218.158C313.119 218.761 312.695 220.559 312.695 221.054C312.695 221.549 312.729 223.455 312.729 223.455C312.729 223.455 312.87 227.233 312.483 227.644C312.371 227.737 312.292 227.864 312.26 228.006C312.228 228.148 312.244 228.297 312.305 228.429C312.305 228.429 312.941 231.291 312.658 232.032C312.375 232.773 312.59 234.503 312.59 234.503C312.59 234.503 312.025 239.978 311.954 240.263C311.883 240.549 311.493 242.735 311.917 242.913C312.341 243.091 313.153 244.148 313.153 244.148C313.153 244.148 313.331 248.775 312.695 249.123C312.059 249.471 312.412 251.278 312.412 251.278C312.412 251.278 307.291 252.267 306.129 251.702C304.966 251.136 302.463 250.817 302.463 250.817L302.814 249.654C302.793 249.696 302.552 250.073 302.393 248.628C302.217 247.11 303.702 247.843 303.702 247.843C303.702 247.843 304.867 248.125 302.995 246.29C301.123 244.455 302.042 242.58 302.146 242.58C302.251 242.58 302.5 239.863 302.5 239.863C302.5 239.863 302.819 238.237 302.571 236.964C302.322 235.692 302.105 231.739 302.105 231.739C302.105 231.739 302.28 228.738 301.963 227.641C301.646 226.544 302.175 224.57 302.28 224.109C302.385 223.649 301.963 219.446 301.963 219.446C301.963 219.446 302.317 217.47 302.105 216.025C301.892 214.579 302.317 209.244 302.317 209.244L302.953 203.096C302.953 203.096 303.411 201.19 303.34 200.413C303.27 199.635 303.864 196.918 303.864 196.918C303.83 196.338 303.927 195.758 304.147 195.221C304.5 194.517 304.644 192.184 304.644 192.184L308.032 184.413L309.697 177.575L332.124 177.363C332.124 177.363 332.205 177.954 332.341 179.036C332.477 180.117 332.669 181.714 332.881 183.688C333.077 185.479 333.292 187.589 333.501 189.935C334.163 197.42 332.75 198.763 332.75 198.763Z" fill="#12174E"/>
<path d="M330.668 136.923L325.432 142.505C325.432 142.505 318.724 139.819 319.429 138.903C319.69 138.547 319.659 137.426 319.502 136.188C319.24 134.232 318.717 131.98 318.717 131.98C318.717 131.98 330.44 130.072 329.451 132.048C329.09 132.771 329.152 133.619 329.378 134.405C329.669 135.308 330.105 136.159 330.668 136.923Z" fill="#FBBEBE"/>
<path opacity="0.1" d="M329.466 132.049C329.105 132.771 328.943 132.834 329.158 133.62C327.626 135.264 325.675 137.062 323.251 137.062C321.952 137.063 320.671 136.76 319.51 136.178C319.248 134.222 318.724 131.97 318.724 131.97C318.724 131.97 330.456 130.072 329.466 132.049Z" fill="#12174E"/>
<path d="M331.658 128.446C331.658 130.676 330.772 132.814 329.196 134.391C327.619 135.967 325.481 136.853 323.251 136.853C321.022 136.853 318.883 135.967 317.307 134.391C315.73 132.814 314.844 130.676 314.844 128.446C314.844 128.407 314.844 128.368 314.844 128.326C314.896 126.12 315.812 124.023 317.396 122.487C318.979 120.951 321.103 120.099 323.309 120.115C325.515 120.131 327.627 121.013 329.188 122.572C330.749 124.13 331.636 126.24 331.655 128.446H331.658Z" fill="#FBBEBE"/>
<path opacity="0.1" d="M332.872 183.9C331.76 183.9 328.052 183.94 323.91 184.005H323.858L322.491 184.029H322.447C317.533 184.107 312.692 183.146 310.749 183.33C306.618 183.717 312.231 179.515 312.231 179.515C315.314 180.264 318.486 180.583 321.656 180.465L322.845 180.405C326.599 180.193 330.372 179.84 332.343 179.248C332.474 180.34 332.66 181.926 332.872 183.9Z" fill="#12174E"/>
<path d="M332.872 183.689C331.76 183.689 328.052 183.728 323.91 183.793H323.858L322.491 183.817H322.447C317.533 183.895 312.692 182.935 310.749 183.118C306.618 183.505 312.231 179.303 312.231 179.303C315.314 180.052 318.486 180.372 321.656 180.256L322.845 180.193C326.599 179.981 330.372 179.628 332.343 179.036C332.474 180.128 332.66 181.714 332.872 183.689Z" fill="#E3A79F"/>
<path opacity="0.1" d="M320.992 139.256L314.494 142.293L309.477 181.07C309.477 181.07 312.444 179.727 314.14 180.575C315.837 181.424 321.062 180.646 321.062 180.646C321.062 180.646 324.877 180.434 325.44 180.858C326.003 181.282 332.645 179.091 332.645 179.091C332.645 179.091 333.847 176.407 332.928 175.983C332.009 175.559 333.211 171.394 333.211 171.394L332.645 143.422L331.517 139.819L328.48 137.986L325.369 140.458L323.887 140.67L320.992 139.256Z" fill="#12174E"/>
<path d="M320.992 138.832L314.494 141.869L309.477 180.646C309.477 180.646 312.444 179.303 314.148 180.162C315.852 181.021 321.07 180.232 321.07 180.232C321.07 180.232 324.885 180.02 325.448 180.445C326.011 180.869 332.653 178.68 332.653 178.68C332.653 178.68 333.855 175.994 332.936 175.572C332.017 175.151 333.218 170.98 333.218 170.98L332.653 143.008L331.525 139.405L328.488 137.573L325.377 140.044L323.895 140.256L320.992 138.832Z" fill="#E7EFFD"/>
<path opacity="0.1" d="M320.884 140.628C320.884 140.628 322.756 142.851 322.717 143.312C322.678 143.773 322.61 144.864 322.61 144.864L321.217 147.731C321.217 147.731 320.431 151.297 320.431 152.041C320.431 152.784 319.19 159.217 319.19 159.217L317.706 169.106L315.834 182.068L317.743 185.351L320.002 183.445L323.005 160.348L323.639 155.792C323.639 155.792 324.311 147.598 324.311 146.749C324.311 145.901 323.921 143.678 323.921 143.678C323.921 143.678 324.382 141.558 326.278 141.06C328.173 140.563 326.136 140.956 326.136 140.956L325.042 140.073L324.097 140.455C324.097 140.455 321.45 139.644 320.884 140.628Z" fill="#12174E"/>
<path d="M320.672 140.421C320.672 140.421 322.544 142.644 322.505 143.105C322.466 143.566 322.398 144.657 322.398 144.657L320.987 147.519C320.987 147.519 320.201 151.085 320.201 151.828C320.201 152.572 318.965 158.997 318.965 158.997L317.481 168.886L315.609 181.848L317.531 185.136L319.79 183.23L322.788 160.128L323.424 155.572C323.424 155.572 324.094 147.378 324.094 146.529C324.094 145.681 323.704 143.458 323.704 143.458C323.704 143.458 324.165 141.338 326.061 140.84C327.956 140.343 325.919 140.733 325.919 140.733L324.825 139.851L323.872 140.238C323.872 140.238 321.238 139.432 320.672 140.421Z" fill="#12174E"/>
<path opacity="0.1" d="M319.436 136.701C319.436 136.701 319.154 136.913 319.083 138.327C319.012 139.741 318.036 142.917 318.036 142.917C318.036 142.917 321.701 140.374 323.534 140.657L319.436 136.701Z" fill="#12174E"/>
<path d="M319.436 136.287C319.436 136.287 319.154 136.499 319.083 137.913C319.012 139.327 318.036 142.505 318.036 142.505C318.036 142.505 321.701 139.96 323.534 140.243L319.436 136.287Z" fill="#E7EFFD"/>
<path opacity="0.1" d="M329.466 135.583L323.675 140.667C323.675 140.667 328.55 143.563 329.173 144.269C329.796 144.976 330.446 137.347 330.446 137.347L329.466 135.583Z" fill="#12174E"/>
<path d="M329.679 135.159L323.887 140.243C323.887 140.243 328.76 143.139 329.385 143.846C330.011 144.553 330.658 136.923 330.658 136.923L329.679 135.159Z" fill="#E7EFFD"/>
<path opacity="0.1" d="M319.646 136.701C319.646 136.701 319.01 136.384 318.41 137.303C317.969 137.902 317.37 138.366 316.68 138.643C316.68 138.643 310.252 139.667 310.006 140.515L307.003 140.693C307.003 140.693 305.943 140.835 305.838 143.05C305.733 145.265 305.168 145.487 305.168 145.487C305.168 145.487 303.937 147.697 304.039 148.825C304.141 149.954 303.086 150.522 303.086 150.522L307.5 162C307.5 162 307.642 166.731 306.83 168.461C306.019 170.192 304.497 177.855 304.497 177.855C304.497 177.855 305.134 177.714 305.1 178.138C305.066 178.562 304.314 183.188 304.314 183.188C304.314 183.188 304.102 185.021 303.749 185.66C303.395 186.298 303.361 189.616 303.361 189.616L302.796 192.019C302.796 192.019 304.136 195.019 306.199 194.595C308.262 194.171 311.959 186.154 311.959 186.154L314.315 177.515L316.148 168.969L316.672 163.178L317.52 150.349L318.756 141.874C318.756 141.874 320.143 137.313 319.646 136.701Z" fill="#12174E"/>
<path d="M319.437 136.287C319.437 136.287 318.8 135.97 318.201 136.889C317.76 137.489 317.161 137.953 316.47 138.23C316.47 138.23 310.043 139.256 309.797 140.102L306.794 140.28C306.794 140.28 305.747 140.421 305.629 142.636C305.511 144.851 304.959 145.079 304.959 145.079C304.959 145.079 303.723 147.27 303.827 148.399C303.932 149.527 302.874 150.095 302.874 150.095L307.289 161.573C307.289 161.573 307.43 166.304 306.618 168.034C305.807 169.765 304.286 177.428 304.286 177.428C304.286 177.428 304.922 177.29 304.888 177.711C304.854 178.133 304.102 182.761 304.102 182.761C304.102 182.761 303.89 184.594 303.537 185.236C303.183 185.877 303.149 189.189 303.149 189.189L302.584 191.592C302.584 191.592 303.924 194.593 305.974 194.169C308.024 193.744 311.734 185.728 311.734 185.728L314.091 177.088L315.923 168.54L316.447 162.748L317.295 149.92L318.531 141.445C318.531 141.445 319.932 136.889 319.437 136.287Z" fill="#12174E"/>
<path opacity="0.1" d="M296.763 163.623L294.713 165.037C294.713 165.037 291.571 165.137 289.346 164.584L288.205 164.079L287.977 163.979L288.212 164.053C289.391 164.404 290.307 164.396 291.037 164.152C293.936 163.178 293.616 158.392 293.504 157.308C293.504 157.201 293.485 157.13 293.48 157.102C293.484 157.111 293.49 157.12 293.496 157.128C293.536 157.193 293.58 157.255 293.629 157.314C293.669 157.361 293.713 157.408 293.758 157.452L294.781 159.497C294.781 159.497 294.781 159.526 294.781 159.584L296.763 163.623Z" fill="#12174E"/>
<path d="M303.861 149.815L302.874 150.098L302.733 152.112C302.733 152.112 301.568 151.933 301.248 153.311C300.929 154.688 300.366 155.324 300.366 155.324C300.366 155.324 298.423 156.95 298.318 158.327L297.13 159.068C297.13 159.068 294.339 158.432 293.705 157.303C293.705 157.303 294.975 166.414 288.207 164.189C288.207 164.189 295.8 167.509 296.153 167.967C296.507 168.425 298.837 169.768 300.958 168.64C303.078 167.511 303.536 165.778 303.536 165.778C303.536 165.778 305.584 162.917 305.654 162.492C305.725 162.068 307.314 161.576 307.314 161.576L310.325 154.243L303.861 149.815Z" fill="#12174E"/>
<path opacity="0.1" d="M328.655 139.819L329.678 135.159C329.678 135.159 330.139 136.677 330.597 137.031L332.116 138.196C332.116 138.196 333.634 138.903 334.163 138.903C334.692 138.903 337.554 139.644 337.907 140.031C338.26 140.418 339.674 140.138 339.674 140.138C339.674 140.138 340.839 140.526 341.863 140.775C342.887 141.023 343.381 142.715 343.172 143.393C343.086 143.726 343.087 144.076 343.173 144.41C343.26 144.743 343.43 145.049 343.667 145.299C344.091 145.723 344.303 147.1 344.303 147.1C344.822 147.27 345.252 147.638 345.502 148.124C345.856 148.909 345.764 150.598 345.764 150.598L340.502 158.012C340.502 158.012 340.572 160.874 340.36 161.51C340.148 162.146 341.101 172.951 341.101 172.951L342.195 191.54C342.195 191.54 340.748 192.776 340.431 192.917C340.114 193.058 339.795 186.348 339.795 186.11C339.795 185.872 331.621 173.878 331.621 173.878C331.621 173.878 330.526 172.113 330.526 171.723C330.526 171.333 329.503 167.767 329.503 167.767L327.948 160.882L328.655 139.819Z" fill="#12174E"/>
<path d="M346.186 150.187C346.186 150.43 346.186 150.59 346.186 150.59L340.926 158.002C340.926 158.002 340.997 160.864 340.785 161.5C340.662 161.866 340.931 165.668 341.18 168.791C341.358 171.043 341.526 172.941 341.526 172.941L341.992 180.821L342.62 191.519C342.62 191.519 341.172 192.755 340.856 192.896C340.539 193.038 340.219 186.327 340.219 186.089C340.219 185.851 332.046 173.878 332.046 173.878C332.046 173.878 330.951 172.111 330.951 171.723C330.951 171.336 329.927 167.767 329.927 167.767L328.372 160.882L329.079 139.832L329.679 135.172C329.679 135.172 330.561 136.69 331.022 137.041C331.483 137.392 332.54 138.209 332.54 138.209C332.54 138.209 334.059 138.916 334.588 138.916C335.117 138.916 337.978 139.657 338.332 140.044C338.685 140.432 340.099 140.152 340.099 140.152C340.099 140.152 341.264 140.539 342.288 140.788C343.311 141.036 343.806 142.73 343.597 143.406C343.511 143.74 343.511 144.09 343.598 144.424C343.684 144.758 343.854 145.064 344.092 145.314C344.513 145.739 344.725 147.116 344.725 147.116C345.245 147.286 345.677 147.655 345.927 148.142C346.17 148.655 346.194 149.634 346.186 150.187Z" fill="#12174E"/>
<path opacity="0.1" d="M303.016 244.287C303.191 244.287 310.608 244.57 310.467 245.769C310.325 246.968 303.016 244.287 303.016 244.287Z" fill="#12174E"/>
<path opacity="0.1" d="M304.676 246.301C304.676 246.301 309.65 247.112 308.341 247.853C307.032 248.594 304.676 246.301 304.676 246.301Z" fill="#12174E"/>
<path opacity="0.1" d="M323.18 243.521C323.18 243.521 331.446 244.227 330.21 245.144C328.974 246.06 326.042 246.204 325.9 246.241C325.759 246.277 323.18 243.521 323.18 243.521Z" fill="#12174E"/>
<path opacity="0.1" d="M322.191 247.146C322.191 247.146 326.783 247.931 326.924 248.806C327.065 249.68 322.191 247.146 322.191 247.146Z" fill="#12174E"/>
<path opacity="0.1" d="M324.736 225.887C324.736 225.887 328.925 226.877 329.186 227.547L324.736 225.887Z" fill="#12174E"/>
<path opacity="0.1" d="M308.524 228.924C308.524 228.924 306.335 229.561 308.453 230.83C310.572 232.1 308.524 228.924 308.524 228.924Z" fill="#12174E"/>
<path opacity="0.1" d="M318.238 194.985C318.484 194.985 322.332 193.713 323.675 194.278C324.637 194.637 325.652 194.828 326.678 194.844L318.238 194.985Z" fill="#12174E"/>
<path opacity="0.1" d="M318.732 199.012L318.693 199.363L315.41 207.984C315.41 207.984 314.886 210.602 314.423 212.079C314.133 213.088 313.902 214.112 313.732 215.148L316.646 197.083L318.732 199.012Z" fill="#12174E"/>
<path d="M323.858 183.793L322.492 183.816H322.447L321.646 180.256L322.835 180.193L323.858 183.793Z" fill="#12174E"/>
<path d="M340.52 179.481L339.643 180.206L336.708 182.623C336.708 182.623 328.76 186.861 326.571 182.835C324.641 179.287 333.64 176.755 335.821 176.203L336.284 176.09L340.52 179.481Z" fill="#FBBEBE"/>
<path opacity="0.1" d="M306.581 144.765C306.581 144.765 308.137 145.472 308.49 146.459C308.843 147.446 306.581 144.765 306.581 144.765Z" fill="#12174E"/>
<path opacity="0.1" d="M301.78 155.36C301.78 155.36 299.518 158.114 300.437 159.172C301.356 160.23 301.78 155.36 301.78 155.36Z" fill="#12174E"/>
<path opacity="0.1" d="M342.18 146.317C342.18 146.317 340.062 146.529 339.991 148.367L342.18 146.317Z" fill="#12174E"/>
<path opacity="0.1" d="M322.544 175.279C322.756 175.067 327.631 167.862 328.76 168.498L322.544 175.279Z" fill="#12174E"/>
<path opacity="0.1" d="M331.658 128.446C331.659 129.831 331.317 131.195 330.663 132.415H330.6C330.076 132.303 329.791 131.682 329.382 131.292C329.132 131.055 328.813 130.903 328.471 130.856C328.13 130.809 327.782 130.87 327.476 131.03C327.167 131.215 326.916 131.483 326.75 131.803C326.585 132.123 326.511 132.483 326.539 132.842C326.277 131.711 326.356 130.509 326.091 129.376C325.827 128.242 325.044 127.095 323.958 127.077C323.492 127.077 322.947 127.25 322.609 126.899C322.405 126.689 322.363 126.357 322.211 126.1C321.426 124.849 319.083 125.482 318.122 126.124C317.161 126.765 316.043 127.792 314.847 128.341C314.898 126.136 315.814 124.039 317.398 122.503C318.981 120.967 321.105 120.115 323.311 120.131C325.517 120.146 327.629 121.029 329.19 122.587C330.752 124.146 331.638 126.256 331.658 128.462V128.446Z" fill="#12174E"/>
<path d="M322.212 125.872C322.363 126.134 322.405 126.461 322.61 126.671C322.945 127.021 323.489 126.841 323.958 126.849C325.039 126.867 325.83 128.014 326.092 129.147C326.353 130.281 326.27 131.483 326.539 132.616C326.511 132.257 326.584 131.897 326.749 131.577C326.915 131.257 327.167 130.989 327.477 130.805C327.782 130.645 328.13 130.584 328.471 130.631C328.813 130.678 329.131 130.83 329.383 131.066C329.791 131.457 330.069 132.077 330.6 132.187C331.132 132.297 331.647 131.789 331.838 131.229C332.03 130.669 332.019 130.051 332.145 129.469C332.383 128.367 333.103 127.464 333.501 126.417C333.975 125.142 333.962 123.737 333.464 122.471C333.202 121.809 332.805 121.212 332.537 120.549C332.132 119.542 332.014 118.405 331.529 117.447C330.7 115.842 328.739 115.038 327.131 115.643C326.361 115.931 325.696 116.489 324.916 116.74C323.869 117.075 322.756 116.824 321.678 116.672C320.599 116.52 319.402 116.507 318.536 117.219C317.536 118.036 317.263 119.576 316.323 120.471C315.928 120.848 315.439 121.089 315.014 121.437C314.59 121.785 314.229 122.306 314.289 122.872C314.349 123.602 315.075 124.267 314.813 124.945C314.718 125.144 314.585 125.322 314.42 125.469C313.633 126.293 313.048 127.289 312.71 128.378C314.601 128.969 316.638 126.885 318.125 125.901C319.083 125.254 321.437 124.621 322.212 125.872Z" fill="#12174E"/>
<path opacity="0.1" d="M340.52 179.481L339.643 180.206C338.857 178.915 335.684 176.336 335.684 176.336L335.82 176.203L336.284 176.09L340.52 179.481Z" fill="#12174E"/>
<path d="M341.376 178.174C341.376 178.174 341.062 178.96 340.735 179.64C340.407 180.321 340.051 180.949 340.036 180.426C339.999 179.436 335.904 176.116 335.904 176.116L336.459 175.577L337.103 174.951L341.376 178.174Z" fill="#E7EFFD"/>
<path opacity="0.1" d="M341.51 172.946L341.976 180.827C340.876 179.122 337.866 174.747 335.931 174.889L340.628 169.485C340.822 169.268 341.002 169.038 341.164 168.796C341.342 171.048 341.51 172.946 341.51 172.946Z" fill="#12174E"/>
<path opacity="0.1" d="M341.376 178.175C341.376 178.175 341.062 178.96 340.735 179.641C339.504 177.952 337.81 175.957 336.459 175.585L337.103 174.959L341.376 178.175Z" fill="#12174E"/>
<path d="M344.9 149.603L346.172 150.593C346.172 150.593 348.291 150.627 348.503 152.394C348.715 154.161 350.657 154.97 350.657 154.97C350.657 154.97 352.105 156.418 352.105 157.091C352.105 157.764 353.2 158.963 353.2 159.068C353.2 159.172 354.247 161.327 354.118 161.717C353.99 162.107 355.247 163.812 354.859 164.435C354.541 165.006 354.257 165.596 354.011 166.202C354.011 166.202 352.351 169.38 351.506 169.98C350.66 170.579 346.772 175.632 346.772 175.632C346.772 175.632 342.604 180.434 342.604 181.916C342.604 181.916 338.543 175.135 336.142 175.31L340.852 169.909C340.852 169.909 341.664 169.027 341.701 168.498C341.737 167.969 343.96 165.532 345.021 165.424C345.021 165.424 345.196 163.977 344.738 163.942C344.28 163.908 343.889 162.775 343.889 162.775C343.889 162.775 340.782 159.109 340.748 156.771C340.714 154.433 344.9 149.603 344.9 149.603Z" fill="#12174E"/>
<path opacity="0.1" d="M346.772 152.957C346.772 152.957 343.806 155.148 344.442 155.853C345.078 156.557 346.772 152.957 346.772 152.957Z" fill="#12174E"/>
<path opacity="0.1" d="M346.914 162C346.914 162 352.412 160.233 352.988 162H346.914Z" fill="#12174E"/>
<path opacity="0.1" d="M312.8 255.825C312.8 255.825 309.831 257.768 308.349 257.482C306.867 257.197 305.346 257.98 305.346 257.98C304.324 259.096 303.036 259.935 301.602 260.417C299.201 261.229 295.842 260.91 293.939 260.273C293.035 259.972 292.965 259.585 293.399 259.106C295.47 259.519 300.104 260.341 301.356 259.744C302.979 258.959 305.309 257.273 305.309 257.273C305.309 257.273 308.349 256.872 308.773 256.872C309.074 256.872 311.42 255.904 312.742 255.349L312.8 255.825Z" fill="#12174E"/>
<path opacity="0.1" d="M330.768 259.808C330.75 259.928 330.739 260.004 330.739 260.004C330.739 260.004 330.032 261.557 326.113 262.122C322.194 262.688 322.186 260.813 322.186 260.813C322.186 260.813 322.201 260.611 322.228 260.308C323.471 260.782 326.191 261.308 330.768 259.808Z" fill="#12174E"/>
<path opacity="0.1" d="M308.048 152.532C308.048 152.532 308.048 160.586 307.359 161.381C306.671 162.177 308.048 152.532 308.048 152.532Z" fill="#12174E"/>
<path opacity="0.1" d="M339.887 155.129L340.91 158.009C340.91 158.009 341.316 155.182 339.887 155.129Z" fill="#12174E"/>
<g opacity="0.1">
<path opacity="0.1" d="M314.912 124.26C315.174 123.597 314.496 122.951 314.407 122.236C314.317 122.436 314.278 122.656 314.295 122.875C314.339 123.411 314.734 123.909 314.839 124.404C314.868 124.358 314.892 124.31 314.912 124.26Z" fill="#12174E"/>
<path opacity="0.1" d="M326.634 131.868C326.372 130.753 326.456 129.574 326.199 128.464C325.943 127.354 325.152 126.184 324.063 126.166C323.597 126.166 323.052 126.338 322.715 125.988C322.51 125.778 322.471 125.446 322.317 125.189C321.531 123.938 319.191 124.571 318.227 125.213C316.782 126.173 314.797 128.182 312.946 127.726C312.857 127.941 312.774 128.155 312.705 128.378C314.596 128.97 316.633 126.886 318.12 125.901C319.083 125.26 321.437 124.626 322.212 125.878C322.364 126.139 322.406 126.467 322.61 126.676C322.945 127.027 323.489 126.846 323.958 126.854C325.039 126.873 325.83 128.019 326.092 129.153C326.354 130.287 326.27 131.488 326.54 132.622C326.523 132.367 326.555 132.111 326.634 131.868Z" fill="#12174E"/>
<path opacity="0.1" d="M331.951 130.543C331.757 131.103 331.255 131.617 330.71 131.501C330.166 131.386 329.901 130.771 329.495 130.381C329.244 130.145 328.926 129.993 328.584 129.946C328.243 129.899 327.895 129.959 327.589 130.119C327.294 130.294 327.052 130.545 326.887 130.846C326.722 131.146 326.641 131.486 326.652 131.829C326.793 131.397 327.088 131.033 327.482 130.808C327.787 130.648 328.135 130.587 328.477 130.634C328.818 130.681 329.137 130.833 329.388 131.069C329.796 131.459 330.074 132.08 330.605 132.19C331.137 132.3 331.653 131.792 331.844 131.232C331.945 130.901 332.01 130.561 332.037 130.216C332.015 130.327 331.986 130.436 331.951 130.543Z" fill="#12174E"/>
<path opacity="0.1" d="M333.606 125.731C333.208 126.778 332.491 127.682 332.25 128.784C332.203 129.006 332.174 129.234 332.148 129.462C332.389 128.365 333.103 127.462 333.501 126.42C333.677 125.948 333.787 125.455 333.829 124.954C333.773 125.218 333.699 125.478 333.606 125.731Z" fill="#12174E"/>
</g>
<defs>
<filter id="filter0_f" x="54.1442" y="61.5144" width="28.8343" height="10.1501" filterUnits="userSpaceOnUse" color-interpolation-filters="sRGB">
<feFlood flood-opacity="0" result="BackgroundImageFix"/>
<feBlend mode="normal" in="SourceGraphic" in2="BackgroundImageFix" result="shape"/>
<feGaussianBlur stdDeviation="1.77064" result="effect1_foregroundBlur"/>
</filter>
<linearGradient id="paint0_linear" x1="319.423" y1="260.829" x2="-0.125397" y2="273.371" gradientUnits="userSpaceOnUse">
<stop stop-color="#00FFF3"/>
<stop offset="1" stop-color="#6C63FF"/>
<stop offset="1" stop-color="#6C63FF"/>
</linearGradient>
<linearGradient id="paint1_linear" x1="659.694" y1="176.57" x2="306.535" y2="191.894" gradientUnits="userSpaceOnUse">
<stop stop-color="#00FFF3"/>
<stop offset="1" stop-color="#6C63FF"/>
<stop offset="1" stop-color="#6C63FF"/>
</linearGradient>
<linearGradient id="paint2_linear" x1="355.311" y1="327.104" x2="35.7625" y2="339.646" gradientUnits="userSpaceOnUse">
<stop stop-color="#00FFF3"/>
<stop offset="1" stop-color="#6C63FF"/>
<stop offset="1" stop-color="#6C63FF"/>
</linearGradient>
<linearGradient id="paint3_linear" x1="401.871" y1="323.357" x2="82.2047" y2="334.297" gradientUnits="userSpaceOnUse">
<stop stop-color="#00FFF3"/>
<stop offset="1" stop-color="#6C63FF"/>
<stop offset="1" stop-color="#6C63FF"/>
</linearGradient>
<linearGradient id="paint4_linear" x1="322.82" y1="312.268" x2="3.27164" y2="324.81" gradientUnits="userSpaceOnUse">
<stop stop-color="#00FFF3"/>
<stop offset="1" stop-color="#00FFF3" stop-opacity="0"/>
</linearGradient>
<linearGradient id="paint5_linear" x1="97.5677" y1="169.496" x2="97.5677" y2="78.9829" gradientUnits="userSpaceOnUse">
<stop stop-color="#808080" stop-opacity="0.25"/>
<stop offset="0.54" stop-color="#808080" stop-opacity="0.12"/>
<stop offset="1" stop-color="#808080" stop-opacity="0.1"/>
</linearGradient>
<linearGradient id="paint6_linear" x1="115.367" y1="101.718" x2="77.4719" y2="101.857" gradientUnits="userSpaceOnUse">
<stop stop-color="#00FFF3"/>
<stop offset="1" stop-color="#6C63FF"/>
<stop offset="1" stop-color="#6C63FF"/>
</linearGradient>
<linearGradient id="paint7_linear" x1="3380.9" y1="9030.46" x2="3380.9" y2="7604.42" gradientUnits="userSpaceOnUse">
<stop stop-color="#808080" stop-opacity="0.25"/>
<stop offset="0.54" stop-color="#808080" stop-opacity="0.12"/>
<stop offset="1" stop-color="#808080" stop-opacity="0.1"/>
</linearGradient>
<linearGradient id="paint8_linear" x1="3932.04" y1="9154.96" x2="3932.04" y2="8081.92" gradientUnits="userSpaceOnUse">
<stop stop-color="#808080" stop-opacity="0.25"/>
<stop offset="0.54" stop-color="#808080" stop-opacity="0.12"/>
<stop offset="1" stop-color="#808080" stop-opacity="0.1"/>
</linearGradient>
<linearGradient id="paint9_linear" x1="86730.8" y1="4637.95" x2="86730.6" y2="4500.89" gradientUnits="userSpaceOnUse">
<stop stop-color="#808080" stop-opacity="0.25"/>
<stop offset="0.54" stop-color="#808080" stop-opacity="0.12"/>
<stop offset="1" stop-color="#808080" stop-opacity="0.1"/>
</linearGradient>
<linearGradient id="paint10_linear" x1="145278" y1="74030" x2="145278" y2="25628.3" gradientUnits="userSpaceOnUse">
<stop stop-color="#808080" stop-opacity="0.25"/>
<stop offset="0.54" stop-color="#808080" stop-opacity="0.12"/>
<stop offset="1" stop-color="#808080" stop-opacity="0.1"/>
</linearGradient>
<linearGradient id="paint11_linear" x1="335.355" y1="80.1032" x2="164.649" y2="81.5798" gradientUnits="userSpaceOnUse">
<stop stop-color="#00FFF3"/>
<stop offset="1" stop-color="#6C63FF"/>
<stop offset="1" stop-color="#6C63FF"/>
</linearGradient>
<linearGradient id="paint12_linear" x1="23554.5" y1="7900.11" x2="23554.5" y2="5071.11" gradientUnits="userSpaceOnUse">
<stop stop-color="#808080" stop-opacity="0.25"/>
<stop offset="0.54" stop-color="#808080" stop-opacity="0.12"/>
<stop offset="1" stop-color="#808080" stop-opacity="0.1"/>
</linearGradient>
<linearGradient id="paint13_linear" x1="15675.2" y1="7142.72" x2="16532.2" y2="7142.72" gradientUnits="userSpaceOnUse">
<stop stop-color="#808080" stop-opacity="0.25"/>
<stop offset="0.54" stop-color="#808080" stop-opacity="0.12"/>
<stop offset="1" stop-color="#808080" stop-opacity="0.1"/>
</linearGradient>
<linearGradient id="paint14_linear" x1="23569.6" y1="11330.5" x2="23569.6" y2="8501.5" gradientUnits="userSpaceOnUse">
<stop stop-color="#808080" stop-opacity="0.25"/>
<stop offset="0.54" stop-color="#808080" stop-opacity="0.12"/>
<stop offset="1" stop-color="#808080" stop-opacity="0.1"/>
</linearGradient>
<linearGradient id="paint15_linear" x1="17163.5" y1="12326.6" x2="17163.5" y2="9956.05" gradientUnits="userSpaceOnUse">
<stop stop-color="#808080" stop-opacity="0.25"/>
<stop offset="0.54" stop-color="#808080" stop-opacity="0.12"/>
<stop offset="1" stop-color="#808080" stop-opacity="0.1"/>
</linearGradient>
<linearGradient id="paint16_linear" x1="919.374" y1="1761.51" x2="919.374" y2="13" gradientUnits="userSpaceOnUse">
<stop stop-color="#808080" stop-opacity="0.25"/>
<stop offset="0.54" stop-color="#808080" stop-opacity="0.12"/>
<stop offset="1" stop-color="#808080" stop-opacity="0.1"/>
</linearGradient>
<linearGradient id="paint17_linear" x1="68.495" y1="14.0225" x2="68.495" y2="54.6047" gradientUnits="userSpaceOnUse">
<stop stop-color="white"/>
<stop offset="1" stop-color="white" stop-opacity="0"/>
</linearGradient>
<linearGradient id="paint18_linear" x1="41162.1" y1="120652" x2="41076.2" y2="59128.7" gradientUnits="userSpaceOnUse">
<stop stop-color="#808080" stop-opacity="0.25"/>
<stop offset="0.54" stop-color="#808080" stop-opacity="0.12"/>
<stop offset="1" stop-color="#808080" stop-opacity="0.1"/>
</linearGradient>
<linearGradient id="paint19_linear" x1="145.843" y1="254.879" x2="145.676" y2="134.77" gradientUnits="userSpaceOnUse">
<stop stop-opacity="0.09"/>
<stop offset="0.55" stop-opacity="0.07"/>
<stop offset="1" stop-opacity="0.02"/>
</linearGradient>
<linearGradient id="paint20_linear" x1="181.668" y1="160.91" x2="104.424" y2="161.239" gradientUnits="userSpaceOnUse">
<stop stop-color="#00FFF3"/>
<stop offset="1" stop-color="#6C63FF"/>
<stop offset="1" stop-color="#6C63FF"/>
</linearGradient>
<linearGradient id="paint21_linear" x1="10247.8" y1="20859.6" x2="10247.8" y2="18030.6" gradientUnits="userSpaceOnUse">
<stop stop-color="#808080" stop-opacity="0.25"/>
<stop offset="0.54" stop-color="#808080" stop-opacity="0.12"/>
<stop offset="1" stop-color="#808080" stop-opacity="0.1"/>
</linearGradient>
<linearGradient id="paint22_linear" x1="7955.89" y1="17737" x2="8813.79" y2="17737" gradientUnits="userSpaceOnUse">
<stop stop-color="#808080" stop-opacity="0.25"/>
<stop offset="0.54" stop-color="#808080" stop-opacity="0.12"/>
<stop offset="1" stop-color="#808080" stop-opacity="0.1"/>
</linearGradient>
<linearGradient id="paint23_linear" x1="7592.04" y1="20828.6" x2="7592.04" y2="17999.6" gradientUnits="userSpaceOnUse">
<stop stop-color="#808080" stop-opacity="0.25"/>
<stop offset="0.54" stop-color="#808080" stop-opacity="0.12"/>
<stop offset="1" stop-color="#808080" stop-opacity="0.1"/>
</linearGradient>
<linearGradient id="paint24_linear" x1="6407.61" y1="17711.7" x2="7265.51" y2="17711.7" gradientUnits="userSpaceOnUse">
<stop stop-color="#808080" stop-opacity="0.25"/>
<stop offset="0.54" stop-color="#808080" stop-opacity="0.12"/>
<stop offset="1" stop-color="#808080" stop-opacity="0.1"/>
</linearGradient>
<linearGradient id="paint25_linear" x1="319.348" y1="262.546" x2="319.348" y2="114.638" gradientUnits="userSpaceOnUse">
<stop stop-color="#808080" stop-opacity="0.25"/>
<stop offset="0.54" stop-color="#808080" stop-opacity="0.12"/>
<stop offset="1" stop-color="#808080" stop-opacity="0.1"/>
</linearGradient>
</defs>
</svg>
