<svg width="395" height="338" viewBox="0 0 395 338" fill="none" xmlns="http://www.w3.org/2000/svg">
<g opacity="0.4">
<rect opacity="0.4" x="15.8856" y="240.224" width="309.008" height="34.4232" transform="rotate(-25.0264 15.8856 240.224)" fill="url(#paint0_linear)"/>
<rect opacity="0.4" x="324.115" y="155.965" width="341.627" height="34.4232" transform="rotate(154.974 324.115 155.965)" fill="url(#paint1_linear)"/>
<rect opacity="0.4" x="51.7735" y="306.499" width="309.008" height="34.4232" transform="rotate(-25.5449 51.7735 306.499)" fill="url(#paint2_linear)"/>
<rect opacity="0.4" x="98.3336" y="301.635" width="309.008" height="39.4806" transform="rotate(-25.5449 98.3336 301.635)" fill="url(#paint3_linear)"/>
<rect opacity="0.4" x="19.2827" y="291.663" width="309.008" height="34.4232" transform="rotate(-25.0264 19.2827 291.663)" fill="url(#paint4_linear)"/>
</g>
<g clip-path="url(#clip0)">
<path d="M243.663 137.467C237.249 141.314 225.82 146.134 214.141 141.181L206.592 137.978L221.72 121.02C209.648 107.709 202.969 90.3766 202.988 72.4065C203.006 54.4365 209.72 37.1181 221.82 23.8319C233.92 10.5457 250.536 2.24525 268.426 0.550648C286.316 -1.14396 304.195 3.88895 318.574 14.667C332.954 25.445 342.8 41.1947 346.192 58.8416C349.584 76.4886 346.279 94.7664 336.92 110.107C327.562 125.448 312.823 136.751 295.579 141.81C278.336 146.869 259.826 145.321 243.663 137.467V137.467ZM214.677 72.366C214.644 80.6498 216.325 88.8509 219.615 96.4535C222.905 104.056 227.732 110.896 233.794 116.542L237.967 120.463L228.447 131.135C233.406 130.129 237.725 127.446 239.915 125.888L242.919 123.75L246.151 125.526C255.084 130.417 265.105 132.98 275.29 132.979C308.712 132.979 335.903 105.788 335.903 72.366C335.903 38.944 308.712 11.753 275.29 11.753C241.868 11.753 214.677 38.944 214.677 72.366V72.366Z" fill="#12174E"/>
<path d="M208.801 72.3661C208.801 35.6449 238.569 5.87646 275.29 5.87646C312.011 5.87646 341.78 35.6449 341.78 72.3661C341.78 109.087 312.011 138.856 275.29 138.856C264.114 138.872 253.116 136.058 243.321 130.677C238.725 133.947 227.513 140.469 216.436 135.771L229.77 120.825C223.142 114.614 217.86 107.109 214.253 98.7728C210.646 90.437 208.79 81.4489 208.801 72.3661Z" fill="url(#paint5_linear)"/>
<path opacity="0.1" d="M330.453 72.5101C330.453 37.7697 303.808 9.25741 269.84 6.28195C271.777 6.1123 273.736 6.02051 275.717 6.02051C312.438 6.02051 342.206 35.7889 342.206 72.5101C342.206 109.231 312.438 139 275.717 139C273.739 139 271.783 138.907 269.849 138.737C303.813 135.758 330.453 107.247 330.453 72.5101Z" fill="#12174E"/>
<path d="M122.072 229.836C105.458 229.844 89.3468 224.141 76.4375 213.683C63.5282 203.225 54.6056 188.648 51.1651 172.395C47.7246 156.141 49.9752 139.199 57.5398 124.407C65.1044 109.616 77.5233 97.8737 92.7151 91.149C107.907 84.4243 124.949 83.1257 140.984 87.4706C157.02 91.8156 171.074 101.54 180.793 115.015C190.512 128.489 195.304 144.895 194.366 161.482C193.428 178.069 186.817 193.83 175.642 206.123L190.77 223.082L183.221 226.284C171.542 231.238 160.113 226.418 153.699 222.571C143.84 227.35 133.028 229.834 122.072 229.836ZM122.072 96.8565C88.65 96.8565 61.4591 124.047 61.4591 157.47C61.4591 190.892 88.65 218.083 122.072 218.083C132.257 218.084 142.278 215.52 151.211 210.629L154.443 208.853L157.448 210.992C159.638 212.55 163.956 215.232 168.915 216.238L159.395 205.567L163.568 201.645C169.63 195.999 174.457 189.16 177.747 181.557C181.037 173.954 182.718 165.753 182.685 157.47C182.685 124.047 155.494 96.8565 122.072 96.8565Z" fill="#12174E"/>
<path d="M188.562 157.469C188.562 120.748 158.793 90.9795 122.072 90.9795C85.3508 90.9795 55.5823 120.748 55.5823 157.469C55.5823 194.19 85.3508 223.959 122.072 223.959C133.248 223.975 144.246 221.161 154.041 215.78C158.637 219.05 169.849 225.572 180.926 220.874L167.593 205.928C174.221 199.717 179.502 192.212 183.109 183.876C186.716 175.54 188.572 166.552 188.562 157.469Z" fill="url(#paint6_linear)"/>
<path opacity="0.8" d="M153.957 170.518L159.486 164.045L165.016 157.571L168.137 153.917C168.31 153.714 168.044 153.399 167.871 153.601L162.341 160.075L156.812 166.548L153.69 170.203C153.517 170.405 153.784 170.72 153.957 170.518Z" fill="url(#paint7_linear)"/>
<path d="M127.796 179.845L127.784 181.922L127.645 207.123L127.628 210.126L127.591 216.895L127.554 223.74H127.185L127.222 216.895L127.257 210.572L127.276 207.061L127.415 181.927L127.427 179.844L127.796 179.845Z" fill="#6C63FF"/>
<path d="M124.626 202.299L111.496 219.34L113.312 219.759L123.508 206.629H124.626V202.299Z" fill="#12174E"/>
<path d="M129.453 202.299L142.582 219.34L140.767 219.759L130.57 206.629H129.453V202.299Z" fill="#12174E"/>
<path d="M83.6837 150.128C89.8149 150.128 94.7852 145.157 94.7852 139.026C94.7852 132.895 89.8149 127.925 83.6837 127.925C77.5525 127.925 72.5822 132.895 72.5822 139.026C72.5822 145.157 77.5525 150.128 83.6837 150.128Z" fill="#E6E6E6"/>
<path d="M82.5917 132.656C83.2953 132.656 83.8657 132.086 83.8657 131.382C83.8657 130.679 83.2953 130.108 82.5917 130.108C81.8882 130.108 81.3178 130.679 81.3178 131.382C81.3178 132.086 81.8882 132.656 82.5917 132.656Z" fill="#CBCBCB"/>
<path d="M84.7757 145.396C85.4793 145.396 86.0496 144.826 86.0496 144.122C86.0496 143.419 85.4793 142.848 84.7757 142.848C84.0721 142.848 83.5017 143.419 83.5017 144.122C83.5017 144.826 84.0721 145.396 84.7757 145.396Z" fill="#CBCBCB"/>
<path d="M89.6894 137.934C90.192 137.934 90.5994 137.527 90.5994 137.024C90.5994 136.522 90.192 136.114 89.6894 136.114C89.1869 136.114 88.7794 136.522 88.7794 137.024C88.7794 137.527 89.1869 137.934 89.6894 137.934Z" fill="#CBCBCB"/>
<path d="M79.3159 142.848C80.9241 142.848 82.2278 141.544 82.2278 139.936C82.2278 138.328 80.9241 137.024 79.3159 137.024C77.7077 137.024 76.4041 138.328 76.4041 139.936C76.4041 141.544 77.7077 142.848 79.3159 142.848Z" fill="#CBCBCB"/>
<path d="M101.307 157.13C101.639 157.13 101.907 156.861 101.907 156.53C101.907 156.199 101.639 155.93 101.307 155.93C100.976 155.93 100.708 156.199 100.708 156.53C100.708 156.861 100.976 157.13 101.307 157.13Z" fill="#6C63FF"/>
<path d="M106.506 165.231L106.207 165.528L105.909 165.229L105.71 165.427L106.007 165.727L105.708 166.024L105.906 166.224L106.205 165.926L106.503 166.226L106.702 166.027L106.405 165.728L106.704 165.431L106.506 165.231Z" fill="#E6E6E6"/>
<path d="M108.905 147.836L108.606 148.133L108.309 147.834L108.109 148.032L108.407 148.332L108.107 148.629L108.305 148.829L108.605 148.531L108.902 148.831L109.102 148.632L108.804 148.333L109.104 148.036L108.905 147.836Z" fill="#E6E6E6"/>
<path d="M116.446 114.827C115.798 115.258 115.135 114.231 115.796 113.819C116.443 113.387 117.106 114.414 116.446 114.827Z" fill="#E6E6E6"/>
<path d="M78.9246 159.468L78.5125 159.377L78.6028 158.965L78.328 158.905L78.2376 159.317L77.8256 159.227L77.7654 159.502L78.1774 159.592L78.0872 160.004L78.3619 160.064L78.4523 159.652L78.8644 159.742L78.9246 159.468Z" fill="#E6E6E6"/>
<path d="M141.985 109.992L141.573 109.901L141.664 109.489L141.389 109.429L141.298 109.841L140.886 109.751L140.826 110.025L141.238 110.116L141.148 110.528L141.423 110.588L141.513 110.176L141.925 110.266L141.985 109.992Z" fill="#E6E6E6"/>
<path d="M174.187 136.658L173.775 136.568L173.865 136.155L173.59 136.095L173.5 136.507L173.088 136.417L173.027 136.692L173.439 136.782L173.349 137.194L173.624 137.255L173.714 136.842L174.126 136.933L174.187 136.658Z" fill="#E6E6E6"/>
<path d="M96.3507 116.495L95.9386 116.405L96.0288 115.993L95.7541 115.933L95.6637 116.345L95.2515 116.254L95.1913 116.529L95.6035 116.62L95.5133 117.032L95.788 117.092L95.8784 116.68L96.2905 116.77L96.3507 116.495Z" fill="#E6E6E6"/>
<path d="M135.408 130.185C135.739 130.185 136.008 129.916 136.008 129.585C136.008 129.253 135.739 128.985 135.408 128.985C135.077 128.985 134.808 129.253 134.808 129.585C134.808 129.916 135.077 130.185 135.408 130.185Z" fill="#6C63FF"/>
<path d="M130.916 138.671L130.504 138.58L130.594 138.168L130.32 138.108L130.229 138.52L129.817 138.43L129.757 138.705L130.169 138.795L130.079 139.207L130.354 139.267L130.444 138.855L130.856 138.945L130.916 138.671Z" fill="#E6E6E6"/>
<path d="M146.833 131.254L146.421 131.164L146.511 130.752L146.236 130.691L146.146 131.103L145.734 131.013L145.673 131.288L146.086 131.378L145.995 131.791L146.27 131.851L146.361 131.439L146.773 131.529L146.833 131.254Z" fill="#E6E6E6"/>
<path d="M124.7 206.468H123.694V223.579H124.7V206.468Z" fill="#E6E6E6"/>
<path d="M131.356 206.468H130.419V206.558L140.546 219.598L141.399 219.401L131.356 206.468Z" fill="#E6E6E6"/>
<path d="M145.394 216.895V220.056C140.939 221.807 136.298 223.043 131.562 223.739H110.934C110.405 223.644 109.879 223.542 109.357 223.433V216.895H145.394Z" fill="#12174E"/>
<path d="M127.645 207.122C127.527 207.102 127.403 207.082 127.276 207.06C126.526 206.94 125.622 206.802 124.585 206.66C124.515 206.649 124.443 206.639 124.369 206.629C123.514 206.514 122.573 206.396 121.558 206.28C115.995 205.655 108.225 205.153 100.295 205.843C100.492 205.055 100.673 204.266 100.844 203.481L93.2496 204.657L101.444 200.489C102.216 196.208 102.747 191.886 103.034 187.545L98.9318 188.179L103.126 186.046C103.427 180.674 103.286 177.098 103.286 177.098C103.286 177.098 89.5649 184.231 78.593 195.132C78.1905 193.714 77.7494 192.313 77.2798 190.938L71.3863 195.869L76.245 188.067C74.6937 184.002 72.9143 180.028 70.915 176.164L67.7318 178.827L70.2207 174.832C67.7016 170.078 65.7326 167.089 65.7326 167.089C65.7326 167.089 63.4869 170.769 60.8119 176.449C63.3347 186.842 68.4571 196.423 75.6982 204.293C77.3352 206.074 79.0721 207.761 80.9008 209.345C81.258 209.653 81.6186 209.958 81.9825 210.26C83.921 211.865 85.9534 213.352 88.0689 214.715C88.193 214.795 88.3171 214.874 88.4429 214.953C94.8462 219.017 101.931 221.89 109.357 223.433C109.879 223.542 110.405 223.644 110.933 223.74C111.063 223.763 111.192 223.787 111.321 223.808H113.461C113.461 223.808 114.41 223.763 114.437 223.74C117.095 221.413 119.505 219.062 121.583 216.895C122.056 216.404 122.511 215.921 122.949 215.451L119.363 213.36L123.965 214.346C124.176 214.113 124.384 213.883 124.585 213.658C125.619 212.504 126.514 211.46 127.257 210.572C127.385 210.418 127.509 210.27 127.628 210.126C128.981 208.493 129.726 207.496 129.726 207.496C129.726 207.496 128.978 207.344 127.645 207.122Z" fill="#12174E"/>
<path d="M124.699 169.66H123.693V181.903H124.699V169.66Z" fill="#6C63FF"/>
<path opacity="0.1" d="M67.3356 157.134C67.3356 122.393 93.9806 93.881 127.949 90.9055C126.012 90.7358 124.053 90.644 122.072 90.644C85.3508 90.644 55.5824 120.412 55.5824 157.134C55.5824 193.855 85.3508 223.623 122.072 223.623C124.05 223.623 126.005 223.53 127.939 223.361C93.9758 220.381 67.3356 191.871 67.3356 157.134Z" fill="#12174E"/>
<path d="M49.7886 155.146C53.215 155.146 55.9927 152.368 55.9927 148.942C55.9927 145.515 53.215 142.738 49.7886 142.738C46.3622 142.738 43.5846 145.515 43.5846 148.942C43.5846 152.368 46.3622 155.146 49.7886 155.146Z" fill="#12174E"/>
<path d="M72.2774 167.36L69.1525 164.322L62.8776 166.271L63.4803 173.537L76.3824 172.938L72.4188 167.552L72.2774 167.36Z" fill="#FBBEBE"/>
<path d="M65.443 167.297C70.9826 167.297 75.4733 162.807 75.4733 157.267C75.4733 151.728 70.9826 147.237 65.443 147.237C59.9034 147.237 55.4127 151.728 55.4127 157.267C55.4127 162.807 59.9034 167.297 65.443 167.297Z" fill="#FBBEBE"/>
<path d="M127.711 180.234C127.711 180.234 140.034 201.41 142.966 204.589C144.361 206.154 145.847 207.635 147.416 209.024C147.416 209.024 146.037 213.597 143.842 213.434C142.59 213.358 141.363 213.056 140.219 212.541C140.219 212.541 139.239 210.001 137.53 208.887C135.821 207.772 121.854 194.033 122.181 189.641C122.507 185.25 127.711 180.234 127.711 180.234Z" fill="#12174E"/>
<path d="M83.8278 210.453C83.8278 210.453 96.9662 220.651 114.822 211.069L116.361 209.936C116.361 209.936 113.764 215.778 113.523 217.362C113.243 219.198 106.483 229.956 105.379 230.471C104.276 230.987 104.033 231.462 104.033 231.462L108.715 236.616L110.446 235.342C110.446 235.342 117.196 225.778 119.17 224.029C121.145 222.279 130.551 204.238 130.551 204.238C130.551 204.238 134.147 197.44 125.172 196.929C116.197 196.417 112.067 198.864 112.067 198.864L96.1378 201.394L83.8278 210.453Z" fill="#12174E"/>
<path d="M147.569 208.022L154.214 212.62C154.214 212.62 162.692 215.277 157.47 217.044C152.247 218.812 138.485 219.451 138.173 217.013C137.861 214.574 138.716 210.735 139.402 210.945C140.089 211.155 144.854 212.392 147.569 208.022Z" fill="#12174E"/>
<path d="M111.034 233.762L112.264 240.516C112.264 240.516 115.762 247.205 111.562 245.13C107.363 243.054 98.7113 235.171 99.9889 233.518C101.266 231.866 104.086 230.073 104.373 230.612C104.659 231.15 106.778 234.756 111.034 233.762Z" fill="#12174E"/>
<path d="M98.3627 203.612C98.3627 203.612 89.4315 214.039 84.0093 211.506C78.587 208.973 56.4035 179.635 58.9365 174.213C61.4695 168.79 62.3188 169.944 62.3188 169.944L73.7728 171.004L70.4772 165.72C70.4772 165.72 72.016 164.587 73.4823 166.177C74.9486 167.766 80.8354 171.736 82.8862 177.344C84.937 182.951 90.958 182.671 90.958 182.671L98.3627 203.612Z" fill="white"/>
<path d="M134.429 182.11L118.948 198.544L105.079 174.058L118.263 158.128L134.429 182.11Z" fill="#12174E"/>
<path d="M133.261 181.932L119.278 196.373L106.607 174.119L118.227 159.489L133.261 181.932Z" fill="white"/>
<path d="M118.189 197.916L118.948 198.544L118.461 199.495L96.8129 205.938L96.6082 205.196L97.5931 204.178L118.189 197.916Z" fill="#B3B3B3"/>
<path d="M119.14 198.403L96.7224 205.412L83.0569 179.59L105.079 174.058L119.14 198.403Z" fill="#D0CDE1"/>
<path d="M117.452 194.9L116.491 195.608L105.816 177.074L106.919 176.559L117.452 194.9Z" fill="#12174E"/>
<path d="M115.246 195.931L105.762 198.759L94.9973 179.698L104.379 177.539L115.246 195.931Z" fill="#12174E"/>
<path d="M88.5299 181.789L90.4933 181.233C90.4933 181.233 101.443 179.995 101.603 183.436C101.762 186.876 89.0237 185.28 89.0237 185.28L87.325 182.972L88.5299 181.789Z" fill="#FBBEBE"/>
<path d="M98.1337 197.257L100.867 196.135C100.867 196.135 109.116 192.436 106.749 190.027C104.383 187.617 97.0846 191.802 97.0846 191.802L95.6874 193.127L98.1337 197.257Z" fill="#FBBEBE"/>
<path d="M95.6982 191.932C95.6982 191.932 100.148 196.367 99.1354 197.409C98.1229 198.451 81.5196 212.152 77.4038 207.768C73.288 203.384 53.2352 181.373 61.038 179.486C68.8409 177.598 70.9025 182.011 70.9025 182.011L81.2032 199.634L95.6982 191.932Z" fill="white"/>
<path d="M82.3745 178.461L89.6838 180.939L89.5645 186.216L81.8341 185.382L82.3745 178.461Z" fill="white"/>
<path opacity="0.2" d="M88.9625 194.666L81.0873 199.275L72.0896 185.437L80.7749 196.836L88.9625 194.666Z" fill="#12174E"/>
<path d="M61.0403 166.301C67.6351 166.301 72.9811 160.954 72.9811 154.36C72.9811 147.765 67.6351 142.419 61.0403 142.419C54.4456 142.419 49.0995 147.765 49.0995 154.36C49.0995 160.954 54.4456 166.301 61.0403 166.301Z" fill="#12174E"/>
<path d="M125.559 183.152L117.198 170.921L120.743 166.534L129.43 179.117L125.559 183.152Z" fill="#6C63FF"/>
<path d="M125.324 188.07L112.595 169.565L113.223 168.806L125.892 187.355L125.324 188.07Z" fill="#E6E6E6"/>
<path d="M123.684 189.87L110.955 171.365L111.583 170.606L124.252 189.155L123.684 189.87Z" fill="#E6E6E6"/>
<path d="M122.286 191.195L109.557 172.69L110.185 171.931L122.855 190.48L122.286 191.195Z" fill="#E6E6E6"/>
<path d="M66.3282 146.388H70.0221C71.8924 146.388 73.686 147.131 75.0085 148.453C76.331 149.776 77.074 151.569 77.074 153.44H66.3282V146.388Z" fill="#12174E"/>
<path d="M117.211 141.9L116.541 141.85C116.515 142.198 116.497 142.549 116.475 142.898L113.469 142.797L116.622 148.706L120.163 143.021L117.146 142.92C117.168 142.58 117.186 142.239 117.211 141.9Z" fill="#12174E"/>
<path d="M134.841 93.7397L135.375 94.1473C136.176 93.0984 137.012 92.0513 137.861 91.0351L137.345 90.6045C136.49 91.6283 135.648 92.6831 134.841 93.7397Z" fill="#12174E"/>
<path d="M139.986 87.5826L140.481 88.0354C141.372 87.0597 142.297 86.0906 143.231 85.1549L142.755 84.6807C141.815 85.6231 140.883 86.5996 139.986 87.5826Z" fill="#12174E"/>
<path d="M145.649 81.9036L146.103 82.3985C147.078 81.5037 148.084 80.6199 149.094 79.7715L148.662 79.2573C147.644 80.1119 146.631 81.0024 145.649 81.9036Z" fill="#12174E"/>
<path d="M130.257 100.328L130.824 100.687C131.53 99.5703 132.272 98.4532 133.028 97.3666L132.476 96.9829C131.715 98.0777 130.968 99.2032 130.257 100.328Z" fill="#12174E"/>
<path d="M151.787 76.7466L152.196 77.2792C153.245 76.4735 154.325 75.6818 155.405 74.9263L155.02 74.376C153.932 75.1373 152.844 75.9348 151.787 76.7466Z" fill="#12174E"/>
<path d="M126.272 107.299L126.869 107.606C127.474 106.43 128.114 105.251 128.77 104.103L128.187 103.769C127.526 104.926 126.881 106.114 126.272 107.299Z" fill="#12174E"/>
<path d="M119.794 126.204L119.143 126.036C118.811 127.325 118.504 128.639 118.23 129.942L118.887 130.08C119.159 128.787 119.464 127.482 119.794 126.204Z" fill="#12174E"/>
<path d="M158.353 72.1507L158.713 72.7174C159.826 72.009 160.971 71.3159 162.115 70.6573L161.78 70.0752C160.627 70.7389 159.474 71.4371 158.353 72.1507Z" fill="#12174E"/>
<path d="M118.154 133.994L117.491 133.885C117.276 135.196 117.086 136.532 116.928 137.856L117.595 137.935C117.752 136.621 117.94 135.295 118.154 133.994Z" fill="#12174E"/>
<path d="M122.919 114.6L123.541 114.853C124.039 113.627 124.572 112.395 125.125 111.192L124.514 110.912C123.958 112.124 123.421 113.365 122.919 114.6Z" fill="#12174E"/>
<path d="M120.229 122.175L120.872 122.371C121.259 121.104 121.68 119.829 122.123 118.582L121.49 118.357C121.044 119.613 120.619 120.898 120.229 122.175Z" fill="#12174E"/>
<path d="M203.784 58.7643C205.101 58.7188 206.441 58.7006 207.768 58.713L207.773 58.0414C206.438 58.029 205.087 58.0472 203.761 58.0931L203.784 58.7643Z" fill="#12174E"/>
<path d="M165.295 68.1544L165.604 68.7506C166.776 68.1429 167.977 67.5541 169.172 67.0004L168.89 66.3911C167.686 66.9489 166.476 67.5422 165.295 68.1544Z" fill="#12174E"/>
<path d="M219.676 59.6021C220.986 59.7875 222.308 60.0046 223.606 60.2474L223.729 59.5873C222.422 59.3427 221.09 59.1238 219.77 58.937L219.676 59.6021Z" fill="#12174E"/>
<path d="M227.504 61.0665C228.79 61.3669 230.088 61.7007 231.361 62.0587L231.543 61.412C230.26 61.0514 228.953 60.7153 227.657 60.4126L227.504 61.0665Z" fill="#12174E"/>
<path d="M235.169 63.2218C236.424 63.6355 237.686 64.0835 238.923 64.5534L239.161 63.9257C237.916 63.4522 236.644 63.0008 235.38 62.584L235.169 63.2218Z" fill="#12174E"/>
<path d="M211.749 58.8352C213.072 58.9045 214.408 59.0042 215.721 59.1311L215.786 58.4628C214.463 58.3347 213.117 58.2344 211.784 58.1646L211.749 58.8352Z" fill="#12174E"/>
<path d="M195.766 58.7217L195.848 59.3884C197.157 59.2274 198.489 59.0931 199.809 58.9895L199.756 58.3198C198.427 58.4243 197.084 58.5596 195.766 58.7217Z" fill="#12174E"/>
<path d="M180.098 62.0814L180.297 62.7228C181.559 62.3321 182.847 61.9644 184.125 61.6301L183.955 60.9805C182.667 61.3171 181.37 61.6875 180.098 62.0814Z" fill="#12174E"/>
<path d="M172.559 64.7894L172.814 65.4108C174.035 64.9097 175.282 64.4301 176.521 63.985L176.294 63.353C175.045 63.8013 173.789 64.2847 172.559 64.7894Z" fill="#12174E"/>
<path d="M187.857 60.0528L187.998 60.7096C189.288 60.433 190.604 60.1813 191.908 59.9617L191.797 59.2993C190.483 59.5207 189.157 59.7742 187.857 60.0528Z" fill="#12174E"/>
<path d="M248.944 68.7057L245.191 63.1592L243.871 65.8756C243.551 65.733 243.234 65.5873 242.915 65.4491L242.648 66.0656C242.959 66.2005 243.267 66.3419 243.577 66.4801L242.264 69.1836L248.944 68.7057Z" fill="#12174E"/>
<g clip-path="url(#clip1)">
<path d="M271.611 92.0217C262.355 92.0217 251.32 88.8331 251.32 73.6409C251.32 60.9843 260.044 51.4395 271.611 51.4395C283.179 51.4395 291.902 60.9843 291.902 73.6409C291.902 88.8331 280.868 92.0217 271.611 92.0217Z" fill="#001AFF" fill-opacity="0.7"/>
<path d="M271.611 92.0217C262.355 92.0217 251.32 88.8331 251.32 73.6409C251.32 60.9843 260.044 51.4395 271.611 51.4395C283.179 51.4395 291.902 60.9843 291.902 73.6409C291.902 88.8331 280.868 92.0217 271.611 92.0217Z" fill="url(#paint8_linear)" fill-opacity="0.5"/>
<path fill-rule="evenodd" clip-rule="evenodd" d="M258.629 87.6067C262.273 90.1154 267.077 90.9027 271.611 90.9027C276.146 90.9027 280.95 90.1154 284.593 87.6067C288.161 85.1499 290.783 80.9261 290.783 73.6409C290.783 61.5054 282.468 52.5585 271.611 52.5585C260.754 52.5585 252.439 61.5054 252.439 73.6409C252.439 80.9261 255.061 85.1499 258.629 87.6067ZM251.32 73.6409C251.32 88.8331 262.355 92.0217 271.611 92.0217C280.868 92.0217 291.902 88.8331 291.902 73.6409C291.902 60.9843 283.179 51.4395 271.611 51.4395C260.044 51.4395 251.32 60.9843 251.32 73.6409Z" fill="#12174E" fill-opacity="0.2"/>
<path fill-rule="evenodd" clip-rule="evenodd" d="M259.126 87.6067C262.769 90.1154 267.574 90.9027 272.108 90.9027C276.642 90.9027 281.447 90.1154 285.09 87.6067C288.658 85.1499 291.28 80.9261 291.28 73.6409C291.28 61.5054 282.965 52.5585 272.108 52.5585C261.251 52.5585 252.936 61.5054 252.936 73.6409C252.936 80.9261 255.558 85.1499 259.126 87.6067ZM251.817 73.6409C251.817 88.8331 262.852 92.0217 272.108 92.0217C281.364 92.0217 292.399 88.8331 292.399 73.6409C292.399 60.9843 283.675 51.4395 272.108 51.4395C260.541 51.4395 251.817 60.9843 251.817 73.6409Z" fill="white"/>
<path d="M278.345 59.6514H276.518C281.227 59.6514 285.045 63.5143 285.045 68.2796C285.045 73.0448 281.227 76.9078 276.518 76.9078H278.345C283.054 76.9078 286.872 73.0448 286.872 68.2796C286.872 63.5143 283.054 59.6514 278.345 59.6514Z" fill="#E6E4FF"/>
<path d="M264.796 59.0557C259.702 59.0557 255.572 63.1851 255.572 68.2789C255.572 73.3728 259.702 77.5022 264.796 77.5022H278.323C283.417 77.5022 287.546 73.3728 287.546 68.2789C287.546 63.1851 283.417 59.0557 278.323 59.0557H264.796ZM286.316 68.2789C286.311 72.6915 282.736 76.2673 278.323 76.2724H264.796C260.381 76.2724 256.802 72.6936 256.802 68.2789C256.802 63.8642 260.381 60.2854 264.796 60.2854H278.323C282.736 60.2905 286.311 63.8663 286.316 68.2789Z" fill="white"/>
<g filter="url(#filter0_f)">
<ellipse cx="271.678" cy="104.006" rx="10.8759" ry="1.53378" fill="#12174E" fill-opacity="0.3"/>
</g>
<circle cx="262.196" cy="68.1719" r="2.50982" fill="#00FFF3"/>
<circle cx="275.024" cy="68.1719" r="2.50982" fill="#00FFF3"/>
</g>
</g>
<defs>
<filter id="filter0_f" x="252.152" y="93.8227" width="39.0517" height="20.3675" filterUnits="userSpaceOnUse" color-interpolation-filters="sRGB">
<feFlood flood-opacity="0" result="BackgroundImageFix"/>
<feBlend mode="normal" in="SourceGraphic" in2="BackgroundImageFix" result="shape"/>
<feGaussianBlur stdDeviation="4.32499" result="effect1_foregroundBlur"/>
</filter>
<linearGradient id="paint0_linear" x1="319.423" y1="247.829" x2="-0.125153" y2="260.371" gradientUnits="userSpaceOnUse">
<stop stop-color="#00FFF3"/>
<stop offset="1" stop-color="#6C63FF"/>
<stop offset="1" stop-color="#6C63FF"/>
</linearGradient>
<linearGradient id="paint1_linear" x1="659.695" y1="163.57" x2="306.535" y2="178.894" gradientUnits="userSpaceOnUse">
<stop stop-color="#00FFF3"/>
<stop offset="1" stop-color="#6C63FF"/>
<stop offset="1" stop-color="#6C63FF"/>
</linearGradient>
<linearGradient id="paint2_linear" x1="355.311" y1="314.104" x2="35.7627" y2="326.646" gradientUnits="userSpaceOnUse">
<stop stop-color="#00FFF3"/>
<stop offset="1" stop-color="#6C63FF"/>
<stop offset="1" stop-color="#6C63FF"/>
</linearGradient>
<linearGradient id="paint3_linear" x1="401.871" y1="310.357" x2="82.2049" y2="321.297" gradientUnits="userSpaceOnUse">
<stop stop-color="#00FFF3"/>
<stop offset="1" stop-color="#6C63FF"/>
<stop offset="1" stop-color="#6C63FF"/>
</linearGradient>
<linearGradient id="paint4_linear" x1="322.82" y1="299.268" x2="3.27188" y2="311.81" gradientUnits="userSpaceOnUse">
<stop stop-color="#00FFF3"/>
<stop offset="1" stop-color="#00FFF3" stop-opacity="0"/>
</linearGradient>
<linearGradient id="paint5_linear" x1="339.426" y1="35.2558" x2="201.701" y2="35.8579" gradientUnits="userSpaceOnUse">
<stop stop-color="#00FFF3"/>
<stop offset="1" stop-color="#6C63FF"/>
<stop offset="1" stop-color="#6C63FF"/>
</linearGradient>
<linearGradient id="paint6_linear" x1="186.207" y1="120.359" x2="48.483" y2="120.961" gradientUnits="userSpaceOnUse">
<stop stop-color="#00FFF3"/>
<stop offset="1" stop-color="#6C63FF"/>
<stop offset="1" stop-color="#6C63FF"/>
</linearGradient>
<linearGradient id="paint7_linear" x1="153.634" y1="162.06" x2="168.193" y2="162.06" gradientUnits="userSpaceOnUse">
<stop stop-color="white"/>
<stop offset="1" stop-color="white" stop-opacity="0.3"/>
</linearGradient>
<linearGradient id="paint8_linear" x1="271.611" y1="51.4395" x2="271.611" y2="92.0217" gradientUnits="userSpaceOnUse">
<stop stop-color="white"/>
<stop offset="1" stop-color="white" stop-opacity="0"/>
</linearGradient>
<clipPath id="clip0">
<rect width="304.072" height="245.529" fill="white" transform="translate(43.584)"/>
</clipPath>
<clipPath id="clip1">
<rect width="77.5256" height="75.0157" fill="white" transform="translate(233.472 37.4961)"/>
</clipPath>
</defs>
</svg>
