<svg width="395" height="338" viewBox="0 0 395 338" fill="none" xmlns="http://www.w3.org/2000/svg">
<g opacity="0.4">
<rect opacity="0.4" x="15.8854" y="240.224" width="309.008" height="34.4232" transform="rotate(-25.0264 15.8854 240.224)" fill="url(#paint0_linear)"/>
<rect opacity="0.4" x="324.115" y="155.965" width="341.627" height="34.4232" transform="rotate(154.974 324.115 155.965)" fill="url(#paint1_linear)"/>
<rect opacity="0.4" x="51.7732" y="306.499" width="309.008" height="34.4232" transform="rotate(-25.5449 51.7732 306.499)" fill="url(#paint2_linear)"/>
<rect opacity="0.4" x="98.3334" y="301.635" width="309.008" height="39.4806" transform="rotate(-25.5449 98.3334 301.635)" fill="url(#paint3_linear)"/>
<rect opacity="0.4" x="19.2825" y="291.663" width="309.008" height="34.4232" transform="rotate(-25.0264 19.2825 291.663)" fill="url(#paint4_linear)"/>
</g>
<path d="M77.2591 16.075H68.846C68.2085 16.075 67.5971 15.8218 67.1463 15.371C66.6955 14.9202 66.4423 14.3088 66.4423 13.6713C66.4423 13.0338 66.6955 12.4224 67.1463 11.9716C67.5971 11.5208 68.2085 11.2676 68.846 11.2676H77.2591C77.8966 11.2676 78.508 11.5208 78.9588 11.9716C79.4096 12.4224 79.6628 13.0338 79.6628 13.6713C79.6628 14.3088 79.4096 14.9202 78.9588 15.371C78.508 15.8218 77.8966 16.075 77.2591 16.075Z" fill="#CCCCCC"/>
<path d="M87.1745 24.1878H68.846C68.2085 24.1878 67.5971 23.9346 67.1463 23.4838C66.6955 23.033 66.4423 22.4216 66.4423 21.7841C66.4423 21.1466 66.6955 20.5352 67.1463 20.0844C67.5971 19.6336 68.2085 19.3804 68.846 19.3804H87.1745C87.812 19.3804 88.4234 19.6336 88.8742 20.0844C89.325 20.5352 89.5782 21.1466 89.5782 21.7841C89.5782 22.4216 89.325 23.033 88.8742 23.4838C88.4234 23.9346 87.812 24.1878 87.1745 24.1878Z" fill="#CCCCCC"/>
<path d="M78.7614 51.5301H70.3483C69.7108 51.5301 69.0994 51.2769 68.6486 50.8261C68.1978 50.3753 67.9446 49.7639 67.9446 49.1264C67.9446 48.4889 68.1978 47.8775 68.6486 47.4267C69.0994 46.9759 69.7108 46.7227 70.3483 46.7227H78.7614C79.3989 46.7227 80.0103 46.9759 80.4611 47.4267C80.9119 47.8775 81.1651 48.4889 81.1651 49.1264C81.1651 49.7639 80.9119 50.3753 80.4611 50.8261C80.0103 51.2769 79.3989 51.5301 78.7614 51.5301Z" fill="#CCCCCC"/>
<path d="M88.6768 59.6429H70.3483C69.7108 59.6429 69.0994 59.3897 68.6486 58.9389C68.1978 58.4881 67.9446 57.8767 67.9446 57.2392C67.9446 56.6017 68.1978 55.9903 68.6486 55.5395C69.0994 55.0887 69.7108 54.8354 70.3483 54.8354H88.6768C89.3143 54.8354 89.9257 55.0887 90.3765 55.5395C90.8273 55.9903 91.0805 56.6017 91.0805 57.2392C91.0805 57.8767 90.8273 58.4881 90.3765 58.9389C89.9257 59.3897 89.3143 59.6429 88.6768 59.6429Z" fill="#CCCCCC"/>
<path d="M134.047 50.6288H125.634C124.997 50.6288 124.385 50.3755 123.935 49.9247C123.484 49.4739 123.23 48.8625 123.23 48.225C123.23 47.5875 123.484 46.9761 123.935 46.5253C124.385 46.0745 124.997 45.8213 125.634 45.8213H134.047C134.685 45.8213 135.296 46.0745 135.747 46.5253C136.198 46.9761 136.451 47.5875 136.451 48.225C136.451 48.8625 136.198 49.4739 135.747 49.9247C135.296 50.3755 134.685 50.6288 134.047 50.6288Z" fill="#CCCCCC"/>
<path d="M143.963 58.7411H125.634C124.997 58.7411 124.385 58.4878 123.935 58.037C123.484 57.5862 123.23 56.9748 123.23 56.3373C123.23 55.6998 123.484 55.0884 123.935 54.6376C124.385 54.1869 124.997 53.9336 125.634 53.9336H143.963C144.6 53.9336 145.212 54.1869 145.662 54.6376C146.113 55.0884 146.366 55.6998 146.366 56.3373C146.366 56.9748 146.113 57.5862 145.662 58.037C145.212 58.4878 144.6 58.7411 143.963 58.7411Z" fill="#CCCCCC"/>
<path d="M133.146 17.5775H124.733C124.095 17.5775 123.484 17.3242 123.033 16.8735C122.582 16.4227 122.329 15.8113 122.329 15.1738C122.329 14.5362 122.582 13.9249 123.033 13.4741C123.484 13.0233 124.095 12.77 124.733 12.77H133.146C133.783 12.77 134.395 13.0233 134.846 13.4741C135.296 13.9249 135.55 14.5362 135.55 15.1738C135.55 15.8113 135.296 16.4227 134.846 16.8735C134.395 17.3242 133.783 17.5775 133.146 17.5775Z" fill="#CCCCCC"/>
<path d="M143.061 25.6898H124.733C124.095 25.6898 123.484 25.4365 123.033 24.9858C122.582 24.535 122.329 23.9236 122.329 23.2861C122.329 22.6485 122.582 22.0372 123.033 21.5864C123.484 21.1356 124.095 20.8823 124.733 20.8823H143.061C143.699 20.8823 144.31 21.1356 144.761 21.5864C145.212 22.0372 145.465 22.6485 145.465 23.2861C145.465 23.9236 145.212 24.535 144.761 24.9858C144.31 25.4365 143.699 25.6898 143.061 25.6898Z" fill="#CCCCCC"/>
<path d="M189.333 15.7748H180.92C180.283 15.7748 179.671 15.5215 179.22 15.0707C178.77 14.6199 178.516 14.0085 178.516 13.371C178.516 12.7335 178.77 12.1221 179.22 11.6713C179.671 11.2205 180.283 10.9673 180.92 10.9673H189.333C189.971 10.9673 190.582 11.2205 191.033 11.6713C191.484 12.1221 191.737 12.7335 191.737 13.371C191.737 14.0085 191.484 14.6199 191.033 15.0707C190.582 15.5215 189.971 15.7748 189.333 15.7748Z" fill="#CCCCCC"/>
<path d="M199.249 23.8871H180.92C180.283 23.8871 179.671 23.6338 179.22 23.183C178.77 22.7322 178.516 22.1208 178.516 21.4833C178.516 20.8458 178.77 20.2344 179.22 19.7836C179.671 19.3328 180.283 19.0796 180.92 19.0796H199.249C199.886 19.0796 200.497 19.3328 200.948 19.7836C201.399 20.2344 201.652 20.8458 201.652 21.4833C201.652 22.1208 201.399 22.7322 200.948 23.183C200.497 23.6338 199.886 23.8871 199.249 23.8871Z" fill="#CCCCCC"/>
<path d="M54.0024 26.7424C58.9807 26.7424 63.0164 22.7067 63.0164 17.7284C63.0164 12.7501 58.9807 8.71436 54.0024 8.71436C49.0241 8.71436 44.9884 12.7501 44.9884 17.7284C44.9884 22.7067 49.0241 26.7424 54.0024 26.7424Z" fill="url(#paint5_linear)"/>
<path d="M58.209 21.784H49.7959C49.5569 21.7837 49.3278 21.6887 49.1588 21.5197C48.9898 21.3507 48.8948 21.1216 48.8945 20.8826V14.5728C48.8948 14.3338 48.9898 14.1047 49.1588 13.9357C49.3278 13.7667 49.5569 13.6717 49.7959 13.6714H52.1643C52.3184 13.6708 52.4699 13.71 52.6044 13.7851C52.7389 13.8602 52.8518 13.9688 52.9321 14.1002L53.5926 15.1737H58.209C58.448 15.174 58.6771 15.269 58.8461 15.438C59.0151 15.607 59.1101 15.8361 59.1104 16.0751V20.8826C59.1101 21.1216 59.0151 21.3507 58.8461 21.5197C58.6771 21.6887 58.448 21.7837 58.209 21.784ZM49.7959 14.2723C49.7163 14.2724 49.6399 14.3041 49.5836 14.3604C49.5273 14.4168 49.4956 14.4931 49.4955 14.5728V20.8826C49.4956 20.9623 49.5273 21.0386 49.5836 21.0949C49.6399 21.1513 49.7163 21.183 49.7959 21.1831H58.209C58.2887 21.183 58.365 21.1513 58.4213 21.0949C58.4777 21.0386 58.5094 20.9623 58.5095 20.8826V16.0751C58.5094 15.9955 58.4777 15.9191 58.4213 15.8628C58.365 15.8065 58.2887 15.7748 58.209 15.7747H53.2569L52.4203 14.4152C52.3935 14.3714 52.3559 14.3352 52.3111 14.3102C52.2662 14.2852 52.2157 14.2721 52.1643 14.2723H49.7959Z" fill="white"/>
<path d="M109.288 28.2438C114.267 28.2438 118.302 24.2081 118.302 19.2298C118.302 14.2515 114.267 10.2158 109.288 10.2158C104.31 10.2158 100.274 14.2515 100.274 19.2298C100.274 24.2081 104.31 28.2438 109.288 28.2438Z" fill="url(#paint6_linear)"/>
<path d="M113.194 24.9387H105.382C105.143 24.9385 104.914 24.8434 104.745 24.6744C104.576 24.5054 104.481 24.2763 104.481 24.0373V14.4224C104.481 14.1834 104.576 13.9543 104.745 13.7853C104.914 13.6163 105.143 13.5213 105.382 13.521H111.043C111.248 13.5212 111.447 13.5913 111.608 13.7198L113.759 15.4486C113.864 15.5329 113.949 15.6398 114.008 15.7614C114.066 15.8831 114.096 16.0163 114.096 16.1513V24.0373C114.096 24.2763 114 24.5054 113.831 24.6744C113.662 24.8434 113.433 24.9385 113.194 24.9387ZM105.382 14.1219C105.303 14.122 105.226 14.1537 105.17 14.21C105.114 14.2664 105.082 14.3427 105.082 14.4224V24.0373C105.082 24.117 105.114 24.1934 105.17 24.2497C105.226 24.306 105.303 24.3377 105.382 24.3378H113.194C113.274 24.3377 113.35 24.306 113.407 24.2497C113.463 24.1934 113.495 24.117 113.495 24.0373V16.1513C113.495 16.1063 113.485 16.0619 113.465 16.0213C113.446 15.9808 113.418 15.9452 113.383 15.9171L111.231 14.1881C111.178 14.1453 111.111 14.122 111.043 14.1219H105.382Z" fill="white"/>
<path d="M111.692 17.7274H106.885C106.805 17.7274 106.728 17.6957 106.672 17.6394C106.616 17.583 106.584 17.5066 106.584 17.4269C106.584 17.3472 106.616 17.2708 106.672 17.2145C106.728 17.1581 106.805 17.1265 106.885 17.1265H111.692C111.772 17.1265 111.848 17.1581 111.904 17.2145C111.961 17.2708 111.993 17.3472 111.993 17.4269C111.993 17.5066 111.961 17.583 111.904 17.6394C111.848 17.6957 111.772 17.7274 111.692 17.7274Z" fill="white"/>
<path d="M111.692 19.5306H106.885C106.805 19.5306 106.728 19.499 106.672 19.4426C106.616 19.3863 106.584 19.3098 106.584 19.2302C106.584 19.1505 106.616 19.074 106.672 19.0177C106.728 18.9613 106.805 18.9297 106.885 18.9297H111.692C111.772 18.9297 111.848 18.9613 111.904 19.0177C111.961 19.074 111.993 19.1505 111.993 19.2302C111.993 19.3098 111.961 19.3863 111.904 19.4426C111.848 19.499 111.772 19.5306 111.692 19.5306Z" fill="white"/>
<path d="M111.692 21.3334H106.885C106.805 21.3334 106.728 21.3017 106.672 21.2453C106.616 21.189 106.584 21.1126 106.584 21.0329C106.584 20.9532 106.616 20.8768 106.672 20.8204C106.728 20.7641 106.805 20.7324 106.885 20.7324H111.692C111.772 20.7324 111.848 20.7641 111.904 20.8204C111.961 20.8768 111.993 20.9532 111.993 21.0329C111.993 21.1126 111.961 21.189 111.904 21.2453C111.848 21.3017 111.772 21.3334 111.692 21.3334Z" fill="white"/>
<path d="M164.875 26.4411C169.853 26.4411 173.889 22.4054 173.889 17.4271C173.889 12.4488 169.853 8.41309 164.875 8.41309C159.896 8.41309 155.861 12.4488 155.861 17.4271C155.861 22.4054 159.896 26.4411 164.875 26.4411Z" fill="url(#paint7_linear)"/>
<path d="M169.081 20.7323H160.668C160.429 20.7321 160.2 20.637 160.031 20.468C159.862 20.299 159.767 20.0699 159.767 19.8309V15.0235C159.767 14.7845 159.862 14.5554 160.031 14.3864C160.2 14.2174 160.429 14.1223 160.668 14.1221H169.081C169.32 14.1223 169.549 14.2174 169.718 14.3864C169.887 14.5554 169.982 14.7845 169.982 15.0235V19.8309C169.982 20.0699 169.887 20.299 169.718 20.468C169.549 20.637 169.32 20.7321 169.081 20.7323ZM160.668 14.723C160.588 14.7231 160.512 14.7548 160.456 14.8111C160.399 14.8674 160.368 14.9438 160.368 15.0235V19.8309C160.368 19.9106 160.399 19.987 160.456 20.0433C160.512 20.0996 160.588 20.1313 160.668 20.1314H169.081C169.161 20.1313 169.237 20.0996 169.293 20.0433C169.35 19.987 169.381 19.9106 169.382 19.8309V15.0235C169.381 14.9438 169.35 14.8674 169.293 14.8111C169.237 14.7548 169.161 14.7231 169.081 14.723H160.668Z" fill="white"/>
<path d="M164.874 18.2198C164.706 18.22 164.54 18.1729 164.397 18.0838L159.908 15.2782C159.84 15.2359 159.792 15.1685 159.775 15.0909C159.757 15.0134 159.77 14.9319 159.813 14.8644C159.855 14.7969 159.922 14.7489 160 14.7309C160.077 14.7129 160.159 14.7265 160.226 14.7685L164.715 17.5741C164.763 17.6038 164.818 17.6195 164.875 17.6195C164.931 17.6195 164.986 17.6038 165.034 17.5741L169.523 14.7685C169.59 14.7265 169.672 14.7129 169.749 14.7309C169.827 14.7489 169.894 14.7969 169.936 14.8644C169.979 14.9319 169.992 15.0134 169.974 15.0909C169.957 15.1685 169.909 15.2359 169.841 15.2782L165.352 18.0838C165.209 18.173 165.043 18.2201 164.874 18.2198Z" fill="white"/>
<path d="M54.0024 62.1965C58.9807 62.1965 63.0164 58.1608 63.0164 53.1825C63.0164 48.2042 58.9807 44.1685 54.0024 44.1685C49.0241 44.1685 44.9884 48.2042 44.9884 53.1825C44.9884 58.1608 49.0241 62.1965 54.0024 62.1965Z" fill="url(#paint8_linear)"/>
<path d="M58.209 56.4877H49.7959C49.5569 56.4875 49.3278 56.3924 49.1588 56.2234C48.9898 56.0544 48.8948 55.8253 48.8945 55.5863V50.7788C48.8948 50.5399 48.9898 50.3107 49.1588 50.1417C49.3278 49.9728 49.5569 49.8777 49.7959 49.8774H58.209C58.448 49.8777 58.6771 49.9728 58.8461 50.1417C59.0151 50.3107 59.1101 50.5399 59.1104 50.7788V55.5863C59.1101 55.8253 59.0151 56.0544 58.8461 56.2234C58.6771 56.3924 58.448 56.4875 58.209 56.4877ZM49.7959 50.4784C49.7163 50.4785 49.6399 50.5101 49.5836 50.5665C49.5272 50.6228 49.4955 50.6992 49.4955 50.7788V55.5863C49.4955 55.666 49.5272 55.7423 49.5836 55.7987C49.6399 55.855 49.7163 55.8867 49.7959 55.8868H58.209C58.2887 55.8867 58.365 55.855 58.4214 55.7987C58.4777 55.7423 58.5094 55.666 58.5095 55.5863V50.7788C58.5094 50.6992 58.4777 50.6228 58.4214 50.5665C58.365 50.5101 58.2887 50.4785 58.209 50.4784H49.7959Z" fill="white"/>
<path d="M56.8755 56.4876H50.8289C50.7234 56.4877 50.6198 56.4599 50.5284 56.4072C50.437 56.3544 50.3611 56.2786 50.3084 56.1872C50.2556 56.0959 50.2279 55.9922 50.2279 55.8867C50.2279 55.7812 50.2557 55.6776 50.3085 55.5862L52.1298 52.4313C52.1826 52.34 52.2584 52.2641 52.3498 52.2114C52.4411 52.1586 52.5448 52.1309 52.6503 52.1309C52.7558 52.1309 52.8594 52.1586 52.9507 52.2114C53.0421 52.2641 53.118 52.34 53.1707 52.4313L54.347 54.4689L55.0285 53.2884C55.0813 53.1971 55.1572 53.1212 55.2485 53.0685C55.3399 53.0157 55.4435 52.988 55.549 52.988C55.6545 52.988 55.7581 53.0157 55.8495 53.0685C55.9408 53.1212 56.0167 53.1971 56.0694 53.2884L57.396 55.5862C57.4488 55.6776 57.4765 55.7812 57.4765 55.8867C57.4765 55.9922 57.4487 56.0959 57.396 56.1872C57.3432 56.2786 57.2673 56.3544 57.176 56.4072C57.0846 56.4599 56.981 56.4876 56.8755 56.4876H56.8755ZM56.8755 55.8867L55.5489 53.5889L54.6073 55.22C54.581 55.2657 54.543 55.3037 54.4973 55.33C54.4516 55.3564 54.3998 55.3703 54.3471 55.3703C54.2943 55.3703 54.2425 55.3564 54.1968 55.33C54.1511 55.3037 54.1132 55.2657 54.0868 55.22L52.6503 52.7318L50.8289 55.8867H56.8755Z" fill="white"/>
<path d="M57.3076 52.2815C57.6395 52.2815 57.9085 52.0124 57.9085 51.6805C57.9085 51.3486 57.6395 51.0796 57.3076 51.0796C56.9757 51.0796 56.7067 51.3486 56.7067 51.6805C56.7067 52.0124 56.9757 52.2815 57.3076 52.2815Z" fill="white"/>
<path d="M109.889 61.2951C114.868 61.2951 118.903 57.2594 118.903 52.2811C118.903 47.3028 114.868 43.2671 109.889 43.2671C104.911 43.2671 100.875 47.3028 100.875 52.2811C100.875 57.2594 104.911 61.2951 109.889 61.2951Z" fill="url(#paint9_linear)"/>
<path d="M109.889 52.4314C109.354 52.4314 108.832 52.2727 108.387 51.9756C107.942 51.6785 107.596 51.2561 107.391 50.762C107.186 50.2679 107.133 49.7241 107.237 49.1996C107.341 48.675 107.599 48.1932 107.977 47.815C108.355 47.4368 108.837 47.1793 109.362 47.0749C109.886 46.9706 110.43 47.0241 110.924 47.2288C111.418 47.4335 111.841 47.7801 112.138 48.2248C112.435 48.6695 112.593 49.1923 112.593 49.7271C112.593 50.4441 112.307 51.1315 111.801 51.6384C111.294 52.1454 110.606 52.4305 109.889 52.4314ZM109.889 47.6239C109.473 47.6239 109.067 47.7472 108.721 47.9783C108.375 48.2095 108.105 48.5379 107.946 48.9223C107.787 49.3066 107.745 49.7295 107.826 50.1375C107.908 50.5455 108.108 50.9202 108.402 51.2144C108.696 51.5085 109.071 51.7089 109.479 51.79C109.887 51.8712 110.31 51.8295 110.694 51.6703C111.078 51.5111 111.407 51.2415 111.638 50.8957C111.869 50.5498 111.993 50.1431 111.993 49.7271C111.992 49.1695 111.77 48.6349 111.376 48.2406C110.981 47.8463 110.447 47.6245 109.889 47.6239Z" fill="white"/>
<path d="M112.293 57.5392H107.486C107.207 57.5389 106.939 57.428 106.742 57.2308C106.545 57.0337 106.434 56.7664 106.434 56.4876C106.434 55.5712 106.798 54.6923 107.446 54.0443C108.094 53.3963 108.973 53.0322 109.889 53.0322C110.806 53.0322 111.685 53.3963 112.333 54.0443C112.981 54.6923 113.345 55.5712 113.345 56.4876C113.344 56.7664 113.233 57.0337 113.036 57.2308C112.839 57.428 112.572 57.5389 112.293 57.5392ZM109.889 53.6332C109.133 53.634 108.407 53.935 107.872 54.4702C107.337 55.0053 107.036 55.7308 107.035 56.4876C107.035 56.6071 107.083 56.7216 107.167 56.8061C107.252 56.8906 107.366 56.9382 107.486 56.9383H112.293C112.413 56.9382 112.527 56.8906 112.612 56.8061C112.696 56.7216 112.744 56.6071 112.744 56.4876C112.743 55.7308 112.442 55.0053 111.907 54.4702C111.372 53.935 110.646 53.634 109.889 53.6332Z" fill="white"/>
<path d="M143.935 58.9326L107.9 88.8166C109.386 90.4481 110.526 92.3641 111.25 94.4486C111.975 96.5331 112.269 98.7429 112.115 100.944C111.961 103.146 111.362 105.293 110.354 107.256C109.346 109.22 107.951 110.958 106.253 112.367C104.554 113.776 102.587 114.825 100.471 115.452C98.3555 116.079 96.1344 116.27 93.9426 116.014C91.7507 115.759 89.6334 115.061 87.7189 113.963C85.8044 112.866 84.1324 111.391 82.8039 109.629L50.4972 136.421L102.284 198.868L195.722 121.379L143.935 58.9326Z" fill="#F2F2F2"/>
<path d="M349.061 149.411C349.061 186.32 327.119 199.207 300.052 199.207C272.985 199.207 251.043 186.32 251.043 149.411C251.043 112.502 300.052 65.5474 300.052 65.5474C300.052 65.5474 349.061 112.502 349.061 149.411Z" fill="#F2F2F2"/>
<path d="M298.267 193.561L298.769 162.672L319.657 124.457L298.847 157.826L299.073 143.937L313.47 116.289L299.133 140.261V140.261L299.538 115.281L314.954 93.2696L299.602 111.353L299.856 65.5474L298.262 126.185L298.393 123.684L282.72 99.693L298.142 128.486L296.682 156.385L296.638 155.644L278.569 130.397L296.583 158.26L296.401 161.749L296.368 161.802L296.383 162.088L292.678 232.87H297.628L298.222 196.31L316.192 168.515L298.267 193.561Z" fill="#12174E"/>
<path d="M257.418 238.571C295.253 238.571 325.925 236.284 325.925 233.463C325.925 230.642 295.253 228.355 257.418 228.355C219.583 228.355 188.912 230.642 188.912 233.463C188.912 236.284 219.583 238.571 257.418 238.571Z" fill="#12174E"/>
<path d="M263.728 0H252.911V234.965H263.728V0Z" fill="#12174E"/>
<path d="M319.757 225.083C319.757 231.834 315.744 234.191 310.793 234.191C310.679 234.191 310.564 234.19 310.45 234.187C310.22 234.183 309.993 234.172 309.769 234.156C305.3 233.84 301.829 231.362 301.829 225.083C301.829 218.585 310.132 210.386 310.756 209.78L310.757 209.779C310.781 209.755 310.793 209.744 310.793 209.744C310.793 209.744 319.757 218.332 319.757 225.083Z" fill="white"/>
<path d="M310.467 233.159L313.745 228.577L310.458 233.662L310.45 234.188C310.22 234.183 309.993 234.172 309.769 234.156L310.122 227.402L310.119 227.35L310.125 227.34L310.159 226.702L306.864 221.605L310.169 226.223L310.177 226.359L310.444 221.256L307.623 215.989L310.478 220.36L310.756 209.78L310.757 209.744V209.779L310.711 218.122L313.519 214.814L310.699 218.84L310.625 223.41L313.247 219.025L310.614 224.082L310.572 226.622L314.379 220.519L310.558 227.509L310.467 233.159Z" fill="#12174E"/>
<path d="M240.059 220.029L238.142 218.604C238.142 218.604 236.873 225.694 238.289 226.757C239.705 227.819 245.017 229.589 245.017 231.714C245.017 233.839 257.056 236.671 257.41 233.484C257.764 230.298 256.347 228.527 256.347 228.527C256.347 228.527 250.682 222.862 249.974 221.8C249.266 220.737 247.495 218.613 247.495 218.613L240.059 220.029Z" fill="#12174E"/>
<path d="M268.387 131.861C268.387 131.861 268.333 132.172 268.241 132.742C268.156 133.249 268.04 133.964 267.898 134.846C266.411 143.921 262.073 170.637 262.367 171.519C262.721 172.581 265.2 176.476 262.367 177.538C262.094 177.641 261.801 177.974 261.485 178.498C260.877 179.626 260.376 180.81 259.988 182.032C258.299 186.932 256.493 194.775 255.448 200.207C254.991 202.593 254.68 204.513 254.588 205.518C254.556 205.751 254.552 205.986 254.577 206.219C254.931 207.636 252.453 212.593 251.39 214.009C250.328 215.426 248.558 216.842 248.912 218.258C249.266 219.675 240.059 223.57 238.997 221.091C237.935 218.612 237.935 217.196 237.581 216.488C237.227 215.78 236.873 210.823 238.643 210.114C240.414 209.406 239.351 197.013 241.122 194.534C241.713 193.709 242.616 190.916 243.561 187.555C243.933 186.238 244.309 184.836 244.677 183.43C246.171 177.669 247.495 171.873 247.495 171.873L247.141 130.444L266.616 127.966L267.115 129.067L268.11 131.252L268.387 131.861Z" fill="#12174E"/>
<path d="M269.449 199.846C269.449 199.846 272.281 197.013 273.698 199.846C275.114 202.679 276.531 213.655 279.009 216.134C281.488 218.613 284.675 231.006 281.134 231.714C277.593 232.422 273.698 230.652 273.344 228.527C272.99 226.403 265.554 215.426 265.554 214.364C265.554 213.301 270.511 209.406 270.511 209.406L269.449 199.846Z" fill="#12174E"/>
<path d="M225.896 112.386C225.896 112.386 230.499 153.814 231.561 157.709C232.624 161.604 238.289 176.476 240.059 178.955C241.83 181.433 253.161 201.616 254.577 202.679C255.993 203.741 258.826 206.574 258.826 206.574C258.826 206.574 264.137 211.885 264.846 212.947C265.554 214.009 271.573 210.823 271.927 208.698C272.281 206.574 271.573 203.033 271.219 201.616C270.865 200.2 271.927 198.076 270.865 197.013C269.803 195.951 264.492 190.64 264.492 188.161C264.492 185.682 255.285 171.165 251.744 167.978C248.203 164.791 248.912 159.48 248.912 159.48V137.88L268.386 131.861C268.386 131.861 267.324 114.865 264.846 114.865C262.367 114.865 229.791 109.199 225.896 112.386Z" fill="#12174E"/>
<path d="M254.577 53.2531C261.03 53.2531 266.262 48.0216 266.262 41.5682C266.262 35.1148 261.03 29.8833 254.577 29.8833C248.124 29.8833 242.892 35.1148 242.892 41.5682C242.892 48.0216 248.124 53.2531 254.577 53.2531Z" fill="#9F616A"/>
<path d="M250.682 50.7746C250.682 50.7746 249.266 56.0859 247.495 57.5023C245.725 58.9186 252.098 64.9381 252.098 64.9381L264.137 65.6463L266.262 58.9186C266.262 58.9186 262.367 51.1287 263.429 46.1715C264.492 41.2142 250.682 50.7746 250.682 50.7746Z" fill="#9F616A"/>
<path d="M245.725 56.7939C245.725 56.7939 248.912 57.148 249.62 58.2103C250.328 59.2726 255.285 62.4594 259.18 61.7512C263.075 61.043 265.554 59.9807 266.262 60.3348C266.97 60.6889 268.387 68.1248 268.387 68.1248L264.492 79.4556L265.2 110.615L266.262 119.114C266.262 119.114 268.387 116.281 259.888 118.051C251.39 119.822 240.414 116.635 236.873 116.281C233.332 115.927 227.312 114.864 226.958 112.74C226.604 110.615 228.02 102.825 228.02 102.825L233.686 79.1015L237.227 66.3543L245.725 56.7939Z" fill="#12174E"/>
<path d="M249.074 55.1961C249.074 55.1961 246.079 53.6074 245.017 55.0238C243.954 56.4401 230.499 58.5647 230.499 59.6269C230.499 60.6892 227.666 89.3703 228.375 91.849C229.083 94.3276 226.958 97.1603 226.958 97.1603L224.48 107.783C224.48 107.783 217.752 127.966 220.585 128.674C223.417 129.382 225.896 128.674 226.958 128.674C228.02 128.674 227.666 115.219 230.499 111.678C233.332 108.137 237.227 99.2848 237.935 97.5144C238.643 95.7439 247.495 71.3118 247.141 68.4791C246.787 65.6464 249.074 55.1961 249.074 55.1961Z" fill="#D0CDE1"/>
<path d="M263.783 56.7939C263.783 56.7939 266.616 56.7939 266.97 57.5021C267.324 58.2103 270.865 62.8134 272.281 63.8757C273.698 64.938 278.655 69.5411 278.655 70.6034C278.655 71.6657 268.386 79.4556 268.386 79.4556C268.386 79.4556 264.137 100.347 266.262 107.429C268.386 114.51 271.573 131.507 270.157 132.569C268.741 133.631 265.554 133.985 265.554 132.569C265.554 131.153 263.429 115.927 261.659 112.74C259.888 109.553 254.577 89.3701 256.702 83.7047C258.826 78.0393 263.783 56.7939 263.783 56.7939Z" fill="#D0CDE1"/>
<path d="M217.044 91.8486C217.044 91.8486 216.69 102.825 220.585 108.491C224.48 114.156 226.958 120.53 226.958 120.53C226.958 120.53 233.332 118.759 234.394 116.635C235.456 114.51 242.184 116.281 242.184 115.573C242.184 114.864 234.04 111.324 233.332 110.615C232.624 109.907 230.145 109.907 228.729 108.491C227.312 107.074 226.958 103.888 226.958 103.888L225.542 94.6813L217.044 91.8486Z" fill="#9F616A"/>
<path d="M246.529 34.3637C245.63 34.2821 244.703 34.1922 243.909 33.7638C242.129 32.8038 241.656 30.0699 243.012 28.5685C243.385 28.1865 243.803 27.8505 244.256 27.5675L246.948 25.7355C248.138 24.9253 249.357 24.1017 250.745 23.7198C252.001 23.3743 253.327 23.4098 254.627 23.4906C257.151 23.6475 259.69 23.9714 262.064 24.8427C264.437 25.714 266.651 27.1716 268.089 29.2516C270.368 32.5489 270.399 36.996 269.144 40.8027C267.889 44.6094 265.504 47.9242 263.155 51.1718L261.936 45.2241C261.828 44.6944 261.687 44.1138 261.247 43.8003C260.151 43.021 258.812 44.621 257.468 44.6106C256.604 44.6039 255.879 43.8936 255.552 43.0945C255.225 42.2953 255.203 41.4103 255.128 40.55C254.967 38.7279 254.33 36.1926 252.605 35.1877C250.997 34.2513 248.337 34.5279 246.529 34.3637Z" fill="#12174E"/>
<path opacity="0.1" d="M247.185 132.147C247.185 132.147 248.38 166.739 249.089 167.801C249.797 168.863 249.089 132.038 249.089 132.038L247.185 132.147Z" fill="#12174E"/>
<path d="M233.332 59.627H230.499C230.499 59.627 218.46 75.915 219.876 76.9773C221.293 78.0395 219.876 80.8723 219.876 80.8723L217.044 86.1836C217.044 86.1836 213.503 89.3704 214.565 90.0786C215.627 90.7867 217.044 93.6194 217.044 93.6194C217.044 93.6194 224.125 92.5572 226.25 96.8062L230.842 91.0085L233.332 59.627Z" fill="#D0CDE1"/>
<path d="M265.554 90.0782C265.554 90.0782 257.764 90.4323 248.912 84.7669L240.059 80.8719C240.059 80.8719 232.269 68.8329 231.561 70.9575C230.853 73.082 232.624 77.3311 232.624 77.3311C232.624 77.3311 221.94 82.2752 221.663 82.9286C221.385 83.5821 227.666 81.9342 227.666 81.9342C227.666 81.9342 226.604 88.6619 232.624 89.016C238.643 89.37 240.413 87.9537 240.413 87.9537C240.413 87.9537 265.908 109.199 270.157 102.471C274.406 95.7436 265.554 90.0782 265.554 90.0782Z" fill="#9F616A"/>
<path d="M274.76 69.187L278.655 70.6034V81.226L280.071 83.3506C280.071 83.3506 279.717 87.5996 278.655 88.6619C277.593 89.7241 275.468 89.3701 276.176 91.8487C276.602 93.4646 276.722 95.1459 276.53 96.8059C276.53 96.8059 270.157 104.95 269.803 103.888C269.449 102.825 264.491 89.7241 263.783 89.7241C263.075 89.7241 270.865 69.187 270.865 69.187H274.76Z" fill="#D0CDE1"/>
<path d="M228.198 122.832C228.198 122.832 224.536 119.291 226.367 119.114C228.198 118.937 234.571 115.396 235.633 117.166C236.696 118.937 228.198 122.832 228.198 122.832Z" fill="#12174E"/>
<path d="M172.301 226.852C178.666 216.232 182.02 204.079 182.001 191.698C182.001 153.863 151.33 123.191 113.495 123.191C75.6597 123.191 44.9884 153.863 44.9884 191.698C44.9698 204.079 48.3231 216.232 54.6884 226.852H172.301Z" fill="url(#paint10_linear)"/>
<path d="M184.219 141.526C174.962 141.526 163.928 138.337 163.928 123.145C163.928 110.488 172.651 100.943 184.219 100.943C195.786 100.943 204.51 110.488 204.51 123.145C204.51 138.337 193.475 141.526 184.219 141.526Z" fill="#001AFF" fill-opacity="0.7"/>
<path d="M184.219 141.526C174.962 141.526 163.928 138.337 163.928 123.145C163.928 110.488 172.651 100.943 184.219 100.943C195.786 100.943 204.51 110.488 204.51 123.145C204.51 138.337 193.475 141.526 184.219 141.526Z" fill="url(#paint11_linear)" fill-opacity="0.5"/>
<path fill-rule="evenodd" clip-rule="evenodd" d="M171.237 137.111C174.88 139.619 179.684 140.407 184.219 140.407C188.753 140.407 193.558 139.619 197.201 137.111C200.769 134.654 203.391 130.43 203.391 123.145C203.391 111.009 195.076 102.062 184.219 102.062C173.362 102.062 165.047 111.009 165.047 123.145C165.047 130.43 167.669 134.654 171.237 137.111ZM163.928 123.145C163.928 138.337 174.962 141.526 184.219 141.526C193.475 141.526 204.51 138.337 204.51 123.145C204.51 110.488 195.786 100.943 184.219 100.943C172.651 100.943 163.928 110.488 163.928 123.145Z" fill="#12174E" fill-opacity="0.2"/>
<path fill-rule="evenodd" clip-rule="evenodd" d="M171.734 137.111C175.377 139.62 180.181 140.407 184.716 140.407C189.25 140.407 194.054 139.62 197.698 137.111C201.266 134.654 203.888 130.431 203.888 123.145C203.888 111.01 195.572 102.063 184.716 102.063C173.859 102.063 165.544 111.01 165.544 123.145C165.544 130.431 168.166 134.654 171.734 137.111ZM164.425 123.145C164.425 138.338 175.459 141.526 184.716 141.526C193.972 141.526 205.007 138.338 205.007 123.145C205.007 110.489 196.283 100.944 184.716 100.944C173.148 100.944 164.425 110.489 164.425 123.145Z" fill="white"/>
<path d="M190.953 109.155H189.126C193.835 109.155 197.652 113.018 197.652 117.783C197.652 122.549 193.835 126.412 189.126 126.412H190.953C195.662 126.412 199.479 122.549 199.479 117.783C199.479 113.018 195.662 109.155 190.953 109.155Z" fill="#E6E4FF"/>
<path d="M177.403 108.56C172.309 108.56 168.18 112.689 168.18 117.783C168.18 122.877 172.309 127.007 177.403 127.007H190.931C196.024 127.007 200.154 122.877 200.154 117.783C200.154 112.689 196.024 108.56 190.931 108.56H177.403ZM198.924 117.783C198.919 122.196 195.343 125.772 190.931 125.777H177.403C172.989 125.777 169.41 122.198 169.41 117.783C169.41 113.369 172.989 109.79 177.403 109.79H190.931C195.343 109.795 198.919 113.371 198.924 117.783Z" fill="white"/>
<g filter="url(#filter0_f)">
<ellipse cx="184.285" cy="153.51" rx="10.8759" ry="1.53378" fill="#12174E" fill-opacity="0.3"/>
</g>
<circle cx="174.804" cy="117.675" r="2.50982" fill="#00FFF3"/>
<circle cx="187.632" cy="117.675" r="2.50982" fill="#00FFF3"/>
<path d="M113.495 193.801C117.146 193.801 120.105 190.842 120.105 187.191C120.105 183.54 117.146 180.581 113.495 180.581C109.844 180.581 106.885 183.54 106.885 187.191C106.885 190.842 109.844 193.801 113.495 193.801Z" fill="white"/>
<path d="M60.913 201.313C62.7384 201.313 64.2182 199.833 64.2182 198.008C64.2182 196.182 62.7384 194.703 60.913 194.703C59.0877 194.703 57.6079 196.182 57.6079 198.008C57.6079 199.833 59.0877 201.313 60.913 201.313Z" fill="white"/>
<path d="M62.8524 172.686C64.6778 172.686 66.1575 171.206 66.1575 169.381C66.1575 167.555 64.6778 166.076 62.8524 166.076C61.027 166.076 59.5472 167.555 59.5472 169.381C59.5472 171.206 61.027 172.686 62.8524 172.686Z" fill="white"/>
<path d="M79.2585 149.147C81.0839 149.147 82.5636 147.668 82.5636 145.842C82.5636 144.017 81.0839 142.537 79.2585 142.537C77.4331 142.537 75.9534 144.017 75.9534 145.842C75.9534 147.668 77.4331 149.147 79.2585 149.147Z" fill="white"/>
<path d="M105.445 137.42C107.27 137.42 108.75 135.941 108.75 134.115C108.75 132.29 107.27 130.81 105.445 130.81C103.619 130.81 102.14 132.29 102.14 134.115C102.14 135.941 103.619 137.42 105.445 137.42Z" fill="white"/>
<path d="M133.931 140.855C135.756 140.855 137.236 139.375 137.236 137.55C137.236 135.724 135.756 134.245 133.931 134.245C132.105 134.245 130.625 135.724 130.625 137.55C130.625 139.375 132.105 140.855 133.931 140.855Z" fill="white"/>
<path d="M156.579 158.471C158.404 158.471 159.884 156.991 159.884 155.165C159.884 153.34 158.404 151.86 156.579 151.86C154.753 151.86 153.273 153.34 153.273 155.165C153.273 156.991 154.753 158.471 156.579 158.471Z" fill="white"/>
<path d="M166.919 185.235C168.744 185.235 170.224 183.755 170.224 181.93C170.224 180.104 168.744 178.625 166.919 178.625C165.094 178.625 163.614 180.104 163.614 181.93C163.614 183.755 165.094 185.235 166.919 185.235Z" fill="white"/>
<path d="M161.998 213.502C163.824 213.502 165.303 212.022 165.303 210.197C165.303 208.371 163.824 206.892 161.998 206.892C160.173 206.892 158.693 208.371 158.693 210.197C158.693 212.022 160.173 213.502 161.998 213.502Z" fill="white"/>
<path d="M113.495 187.191L147.447 161.351" stroke="white" stroke-width="4.0543" stroke-miterlimit="10"/>
<path d="M95.5338 112.358C102.632 112.358 108.387 106.603 108.387 99.5045C108.387 92.4059 102.632 86.6514 95.5338 86.6514C88.4352 86.6514 82.6807 92.4059 82.6807 99.5045C82.6807 106.603 88.4352 112.358 95.5338 112.358Z" fill="#F2F2F2"/>
<defs>
<filter id="filter0_f" x="169.868" y="148.435" width="28.8343" height="10.1501" filterUnits="userSpaceOnUse" color-interpolation-filters="sRGB">
<feFlood flood-opacity="0" result="BackgroundImageFix"/>
<feBlend mode="normal" in="SourceGraphic" in2="BackgroundImageFix" result="shape"/>
<feGaussianBlur stdDeviation="1.77064" result="effect1_foregroundBlur"/>
</filter>
<linearGradient id="paint0_linear" x1="319.423" y1="247.829" x2="-0.125397" y2="260.371" gradientUnits="userSpaceOnUse">
<stop stop-color="#00FFF3"/>
<stop offset="1" stop-color="#6C63FF"/>
<stop offset="1" stop-color="#6C63FF"/>
</linearGradient>
<linearGradient id="paint1_linear" x1="659.694" y1="163.57" x2="306.535" y2="178.894" gradientUnits="userSpaceOnUse">
<stop stop-color="#00FFF3"/>
<stop offset="1" stop-color="#6C63FF"/>
<stop offset="1" stop-color="#6C63FF"/>
</linearGradient>
<linearGradient id="paint2_linear" x1="355.311" y1="314.104" x2="35.7624" y2="326.646" gradientUnits="userSpaceOnUse">
<stop stop-color="#00FFF3"/>
<stop offset="1" stop-color="#6C63FF"/>
<stop offset="1" stop-color="#6C63FF"/>
</linearGradient>
<linearGradient id="paint3_linear" x1="401.871" y1="310.357" x2="82.2047" y2="321.297" gradientUnits="userSpaceOnUse">
<stop stop-color="#00FFF3"/>
<stop offset="1" stop-color="#6C63FF"/>
<stop offset="1" stop-color="#6C63FF"/>
</linearGradient>
<linearGradient id="paint4_linear" x1="322.82" y1="299.268" x2="3.2717" y2="311.81" gradientUnits="userSpaceOnUse">
<stop stop-color="#00FFF3"/>
<stop offset="1" stop-color="#00FFF3" stop-opacity="0"/>
</linearGradient>
<linearGradient id="paint5_linear" x1="62.6973" y1="12.6973" x2="44.0259" y2="12.7789" gradientUnits="userSpaceOnUse">
<stop stop-color="#00FFF3"/>
<stop offset="1" stop-color="#6C63FF"/>
<stop offset="1" stop-color="#6C63FF"/>
</linearGradient>
<linearGradient id="paint6_linear" x1="117.983" y1="14.1988" x2="99.3118" y2="14.2804" gradientUnits="userSpaceOnUse">
<stop stop-color="#00FFF3"/>
<stop offset="1" stop-color="#6C63FF"/>
<stop offset="1" stop-color="#6C63FF"/>
</linearGradient>
<linearGradient id="paint7_linear" x1="173.569" y1="12.396" x2="154.898" y2="12.4777" gradientUnits="userSpaceOnUse">
<stop stop-color="#00FFF3"/>
<stop offset="1" stop-color="#6C63FF"/>
<stop offset="1" stop-color="#6C63FF"/>
</linearGradient>
<linearGradient id="paint8_linear" x1="62.6973" y1="48.1514" x2="44.0259" y2="48.233" gradientUnits="userSpaceOnUse">
<stop stop-color="#00FFF3"/>
<stop offset="1" stop-color="#6C63FF"/>
<stop offset="1" stop-color="#6C63FF"/>
</linearGradient>
<linearGradient id="paint9_linear" x1="118.584" y1="47.25" x2="99.9128" y2="47.3317" gradientUnits="userSpaceOnUse">
<stop stop-color="#00FFF3"/>
<stop offset="1" stop-color="#6C63FF"/>
<stop offset="1" stop-color="#6C63FF"/>
</linearGradient>
<linearGradient id="paint10_linear" x1="179.576" y1="146.093" x2="37.6756" y2="146.913" gradientUnits="userSpaceOnUse">
<stop stop-color="#00FFF3"/>
<stop offset="1" stop-color="#6C63FF"/>
<stop offset="1" stop-color="#6C63FF"/>
</linearGradient>
<linearGradient id="paint11_linear" x1="184.219" y1="100.943" x2="184.219" y2="141.526" gradientUnits="userSpaceOnUse">
<stop stop-color="white"/>
<stop offset="1" stop-color="white" stop-opacity="0"/>
</linearGradient>
</defs>
</svg>
