<svg width="588" height="475" viewBox="0 0 588 475" fill="none" xmlns="http://www.w3.org/2000/svg">
<rect opacity="0.4" width="485.567" height="68.2271" transform="matrix(0.906748 -0.421673 0.424401 0.905475 13.4968 281.23)" fill="url(#paint0_linear)"/>
<rect opacity="0.4" width="540.691" height="68.2271" transform="matrix(-0.906748 0.421673 -0.424401 -0.905475 537.953 167.121)" fill="url(#paint1_linear)"/>
<rect opacity="0.4" width="615.986" height="68.2271" transform="matrix(-0.906748 0.421673 -0.424401 -0.905475 587.5 181.052)" fill="url(#paint2_linear)"/>
<rect opacity="0.4" width="457.821" height="68.229" transform="matrix(0.902905 -0.429841 0.432598 0.901587 101.932 375.704)" fill="url(#paint3_linear)"/>
<rect opacity="0.4" width="290.676" height="78.253" transform="matrix(0.902905 -0.429841 0.432598 0.901587 210.454 346.918)" fill="url(#paint4_linear)"/>
<rect opacity="0.4" x="89.8363" y="332.535" width="465.858" height="68.4473" transform="rotate(-25.0264 89.8363 332.535)" fill="url(#paint5_linear)"/>
<path d="M186.074 197.501C199.951 190.27 221.736 188.795 241.564 189.374C303.847 191.181 360.068 208.755 408.697 228.637C426.303 235.836 443.635 243.594 455.064 253.506C478.327 273.682 471.426 301.631 439.079 318.253C428.072 323.909 414.731 328.259 401.033 332.083C376.673 338.919 350.405 344.401 322.761 345.981C303.052 347.093 283.097 346.187 263.503 344.633C208.753 340.278 155.016 330.708 109.973 314.261C90.2162 307.061 71.5964 298.108 63.4631 286.453C55.3299 274.798 60.5294 260.041 80.7035 253.142C89.0515 250.293 99.0212 249.003 108.788 247.797C123.163 246.016 137.767 244.257 150.739 240.639C164.139 236.9 180.004 229.669 177.352 221.395C174.494 212.516 172.213 204.721 186.074 197.501Z" fill="#F4F4F4"/>
<path d="M186.074 197.501C199.951 190.27 221.736 188.795 241.564 189.374C303.847 191.181 360.068 208.755 408.697 228.637C426.303 235.836 443.635 243.594 455.064 253.506C478.327 273.682 471.426 301.631 439.079 318.253C428.072 323.909 414.731 328.259 401.033 332.083C376.673 338.919 350.405 344.401 322.761 345.981C303.052 347.093 283.097 346.187 263.503 344.633C208.753 340.278 155.016 330.708 109.973 314.261C90.2162 307.061 71.5964 298.108 63.4631 286.453C55.3299 274.798 60.5294 260.041 80.7035 253.142C89.0515 250.293 99.0212 249.003 108.788 247.797C123.163 246.016 137.767 244.257 150.739 240.639C164.139 236.9 180.004 229.669 177.352 221.395C174.494 212.516 172.213 204.721 186.074 197.501Z" fill="url(#paint6_linear)"/>
<path opacity="0.1" d="M281.844 45.4558L280.452 126.927C280.452 126.927 330.856 126.927 373.739 140.973L374.576 58.646C374.576 58.646 305.793 42.0863 281.844 45.4558Z" fill="black" fill-opacity="0.4"/>
<path d="M280.632 44.2219L279.221 125.171C279.221 125.171 330.284 125.171 373.727 139.127L374.575 57.3276C374.575 57.3276 304.893 40.8741 280.632 44.2219Z" fill="#0000E7" fill-opacity="0.19"/>
<path opacity="0.1" d="M259.988 45.4552L261.381 126.927C261.381 126.927 210.977 126.927 168.094 140.973L167.257 58.6677C167.257 58.6677 236.04 42.0858 259.988 45.4552Z" fill="black" fill-opacity="0.4"/>
<path d="M261.806 44.2214L263.226 125.171C263.226 125.171 211.834 125.171 168.11 139.127L167.257 57.3492C167.257 57.3492 237.388 40.8735 261.806 44.2214Z" fill="#0000E7" fill-opacity="0.19"/>
<path opacity="0.1" d="M390.57 65.3047V146.041C390.57 146.041 407.237 144.073 442.215 187.112L445.322 106.376C445.322 106.376 408.915 67.2761 390.57 65.3047Z" fill="black" fill-opacity="0.4"/>
<path d="M390.57 65.3047V146.041C390.57 146.041 407.237 144.073 442.215 187.112L445.322 106.376C445.322 106.376 408.915 67.2761 390.57 65.3047Z" fill="#0000E7" fill-opacity="0.19"/>
<path opacity="0.1" d="M154.953 72.6865V153.016C154.953 153.016 138.473 151.058 103.886 193.879L100.817 113.553C100.817 113.553 136.814 74.6516 154.953 72.6865Z" fill="black" fill-opacity="0.4"/>
<path d="M156.798 70.8413V151.579C156.798 151.579 140.13 149.611 105.15 192.649L102.046 111.915C102.046 111.915 138.452 72.8164 156.798 70.8413Z" fill="#0000E7" fill-opacity="0.19"/>
<path opacity="0.1" d="M108.199 15.9949C112.276 15.9949 115.581 12.4143 115.581 7.99746C115.581 3.58058 112.276 0 108.199 0C104.122 0 100.817 3.58058 100.817 7.99746C100.817 12.4143 104.122 15.9949 108.199 15.9949Z" fill="#6C63FF"/>
<path opacity="0.1" d="M450.552 72.6869C454.799 72.6869 458.242 69.244 458.242 64.997C458.242 60.75 454.799 57.3071 450.552 57.3071C446.305 57.3071 442.862 60.75 442.862 64.997C442.862 69.244 446.305 72.6869 450.552 72.6869Z" fill="#6C63FF"/>
<path opacity="0.1" d="M102.662 44.9088C106.06 44.9088 108.814 42.1545 108.814 38.7569C108.814 35.3593 106.06 32.605 102.662 32.605C99.2649 32.605 96.5106 35.3593 96.5106 38.7569C96.5106 42.1545 99.2649 44.9088 102.662 44.9088Z" fill="#6C63FF"/>
<path opacity="0.1" d="M162.028 11.6886C164.916 11.6886 167.257 9.07201 167.257 5.8443C167.257 2.61658 164.916 0 162.028 0C159.14 0 156.799 2.61658 156.799 5.8443C156.799 9.07201 159.14 11.6886 162.028 11.6886Z" fill="#6C63FF"/>
<path opacity="0.1" d="M151.332 295.016C153.812 295.016 155.823 292.851 155.823 290.18C155.823 287.509 153.812 285.344 151.332 285.344C148.852 285.344 146.841 287.509 146.841 290.18C146.841 292.851 148.852 295.016 151.332 295.016Z" fill="#6C63FF"/>
<path opacity="0.1" d="M147.878 312.98C149.976 312.98 151.678 311.279 151.678 309.18C151.678 307.081 149.976 305.38 147.878 305.38C145.779 305.38 144.078 307.081 144.078 309.18C144.078 311.279 145.779 312.98 147.878 312.98Z" fill="#6C63FF"/>
<path opacity="0.1" d="M183.805 292.944C185.522 292.944 186.914 291.242 186.914 289.144C186.914 287.045 185.522 285.344 183.805 285.344C182.088 285.344 180.696 287.045 180.696 289.144C180.696 291.242 182.088 292.944 183.805 292.944Z" fill="#6C63FF"/>
<path opacity="0.1" d="M339.258 272.907C341.738 272.907 343.749 270.742 343.749 268.071C343.749 265.4 341.738 263.234 339.258 263.234C336.778 263.234 334.767 265.4 334.767 268.071C334.767 270.742 336.778 272.907 339.258 272.907Z" fill="#6C63FF"/>
<path opacity="0.1" d="M335.804 290.871C337.902 290.871 339.604 289.17 339.604 287.071C339.604 284.972 337.902 283.271 335.804 283.271C333.705 283.271 332.004 284.972 332.004 287.071C332.004 289.17 333.705 290.871 335.804 290.871Z" fill="#6C63FF"/>
<path opacity="0.1" d="M371.731 270.143C373.448 270.143 374.84 268.597 374.84 266.689C374.84 264.781 373.448 263.234 371.731 263.234C370.014 263.234 368.622 264.781 368.622 266.689C368.622 268.597 370.014 270.143 371.731 270.143Z" fill="#6C63FF"/>
<path opacity="0.1" d="M421.765 228.794C425.842 228.794 429.147 225.213 429.147 220.796C429.147 216.379 425.842 212.799 421.765 212.799C417.687 212.799 414.382 216.379 414.382 220.796C414.382 225.213 417.687 228.794 421.765 228.794Z" fill="#6C63FF"/>
<path opacity="0.1" d="M416.228 257.708C419.626 257.708 422.38 254.953 422.38 251.556C422.38 248.158 419.626 245.404 416.228 245.404C412.831 245.404 410.076 248.158 410.076 251.556C410.076 254.953 412.831 257.708 416.228 257.708Z" fill="#6C63FF"/>
<path opacity="0.1" d="M475.595 224.487C478.483 224.487 480.824 221.871 480.824 218.643C480.824 215.415 478.483 212.799 475.595 212.799C472.707 212.799 470.366 215.415 470.366 218.643C470.366 221.871 472.707 224.487 475.595 224.487Z" fill="#6C63FF"/>
<path opacity="0.1" d="M264.929 139.667C269.006 139.667 272.311 136.086 272.311 131.669C272.311 127.252 269.006 123.672 264.929 123.672C260.852 123.672 257.547 127.252 257.547 131.669C257.547 136.086 260.852 139.667 264.929 139.667Z" fill="#6C63FF"/>
<path opacity="0.1" d="M259.392 168.581C262.79 168.581 265.544 165.826 265.544 162.429C265.544 159.031 262.79 156.277 259.392 156.277C255.995 156.277 253.241 159.031 253.241 162.429C253.241 165.826 255.995 168.581 259.392 168.581Z" fill="#6C63FF"/>
<path opacity="0.1" d="M318.759 135.36C321.647 135.36 323.988 132.744 323.988 129.516C323.988 126.288 321.647 123.672 318.759 123.672C315.871 123.672 313.53 126.288 313.53 129.516C313.53 132.744 315.871 135.36 318.759 135.36Z" fill="#6C63FF"/>
<path opacity="0.1" d="M404.105 46.234C407.503 46.234 410.257 43.6174 410.257 40.3897C410.257 37.162 407.503 34.5454 404.105 34.5454C400.707 34.5454 397.953 37.162 397.953 40.3897C397.953 43.6174 400.707 46.234 404.105 46.234Z" fill="#6C63FF"/>
<path opacity="0.1" d="M509.969 474.102C514.216 474.102 517.659 470.66 517.659 466.413C517.659 462.166 514.216 458.723 509.969 458.723C505.722 458.723 502.279 462.166 502.279 466.413C502.279 470.66 505.722 474.102 509.969 474.102Z" fill="#6C63FF"/>
<path opacity="0.1" d="M463.522 447.65C466.92 447.65 469.674 445.033 469.674 441.805C469.674 438.578 466.92 435.961 463.522 435.961C460.125 435.961 457.371 438.578 457.371 441.805C457.371 445.033 460.125 447.65 463.522 447.65Z" fill="#6C63FF"/>
<path opacity="0.7" d="M213.088 80.6846C211.567 80.6846 210.08 81.1175 208.816 81.9287C207.551 82.7399 206.566 83.8928 205.984 85.2418C205.401 86.5907 205.249 88.075 205.546 89.507C205.843 90.9391 206.575 92.2545 207.65 93.2869C208.726 94.3193 210.096 95.0224 211.588 95.3073C213.079 95.5921 214.626 95.4459 216.031 94.8872C217.436 94.3284 218.637 93.3822 219.482 92.1682C220.327 90.9542 220.778 89.5269 220.778 88.0668C220.778 86.1089 219.968 84.2312 218.526 82.8468C217.083 81.4623 215.128 80.6846 213.088 80.6846ZM213.088 82.1153C214.319 82.1153 215.523 82.4658 216.547 83.1225C217.57 83.7791 218.368 84.7125 218.839 85.8045C219.31 86.8965 219.434 88.0981 219.194 89.2573C218.953 90.4166 218.36 91.4814 217.49 92.3172C216.619 93.153 215.51 93.7221 214.302 93.9527C213.095 94.1833 211.843 94.065 210.706 93.6127C209.568 93.1603 208.596 92.3944 207.912 91.4116C207.228 90.4288 206.863 89.2734 206.863 88.0914C206.863 86.5065 207.519 84.9864 208.686 83.8657C209.854 82.745 211.437 82.1153 213.088 82.1153ZM217.442 85.9998L216.743 85.3213C216.708 85.2873 216.667 85.2603 216.622 85.2418C216.577 85.2233 216.528 85.2138 216.479 85.2138C216.43 85.2138 216.381 85.2233 216.336 85.2418C216.29 85.2603 216.249 85.2873 216.215 85.3213L211.821 89.5011L209.968 87.6942C209.934 87.6602 209.893 87.6331 209.848 87.6146C209.802 87.5962 209.754 87.5866 209.704 87.5866C209.655 87.5866 209.607 87.5962 209.561 87.6146C209.516 87.6331 209.475 87.6602 209.441 87.6942L208.738 88.3656C208.702 88.3984 208.674 88.4377 208.655 88.4812C208.636 88.5247 208.626 88.5715 208.626 88.6188C208.626 88.666 208.636 88.7128 208.655 88.7563C208.674 88.7997 208.702 88.8391 208.738 88.8719L211.557 91.5998C211.592 91.6338 211.632 91.6609 211.678 91.6793C211.723 91.6978 211.772 91.7074 211.821 91.7074C211.87 91.7074 211.919 91.6978 211.964 91.6793C212.01 91.6609 212.051 91.6338 212.085 91.5998L217.442 86.4955C217.477 86.4627 217.506 86.4234 217.525 86.3799C217.544 86.3364 217.554 86.2896 217.554 86.2424C217.554 86.1951 217.544 86.1483 217.525 86.1049C217.506 86.0614 217.477 86.022 217.442 85.9893V85.9998Z" fill="#00FFF3"/>
<path opacity="0.7" d="M127.543 119.042C125.944 119.413 124.491 120.25 123.367 121.447C122.244 122.644 121.5 124.147 121.23 125.766C120.96 127.385 121.176 129.048 121.851 130.545C122.526 132.041 123.629 133.304 125.021 134.174C126.413 135.044 128.032 135.482 129.673 135.432C131.314 135.383 132.903 134.848 134.24 133.896C135.577 132.944 136.602 131.616 137.186 130.082C137.769 128.547 137.884 126.874 137.517 125.274C137.273 124.209 136.821 123.203 136.187 122.313C135.553 121.423 134.75 120.667 133.823 120.088C132.897 119.509 131.865 119.119 130.788 118.939C129.71 118.76 128.607 118.794 127.543 119.042ZM127.907 120.623C129.203 120.321 130.56 120.41 131.806 120.879C133.051 121.349 134.129 122.177 134.904 123.26C135.678 124.343 136.113 125.631 136.155 126.961C136.196 128.292 135.842 129.605 135.136 130.733C134.431 131.862 133.406 132.756 132.192 133.302C130.979 133.848 129.63 134.022 128.317 133.8C127.005 133.579 125.787 132.973 124.82 132.059C123.852 131.146 123.177 129.965 122.88 128.668C122.485 126.935 122.791 125.115 123.733 123.608C124.675 122.1 126.176 121.027 127.907 120.623ZM133.471 123.827L132.562 123.242C132.517 123.213 132.468 123.193 132.415 123.184C132.363 123.175 132.31 123.176 132.258 123.188C132.206 123.199 132.158 123.221 132.115 123.252C132.072 123.283 132.036 123.323 132.008 123.368L128.449 129.016L126.04 127.493C125.996 127.464 125.946 127.444 125.894 127.435C125.842 127.426 125.788 127.427 125.737 127.439C125.685 127.451 125.636 127.473 125.593 127.504C125.55 127.535 125.514 127.574 125.487 127.619L124.913 128.529C124.884 128.574 124.865 128.623 124.855 128.675C124.846 128.728 124.847 128.781 124.859 128.833C124.871 128.884 124.893 128.933 124.924 128.976C124.955 129.019 124.994 129.055 125.04 129.083L128.694 131.388C128.739 131.418 128.789 131.438 128.841 131.448C128.894 131.457 128.948 131.456 129 131.444C129.052 131.433 129.101 131.41 129.144 131.379C129.188 131.348 129.224 131.308 129.252 131.262L133.602 124.369C133.631 124.324 133.651 124.275 133.66 124.223C133.67 124.171 133.669 124.118 133.658 124.066C133.646 124.014 133.624 123.966 133.594 123.922C133.563 123.879 133.524 123.843 133.479 123.815L133.471 123.827Z" fill="#00FFF3"/>
<path opacity="0.7" d="M325.668 81.9146C324.025 81.9146 322.419 82.3656 321.053 83.2105C319.688 84.0555 318.623 85.2565 317.995 86.6616C317.366 88.0668 317.202 89.6129 317.522 91.1046C317.843 92.5963 318.634 93.9665 319.795 95.042C320.956 96.1174 322.436 96.8498 324.047 97.1465C325.658 97.4432 327.328 97.2909 328.846 96.7089C330.363 96.1269 331.66 95.1413 332.573 93.8767C333.486 92.6121 333.973 91.1253 333.973 89.6044C333.973 87.5649 333.098 85.609 331.54 84.1669C329.983 82.7247 327.87 81.9146 325.668 81.9146ZM325.668 83.4049C326.997 83.4049 328.297 83.77 329.403 84.454C330.508 85.1381 331.37 86.1103 331.879 87.2478C332.388 88.3853 332.521 89.637 332.261 90.8445C332.002 92.0521 331.362 93.1613 330.422 94.0319C329.481 94.9025 328.283 95.4954 326.979 95.7356C325.675 95.9758 324.323 95.8525 323.095 95.3813C321.866 94.9101 320.816 94.1123 320.077 93.0885C319.339 92.0648 318.944 90.8613 318.944 89.63C318.944 87.979 319.653 86.3957 320.914 85.2282C322.174 84.0608 323.884 83.4049 325.668 83.4049ZM330.37 87.4512L329.614 86.7445C329.578 86.7091 329.533 86.6809 329.484 86.6616C329.435 86.6424 329.383 86.6325 329.33 86.6325C329.277 86.6325 329.224 86.6424 329.175 86.6616C329.126 86.6809 329.082 86.7091 329.045 86.7445L324.299 91.0984L322.294 89.2272C322.257 89.1918 322.213 89.1636 322.164 89.1444C322.115 89.1251 322.063 89.1152 322.009 89.1152C321.956 89.1152 321.904 89.1251 321.855 89.1444C321.806 89.1636 321.762 89.1918 321.725 89.2272L320.969 89.934C320.931 89.9681 320.901 90.0091 320.88 90.0544C320.859 90.0997 320.848 90.1484 320.848 90.1976C320.848 90.2469 320.859 90.2956 320.88 90.3409C320.901 90.3862 320.931 90.4271 320.969 90.4613L324.014 93.3029C324.051 93.3383 324.096 93.3665 324.144 93.3858C324.193 93.405 324.246 93.4149 324.299 93.4149C324.352 93.4149 324.405 93.405 324.454 93.3858C324.503 93.3665 324.547 93.3383 324.584 93.3029L330.37 87.9859C330.408 87.9517 330.438 87.9108 330.459 87.8655C330.48 87.8202 330.491 87.7715 330.491 87.7222C330.491 87.673 330.48 87.6243 330.459 87.579C330.438 87.5337 330.408 87.4927 330.37 87.4586V87.4512Z" fill="#00FFF3"/>
<path opacity="0.7" d="M414.235 120.08C412.719 119.962 411.202 120.296 409.876 121.041C408.55 121.785 407.475 122.905 406.785 124.261C406.096 125.616 405.824 127.145 406.004 128.655C406.183 130.165 406.806 131.587 407.794 132.743C408.782 133.899 410.091 134.736 411.554 135.148C413.018 135.561 414.57 135.53 416.017 135.06C417.463 134.59 418.737 133.702 419.678 132.508C420.62 131.314 421.186 129.868 421.306 128.352C421.385 127.344 421.265 126.331 420.953 125.37C420.64 124.408 420.142 123.518 419.485 122.75C418.828 121.982 418.026 121.35 417.126 120.892C416.225 120.434 415.242 120.158 414.235 120.08ZM414.117 121.563C415.346 121.655 416.52 122.11 417.49 122.87C418.461 123.63 419.183 124.661 419.567 125.833C419.95 127.004 419.978 128.263 419.645 129.449C419.313 130.636 418.636 131.697 417.7 132.499C416.763 133.301 415.61 133.806 414.387 133.952C413.163 134.098 411.923 133.877 410.825 133.317C409.727 132.758 408.82 131.885 408.218 130.809C407.616 129.734 407.348 128.504 407.446 127.275C407.508 126.462 407.73 125.669 408.099 124.941C408.469 124.214 408.978 123.567 409.597 123.036C410.217 122.505 410.935 122.102 411.711 121.849C412.486 121.597 413.304 121.499 414.117 121.563ZM418.145 125.935L417.501 125.177C417.47 125.139 417.432 125.108 417.388 125.085C417.345 125.062 417.297 125.048 417.248 125.044C417.2 125.04 417.15 125.046 417.104 125.061C417.057 125.076 417.014 125.101 416.977 125.133L412.265 129.135L410.558 127.125C410.527 127.087 410.488 127.055 410.445 127.032C410.401 127.009 410.353 126.995 410.304 126.99C410.255 126.986 410.205 126.992 410.158 127.008C410.111 127.023 410.068 127.048 410.031 127.081L409.273 127.726C409.235 127.757 409.204 127.796 409.182 127.839C409.159 127.883 409.146 127.93 409.142 127.979C409.138 128.028 409.144 128.077 409.16 128.123C409.175 128.17 409.2 128.213 409.233 128.249L411.821 131.3C411.853 131.337 411.891 131.369 411.934 131.392C411.978 131.414 412.025 131.428 412.074 131.432C412.123 131.436 412.172 131.431 412.219 131.415C412.265 131.4 412.308 131.376 412.345 131.344L418.101 126.459C418.139 126.428 418.171 126.389 418.193 126.346C418.216 126.302 418.23 126.255 418.234 126.206C418.238 126.157 418.233 126.108 418.217 126.062C418.202 126.015 418.178 125.972 418.145 125.935Z" fill="#00FFF3"/>
<path opacity="0.1" d="M90.3185 280.433C95.7332 280.433 100.123 279.831 100.123 279.088C100.123 278.346 95.7332 277.744 90.3185 277.744C84.9039 277.744 80.5145 278.346 80.5145 279.088C80.5145 279.831 84.9039 280.433 90.3185 280.433Z" fill="#28B8B1"/>
<path opacity="0.1" d="M388.146 280.072C393.561 280.072 397.95 279.47 397.95 278.727C397.95 277.984 393.561 277.382 388.146 277.382C382.731 277.382 378.342 277.984 378.342 278.727C378.342 279.47 382.731 280.072 388.146 280.072Z" fill="#28B8B1"/>
<path opacity="0.1" d="M447.415 295.684C451.265 295.684 454.385 295.254 454.385 294.725C454.385 294.195 451.265 293.766 447.415 293.766C443.566 293.766 440.445 294.195 440.445 294.725C440.445 295.254 443.566 295.684 447.415 295.684Z" fill="#28B8B1"/>
<path opacity="0.1" d="M428.101 283.928C431.95 283.928 435.071 283.499 435.071 282.97C435.071 282.44 431.95 282.011 428.101 282.011C424.251 282.011 421.131 282.44 421.131 282.97C421.131 283.499 424.251 283.928 428.101 283.928Z" fill="#28B8B1"/>
<path d="M424.262 280.793C423.824 280.435 423.505 279.953 423.345 279.41C423.275 279.137 423.3 278.848 423.416 278.591C423.533 278.334 423.734 278.124 423.986 277.997C424.576 277.773 425.204 278.18 425.683 278.596C426.162 279.011 426.705 279.474 427.329 279.389C427.009 279.098 426.769 278.729 426.634 278.318C426.499 277.907 426.472 277.467 426.557 277.043C426.583 276.867 426.656 276.701 426.769 276.564C427.096 276.216 427.69 276.368 428.08 276.64C429.323 277.518 429.671 279.207 429.679 280.725C429.74 280.161 429.74 279.592 429.679 279.028C429.655 278.747 429.7 278.465 429.81 278.205C429.92 277.946 430.092 277.717 430.311 277.539C430.606 277.378 430.939 277.299 431.274 277.31C431.552 277.271 431.835 277.29 432.104 277.367C432.374 277.443 432.625 277.576 432.84 277.756C433.311 278.265 433.188 279.117 432.776 279.677C432.313 280.19 431.767 280.62 431.16 280.95C430.695 281.225 430.299 281.602 430.002 282.053C429.968 282.116 429.94 282.181 429.917 282.248H426.413C425.634 281.862 424.91 281.373 424.262 280.793Z" fill="#00C8BE"/>
<path opacity="0.1" d="M403.228 302.583C407.078 302.583 410.199 302.153 410.199 301.624C410.199 301.094 407.078 300.665 403.228 300.665C399.379 300.665 396.258 301.094 396.258 301.624C396.258 302.153 399.379 302.583 403.228 302.583Z" fill="#28B8B1"/>
<path d="M399.389 299.447C398.952 299.089 398.633 298.607 398.473 298.064C398.402 297.791 398.427 297.502 398.544 297.245C398.66 296.988 398.861 296.779 399.114 296.652C399.703 296.427 400.331 296.834 400.81 297.25C401.29 297.666 401.833 298.128 402.456 298.043C402.136 297.752 401.897 297.383 401.762 296.972C401.626 296.561 401.6 296.122 401.684 295.697C401.71 295.521 401.784 295.356 401.896 295.218C402.223 294.87 402.817 295.023 403.207 295.294C404.45 296.172 404.798 297.861 404.807 299.38C404.867 298.816 404.867 298.247 404.807 297.683C404.782 297.402 404.827 297.119 404.938 296.86C405.048 296.6 405.22 296.371 405.439 296.194C405.733 296.032 406.066 295.953 406.402 295.965C406.679 295.925 406.962 295.944 407.232 296.021C407.502 296.098 407.752 296.23 407.967 296.41C408.438 296.919 408.315 297.772 407.904 298.332C407.441 298.844 406.894 299.275 406.287 299.604C405.823 299.879 405.426 300.257 405.129 300.707C405.096 300.77 405.067 300.835 405.044 300.903H401.54C400.761 300.517 400.038 300.027 399.389 299.447Z" fill="#00C8BE"/>
<path d="M85.6155 276.645C85.1763 276.288 84.8566 275.805 84.6991 275.262C84.6286 274.989 84.6537 274.7 84.7703 274.444C84.8869 274.188 85.0879 273.979 85.3397 273.853C85.9294 273.628 86.5573 274.036 87.0367 274.447C87.516 274.859 88.0633 275.33 88.6869 275.24C88.3653 274.95 88.1246 274.581 87.9885 274.17C87.8524 273.759 87.8255 273.319 87.9106 272.894C87.9363 272.719 88.0113 272.554 88.1269 272.419C88.4536 272.071 89.0433 272.22 89.4336 272.496C90.6766 273.37 91.0245 275.041 91.033 276.581C91.0955 276.017 91.0955 275.448 91.033 274.884C91.0087 274.603 91.0536 274.321 91.1638 274.061C91.274 273.801 91.4461 273.573 91.6651 273.395C91.9611 273.238 92.293 273.16 92.6281 273.17C92.9042 273.127 93.1863 273.142 93.4561 273.215C93.7258 273.288 93.9771 273.418 94.1935 273.594C94.6686 274.099 94.5456 274.952 94.1299 275.512C93.67 276.035 93.1232 276.474 92.5135 276.81C92.0487 277.085 91.6526 277.462 91.3554 277.913C91.3205 277.975 91.2921 278.041 91.2705 278.108H87.7664C86.9874 277.718 86.264 277.226 85.6155 276.645Z" fill="#00C8BE"/>
<path d="M445.515 291.59C445.078 291.231 444.759 290.749 444.599 290.207C444.528 289.933 444.553 289.644 444.67 289.387C444.786 289.13 444.987 288.921 445.239 288.794C445.829 288.569 446.457 288.976 446.936 289.392C447.416 289.808 447.959 290.27 448.582 290.185C448.262 289.894 448.022 289.526 447.886 289.114C447.75 288.703 447.722 288.264 447.806 287.839C447.836 287.664 447.91 287.498 448.022 287.36C448.349 287.012 448.943 287.165 449.333 287.436C450.576 288.314 450.924 290.003 450.933 291.522C451 290.958 451.008 290.39 450.954 289.825C450.93 289.544 450.975 289.261 451.085 289.002C451.195 288.742 451.367 288.513 451.586 288.336C451.881 288.174 452.213 288.095 452.549 288.107C452.827 288.067 453.109 288.086 453.379 288.163C453.649 288.24 453.899 288.372 454.114 288.552C454.585 289.061 454.462 289.914 454.051 290.474C453.588 290.987 453.041 291.417 452.435 291.747C451.97 292.021 451.574 292.399 451.276 292.85C451.243 292.912 451.215 292.978 451.191 293.045H447.687C446.901 292.66 446.17 292.171 445.515 291.59Z" fill="#00C8BE"/>
<path d="M387.51 264.914C387.51 264.914 386.194 266.632 388.116 269.224C390.038 271.816 391.616 274.009 390.98 275.626C390.98 275.626 388.082 270.81 385.724 270.743C383.365 270.675 384.913 267.811 387.51 264.914Z" fill="#00C8BE"/>
<path opacity="0.1" d="M387.51 264.914C387.393 265.079 387.302 265.26 387.238 265.452C384.939 268.155 383.713 270.679 385.923 270.743C387.985 270.802 390.458 274.484 391.048 275.409C391.048 275.481 391.005 275.553 390.98 275.621C390.98 275.621 388.082 270.806 385.724 270.738C383.365 270.67 384.913 267.811 387.51 264.914Z" fill="black"/>
<path d="M385.066 267.103C385.066 267.71 385.134 268.198 385.219 268.198C385.304 268.198 385.367 267.71 385.367 267.103C385.367 266.496 385.282 266.785 385.202 266.785C385.121 266.785 385.066 266.501 385.066 267.103Z" fill="#FFD037"/>
<path d="M384.226 267.824C384.757 268.117 385.223 268.291 385.261 268.219C385.3 268.147 384.905 267.85 384.375 267.561C383.844 267.273 384.052 267.481 384.01 267.561C383.968 267.642 383.696 267.536 384.226 267.824Z" fill="#FFD037"/>
<path d="M394.446 264.914C394.446 264.914 395.761 266.632 393.839 269.224C391.917 271.816 390.339 274.009 390.98 275.626C390.98 275.626 393.873 270.81 396.232 270.743C398.591 270.675 397.042 267.811 394.446 264.914Z" fill="#00C8BE"/>
<path opacity="0.1" d="M394.446 264.914C394.562 265.079 394.654 265.26 394.717 265.452C397.017 268.155 398.243 270.679 396.032 270.743C393.971 270.802 391.497 274.484 390.908 275.409C390.927 275.481 390.951 275.552 390.98 275.621C390.98 275.621 393.873 270.806 396.232 270.738C398.591 270.67 397.042 267.811 394.446 264.914Z" fill="black"/>
<path d="M396.89 267.103C396.89 267.71 396.822 268.198 396.737 268.198C396.652 268.198 396.589 267.71 396.589 267.103C396.589 266.496 396.674 266.785 396.754 266.785C396.835 266.785 396.89 266.501 396.89 267.103Z" fill="#FFD037"/>
<path d="M397.729 267.824C397.199 268.117 396.732 268.291 396.694 268.219C396.656 268.147 397.05 267.85 397.581 267.561C398.111 267.273 397.903 267.481 397.945 267.561C397.988 267.642 398.259 267.536 397.729 267.824Z" fill="#FFD037"/>
<path d="M396.469 275.401C396.469 275.401 392.8 275.291 391.692 274.502C390.585 273.712 386.042 272.771 385.753 274.035C385.465 275.299 380.238 280.322 384.379 280.356C388.519 280.39 394.017 279.711 395.12 279.037C396.223 278.362 396.469 275.401 396.469 275.401Z" fill="#A8A8A8"/>
<path opacity="0.2" d="M384.319 279.915C388.464 279.949 393.954 279.27 395.061 278.595C395.909 278.086 396.236 276.245 396.333 275.396H396.452C396.452 275.396 396.223 278.366 395.116 279.032C394.009 279.698 388.523 280.385 384.374 280.352C383.178 280.352 382.766 279.927 382.788 279.287C382.97 279.673 383.428 279.91 384.319 279.915Z" fill="black"/>
<path opacity="0.1" d="M153.692 106.305C158.76 106.305 162.869 102.197 162.869 97.1288C162.869 92.061 158.76 87.9526 153.692 87.9526C148.625 87.9526 144.516 92.061 144.516 97.1288C144.516 102.197 148.625 106.305 153.692 106.305Z" fill="#28B8B1"/>
<path opacity="0.1" d="M312.403 61.0623C317.471 61.0623 321.58 56.954 321.58 51.8862C321.58 46.8183 317.471 42.71 312.403 42.71C307.336 42.71 303.227 46.8183 303.227 51.8862C303.227 56.954 307.336 61.0623 312.403 61.0623Z" fill="#28B8B1"/>
<path opacity="0.1" d="M457.98 128.073C463.047 128.073 467.156 123.964 467.156 118.896C467.156 113.829 463.047 109.72 457.98 109.72C452.912 109.72 448.803 113.829 448.803 118.896C448.803 123.964 452.912 128.073 457.98 128.073Z" fill="#28B8B1"/>
<path opacity="0.1" d="M114.349 178.19C122.842 178.19 129.728 171.304 129.728 162.811C129.728 154.318 122.842 147.433 114.349 147.433C105.856 147.433 98.9705 154.318 98.9705 162.811C98.9705 171.304 105.856 178.19 114.349 178.19Z" fill="#28B8B1"/>
<path opacity="0.1" d="M93.1294 251.155C101.623 251.155 108.508 244.27 108.508 235.777C108.508 227.284 101.623 220.398 93.1294 220.398C84.636 220.398 77.7509 227.284 77.7509 235.777C77.7509 244.27 84.636 251.155 93.1294 251.155Z" fill="#28B8B1"/>
<path d="M289.944 219.02C289.401 219.071 288.85 219.046 288.311 219.131C287.407 219.311 286.543 219.657 285.766 220.153C281.905 222.351 278.261 225.371 276.662 229.512C276.53 229.766 276.488 230.058 276.543 230.339C276.638 230.571 276.793 230.773 276.993 230.924L278.494 232.29C278.684 232.487 278.91 232.646 279.16 232.757C279.566 232.863 279.993 232.85 280.391 232.719C284.518 231.773 288.905 230.682 291.803 227.594C293.177 226.13 294.446 224.115 296.469 224.06C297.318 224.06 298.111 224.387 298.947 224.484C299.782 224.582 300.788 224.226 300.987 223.411C301.052 223.006 301.005 222.591 300.852 222.211L299.604 218.057C299.265 216.92 295.841 216.861 294.7 217.065C292.961 217.366 291.79 218.851 289.944 219.02Z" fill="#65617D"/>
<path d="M304.639 242.416C304.579 243.837 304.694 245.276 304.461 246.684C304.255 247.795 303.9 248.872 303.404 249.887C302.641 251.519 301.672 253.046 300.519 254.431C299.446 255.703 298.161 256.9 296.57 257.4C294.979 257.901 293.023 257.54 292.031 256.2C291.22 255.109 291.182 253.654 291.241 252.292C291.386 248.945 291.912 245.551 293.414 242.556C294.058 241.284 294.877 240.07 295.535 238.785C296.909 236.116 297.694 232.952 300.066 231.11C301.553 231.798 303.144 232.235 304.775 232.404C305.407 232.472 307.214 232.515 307.426 233.325C307.57 233.872 306.382 235.404 306.153 235.942C305.248 237.987 304.734 240.183 304.639 242.416Z" fill="#65617D"/>
<path d="M287.822 181.234C288.331 182.532 288.976 183.805 289.095 185.188C289.18 186.036 289.095 186.885 289.095 187.733C289.166 188.896 289.36 190.048 289.672 191.17L292.035 200.842C292.387 202.289 292.739 203.774 292.557 205.25C292.434 206.234 292.077 207.189 292.081 208.177C292.127 208.927 292.246 209.67 292.438 210.396C292.885 212.639 292.763 214.958 292.081 217.141C292.012 217.306 291.987 217.486 292.009 217.663C292.069 217.939 292.336 218.109 292.578 218.24C295.122 219.632 297.895 220.556 300.765 220.968C303.356 214.804 305.166 208.341 306.153 201.729C306.756 197.724 307.048 193.668 307.821 189.693C307.838 189.464 307.936 189.247 308.096 189.082C308.385 188.841 308.822 188.993 309.161 189.155C313.497 191.239 317.667 193.65 321.638 196.367C323.034 194.559 324.016 192.466 324.513 190.237C325.011 188.007 325.013 185.696 324.518 183.466C324.02 181.543 323.308 179.682 322.397 177.917C321.427 175.769 320.217 173.739 318.791 171.863C315.643 167.917 311.028 165.397 306.276 163.688C303.387 162.644 300.413 161.872 297.444 161.083C295.781 160.637 292.994 159.187 291.377 160.315C289.68 161.49 288.552 164.405 287.856 166.254C286.997 168.549 286.53 170.971 286.473 173.42C286.403 176.088 286.862 178.744 287.822 181.234Z" fill="#3F3D56"/>
<path d="M321.927 192.896C321.04 193.863 321.787 195.408 321.617 196.714C321.506 197.304 321.295 197.871 320.993 198.39L316.933 206.361C316.255 207.557 315.746 208.843 315.423 210.179C314.867 213.056 316.009 216.288 314.549 218.83C314.078 219.648 313.349 220.353 313.153 221.277C313.009 221.952 313.153 222.656 313.081 223.339C312.984 224.141 312.555 224.862 312.318 225.634C312.132 226.376 312.001 227.13 311.923 227.891C311.408 231.135 309.71 234.074 307.155 236.138C305.691 237.379 303.811 238.019 301.894 237.929C300.002 237.767 298.123 236.482 297.737 234.624C297.605 233.992 297.631 233.287 297.236 232.774C296.676 232.04 295.497 232.01 294.958 231.26L297.045 227.823C297.694 226.758 298.356 225.647 298.462 224.404C298.589 222.881 297.856 221.362 298.119 219.856C298.343 218.562 299.272 217.485 299.552 216.204C299.9 214.613 299.205 213.005 298.827 211.418C297.902 207.511 298.937 203.438 299.968 199.54C301.338 194.381 302.743 189.142 305.517 184.581C311.053 187.563 316.144 190.427 321.927 192.896Z" fill="#3F3D56"/>
<path d="M321.978 112.088C322.309 112.987 322.131 113.984 322.068 114.939C321.919 117.06 322.369 119.181 322.267 121.332C322.165 123.483 321.503 125.536 321.045 127.627C319.743 133.596 320.057 139.816 318.877 145.81C317.422 153.234 313.702 160.149 312.968 167.684C312.734 170.076 312.764 172.639 311.453 174.658C303.663 171.229 296.3 166.904 289.512 161.77C291.005 150.693 292.481 139.561 292.282 128.387C292.185 127.04 292.28 125.686 292.562 124.365C292.916 123.256 293.424 122.202 294.072 121.234C295.714 118.566 297.521 116.003 299.324 113.445C300.478 111.808 301.725 110.09 303.567 109.322C305.408 108.554 307.588 108.898 309.595 109.262C312.01 109.704 314.423 110.145 316.832 110.586C318.339 110.862 321.334 110.336 321.978 112.088Z" fill="#28B8B1"/>
<path d="M263.888 154.532C262.898 153.542 261.819 152.646 260.664 151.855C262.17 150.022 261.873 147.371 262.242 145.025C262.544 143.501 263.003 142.013 263.612 140.583C263.765 140.18 263.981 139.735 264.401 139.629C264.659 139.597 264.921 139.638 265.156 139.747C266.429 140.197 269.085 140.172 270.073 140.995C271.265 141.996 270.175 144.092 269.725 145.343C269.407 146.183 264.52 155.168 263.888 154.532Z" fill="#BE6F72"/>
<path d="M267.582 233.758C268.221 234.792 268.639 235.948 268.808 237.152C268.91 238.357 268.469 239.676 267.442 240.312C266.416 240.949 264.944 240.736 263.722 240.355C261.13 239.512 258.746 238.132 256.725 236.304C254.703 234.476 253.091 232.243 251.992 229.749C251.606 228.858 251.271 227.912 250.588 227.225C250.08 226.779 249.517 226.401 248.912 226.1C247.245 225.159 245.637 223.92 244.865 222.163C244.093 220.407 244.44 218.061 246.04 217.018C246.538 216.73 247.089 216.544 247.66 216.471C248.231 216.398 248.811 216.44 249.366 216.593C250.472 216.907 251.53 217.368 252.514 217.964C254.16 218.859 256.171 219.631 257.604 220.823C258.877 221.871 260.018 223.288 261.104 224.522C262.348 225.943 263.514 227.43 264.596 228.977C264.944 229.431 267.875 233.346 267.582 233.758Z" fill="#65617D"/>
<path d="M236.486 224.854C236.342 226.988 235.965 229.101 235.362 231.154C235.018 232.307 234.565 233.508 233.61 234.242C232.803 234.765 231.888 235.1 230.933 235.222C230.6 235.312 230.252 235.334 229.911 235.286C229.325 235.163 228.91 234.658 228.549 234.178C227.132 232.303 225.753 230.322 225.155 228.048C224.307 224.752 225.155 221.218 226.627 218.138C227.156 216.896 227.928 215.773 228.897 214.833C230.094 213.849 231.532 213.204 233.063 212.962C234.628 212.648 236.55 211.978 236.665 213.883C236.832 217.54 236.773 221.204 236.486 224.854Z" fill="#65617D"/>
<path d="M259.958 145.114C262.886 146.629 266.135 148.555 266.746 151.792C267.124 153.769 266.398 155.792 266.517 157.803C266.623 159.572 267.366 161.282 267.272 163.047C267.173 163.881 267.031 164.709 266.848 165.528C266.598 167.094 266.746 168.689 266.682 170.271C266.542 173.835 265.35 177.263 264.773 180.78C264.365 183.291 264.27 185.843 264.489 188.378C264.629 190.015 264.913 191.644 264.913 193.29C264.913 194.476 264.816 195.659 264.621 196.828C264.052 200.502 262.907 204.063 261.227 207.379C259.186 211.397 259.475 216.581 259.691 221.082C259.786 221.702 259.706 222.337 259.462 222.915C258.927 223.886 257.595 224.026 256.492 223.933C252.402 223.559 248.608 221.638 245.887 218.562C245.489 218.175 245.22 217.676 245.114 217.132C245.021 216.224 245.751 215.478 246.277 214.727C248.067 212.182 247.613 208.732 247.825 205.606C247.98 203.331 248.524 201.1 249.433 199.009C249.959 197.8 250.617 196.608 250.736 195.293C250.846 194.067 250.472 192.853 250.103 191.682L248.831 187.644C246.858 181.369 244.873 175.057 241.886 169.198C239.927 170.473 238.524 172.444 237.962 174.713C236.85 178.709 238.433 183.172 236.918 187.016C236.667 187.549 236.459 188.101 236.295 188.666C236.205 189.154 236.171 189.651 236.193 190.147C236.232 194.282 236.484 198.412 236.948 202.522C236.971 203.144 237.146 203.751 237.457 204.291C237.707 204.651 238.072 204.919 238.339 205.262C239.082 206.225 238.942 207.574 238.764 208.775L237.915 214.451C237.9 214.739 237.805 215.017 237.639 215.253C237.439 215.447 237.19 215.582 236.918 215.643C234.222 216.48 231.381 216.741 228.578 216.407C227.75 216.309 227 215.754 226.308 215.287C226.236 214.438 227.292 213.874 227.331 213.03C227.29 212.53 227.057 212.065 226.681 211.732C225.103 209.95 223.22 208.058 223.237 205.678C223.237 205.054 223.385 204.431 223.364 203.807C223.309 202.208 222.206 200.837 221.82 199.298C221.345 197.393 221.977 195.416 222.218 193.469C222.549 190.847 222.159 188.191 221.794 185.574L220.373 175.969C220.208 174.478 219.913 173.005 219.491 171.565C218.956 170.148 218.328 168.768 217.611 167.433C216.254 164.676 215.138 161.808 214.026 158.949C213.673 158.172 213.451 157.342 213.369 156.492C213.305 155.037 214.056 153.663 214.99 152.543C216.738 150.461 219.123 149.015 221.777 148.428C222.221 148.304 222.687 148.285 223.139 148.372C223.519 148.499 223.876 148.686 224.195 148.928C227.475 151.073 231.206 152.429 235.098 152.891C238.989 153.352 242.935 152.906 246.625 151.588C247.049 151.91 247.834 151.77 248.322 151.541C249.683 150.918 250.795 149.878 251.991 148.996C254.218 147.308 257.222 145.704 259.958 145.114Z" fill="#3F3D56"/>
<path d="M172.029 254.062C172.254 254.712 172.593 255.317 173.03 255.848C174.565 257.851 176.708 259.45 177.696 261.788C177.904 262.288 178.057 262.814 178.248 263.323C178.828 264.86 179.775 266.232 181.005 267.32C181.944 268.099 182.964 268.774 184.047 269.335C185.922 270.357 187.95 271.282 190.08 271.227C190.508 271.218 190.934 271.167 191.352 271.074C192.015 270.937 192.654 270.702 193.249 270.378C194.619 269.623 195.794 268.147 195.523 266.607C195.468 266.313 195.375 266.028 195.247 265.759C195.022 265.329 194.762 264.919 194.471 264.533C193.754 263.54 193.015 262.522 191.968 261.885C190.788 261.164 189.303 260.986 188.243 260.095C187.824 259.716 187.463 259.279 187.169 258.797C186.208 257.319 185.492 255.696 185.048 253.99C184.726 252.718 184.509 251.322 183.58 250.389C182.651 249.455 181.374 249.243 180.136 249.031C179.717 248.945 179.29 248.903 178.863 248.908C178.256 248.929 177.628 249.103 177.06 248.819C176.491 248.535 176.301 248.132 175.613 248.187C175.066 248.261 174.551 248.485 174.124 248.836C172.512 250.028 171.443 252.149 172.029 254.062Z" fill="#3F3D56"/>
<path d="M187.101 255.992C187.376 257.43 187.801 258.961 188.912 259.899C189.62 260.51 190.609 260.892 190.961 261.753C191.313 262.614 190.859 263.696 190.274 264.485C189.526 265.483 188.6 266.333 187.542 266.992C186.642 267.548 185.569 267.972 184.538 267.726C183.69 267.527 183.019 266.916 182.387 266.326C180.936 264.981 179.452 263.586 178.637 261.783C177.789 259.882 177.746 257.68 176.821 255.809C176.283 254.719 175.451 253.765 175.124 252.594C174.978 252.17 174.978 251.71 175.124 251.287C175.283 250.984 175.522 250.731 175.816 250.557C176.109 250.382 176.446 250.293 176.787 250.299C177.47 250.321 178.144 250.465 178.777 250.723C180.692 251.406 182.653 251.954 184.644 252.365C185.438 252.513 185.917 252.509 186.341 253.277C186.733 254.137 186.989 255.053 187.101 255.992Z" fill="#FBBEBE"/>
<path d="M192.022 268.151C191.707 268.632 191.484 269.167 191.364 269.729C191.264 270.166 191.248 270.618 191.317 271.061C191.98 270.924 192.619 270.689 193.214 270.365C194.584 269.61 195.759 268.134 195.488 266.594C195.433 266.3 195.34 266.015 195.212 265.745C195.009 265.7 194.799 265.709 194.601 265.771C194.403 265.832 194.224 265.945 194.083 266.098C193.294 266.67 192.598 267.363 192.022 268.151Z" fill="#FBBEBE"/>
<path d="M176.817 235.917C176.633 236.315 176.578 236.76 176.66 237.19C176.856 238.038 177.725 238.526 178.51 238.912L185.972 242.561C186.49 242.8 186.994 243.068 187.483 243.363C188.755 244.143 189.757 245.246 190.843 246.256C191.929 247.266 193.138 248.212 194.576 248.568C196.012 248.883 197.512 248.686 198.818 248.012C199.522 247.662 200.176 247.218 200.761 246.693C201.268 246.248 201.736 245.761 202.161 245.238C202.526 244.853 202.787 244.381 202.921 243.867C203.061 243.091 202.675 242.327 202.225 241.687C201.966 241.318 201.682 240.966 201.376 240.635C198.547 237.508 193.91 235.888 189.922 235.251C188.335 234.997 186.829 234.403 185.302 233.919C183.775 233.436 182.159 233.071 180.572 233.296C178.985 233.52 177.424 234.433 176.817 235.917Z" fill="#3F3D56"/>
<path opacity="0.1" d="M176.817 235.917C176.633 236.315 176.578 236.76 176.66 237.19C176.856 238.038 177.725 238.526 178.51 238.912L185.972 242.561C186.49 242.8 186.994 243.068 187.483 243.363C188.755 244.143 189.757 245.246 190.843 246.256C191.929 247.266 193.138 248.212 194.576 248.568C196.012 248.883 197.512 248.686 198.818 248.012C199.522 247.662 200.176 247.218 200.761 246.693C201.268 246.248 201.736 245.761 202.161 245.238C202.526 244.853 202.787 244.381 202.921 243.867C203.061 243.091 202.675 242.327 202.225 241.687C201.966 241.318 201.682 240.966 201.376 240.635C198.547 237.508 193.91 235.888 189.922 235.251C188.335 234.997 186.829 234.403 185.302 233.919C183.775 233.436 182.159 233.071 180.572 233.296C178.985 233.52 177.424 234.433 176.817 235.917Z" fill="black"/>
<path d="M195.492 238.247C196.066 238.891 196.538 239.619 196.892 240.406C197.211 240.922 197.324 241.538 197.21 242.133C197.043 242.533 196.776 242.884 196.434 243.151L195.692 243.838C195.467 244.071 195.206 244.266 194.919 244.415C194.513 244.568 194.08 244.633 193.647 244.606C192.65 244.606 191.576 244.606 190.766 244.008C189.659 243.21 189.46 241.56 189.964 240.292C190.469 239.023 191.526 238.064 192.59 237.207C193.456 236.507 194.885 237.606 195.492 238.247Z" fill="#FBBEBE"/>
<path d="M200.023 242.632C199.886 243.336 199.952 244.065 200.214 244.732C200.401 245.369 200.583 246.005 200.765 246.654C200.765 246.654 200.765 246.654 200.765 246.68C201.272 246.235 201.741 245.748 202.165 245.225C202.53 244.839 202.792 244.368 202.925 243.854C203.065 243.078 202.679 242.314 202.229 241.674C201.97 241.304 201.687 240.953 201.381 240.622C201.181 240.88 201.007 241.135 200.863 241.3C200.492 241.68 200.205 242.134 200.023 242.632Z" fill="#FBBEBE"/>
<path d="M180.53 211.015C179.651 214.706 180.025 218.566 180.491 222.333C180.848 225.201 181.247 228.171 180.398 230.932C180.084 231.963 179.588 233.011 179.779 234.076C180.139 236.083 182.557 236.855 184.56 237.232C185.137 237.379 185.738 237.415 186.329 237.338C186.922 237.177 187.472 236.887 187.941 236.49C190.787 234.421 192.949 231.547 194.148 228.239C194.907 226.024 195.149 223.67 195.382 221.341C195.772 217.421 196.167 213.454 195.594 209.56C195.424 208.414 195.17 207.281 195.064 206.127C194.93 204.12 195.041 202.105 195.395 200.125C196.125 195.219 197.232 190.377 198.704 185.641C194.664 186.178 190.558 185.436 186.961 183.52C187.657 183.893 186.859 189.845 186.774 190.681C186.517 193.173 186.067 195.641 185.429 198.063C184.246 202.589 181.603 206.518 180.53 211.015Z" fill="#3F3D56"/>
<path opacity="0.1" d="M180.53 211.015C179.651 214.706 180.025 218.566 180.491 222.333C180.848 225.201 181.247 228.171 180.398 230.932C180.084 231.963 179.588 233.011 179.779 234.076C180.139 236.083 182.557 236.855 184.56 237.232C185.137 237.379 185.738 237.415 186.329 237.338C186.922 237.177 187.472 236.887 187.941 236.49C190.787 234.421 192.949 231.547 194.148 228.239C194.907 226.024 195.149 223.67 195.382 221.341C195.772 217.421 196.167 213.454 195.594 209.56C195.424 208.414 195.17 207.281 195.064 206.127C194.93 204.12 195.041 202.105 195.395 200.125C196.125 195.219 197.232 190.377 198.704 185.641C194.664 186.178 190.558 185.436 186.961 183.52C187.657 183.893 186.859 189.845 186.774 190.681C186.517 193.173 186.067 195.641 185.429 198.063C184.246 202.589 181.603 206.518 180.53 211.015Z" fill="black"/>
<path d="M202.555 189.387C204.252 194.304 203.879 199.675 203.145 204.825C202.411 209.976 201.329 215.126 201.647 220.314C201.77 222.35 202.101 224.442 201.507 226.389C201.177 227.339 200.74 228.249 200.205 229.1L186.668 252.509C186.322 253.117 185.831 253.629 185.239 253.999C184.646 254.37 183.971 254.586 183.274 254.631C181.827 254.732 180.406 254.257 179.057 253.727C178.16 253.43 177.327 252.968 176.6 252.365C176.24 252.065 175.958 251.682 175.778 251.249C175.597 250.816 175.525 250.346 175.565 249.879C176.172 245.815 177.084 241.653 177.759 237.576C178.217 234.81 179.218 232.162 180.703 229.783C181.751 228.086 183.04 226.563 183.944 224.798C186.54 219.741 185.641 213.573 183.639 208.253C181.636 202.933 178.654 197.995 177.063 192.556C176.591 191.043 176.322 189.474 176.261 187.89C176.242 186.254 176.545 184.631 177.153 183.112C177.762 181.593 178.664 180.21 179.808 179.04C180.142 178.662 180.562 178.371 181.034 178.192C181.585 178.064 182.159 178.074 182.705 178.222C190.244 179.685 200.065 182.125 202.555 189.387Z" fill="#3F3D56"/>
<path d="M324.239 115.982C324.485 117.84 323.814 119.719 322.86 121.327C319.25 127.351 310.926 130.015 304.49 127.211C301.839 126.053 299.595 124.144 297.397 122.26C296.659 121.624 295.891 120.958 295.518 120.058C294.86 118.468 295.654 116.571 296.948 115.434C298.242 114.297 299.917 113.737 301.584 113.232C307.087 111.519 322.928 106.114 324.239 115.982Z" fill="#FBBEBE"/>
<path d="M321.019 110.084C326.029 114.114 333.321 117.954 338.998 120.94C340.928 121.959 343.07 123.104 343.766 125.183C344.139 126.294 344.016 127.503 343.893 128.674C343.656 130.927 343.41 133.214 342.54 135.305C341.518 137.753 339.71 139.772 338.26 141.995C335.714 145.89 334.221 150.48 331.077 153.92C333.198 160.967 335.519 168.005 336.274 175.319C336.316 175.52 336.294 175.729 336.211 175.917C336.124 176.04 336.011 176.143 335.88 176.218L330.602 179.68C330.027 180.016 329.512 180.446 329.079 180.953C328.146 182.166 328.269 183.871 327.692 185.284C327.376 185.974 326.923 186.592 326.362 187.102C325.8 187.613 325.142 188.004 324.425 188.254C322.983 188.751 321.447 188.913 319.933 188.729C318.005 188.607 316.149 187.954 314.57 186.841C313.225 185.823 312.267 184.393 311.342 182.985C310.657 182.024 310.087 180.986 309.645 179.892C309.081 178.331 309.047 176.63 309.068 174.967C309.082 171.802 309.384 168.646 309.972 165.536C310.218 164.301 310.523 163.084 310.718 161.841C311.109 159.338 311.032 156.784 311.321 154.268C311.715 151.439 312.346 148.647 313.208 145.924C313.68 144.237 314.049 142.522 314.312 140.79C314.808 137.744 315.796 134.804 316.785 131.881L318.482 126.871C318.842 125.789 319.207 124.712 319.636 123.656C320.433 121.683 321.46 119.761 321.731 117.657C322.033 115.362 319.555 112.638 320.391 110.483C320.459 110.245 320.828 109.932 321.019 110.084Z" fill="#3F3D56"/>
<path d="M342.409 124C343.584 124.53 344.234 125.795 344.654 127.016C345.6 129.77 345.828 132.72 345.315 135.586C345.15 136.306 345.036 137.038 344.976 137.775C344.985 138.629 345.068 139.481 345.226 140.32C345.65 143.566 345.226 146.862 345.366 150.137C345.51 153.819 346.312 157.71 344.768 161.057C343.741 163.28 341.798 164.934 339.881 166.436C332.742 172 324.865 176.546 316.476 179.944C317.922 178.204 317.948 175.587 316.985 173.538C316.022 171.489 314.232 169.949 312.318 168.753C314.754 168.211 317.112 167.369 319.339 166.245C323.785 163.988 327.595 160.684 331.358 157.413C331.913 157.014 332.345 156.467 332.605 155.835C332.987 154.562 331.935 153.353 331.205 152.237C328.995 148.843 329.508 144.41 330.433 140.482C331.464 136.176 332.979 131.887 335.74 128.425C337.463 126.261 339.711 124.598 342.409 124Z" fill="#3F3D56"/>
<path d="M316.102 180.05C315.721 180.672 315.226 181.216 314.643 181.654C313.37 182.502 311.622 182.18 310.201 181.577C308.88 181.017 307.662 180.242 306.595 179.282C306.136 178.795 305.595 178.393 304.996 178.094C303.884 177.67 302.331 177.988 301.708 176.966C301.635 176.859 301.6 176.731 301.606 176.601C301.644 176.232 302.128 176.13 302.501 176.109C304.233 175.995 305.914 175.476 307.41 174.595C306.932 174.249 306.523 173.818 306.205 173.322C306.073 173.149 306.001 172.937 306.001 172.719C306.053 172.483 306.183 172.271 306.37 172.117C307.734 170.83 309.45 169.978 311.299 169.67C313.149 169.362 315.048 169.611 316.755 170.386C317.089 170.521 317.381 170.74 317.604 171.023C317.761 171.283 317.866 171.571 317.914 171.871C318.189 173.059 319.186 174.841 318.826 176.041C318.427 177.42 316.921 178.884 316.102 180.05Z" fill="#FBBEBE"/>
<path d="M287.174 174.7C292.451 168.603 294.81 160.581 296.999 152.822L298.564 147.307L302.34 134.024C302.896 132.064 303.451 130.104 303.821 128.106C304.453 124.657 304.512 121.132 304.474 117.627C304.42 116.175 304.087 114.746 303.494 113.419C303.125 112.503 302.947 111.527 302.645 110.581C302.262 109.262 301.689 108.006 300.944 106.852C300.737 106.509 300.478 106.2 300.176 105.935C299.654 105.581 299.063 105.341 298.441 105.231C297.093 104.83 295.695 104.617 294.288 104.599C292.88 104.65 291.429 105.138 290.521 106.207C289.829 107.026 289.511 108.086 288.964 109.007C288.709 109.384 288.478 109.776 288.272 110.182C288.039 110.798 287.91 111.449 287.891 112.108C287.67 114.781 287.482 117.456 287.326 120.135C287.254 121.352 287.191 122.578 287.237 123.8C287.275 124.75 287.377 125.696 287.479 126.642L288.484 135.908C288.718 138.084 288.552 140.12 288.747 142.301C289.223 147.566 288.09 152.83 286.928 157.998C286.372 160.454 285.799 162.944 284.611 165.167C283.563 167.136 281.994 169.134 282.409 171.327C282.554 172.091 282.94 172.803 282.999 173.575C282.97 174.054 283.017 174.533 283.139 174.997C283.312 175.312 283.581 175.564 283.907 175.716C284.232 175.869 284.598 175.914 284.951 175.845C285.791 175.698 286.566 175.298 287.174 174.7Z" fill="#3F3D56"/>
<path d="M287.818 150.302C287.979 151.52 287.856 152.755 287.916 153.981C288.049 155.56 288.333 157.122 288.764 158.647C289.188 160.344 289.731 162.245 291.229 163.186C291.605 163.382 291.964 163.607 292.302 163.861C292.469 163.993 292.592 164.172 292.654 164.375C292.716 164.578 292.715 164.796 292.65 164.998L291.483 164.803C291.616 164.904 291.725 165.032 291.805 165.178C291.884 165.325 291.932 165.486 291.945 165.653C291.957 165.819 291.935 165.986 291.879 166.143C291.823 166.299 291.734 166.443 291.618 166.563C291.503 166.683 291.364 166.777 291.209 166.84C291.055 166.903 290.889 166.932 290.722 166.926C290.556 166.92 290.392 166.879 290.243 166.806C290.093 166.732 289.961 166.628 289.854 166.5C289.899 166.882 289.863 167.269 289.748 167.637C289.689 167.817 289.576 167.975 289.424 168.089C289.273 168.202 289.09 168.267 288.9 168.273C288.68 168.239 288.472 168.151 288.293 168.018L285.247 166.131C284.335 165.639 283.575 164.905 283.054 164.009L281.722 162.003C281.428 161.616 281.195 161.187 281.03 160.73C280.534 159.033 281.921 157.15 281.2 155.55C280.983 155.156 280.729 154.784 280.441 154.439C278.901 152.318 278.998 149.433 279.168 146.803C279.223 145.916 279.384 144.864 280.186 144.478C280.822 144.168 281.586 144.444 282.176 144.83C282.765 145.216 283.287 145.725 283.958 145.954C284.382 146.098 284.848 146.115 285.273 146.268C285.867 146.476 286.418 147.286 286.817 147.766C287.381 148.501 287.728 149.38 287.818 150.302Z" fill="#FBBEBE"/>
<path d="M250.642 112.176C250.282 113.003 249.776 113.759 249.149 114.407C248.834 114.731 248.447 114.977 248.02 115.124C247.593 115.272 247.137 115.317 246.689 115.256C245.747 115.069 245.055 114.293 244.432 113.559C242.803 111.646 241.152 109.707 240.058 107.441C238.386 103.992 238.119 100.055 237.877 96.2331C237.818 95.2489 237.767 94.2053 238.238 93.3441C238.836 92.2453 240.104 91.7277 241.275 91.2908L247.745 88.8726C248.141 88.6848 248.58 88.6044 249.018 88.6393C250.032 88.809 250.405 90.0308 250.681 91.0193C251.174 92.7955 251.994 94.4643 253.099 95.9404C254.55 97.8749 257.804 100.48 255.945 102.894C253.701 105.787 252.276 108.909 250.642 112.176Z" fill="#BE6F72"/>
<path d="M258.92 101.138C261.754 103.802 262.713 107.951 262.577 111.833C262.441 115.715 261.364 119.499 260.749 123.334C260.133 127.169 260.01 131.263 261.678 134.788C262.25 135.998 263.031 137.117 263.43 138.394C263.764 139.657 263.877 140.967 263.765 142.268C263.758 143.639 263.496 144.997 262.993 146.272C262.089 148.275 260.231 149.666 258.453 150.939C254.826 153.561 251.127 156.225 246.868 157.595C243.983 158.524 240.928 158.83 237.908 158.995C235.863 159.158 233.806 159.1 231.773 158.821C228.218 158.229 224.95 156.499 222.461 153.892C222.028 153.471 221.67 152.979 221.405 152.437C221.146 151.731 221.021 150.982 221.036 150.231C220.934 147.445 220.951 144.659 221.087 141.873C221.165 139.218 221.53 136.58 222.177 134.004C222.987 131.034 224.392 128.251 225.456 125.358C229.164 115.299 228.791 103.853 233.941 94.4607C235.053 92.4329 236.911 90.299 239.202 90.6214C239.642 90.6479 240.057 90.8386 240.364 91.1559C240.627 91.542 240.775 91.9954 240.788 92.4626C241.336 97.0273 242.112 101.711 244.263 105.83C245.111 107.447 246.384 109.907 248.34 110.34C250.295 110.773 251.449 108.906 252.497 107.582C254.338 105.155 256.499 102.987 258.92 101.138Z" fill="#E3E8F4"/>
<path d="M272.482 94.2706C273.06 94.583 273.6 94.9617 274.09 95.3991C275.363 96.6039 275.83 98.4493 275.821 100.197C275.813 101.945 275.397 103.667 275.142 105.398C274.459 110.065 275.041 114.842 275.312 119.568C275.395 120.331 275.349 121.102 275.176 121.85C274.968 122.563 274.54 123.191 274.264 123.882C273.454 125.927 274.065 128.26 273.59 130.407C273.081 132.694 271.337 134.772 271.664 137.093C271.795 138.001 272.232 138.836 272.419 139.736C272.605 140.635 272.444 141.721 271.668 142.205C270.891 142.689 269.763 142.336 268.838 142.604C268.462 142.742 268.097 142.907 267.744 143.096C266.314 143.741 264.609 143.52 263.2 142.816C261.82 142.062 260.579 141.078 259.53 139.906C257.914 138.251 256.349 136.44 255.64 134.238C254.605 131.048 255.526 127.573 256.65 124.408C257.774 121.243 259.115 118.045 258.915 114.681C258.805 112.797 258.211 110.985 257.855 109.136C257.414 106.573 257.256 103.97 257.384 101.372C257.439 99.4717 257.566 97.5118 258.385 95.7936C258.969 94.6475 259.831 93.6663 260.892 92.9399C261.954 92.2135 263.18 91.7652 264.46 91.6361C267.43 91.3137 269.975 92.8282 272.482 94.2706Z" fill="#3F3D56"/>
<path opacity="0.1" d="M264.46 135.276C264.489 136.633 264.733 137.978 265.181 139.259C265.94 137.528 266.029 135.585 266.131 133.702C266.555 127.215 267.993 121.098 269.525 114.815C268.409 115.663 267.781 117.785 267.247 119.057C265.125 124.19 264.173 129.73 264.46 135.276Z" fill="black"/>
<path d="M235.862 90.0778C233.817 90.6165 232.044 91.8299 230.063 92.6232C228.005 93.4716 225.791 93.8322 223.631 94.3541C218.634 95.5674 213.615 97.82 210.599 101.99C208.376 105.057 207.455 108.846 205.932 112.32C204.66 115.235 202.963 117.967 202.025 121C200.799 124.958 200.939 129.201 201.24 133.333C201.486 136.727 201.86 140.159 203.4 143.166C204.206 144.745 205.317 146.157 206.123 147.735C207.09 149.632 207.6 151.723 208.406 153.675C209.212 155.626 210.395 157.578 212.266 158.596L215.363 156.784C219.983 154.082 224.603 151.375 229.079 148.44C232.981 145.894 236.918 142.971 238.997 138.788C240.838 135.093 241.021 130.775 240.546 126.672C240.07 122.57 238.984 118.557 238.424 114.467C237.711 109.32 237.818 104.092 238.743 98.9782C239.167 96.6704 240.295 94.2862 240.529 91.9868C240.787 89.5305 237.631 89.6111 235.862 90.0778Z" fill="#3F3D56"/>
<path d="M264.822 288.47C241.889 288.47 214.55 280.571 214.55 242.931C214.55 211.574 236.163 187.927 264.822 187.927C293.48 187.927 315.094 211.574 315.094 242.931C315.094 280.571 287.755 288.47 264.822 288.47Z" fill="#001AFF" fill-opacity="0.7"/>
<path d="M264.822 288.47C241.889 288.47 214.55 280.571 214.55 242.931C214.55 211.574 236.163 187.927 264.822 187.927C293.48 187.927 315.094 211.574 315.094 242.931C315.094 280.571 287.755 288.47 264.822 288.47Z" fill="url(#paint7_linear)" fill-opacity="0.5"/>
<path fill-rule="evenodd" clip-rule="evenodd" d="M232.659 277.532C241.685 283.747 253.588 285.698 264.822 285.698C276.056 285.698 287.959 283.747 296.985 277.532C305.825 271.445 312.321 260.981 312.321 242.931C312.321 212.865 291.72 190.699 264.822 190.699C237.924 190.699 217.323 212.865 217.323 242.931C217.323 260.981 223.819 271.445 232.659 277.532ZM214.55 242.931C214.55 280.571 241.889 288.47 264.822 288.47C287.755 288.47 315.094 280.571 315.094 242.931C315.094 211.574 293.48 187.927 264.822 187.927C236.163 187.927 214.55 211.574 214.55 242.931Z" fill="black" fill-opacity="0.2"/>
<path fill-rule="evenodd" clip-rule="evenodd" d="M233.889 277.532C242.916 283.748 254.819 285.698 266.053 285.698C277.287 285.698 289.19 283.748 298.216 277.532C307.056 271.446 313.552 260.981 313.552 242.932C313.552 212.866 292.951 190.7 266.053 190.7C239.155 190.7 218.554 212.866 218.554 242.932C218.554 260.981 225.049 271.446 233.889 277.532ZM215.781 242.932C215.781 280.571 243.12 288.471 266.053 288.471C288.986 288.471 316.325 280.571 316.325 242.932C316.325 211.575 294.711 187.927 266.053 187.927C237.394 187.927 215.781 211.575 215.781 242.932Z" fill="white"/>
<path d="M295.324 208.272H290.797C302.464 208.272 311.922 217.843 311.922 229.649C311.922 241.455 302.464 251.025 290.797 251.025H295.324C306.991 251.025 316.449 241.455 316.449 229.649C316.449 217.843 306.991 208.272 295.324 208.272Z" fill="#E6E4FF"/>
<path d="M261.754 206.797C249.134 206.797 238.903 217.028 238.903 229.648C238.903 242.268 249.134 252.499 261.754 252.499H295.269C307.889 252.499 318.12 242.268 318.12 229.648C318.12 217.028 307.889 206.797 295.269 206.797H261.754ZM315.073 229.648C315.06 240.58 306.201 249.439 295.269 249.452H261.754C250.817 249.452 241.95 240.585 241.95 229.648C241.95 218.71 250.817 209.844 261.754 209.844H295.269C306.201 209.856 315.06 218.715 315.073 229.648Z" fill="white"/>
<g filter="url(#filter0_i)">
<path d="M256.022 233.894L261.583 226.293C261.585 226.291 261.586 226.289 261.588 226.287C261.59 226.289 261.592 226.292 261.594 226.296L267.198 233.902C268.167 235.217 270.014 235.494 271.322 234.52C272.631 233.547 272.907 231.691 271.937 230.376L266.333 222.769C265.205 221.238 263.476 220.36 261.587 220.36C261.585 220.36 261.583 220.36 261.581 220.36C259.687 220.363 257.956 221.246 256.832 222.783L251.271 230.384C250.306 231.702 250.588 233.557 251.9 234.527C252.426 234.916 253.037 235.103 253.644 235.103C254.55 235.102 255.444 234.684 256.022 233.894Z" fill="#00FFF3"/>
</g>
<g filter="url(#filter1_i)">
<path d="M299.861 222.769C298.717 221.238 296.965 220.36 295.05 220.36C295.048 220.36 295.046 220.36 295.044 220.36C293.125 220.363 291.371 221.246 290.231 222.783L284.594 230.384C283.617 231.702 283.902 233.557 285.232 234.527C285.765 234.915 286.385 235.103 287 235.103C287.918 235.103 288.824 234.685 289.41 233.895L295.046 226.294C295.048 226.291 295.049 226.289 295.05 226.287C295.053 226.29 295.055 226.293 295.057 226.296L300.737 233.903C301.719 235.218 303.591 235.495 304.917 234.521C306.243 233.547 306.523 231.691 305.54 230.376L299.861 222.769Z" fill="#00FFF3"/>
</g>
<g filter="url(#filter2_f)">
<ellipse cx="268.095" cy="312.635" rx="27.2907" ry="3.79997" fill="black" fill-opacity="0.3"/>
</g>
<path d="M216.717 157.519C219.088 159.763 222.499 160.417 225.464 161.761C227.668 162.784 229.652 164.225 231.306 166.004C232.218 167.005 233.101 168.367 232.642 169.639C232.256 170.734 231.073 171.294 229.987 171.701C228.638 172.21 227.132 172.66 225.787 172.147C224.998 171.845 224.361 171.243 223.636 170.815C221.858 169.758 219.618 169.754 217.794 168.778C215.223 167.404 213.942 164.379 211.524 162.746C210.2 161.855 208.372 161.125 208.236 159.534C208.23 158.959 208.352 158.389 208.593 157.867C209.08 156.569 209.912 152.11 211.77 152.229C213.794 152.36 215.211 156.446 216.717 157.519Z" fill="#FBBEBE"/>
<path d="M204.291 137.635C205.068 140.426 206.871 142.806 208.742 145.021C210.086 146.612 211.563 148.342 211.609 150.425C211.652 152.394 210.337 154.205 208.64 155.211C206.943 156.216 204.945 156.539 202.98 156.666C201.409 156.817 199.824 156.707 198.288 156.339C194.411 155.287 191.721 151.906 188.671 149.293C186.86 147.744 184.823 146.395 183.436 144.456C182.049 142.518 181.463 139.735 182.829 137.779C183.322 137.145 183.892 136.575 184.526 136.082C186.843 134.073 188.819 131.702 190.376 129.061C191.004 127.996 191.607 126.842 192.663 126.202C194.178 125.281 196.121 125.701 197.835 126.151C199.697 126.639 204.945 127.593 205.31 129.969C205.458 130.945 204.249 132.463 204.067 133.511C203.834 134.885 203.911 136.294 204.291 137.635Z" fill="#FBBEBE"/>
<path d="M213.883 142.954C214.439 143.962 214.896 145.02 215.249 146.115C216.543 150.612 214.231 155.245 213.128 159.792C211.72 165.617 212.318 171.709 212.25 177.704C212.22 180.444 211.927 183.46 209.955 185.361C209.446 185.845 208.835 186.252 208.491 186.863C208.279 187.31 208.121 187.782 208.02 188.267C207.719 189.315 207.185 190.282 206.458 191.094C205.73 191.907 204.829 192.545 203.82 192.96C202.812 193.376 201.722 193.558 200.634 193.493C199.545 193.428 198.485 193.118 197.533 192.586C195.925 191.691 194.53 190.138 192.688 190.091C192.109 190.119 191.533 190.183 190.962 190.282C189.129 190.464 187.335 189.786 185.616 189.12C185.206 188.99 184.824 188.786 184.488 188.517C184.178 188.233 183.979 187.851 183.695 187.546C182.647 186.417 180.856 186.612 179.346 186.299C178.219 186.046 177.187 185.479 176.371 184.662C175.554 183.846 174.987 182.814 174.735 181.687C174.429 180.228 174.688 178.717 174.943 177.245L176.08 170.687C176.557 168.281 176.887 165.848 177.068 163.403C177.207 160.639 176.971 157.868 176.364 155.168C175.863 152.962 175.117 150.803 174.845 148.554C174.372 144.525 175.432 140.465 177.815 137.181C178.404 136.37 179.177 135.56 180.178 135.484C180.988 135.412 181.747 135.844 182.452 136.26C188.569 139.88 194.729 143.425 200.931 146.896C202.628 147.85 204.363 148.809 206.255 149.28C206.824 149.424 207.638 149.365 207.719 148.788C207.729 148.568 207.671 148.35 207.554 148.164C206.493 146.123 204.957 144.371 203.735 142.428C202.514 140.485 201.572 138.186 201.932 135.929C202.425 132.807 205.326 130.741 207.698 133.189C210.358 135.967 212.14 139.539 213.883 142.954Z" fill="#F86D70"/>
<path d="M194.886 182.549C199.862 182.867 204.949 183.206 209.556 185.115C211.036 185.726 212.606 186.515 214.163 186.138C214.938 185.902 215.659 185.515 216.284 185.001C218.202 183.594 220.014 182.049 221.706 180.377C221.536 179.447 220.276 179.32 219.334 179.329C217.038 179.342 214.773 178.798 212.733 177.742C212.063 177.339 211.352 177.008 210.612 176.754C208.597 176.198 206.544 177.258 204.52 177.776C201.525 178.54 198.369 178.094 195.31 177.644L187.054 176.427C186.287 176.317 185.421 176.228 184.81 176.703C184.402 177.089 184.122 177.591 184.008 178.141C182.999 181.535 183.482 181.819 186.842 182.031L194.886 182.549Z" fill="#FBBEBE"/>
<path opacity="0.1" d="M307.613 123.648C315.111 123.648 321.189 117.57 321.189 110.073C321.189 102.575 315.111 96.4971 307.613 96.4971C300.116 96.4971 294.038 102.575 294.038 110.073C294.038 117.57 300.116 123.648 307.613 123.648Z" fill="black"/>
<path d="M307.516 123.059C315.014 123.059 321.092 116.981 321.092 109.483C321.092 101.986 315.014 95.9077 307.516 95.9077C300.019 95.9077 293.941 101.986 293.941 109.483C293.941 116.981 300.019 123.059 307.516 123.059Z" fill="#FBBEBE"/>
<path d="M318.974 92.2466C320.06 92.9169 321.197 93.6381 321.791 94.7665C322.111 95.5327 322.354 96.3284 322.517 97.1423C323.259 99.6877 325.236 101.898 325.355 104.549C325.486 107.455 323.306 109.98 320.837 111.503C320.273 111.918 319.594 112.146 318.894 112.156C318.177 112.109 317.557 111.66 316.9 111.371C314.113 110.132 310.994 111.702 308.042 112.423C304.973 113.164 301.754 112.975 298.793 111.88C297.203 111.286 295.658 110.395 294.661 109.017C293.664 107.638 293.308 105.708 294.157 104.227C294.581 103.472 295.285 102.789 295.238 101.928C295.213 101.41 294.907 100.943 294.814 100.434C294.678 99.624 295.103 98.835 295.535 98.1435C297.499 94.9839 299.98 92.1773 302.875 89.8412C303.723 89.1454 304.703 88.4667 305.815 88.4158C308.046 88.3182 309.964 89.9812 312.259 89.9897C314.863 89.9981 316.734 90.8636 318.974 92.2466Z" fill="#3F3D56"/>
<path opacity="0.1" d="M257.541 106.615C265.273 106.615 271.54 100.347 271.54 92.615C271.54 84.8831 265.273 78.6152 257.541 78.6152C249.809 78.6152 243.541 84.8831 243.541 92.615C243.541 100.347 249.809 106.615 257.541 106.615Z" fill="black"/>
<path d="M257.786 106.271C265.518 106.271 271.786 100.004 271.786 92.2717C271.786 84.5399 265.518 78.272 257.786 78.272C250.054 78.272 243.787 84.5399 243.787 92.2717C243.787 100.004 250.054 106.271 257.786 106.271Z" fill="#BE6F72"/>
<path d="M265.266 100.179C267.243 101.286 269.682 101.171 271.888 100.667C273.139 100.432 274.325 99.931 275.367 99.1988C275.884 98.8292 276.31 98.347 276.614 97.7884C276.917 97.2299 277.09 96.6097 277.119 95.9746C277.119 94.5534 276.186 93.2722 276.071 91.8511C275.931 90.0608 277.098 88.4063 277.221 86.6075C277.344 84.8088 276.457 83.1882 275.592 81.644C274.103 78.9925 272.554 76.3071 270.289 74.2793C268.023 72.2514 264.884 70.9575 261.914 71.6405C260.455 71.9757 259.102 72.7605 257.613 72.9132C256.289 73.0363 254.982 72.6375 253.663 72.4678C252.344 72.2981 250.863 72.4041 249.917 73.3162C249.399 73.8253 249.068 74.5423 248.462 74.9156C248.05 75.1054 247.625 75.2628 247.189 75.3865C245.658 76.0017 244.958 77.7283 244.415 79.281L240.775 89.7129C241.992 90.5614 243.46 90.9474 244.792 91.6008C246.124 92.2541 247.418 93.2977 247.69 94.7571C247.898 95.8643 247.503 97.137 248.148 98.0619C248.738 98.9103 249.938 99.0546 250.956 98.9103C251.974 98.7661 252.997 98.414 254.015 98.5709C256.56 98.957 257.506 100.518 259.861 98.5709C262.215 96.6237 263.077 98.9485 265.266 100.179Z" fill="#3F3D56"/>
<path opacity="0.1" d="M198.291 136.57C205.32 136.57 211.018 130.872 211.018 123.843C211.018 116.814 205.32 111.116 198.291 111.116C191.262 111.116 185.564 116.814 185.564 123.843C185.564 130.872 191.262 136.57 198.291 136.57Z" fill="black"/>
<path d="M198.784 135.879C205.813 135.879 211.511 130.181 211.511 123.152C211.511 116.123 205.813 110.425 198.784 110.425C191.755 110.425 186.057 116.123 186.057 123.152C186.057 130.181 191.755 135.879 198.784 135.879Z" fill="#FBBEBE"/>
<path d="M208.529 110.709C205.498 108.384 202.094 106.594 198.461 105.415C196.137 104.66 193.608 104.142 191.249 104.838C188.051 105.75 183.77 107.112 181.789 109.789C180.813 111.104 179.825 112.457 179.354 114.031C178.412 117.196 179.753 120.568 179.664 123.869C179.558 127.717 177.517 131.229 175.29 134.369C173.063 137.508 172.613 142.005 171.298 145.628C170.848 146.871 170.704 148.598 171.862 149.221C172.88 149.785 174.11 149.081 175.052 148.402L180.716 144.309C181.156 143.947 181.663 143.676 182.209 143.511C183.376 143.239 184.517 143.969 185.493 144.661L197.371 153.06C197.606 152.581 197.733 152.056 197.742 151.522C197.752 150.989 197.644 150.459 197.426 149.972C198.542 150.316 199.352 151.245 200.332 151.907C201.312 152.568 202.801 152.785 203.514 151.86C204.227 150.935 203.688 149.692 202.895 148.945C202.101 148.199 201.058 147.753 200.281 146.985C198.741 145.454 198.584 143.036 197.613 141.101C196.917 139.744 195.793 138.607 195.301 137.16C194.499 134.797 195.547 132.252 196.574 129.978C197.8 127.28 199.187 124.399 201.796 122.991C202.674 122.516 203.646 122.236 204.545 121.803C206.785 120.73 209.581 118.197 210.675 115.927C211.634 113.912 210.158 111.965 208.529 110.709Z" fill="#3F3D56"/>
<path opacity="0.1" d="M189.265 152.767C190.482 153.543 191.857 154.04 193.053 154.85C194.249 155.66 195.297 156.89 195.331 158.333C195.365 159.712 194.483 160.921 193.634 162.015L183.3 175.578L188.569 176.974C187.72 178.145 187.504 179.638 187.063 181.012C186.622 182.387 185.79 183.817 184.382 184.177C183.109 184.504 181.777 183.834 180.462 183.91C179.49 183.969 178.574 184.427 177.602 184.466C176.351 184.512 175.189 183.855 174.145 183.159C171.82 181.602 169.512 179.371 169.529 176.571C169.584 175.624 169.774 174.689 170.093 173.796C171.616 168.828 173.195 163.742 176.351 159.61C178.048 157.404 180.122 155.541 182.197 153.692C182.669 153.217 183.224 152.833 183.834 152.559C185.192 152.05 186.673 152.678 188.077 153.085C189.481 153.492 191.25 153.552 192.06 152.351" fill="black"/>
<path d="M188.819 151.932C190.037 152.704 191.411 153.204 192.608 154.015C193.804 154.825 194.852 156.055 194.89 157.493C194.928 158.932 194.042 160.086 193.193 161.18L182.854 174.73L188.123 176.126C187.275 177.297 187.059 178.786 186.617 180.165C186.176 181.543 185.345 182.969 183.936 183.329C182.664 183.656 181.331 182.986 180.016 183.062C179.045 183.117 178.128 183.58 177.157 183.614C175.905 183.66 174.743 183.003 173.699 182.307C171.375 180.754 169.067 178.519 169.088 175.723C169.139 174.776 169.328 173.841 169.648 172.948C171.171 167.976 172.749 162.89 175.905 158.762C177.602 156.552 179.681 154.689 181.751 152.823C182.225 152.35 182.78 151.967 183.389 151.69C184.747 151.181 186.227 151.809 187.631 152.22C189.036 152.632 190.805 152.687 191.615 151.486" fill="#F86D70"/>
<g opacity="0.1">
<path opacity="0.1" d="M295.103 106.203C296.1 107.582 297.648 108.477 299.235 109.067C302.194 110.166 305.415 110.355 308.483 109.61C311.453 108.889 314.554 107.319 317.341 108.558C317.999 108.85 318.614 109.296 319.331 109.347C320.032 109.334 320.712 109.104 321.278 108.689C322.996 107.629 324.574 106.084 325.329 104.264C325.329 104.358 325.329 104.451 325.355 104.549C325.486 107.455 323.306 109.979 320.837 111.502C320.273 111.917 319.594 112.146 318.894 112.155C318.177 112.108 317.557 111.659 316.9 111.37C314.113 110.132 310.995 111.701 308.042 112.422C304.974 113.163 301.754 112.974 298.794 111.879C297.203 111.285 295.658 110.395 294.662 109.016C293.665 107.637 293.308 105.707 294.157 104.226L294.22 104.12C294.358 104.871 294.659 105.582 295.103 106.203Z" fill="black"/>
<path opacity="0.1" d="M295.667 99.1142C295.701 99.7675 295.307 100.315 294.929 100.871C294.877 100.733 294.835 100.591 294.806 100.446C294.679 99.6869 295.044 98.9488 295.447 98.2827C295.562 98.547 295.637 98.8274 295.667 99.1142Z" fill="black"/>
</g>
<path opacity="0.1" d="M245.408 77.8981L241.768 88.3258C242.985 89.1743 244.453 89.5646 245.785 90.2137C247.117 90.8627 248.411 91.9106 248.683 93.37C248.891 94.4772 248.496 95.7499 249.141 96.679C249.731 97.5275 250.931 97.6675 251.949 97.5275C252.968 97.3875 253.99 97.0311 255.008 97.1881C257.554 97.5741 258.5 99.1353 260.854 97.2093C263.209 95.2833 264.061 97.5699 266.25 98.8002C268.227 99.9117 270.667 99.7971 272.873 99.288C274.123 99.0542 275.31 98.5551 276.351 97.8244C276.499 97.7033 276.641 97.5744 276.776 97.4384C276.451 98.1336 275.962 98.7394 275.35 99.2032C274.309 99.9354 273.123 100.436 271.871 100.671C269.665 101.176 267.205 101.29 265.249 100.183C263.06 98.9529 262.161 96.7087 259.853 98.5923C257.545 100.476 256.544 98.9571 254.007 98.5923C252.989 98.4353 251.971 98.7874 250.948 98.9317C249.926 99.0759 248.729 98.9317 248.14 98.0832C247.495 97.1584 247.889 95.8857 247.682 94.7784C247.41 93.3191 246.116 92.2712 244.784 91.6221C243.452 90.973 241.984 90.5785 240.767 89.7343L244.423 79.2769C244.848 78.1272 245.314 76.8842 246.163 76.0654C245.869 76.658 245.617 77.2704 245.408 77.8981Z" fill="black"/>
<g opacity="0.1">
<path opacity="0.1" d="M198.374 150.43C199.311 150.854 200.495 150.918 201.089 150.124C201.755 149.276 201.263 147.961 200.469 147.21C199.676 146.459 198.632 146.018 197.856 145.25C196.316 143.723 196.159 141.304 195.188 139.37C194.492 138.008 193.368 136.871 192.875 135.425C192.074 133.066 193.122 130.516 194.148 128.246C195.374 125.548 196.761 122.668 199.37 121.259C200.249 120.784 201.22 120.504 202.12 120.071C204.359 118.998 207.155 116.461 208.25 114.192C209.17 112.278 207.872 110.42 206.328 109.16C207.079 109.648 207.813 110.161 208.525 110.709C210.159 111.981 211.631 113.912 210.647 115.918C209.552 118.188 206.756 120.721 204.516 121.794C203.617 122.218 202.646 122.507 201.767 122.982C199.158 124.39 197.771 127.271 196.545 129.969C195.514 132.243 194.466 134.788 195.272 137.151C195.765 138.598 196.889 139.735 197.584 141.092C198.569 143.027 198.713 145.445 200.253 146.976C201.029 147.744 202.073 148.185 202.866 148.936C203.66 149.687 204.139 150.985 203.486 151.851C202.832 152.716 201.28 152.538 200.304 151.898C199.646 151.452 199.048 150.867 198.374 150.43Z" fill="black"/>
<path opacity="0.1" d="M172.644 146.667L178.308 142.578C178.748 142.214 179.255 141.942 179.801 141.776C180.968 141.509 182.109 142.238 183.084 142.93L194.963 151.33C195.198 150.849 195.325 150.324 195.334 149.789C195.344 149.255 195.236 148.725 195.018 148.237C196.108 148.576 196.902 149.484 197.848 150.12C197.71 150.058 197.569 150.006 197.424 149.963C197.641 150.451 197.749 150.98 197.739 151.514C197.73 152.048 197.603 152.573 197.368 153.052L185.49 144.652C184.514 143.961 183.369 143.231 182.206 143.502C181.661 143.667 181.153 143.938 180.713 144.3L175.049 148.394C174.108 149.073 172.877 149.777 171.859 149.213C171.581 149.041 171.352 148.8 171.197 148.513C171.041 148.225 170.964 147.902 170.973 147.575C171.573 147.361 172.137 147.055 172.644 146.667Z" fill="black"/>
</g>
<path d="M314.137 174.374C314.137 174.374 289.829 176.321 284.993 172.876L307.231 169.448L314.137 174.374Z" fill="#E3E8F4"/>
<path opacity="0.1" d="M314.137 174.374C314.137 174.374 289.829 176.321 284.993 172.876L307.231 169.448L314.137 174.374Z" fill="black"/>
<path d="M314.138 174.373L307.329 170.063C307.329 170.063 287.016 175.9 281.45 173.491L287.114 165.545L307.24 169.469L314.138 174.373Z" fill="#00FFF3"/>
<path d="M283.932 117.221C283.181 118.17 282.579 119.227 282.146 120.356C281.951 120.954 281.853 121.578 281.688 122.185C281.222 123.695 280.505 125.117 279.567 126.389C277.475 129.431 274.862 132.366 274.336 136.019C274.081 137.822 274.361 139.655 274.718 141.441C274.911 142.618 275.247 143.768 275.719 144.864C276.258 146.027 277.06 147.049 277.675 148.173C278.237 149.277 278.71 150.423 279.092 151.601C279.817 150.876 280.246 149.904 280.827 149.056C281.408 148.207 282.273 147.444 283.296 147.431C284.475 147.431 285.447 148.407 286.613 148.559C286.795 148.596 286.984 148.578 287.156 148.508C287.581 148.309 287.614 147.736 287.581 147.278C287.245 144.075 285.413 140.915 286.278 137.809C287.076 134.937 289.927 133.143 291.424 130.567C292.51 128.697 292.833 126.491 293.121 124.344C293.482 121.777 293.846 119.19 293.685 116.606C293.605 115.304 292.57 107.073 290.677 107.935C290.02 108.232 289.447 109.492 289.036 110.056L287.339 112.461L283.932 117.221Z" fill="#3F3D56"/>
<path d="M233.157 170.314L219.509 181.425L201.95 178.285L213.774 169.003L233.157 170.314Z" fill="#00FFF3"/>
<g filter="url(#filter3_f)">
<ellipse cx="285.031" cy="193.789" rx="40.6025" ry="3.99873" fill="black" fill-opacity="0.3"/>
</g>
<g filter="url(#filter4_f)">
<ellipse cx="285.031" cy="193.789" rx="40.6025" ry="3.99873" fill="black" fill-opacity="0.3"/>
</g>
<defs>
<filter id="filter0_i" x="250.698" y="220.36" width="21.8188" height="15.5909" filterUnits="userSpaceOnUse" color-interpolation-filters="sRGB">
<feFlood flood-opacity="0" result="BackgroundImageFix"/>
<feBlend mode="normal" in="SourceGraphic" in2="BackgroundImageFix" result="shape"/>
<feColorMatrix in="SourceAlpha" type="matrix" values="0 0 0 0 0 0 0 0 0 0 0 0 0 0 0 0 0 0 127 0" result="hardAlpha"/>
<feOffset dy="0.848469"/>
<feGaussianBlur stdDeviation="0.636352"/>
<feComposite in2="hardAlpha" operator="arithmetic" k2="-1" k3="1"/>
<feColorMatrix type="matrix" values="0 0 0 0 0 0 0 0 0 0 0 0 0 0 0 0 0 0 0.25 0"/>
<feBlend mode="normal" in2="shape" result="effect1_innerShadow"/>
</filter>
<filter id="filter1_i" x="284.014" y="220.36" width="22.1137" height="15.5909" filterUnits="userSpaceOnUse" color-interpolation-filters="sRGB">
<feFlood flood-opacity="0" result="BackgroundImageFix"/>
<feBlend mode="normal" in="SourceGraphic" in2="BackgroundImageFix" result="shape"/>
<feColorMatrix in="SourceAlpha" type="matrix" values="0 0 0 0 0 0 0 0 0 0 0 0 0 0 0 0 0 0 127 0" result="hardAlpha"/>
<feOffset dy="0.848469"/>
<feGaussianBlur stdDeviation="0.636352"/>
<feComposite in2="hardAlpha" operator="arithmetic" k2="-1" k3="1"/>
<feColorMatrix type="matrix" values="0 0 0 0 0 0 0 0 0 0 0 0 0 0 0 0 0 0 0.25 0"/>
<feBlend mode="normal" in2="shape" result="effect1_innerShadow"/>
</filter>
<filter id="filter2_f" x="226.04" y="294.07" width="84.1105" height="37.129" filterUnits="userSpaceOnUse" color-interpolation-filters="sRGB">
<feFlood flood-opacity="0" result="BackgroundImageFix"/>
<feBlend mode="normal" in="SourceGraphic" in2="BackgroundImageFix" result="shape"/>
<feGaussianBlur stdDeviation="7.38227" result="effect1_foregroundBlur"/>
</filter>
<filter id="filter3_f" x="229.664" y="175.026" width="110.734" height="37.5265" filterUnits="userSpaceOnUse" color-interpolation-filters="sRGB">
<feFlood flood-opacity="0" result="BackgroundImageFix"/>
<feBlend mode="normal" in="SourceGraphic" in2="BackgroundImageFix" result="shape"/>
<feGaussianBlur stdDeviation="7.38227" result="effect1_foregroundBlur"/>
</filter>
<filter id="filter4_f" x="229.664" y="175.026" width="110.734" height="37.5265" filterUnits="userSpaceOnUse" color-interpolation-filters="sRGB">
<feFlood flood-opacity="0" result="BackgroundImageFix"/>
<feBlend mode="normal" in="SourceGraphic" in2="BackgroundImageFix" result="shape"/>
<feGaussianBlur stdDeviation="7.38227" result="effect1_foregroundBlur"/>
</filter>
<linearGradient id="paint0_linear" x1="476.971" y1="15.0735" x2="-25.4459" y2="30.7072" gradientUnits="userSpaceOnUse">
<stop stop-color="#00FFF3"/>
<stop offset="1" stop-color="#6C63FF"/>
</linearGradient>
<linearGradient id="paint1_linear" x1="531.119" y1="15.0735" x2="-28.2049" y2="34.4538" gradientUnits="userSpaceOnUse">
<stop stop-color="#00FFF3"/>
<stop offset="1" stop-color="#6C63FF"/>
</linearGradient>
<linearGradient id="paint2_linear" x1="605.081" y1="15.0735" x2="-31.905" y2="40.2184" gradientUnits="userSpaceOnUse">
<stop stop-color="#00FFF3"/>
<stop offset="1" stop-color="#6C63FF"/>
</linearGradient>
<linearGradient id="paint3_linear" x1="449.716" y1="15.0739" x2="-24.0428" y2="28.9731" gradientUnits="userSpaceOnUse">
<stop stop-color="#00FFF3"/>
<stop offset="1" stop-color="#6C63FF"/>
</linearGradient>
<linearGradient id="paint4_linear" x1="285.53" y1="17.2886" x2="-15.4446" y2="22.1767" gradientUnits="userSpaceOnUse">
<stop stop-color="#00FFF3"/>
<stop offset="1" stop-color="#6C63FF"/>
</linearGradient>
<linearGradient id="paint5_linear" x1="547.447" y1="347.657" x2="65.3834" y2="362.002" gradientUnits="userSpaceOnUse">
<stop stop-color="#00FFF3"/>
<stop offset="1" stop-color="#00FFF3" stop-opacity="0"/>
</linearGradient>
<linearGradient id="paint6_linear" x1="264.295" y1="189.261" x2="264.295" y2="346.474" gradientUnits="userSpaceOnUse">
<stop stop-color="white"/>
<stop offset="1" stop-color="white" stop-opacity="0"/>
</linearGradient>
<linearGradient id="paint7_linear" x1="264.822" y1="187.927" x2="264.822" y2="288.47" gradientUnits="userSpaceOnUse">
<stop stop-color="white"/>
<stop offset="1" stop-color="white" stop-opacity="0"/>
</linearGradient>
</defs>
</svg>
