<svg width="592" height="442" viewBox="0 0 592 442" fill="none" xmlns="http://www.w3.org/2000/svg">
<path opacity="0.1" d="M289.248 15.7914L287.233 133.712C287.233 133.712 360.187 133.712 422.255 154.041L423.466 34.8828C423.466 34.8828 323.911 10.9146 289.248 15.7914Z" fill="#12174E" fill-opacity="0.4"/>
<path d="M287.494 14.007L285.452 131.171C285.452 131.171 359.36 131.171 422.239 151.37L423.466 32.9759C423.466 32.9759 322.61 9.16135 287.494 14.007Z" fill="#0000E7" fill-opacity="0.19"/>
<path opacity="0.1" d="M257.615 15.7907L259.63 133.711C259.63 133.711 186.677 133.711 124.609 154.041L123.397 34.9141C123.397 34.9141 222.952 10.9138 257.615 15.7907Z" fill="#12174E" fill-opacity="0.4"/>
<path d="M260.247 14.0062L262.302 131.171C262.302 131.171 187.917 131.171 124.633 151.37L123.397 33.0071C123.397 33.0071 224.905 9.16056 260.247 14.0062Z" fill="#0000E7" fill-opacity="0.19"/>
<path opacity="0.1" d="M446.617 44.5205V161.376C446.617 161.376 470.74 158.528 521.366 220.822L525.863 103.966C525.863 103.966 473.168 47.3739 446.617 44.5205Z" fill="#12174E" fill-opacity="0.4"/>
<path d="M446.617 44.5205V161.376C446.617 161.376 470.74 158.528 521.366 220.822L525.863 103.966C525.863 103.966 473.168 47.3739 446.617 44.5205Z" fill="#0000E7" fill-opacity="0.19"/>
<path opacity="0.1" d="M105.589 55.2056V171.473C105.589 171.473 81.7358 168.639 31.6752 230.617L27.2332 114.355C27.2332 114.355 79.3345 58.0498 105.589 55.2056Z" fill="#12174E" fill-opacity="0.4"/>
<path d="M108.26 52.5342V169.392C108.26 169.392 84.1359 166.544 33.5064 228.836L29.0139 111.983C29.0139 111.983 81.7074 55.3928 108.26 52.5342Z" fill="#0000E7" fill-opacity="0.19"/>
<path opacity="0.1" d="M37.9181 23.1507C43.8192 23.1507 48.603 17.9682 48.603 11.5753C48.603 5.18246 43.8192 0 37.9181 0C32.017 0 27.2332 5.18246 27.2332 11.5753C27.2332 17.9682 32.017 23.1507 37.9181 23.1507Z" fill="#6C63FF"/>
<path opacity="0.1" d="M533.432 55.2056C539.579 55.2056 544.562 50.2225 544.562 44.0754C544.562 37.9284 539.579 32.9453 533.432 32.9453C527.285 32.9453 522.302 37.9284 522.302 44.0754C522.302 50.2225 527.285 55.2056 533.432 55.2056Z" fill="#6C63FF"/>
<path opacity="0.1" d="M29.9044 65.0001C34.822 65.0001 38.8085 61.0136 38.8085 56.096C38.8085 51.1784 34.822 47.1919 29.9044 47.1919C24.9867 47.1919 21.0002 51.1784 21.0002 56.096C21.0002 61.0136 24.9867 65.0001 29.9044 65.0001Z" fill="#6C63FF"/>
<path opacity="0.1" d="M115.829 16.9178C120.009 16.9178 123.397 13.1306 123.397 8.4589C123.397 3.78718 120.009 0 115.829 0C111.649 0 108.26 3.78718 108.26 8.4589C108.26 13.1306 111.649 16.9178 115.829 16.9178Z" fill="#6C63FF"/>
<path opacity="0.1" d="M491.766 281.151C497.667 281.151 502.451 275.968 502.451 269.575C502.451 263.182 497.667 258 491.766 258C485.865 258 481.081 263.182 481.081 269.575C481.081 275.968 485.865 281.151 491.766 281.151Z" fill="#6C63FF"/>
<path opacity="0.1" d="M483.753 323C488.671 323 492.657 319.014 492.657 314.096C492.657 309.178 488.671 305.192 483.753 305.192C478.835 305.192 474.849 309.178 474.849 314.096C474.849 319.014 478.835 323 483.753 323Z" fill="#6C63FF"/>
<path opacity="0.1" d="M569.678 274.918C573.858 274.918 577.247 271.131 577.247 266.459C577.247 261.787 573.858 258 569.678 258C565.498 258 562.11 261.787 562.11 266.459C562.11 271.131 565.498 274.918 569.678 274.918Z" fill="#6C63FF"/>
<path opacity="0.1" d="M264.766 152.151C270.667 152.151 275.451 146.968 275.451 140.575C275.451 134.182 270.667 129 264.766 129C258.865 129 254.081 134.182 254.081 140.575C254.081 146.968 258.865 152.151 264.766 152.151Z" fill="#6C63FF"/>
<path opacity="0.1" d="M256.753 194C261.671 194 265.657 190.014 265.657 185.096C265.657 180.178 261.671 176.192 256.753 176.192C251.835 176.192 247.849 180.178 247.849 185.096C247.849 190.014 251.835 194 256.753 194Z" fill="#6C63FF"/>
<path opacity="0.1" d="M342.678 145.918C346.858 145.918 350.247 142.131 350.247 137.459C350.247 132.787 346.858 129 342.678 129C338.498 129 335.11 132.787 335.11 137.459C335.11 142.131 338.498 145.918 342.678 145.918Z" fill="#6C63FF"/>
<path opacity="0.1" d="M466.206 16.9178C471.123 16.9178 475.11 13.1306 475.11 8.4589C475.11 3.78718 471.123 0 466.206 0C461.288 0 457.302 3.78718 457.302 8.4589C457.302 13.1306 461.288 16.9178 466.206 16.9178Z" fill="#6C63FF"/>
<path opacity="0.7" d="M189.733 66.7808C187.532 66.7808 185.38 67.4074 183.55 68.5815C181.719 69.7556 180.293 71.4243 179.45 73.3767C178.608 75.3292 178.387 77.4775 178.817 79.5502C179.246 81.6229 180.306 83.5268 181.863 85.0211C183.42 86.5154 185.403 87.533 187.562 87.9453C189.721 88.3576 191.959 88.146 193.992 87.3373C196.026 86.5286 197.765 85.159 198.988 83.4019C200.211 81.6448 200.863 79.579 200.863 77.4657C200.863 74.6319 199.691 71.9141 197.603 69.9103C195.516 67.9065 192.685 66.7808 189.733 66.7808ZM189.733 68.8516C191.515 68.8516 193.257 69.3589 194.739 70.3093C196.221 71.2598 197.375 72.6107 198.057 74.1912C198.739 75.7717 198.918 77.5109 198.57 79.1888C198.222 80.8667 197.364 82.4079 196.104 83.6176C194.844 84.8273 193.239 85.6511 191.491 85.9848C189.743 86.3186 187.932 86.1473 186.285 85.4926C184.639 84.8379 183.232 83.7293 182.242 82.3068C181.251 80.8844 180.723 79.2121 180.723 77.5013C180.723 75.2073 181.672 73.0072 183.362 71.385C185.052 69.7629 187.344 68.8516 189.733 68.8516ZM196.035 74.4739L195.023 73.4919C194.973 73.4427 194.914 73.4035 194.848 73.3767C194.783 73.35 194.712 73.3362 194.641 73.3362C194.57 73.3362 194.499 73.35 194.434 73.3767C194.368 73.4035 194.309 73.4427 194.259 73.4919L187.899 79.5416L185.218 76.9264C185.168 76.8771 185.109 76.8379 185.043 76.8112C184.978 76.7844 184.907 76.7706 184.836 76.7706C184.765 76.7706 184.694 76.7844 184.629 76.8112C184.563 76.8379 184.504 76.8771 184.454 76.9264L183.437 77.8982C183.385 77.9456 183.345 78.0025 183.317 78.0655C183.289 78.1284 183.274 78.1961 183.274 78.2645C183.274 78.3329 183.289 78.4006 183.317 78.4635C183.345 78.5265 183.385 78.5834 183.437 78.6309L187.518 82.5792C187.567 82.6284 187.626 82.6676 187.692 82.6944C187.758 82.7211 187.828 82.7349 187.899 82.7349C187.971 82.7349 188.041 82.7211 188.107 82.6944C188.172 82.6676 188.232 82.6284 188.281 82.5792L196.035 75.1913C196.086 75.1439 196.127 75.087 196.155 75.024C196.183 74.9611 196.197 74.8934 196.197 74.825C196.197 74.7566 196.183 74.6889 196.155 74.626C196.127 74.563 196.086 74.5061 196.035 74.4586V74.4739Z" fill="#00FFF3"/>
<path opacity="0.7" d="M65.9174 122.298C63.603 122.836 61.4998 124.047 59.8735 125.779C58.2473 127.512 57.1708 129.687 56.7802 132.031C56.3896 134.375 56.7024 136.781 57.679 138.947C58.6555 141.114 60.2521 142.942 62.2671 144.201C64.2821 145.46 66.625 146.094 68.9999 146.022C71.3749 145.95 73.6753 145.176 75.6107 143.798C77.546 142.42 79.0294 140.499 79.8736 138.277C80.7177 136.056 80.8847 133.635 80.3535 131.319C79.9999 129.778 79.3457 128.322 78.4283 127.033C77.5109 125.745 76.3484 124.651 75.0074 123.813C73.6664 122.975 72.1732 122.41 70.6133 122.15C69.0535 121.89 67.4577 121.94 65.9174 122.298ZM66.444 124.588C68.3201 124.15 70.284 124.279 72.0868 124.958C73.8896 125.638 75.4502 126.837 76.5708 128.404C77.6914 129.971 78.3216 131.836 78.3816 133.761C78.4416 135.687 77.9286 137.587 76.9076 139.221C75.8867 140.854 74.4038 142.148 72.6468 142.939C70.8897 143.729 68.9377 143.98 67.0379 143.66C65.1381 143.339 63.3762 142.462 61.9753 141.14C60.5744 139.817 59.5976 138.109 59.1687 136.23C58.5959 133.722 59.0397 131.089 60.4031 128.907C61.7665 126.726 63.9385 125.172 66.444 124.588ZM74.4978 129.224L73.1812 128.377C73.1169 128.335 73.0449 128.307 72.9694 128.293C72.8939 128.28 72.8165 128.282 72.7418 128.299C72.667 128.316 72.5965 128.348 72.5343 128.393C72.4721 128.438 72.4196 128.495 72.3799 128.56L67.2282 136.734L63.7422 134.53C63.6779 134.489 63.6059 134.46 63.5304 134.447C63.4549 134.433 63.3775 134.435 63.3028 134.452C63.228 134.469 63.1575 134.501 63.0953 134.546C63.0331 134.591 62.9806 134.648 62.9409 134.714L62.1109 136.03C62.0691 136.094 62.0406 136.166 62.0272 136.242C62.0138 136.317 62.0157 136.395 62.0328 136.47C62.0499 136.544 62.0818 136.615 62.1267 136.677C62.1716 136.739 62.2285 136.792 62.294 136.831L67.5831 140.169C67.6476 140.211 67.7201 140.241 67.7961 140.254C67.8722 140.268 67.9503 140.267 68.0258 140.25C68.1012 140.232 68.1724 140.2 68.235 140.155C68.2977 140.109 68.3504 140.052 68.3902 139.985L74.6866 130.008C74.7287 129.944 74.7575 129.873 74.7713 129.797C74.7851 129.722 74.7837 129.645 74.7672 129.57C74.7507 129.496 74.7193 129.425 74.675 129.363C74.6307 129.3 74.5743 129.247 74.5092 129.207L74.4978 129.224Z" fill="#00FFF3"/>
<path opacity="0.7" d="M352.678 68.5615C350.301 68.5615 347.977 69.2143 346 70.4373C344.023 71.6603 342.483 73.3986 341.573 75.4323C340.663 77.4661 340.425 79.704 340.889 81.863C341.353 84.0221 342.497 86.0053 344.178 87.5619C345.86 89.1184 348.001 90.1785 350.333 90.6079C352.665 91.0374 355.082 90.817 357.278 89.9746C359.475 89.1321 361.352 87.7056 362.673 85.8752C363.994 84.0449 364.699 81.893 364.699 79.6917C364.699 76.7398 363.432 73.9088 361.178 71.8215C358.924 69.7342 355.866 68.5615 352.678 68.5615ZM352.678 70.7186C354.603 70.7186 356.484 71.2471 358.084 72.2371C359.685 73.2272 360.932 74.6344 361.668 76.2807C362.405 77.9271 362.598 79.7388 362.222 81.4865C361.847 83.2343 360.92 84.8398 359.559 86.0999C358.198 87.36 356.464 88.2181 354.577 88.5657C352.689 88.9134 350.733 88.735 348.954 88.053C347.176 87.3711 345.657 86.2162 344.587 84.7345C343.518 83.2528 342.947 81.5108 342.947 79.7288C342.947 77.3391 343.973 75.0474 345.797 73.3576C347.622 71.6679 350.097 70.7186 352.678 70.7186ZM359.484 76.5752L358.391 75.5523C358.337 75.501 358.273 75.4602 358.203 75.4323C358.132 75.4045 358.056 75.3901 357.979 75.3901C357.902 75.3901 357.826 75.4045 357.755 75.4323C357.684 75.4602 357.62 75.501 357.567 75.5523L350.698 81.8541L347.796 79.1458C347.742 79.0945 347.678 79.0537 347.607 79.0258C347.537 78.9979 347.46 78.9836 347.384 78.9836C347.307 78.9836 347.23 78.9979 347.16 79.0258C347.089 79.0537 347.025 79.0945 346.971 79.1458L345.878 80.1687C345.823 80.2181 345.779 80.2774 345.748 80.3429C345.718 80.4085 345.703 80.479 345.703 80.5503C345.703 80.6215 345.718 80.692 345.748 80.7576C345.779 80.8232 345.823 80.8824 345.878 80.9319L350.286 85.0447C350.339 85.096 350.403 85.1368 350.474 85.1647C350.545 85.1926 350.621 85.2069 350.698 85.2069C350.775 85.2069 350.851 85.1926 350.922 85.1647C350.992 85.1368 351.056 85.096 351.11 85.0447L359.484 77.349C359.54 77.2996 359.584 77.2403 359.614 77.1747C359.644 77.1092 359.659 77.0387 359.659 76.9674C359.659 76.8962 359.644 76.8257 359.614 76.7601C359.584 76.6945 359.54 76.6353 359.484 76.5858V76.5752Z" fill="#00FFF3"/>
<path opacity="0.7" d="M480.868 123.8C478.674 123.63 476.479 124.114 474.56 125.191C472.641 126.268 471.084 127.89 470.086 129.852C469.089 131.813 468.695 134.027 468.955 136.212C469.215 138.397 470.117 140.456 471.547 142.129C472.977 143.802 474.87 145.013 476.989 145.61C479.107 146.207 481.354 146.163 483.447 145.482C485.54 144.802 487.385 143.517 488.747 141.789C490.11 140.06 490.929 137.967 491.103 135.773C491.218 134.315 491.044 132.848 490.592 131.457C490.14 130.066 489.418 128.777 488.467 127.665C487.517 126.553 486.357 125.64 485.053 124.976C483.749 124.313 482.327 123.914 480.868 123.8ZM480.699 125.947C482.477 126.081 484.177 126.739 485.581 127.839C486.985 128.94 488.031 130.432 488.586 132.127C489.141 133.822 489.181 135.644 488.7 137.362C488.219 139.08 487.238 140.616 485.884 141.776C484.529 142.936 482.86 143.668 481.088 143.879C479.317 144.09 477.523 143.77 475.934 142.96C474.344 142.15 473.031 140.887 472.16 139.33C471.289 137.774 470.9 135.993 471.042 134.215C471.132 133.038 471.454 131.89 471.988 130.837C472.523 129.784 473.26 128.847 474.156 128.079C475.053 127.311 476.093 126.728 477.215 126.362C478.338 125.996 479.522 125.855 480.699 125.947ZM486.529 132.275L485.596 131.178C485.551 131.123 485.495 131.078 485.433 131.045C485.37 131.012 485.301 130.992 485.23 130.986C485.16 130.98 485.089 130.988 485.021 131.011C484.954 131.033 484.892 131.068 484.838 131.115L478.017 136.908L475.547 133.998C475.502 133.942 475.446 133.896 475.383 133.863C475.32 133.829 475.25 133.809 475.179 133.803C475.108 133.797 475.036 133.806 474.968 133.828C474.9 133.851 474.837 133.887 474.784 133.934L473.687 134.867C473.632 134.912 473.587 134.968 473.555 135.031C473.522 135.094 473.503 135.163 473.497 135.234C473.492 135.304 473.501 135.375 473.523 135.443C473.546 135.51 473.582 135.572 473.628 135.625L477.376 140.04C477.42 140.095 477.476 140.14 477.539 140.173C477.602 140.206 477.67 140.226 477.741 140.232C477.812 140.238 477.883 140.23 477.95 140.207C478.018 140.185 478.08 140.15 478.133 140.103L486.465 133.033C486.52 132.988 486.565 132.933 486.598 132.87C486.631 132.807 486.651 132.738 486.657 132.668C486.663 132.597 486.655 132.526 486.633 132.458C486.611 132.391 486.575 132.329 486.529 132.275Z" fill="#00FFF3"/>
<path d="M182.785 225.926C202.871 215.461 234.401 213.326 263.1 214.165C353.247 216.779 434.621 242.216 505.004 270.992C530.487 281.412 555.573 292.641 572.115 306.986C605.785 336.189 595.796 376.643 548.979 400.7C533.048 408.887 513.738 415.183 493.911 420.717C458.653 430.612 420.633 438.547 380.623 440.834C352.096 442.442 323.213 441.131 294.854 438.882C215.609 432.578 137.832 418.728 72.6377 394.922C44.0423 384.502 17.0923 371.543 5.32045 354.674C-6.45145 337.805 1.07429 316.446 30.2739 306.461C42.3565 302.337 56.7865 300.469 70.9231 298.723C91.7282 296.147 112.867 293.601 131.641 288.364C151.036 282.952 173.999 272.486 170.161 260.511C166.025 247.659 162.722 236.377 182.785 225.926Z" fill="#F4F4F4"/>
<path d="M182.785 225.926C202.871 215.461 234.401 213.326 263.1 214.165C353.247 216.779 434.621 242.216 505.004 270.992C530.487 281.412 555.573 292.641 572.115 306.986C605.785 336.189 595.796 376.643 548.979 400.7C533.048 408.887 513.738 415.183 493.911 420.717C458.653 430.612 420.633 438.547 380.623 440.834C352.096 442.442 323.213 441.131 294.854 438.882C215.609 432.578 137.832 418.728 72.6377 394.922C44.0423 384.502 17.0923 371.543 5.32045 354.674C-6.45145 337.805 1.07429 316.446 30.2739 306.461C42.3565 302.337 56.7865 300.469 70.9231 298.723C91.7282 296.147 112.867 293.601 131.641 288.364C151.036 282.952 173.999 272.486 170.161 260.511C166.025 247.659 162.722 236.377 182.785 225.926Z" fill="url(#paint0_linear)"/>
<path opacity="0.1" d="M36.1904 365.076C44.0274 365.076 50.3806 364.204 50.3806 363.129C50.3806 362.054 44.0274 361.183 36.1904 361.183C28.3534 361.183 22.0002 362.054 22.0002 363.129C22.0002 364.204 28.3534 365.076 36.1904 365.076Z" fill="#28B8B1"/>
<path opacity="0.1" d="M467.259 364.553C475.096 364.553 481.449 363.681 481.449 362.606C481.449 361.531 475.096 360.66 467.259 360.66C459.422 360.66 453.068 361.531 453.068 362.606C453.068 363.681 459.422 364.553 467.259 364.553Z" fill="#28B8B1"/>
<path opacity="0.1" d="M553.044 387.149C558.616 387.149 563.133 386.528 563.133 385.761C563.133 384.995 558.616 384.374 553.044 384.374C547.472 384.374 542.956 384.995 542.956 385.761C542.956 386.528 547.472 387.149 553.044 387.149Z" fill="#28B8B1"/>
<path opacity="0.1" d="M525.089 370.134C530.66 370.134 535.177 369.513 535.177 368.747C535.177 367.98 530.66 367.359 525.089 367.359C519.517 367.359 515 367.98 515 368.747C515 369.513 519.517 370.134 525.089 370.134Z" fill="#28B8B1"/>
<path d="M519.533 365.597C518.9 365.078 518.438 364.38 518.207 363.595C518.104 363.199 518.14 362.781 518.309 362.409C518.478 362.037 518.769 361.734 519.134 361.55C519.987 361.225 520.896 361.814 521.59 362.416C522.284 363.018 523.07 363.687 523.973 363.564C523.509 363.143 523.162 362.608 522.967 362.013C522.771 361.418 522.732 360.783 522.855 360.168C522.893 359.914 522.999 359.674 523.162 359.475C523.635 358.971 524.494 359.192 525.059 359.585C526.858 360.856 527.362 363.3 527.374 365.498C527.462 364.682 527.462 363.858 527.374 363.042C527.339 362.635 527.404 362.226 527.564 361.851C527.723 361.475 527.972 361.144 528.289 360.887C528.716 360.653 529.197 360.539 529.683 360.555C530.085 360.498 530.494 360.526 530.884 360.637C531.275 360.748 531.637 360.94 531.949 361.2C532.63 361.937 532.452 363.171 531.857 363.982C531.187 364.724 530.396 365.347 529.517 365.824C528.844 366.222 528.271 366.768 527.841 367.42C527.793 367.511 527.752 367.605 527.718 367.703H522.646C521.519 367.144 520.471 366.435 519.533 365.597Z" fill="#00C8BE"/>
<path opacity="0.1" d="M489.089 397.134C494.66 397.134 499.177 396.513 499.177 395.747C499.177 394.98 494.66 394.359 489.089 394.359C483.517 394.359 479 394.98 479 395.747C479 396.513 483.517 397.134 489.089 397.134Z" fill="#28B8B1"/>
<path d="M483.533 392.597C482.9 392.078 482.438 391.38 482.207 390.595C482.104 390.199 482.14 389.781 482.309 389.409C482.478 389.037 482.769 388.734 483.134 388.55C483.987 388.225 484.896 388.814 485.59 389.416C486.284 390.018 487.07 390.687 487.973 390.564C487.509 390.143 487.162 389.608 486.967 389.013C486.771 388.418 486.732 387.783 486.855 387.168C486.893 386.914 486.999 386.674 487.162 386.475C487.635 385.971 488.494 386.192 489.059 386.585C490.858 387.856 491.362 390.3 491.374 392.498C491.462 391.682 491.462 390.858 491.374 390.042C491.339 389.635 491.404 389.226 491.564 388.851C491.723 388.475 491.972 388.144 492.289 387.887C492.716 387.653 493.197 387.539 493.683 387.555C494.085 387.498 494.494 387.526 494.884 387.637C495.275 387.748 495.637 387.94 495.949 388.2C496.63 388.937 496.452 390.171 495.857 390.982C495.187 391.724 494.396 392.347 493.517 392.824C492.844 393.222 492.271 393.768 491.841 394.42C491.793 394.511 491.752 394.605 491.718 394.703H486.646C485.519 394.144 484.471 393.435 483.533 392.597Z" fill="#00C8BE"/>
<path d="M29.3833 359.592C28.7477 359.076 28.285 358.377 28.057 357.59C27.9549 357.196 27.9913 356.778 28.16 356.407C28.3288 356.036 28.6197 355.734 28.9842 355.552C29.8377 355.226 30.7464 355.816 31.4403 356.412C32.1341 357.007 32.9262 357.689 33.8289 357.56C33.3633 357.14 33.0149 356.606 32.8179 356.011C32.6209 355.415 32.5821 354.779 32.7052 354.164C32.7424 353.91 32.851 353.671 33.0183 353.476C33.4911 352.973 34.3447 353.188 34.9096 353.587C36.7087 354.852 37.2122 357.271 37.2245 359.5C37.3149 358.684 37.3149 357.86 37.2245 357.044C37.1894 356.637 37.2544 356.228 37.4139 355.853C37.5734 355.477 37.8225 355.146 38.1394 354.889C38.5678 354.661 39.0482 354.549 39.5332 354.563C39.9328 354.5 40.3412 354.523 40.7316 354.628C41.1221 354.734 41.4858 354.921 41.7989 355.177C42.4866 355.908 42.3086 357.142 41.7069 357.953C41.0413 358.709 40.2498 359.345 39.3674 359.832C38.6946 360.23 38.1214 360.776 37.6911 361.428C37.6406 361.518 37.5995 361.612 37.5683 361.711H32.4964C31.369 361.146 30.322 360.434 29.3833 359.592Z" fill="#00C8BE"/>
<path d="M550.294 381.223C549.661 380.704 549.198 380.006 548.967 379.221C548.865 378.826 548.901 378.407 549.07 378.035C549.238 377.663 549.529 377.36 549.894 377.177C550.748 376.851 551.657 377.441 552.351 378.042C553.044 378.644 553.83 379.313 554.733 379.191C554.269 378.769 553.922 378.235 553.725 377.641C553.528 377.046 553.488 376.41 553.609 375.795C553.652 375.54 553.76 375.301 553.923 375.101C554.395 374.598 555.255 374.819 555.82 375.212C557.619 376.483 558.122 378.926 558.135 381.125C558.233 380.309 558.243 379.486 558.165 378.669C558.13 378.262 558.195 377.853 558.355 377.477C558.514 377.101 558.763 376.771 559.08 376.513C559.507 376.28 559.988 376.165 560.474 376.182C560.876 376.125 561.285 376.153 561.676 376.264C562.066 376.375 562.428 376.566 562.74 376.827C563.422 377.563 563.243 378.798 562.648 379.608C561.978 380.35 561.187 380.973 560.308 381.45C559.636 381.848 559.062 382.394 558.632 383.047C558.584 383.137 558.543 383.232 558.509 383.329H553.437C552.299 382.773 551.241 382.064 550.294 381.223Z" fill="#00C8BE"/>
<path d="M466.338 342.613C466.338 342.613 464.435 345.1 467.216 348.851C469.998 352.603 472.282 355.778 471.361 358.117C471.361 358.117 467.167 351.148 463.753 351.05C460.339 350.951 462.58 346.807 466.338 342.613Z" fill="#00C8BE"/>
<path opacity="0.1" d="M466.338 342.613C466.17 342.852 466.037 343.115 465.945 343.393C462.617 347.304 460.843 350.957 464.042 351.05C467.026 351.136 470.606 356.465 471.459 357.804C471.459 357.908 471.398 358.013 471.361 358.111C471.361 358.111 467.167 351.142 463.753 351.043C460.339 350.945 462.58 346.807 466.338 342.613Z" fill="#12174E"/>
<path d="M462.801 345.781C462.801 346.659 462.899 347.366 463.022 347.366C463.145 347.366 463.237 346.659 463.237 345.781C463.237 344.903 463.114 345.321 462.998 345.321C462.881 345.321 462.801 344.909 462.801 345.781Z" fill="#FFD037"/>
<path d="M461.585 346.825C462.353 347.249 463.028 347.501 463.083 347.397C463.139 347.292 462.567 346.862 461.8 346.445C461.032 346.027 461.333 346.328 461.272 346.445C461.21 346.561 460.817 346.408 461.585 346.825Z" fill="#FFD037"/>
<path d="M476.378 342.613C476.378 342.613 478.281 345.1 475.5 348.851C472.718 352.603 470.434 355.778 471.361 358.117C471.361 358.117 475.549 351.148 478.963 351.05C482.377 350.951 480.136 346.807 476.378 342.613Z" fill="#00C8BE"/>
<path opacity="0.1" d="M476.377 342.613C476.545 342.852 476.677 343.115 476.77 343.393C480.098 347.304 481.872 350.957 478.673 351.05C475.689 351.136 472.109 356.465 471.256 357.804C471.284 357.908 471.319 358.011 471.36 358.111C471.36 358.111 475.548 351.142 478.962 351.043C482.376 350.945 480.135 346.807 476.377 342.613Z" fill="#12174E"/>
<path d="M479.914 345.781C479.914 346.659 479.816 347.366 479.693 347.366C479.57 347.366 479.478 346.659 479.478 345.781C479.478 344.903 479.601 345.321 479.718 345.321C479.834 345.321 479.914 344.909 479.914 345.781Z" fill="#FFD037"/>
<path d="M481.129 346.825C480.361 347.249 479.686 347.501 479.631 347.397C479.575 347.292 480.146 346.862 480.914 346.445C481.681 346.027 481.381 346.328 481.442 346.445C481.503 346.561 481.896 346.408 481.129 346.825Z" fill="#FFD037"/>
<path d="M479.306 357.792C479.306 357.792 473.995 357.632 472.392 356.49C470.79 355.348 464.213 353.985 463.796 355.815C463.378 357.645 455.813 364.915 461.806 364.964C467.799 365.013 475.757 364.03 477.353 363.054C478.95 362.078 479.306 357.792 479.306 357.792Z" fill="#A8A8A8"/>
<path opacity="0.2" d="M461.721 364.325C467.72 364.374 475.665 363.392 477.268 362.415C478.496 361.679 478.969 359.014 479.11 357.786H479.282C479.282 357.786 478.95 362.084 477.348 363.048C475.745 364.012 467.806 365.007 461.801 364.957C460.069 364.957 459.473 364.343 459.504 363.416C459.768 363.975 460.431 364.319 461.721 364.325Z" fill="#12174E"/>
<path opacity="0.1" d="M127.916 113.046C135.251 113.046 141.198 107.1 141.198 99.7648C141.198 92.4297 135.251 86.4834 127.916 86.4834C120.581 86.4834 114.635 92.4297 114.635 99.7648C114.635 107.1 120.581 113.046 127.916 113.046Z" fill="#28B8B1"/>
<path opacity="0.1" d="M357.631 47.5628C364.966 47.5628 370.912 41.6165 370.912 34.2814C370.912 26.9463 364.966 21 357.631 21C350.296 21 344.35 26.9463 344.35 34.2814C344.35 41.6165 350.296 47.5628 357.631 47.5628Z" fill="#28B8B1"/>
<path opacity="0.1" d="M568.334 144.552C575.669 144.552 581.615 138.606 581.615 131.271C581.615 123.936 575.669 117.989 568.334 117.989C560.999 117.989 555.053 123.936 555.053 131.271C555.053 138.606 560.999 144.552 568.334 144.552Z" fill="#28B8B1"/>
<path opacity="0.1" d="M70.9716 217.091C83.2647 217.091 93.2302 207.125 93.2302 194.832C93.2302 182.539 83.2647 172.574 70.9716 172.574C58.6786 172.574 48.7131 182.539 48.7131 194.832C48.7131 207.125 58.6786 217.091 70.9716 217.091Z" fill="#28B8B1"/>
<path opacity="0.1" d="M40.2588 322.7C52.5518 322.7 62.5173 312.734 62.5173 300.441C62.5173 288.148 52.5518 278.183 40.2588 278.183C27.9657 278.183 18.0002 288.148 18.0002 300.441C18.0002 312.734 27.9657 322.7 40.2588 322.7Z" fill="#28B8B1"/>
<path d="M325.124 276.188C324.338 276.261 323.54 276.224 322.76 276.347C321.451 276.608 320.202 277.11 319.076 277.827C313.488 281.008 308.214 285.38 305.899 291.372C305.709 291.741 305.648 292.163 305.727 292.57C305.864 292.905 306.089 293.198 306.378 293.417L308.552 295.394C308.826 295.68 309.154 295.909 309.516 296.07C310.102 296.223 310.72 296.204 311.296 296.015C317.271 294.645 323.62 293.067 327.814 288.597C329.803 286.479 331.639 283.562 334.568 283.482C335.796 283.482 336.944 283.955 338.154 284.096C339.364 284.237 340.819 283.722 341.107 282.543C341.201 281.956 341.133 281.356 340.911 280.805L339.106 274.794C338.614 273.148 333.659 273.062 332.007 273.357C329.49 273.793 327.795 275.942 325.124 276.188Z" fill="#12174E"/>
<path d="M346.393 310.051C346.307 312.108 346.473 314.189 346.135 316.228C345.838 317.835 345.324 319.395 344.606 320.864C343.502 323.226 342.099 325.436 340.431 327.44C338.878 329.282 337.017 331.014 334.714 331.738C332.412 332.463 329.581 331.941 328.144 330.001C326.972 328.423 326.916 326.316 327.002 324.345C327.211 319.501 327.972 314.589 330.146 310.253C331.079 308.411 332.264 306.655 333.216 304.795C335.206 300.933 336.342 296.352 339.774 293.687C341.927 294.682 344.23 295.315 346.59 295.56C347.505 295.658 350.12 295.719 350.427 296.892C350.636 297.684 348.917 299.901 348.585 300.681C347.275 303.639 346.531 306.818 346.393 310.051Z" fill="#12174E"/>
<path d="M322.054 221.496C322.791 223.375 323.724 225.217 323.896 227.219C324.019 228.447 323.896 229.675 323.896 230.903C323.999 232.586 324.279 234.253 324.731 235.877L328.151 249.877C328.661 251.97 329.17 254.12 328.906 256.256C328.728 257.681 328.212 259.062 328.219 260.493C328.284 261.578 328.457 262.654 328.734 263.705C329.382 266.951 329.205 270.308 328.219 273.468C328.118 273.706 328.082 273.966 328.114 274.223C328.2 274.622 328.587 274.868 328.937 275.058C332.619 277.073 336.633 278.41 340.788 279.006C344.538 270.085 347.157 260.731 348.586 251.16C349.458 245.363 349.881 239.493 350.999 233.74C351.024 233.408 351.166 233.095 351.398 232.856C351.816 232.506 352.448 232.727 352.939 232.96C359.214 235.978 365.251 239.467 370.998 243.399C373.019 240.782 374.44 237.753 375.16 234.526C375.88 231.299 375.883 227.954 375.167 224.726C374.445 221.943 373.416 219.249 372.097 216.695C370.692 213.587 368.941 210.648 366.878 207.932C362.322 202.222 355.641 198.575 348.764 196.1C344.582 194.59 340.278 193.472 335.98 192.33C333.573 191.685 329.539 189.585 327.199 191.219C324.743 192.919 323.11 197.138 322.103 199.815C320.86 203.135 320.183 206.641 320.101 210.186C320 214.048 320.664 217.892 322.054 221.496Z" fill="#12174E"/>
<path d="M371.416 238.376C370.133 239.776 371.213 242.011 370.968 243.902C370.807 244.756 370.502 245.576 370.065 246.327L364.189 257.865C363.207 259.596 362.471 261.456 362.003 263.391C361.198 267.554 362.85 272.233 360.738 275.911C360.056 277.096 359 278.116 358.718 279.454C358.509 280.431 358.718 281.45 358.613 282.438C358.472 283.599 357.852 284.643 357.508 285.76C357.24 286.834 357.049 287.926 356.937 289.027C356.192 293.723 353.733 297.975 350.035 300.964C347.917 302.759 345.196 303.685 342.421 303.555C339.683 303.321 336.963 301.461 336.404 298.772C336.214 297.857 336.25 296.837 335.679 296.094C334.869 295.032 333.162 294.989 332.382 293.902L335.403 288.929C336.343 287.387 337.3 285.779 337.454 283.98C337.638 281.775 336.576 279.577 336.957 277.397C337.282 275.524 338.627 273.965 339.032 272.11C339.535 269.808 338.528 267.481 337.982 265.184C336.643 259.529 338.142 253.634 339.634 247.991C341.617 240.525 343.649 232.942 347.665 226.341C355.678 230.657 363.047 234.802 371.416 238.376Z" fill="#12174E"/>
<path d="M371.489 121.416C371.968 122.717 371.711 124.16 371.618 125.542C371.404 128.612 372.054 131.682 371.907 134.795C371.76 137.908 370.802 140.88 370.139 143.908C368.254 152.547 368.708 161.549 367.001 170.225C364.895 180.97 359.51 190.979 358.448 201.884C358.11 205.347 358.153 209.056 356.255 211.979C344.981 207.016 334.323 200.755 324.498 193.324C326.659 177.292 328.796 161.18 328.508 145.007C328.368 143.057 328.504 141.097 328.913 139.186C329.425 137.58 330.161 136.054 331.099 134.654C333.475 130.792 336.091 127.083 338.7 123.381C340.371 121.01 342.176 118.524 344.841 117.412C347.506 116.301 350.662 116.798 353.566 117.326C357.062 117.965 360.554 118.603 364.041 119.242C366.221 119.641 370.556 118.88 371.489 121.416Z" fill="#28B8B1"/>
<path d="M287.411 182.849C285.978 181.416 284.416 180.119 282.744 178.974C284.924 176.322 284.494 172.484 285.028 169.088C285.466 166.883 286.131 164.728 287.012 162.659C287.233 162.076 287.546 161.431 288.154 161.278C288.527 161.232 288.906 161.291 289.247 161.45C291.089 162.101 294.933 162.064 296.363 163.255C298.089 164.704 296.511 167.737 295.86 169.549C295.399 170.765 288.326 183.77 287.411 182.849Z" fill="#BE6F72"/>
<path d="M292.759 297.518C293.684 299.016 294.288 300.688 294.533 302.431C294.681 304.175 294.042 306.084 292.556 307.005C291.07 307.926 288.94 307.619 287.171 307.067C283.42 305.847 279.969 303.849 277.044 301.204C274.118 298.558 271.784 295.325 270.193 291.716C269.635 290.426 269.15 289.057 268.161 288.062C267.427 287.417 266.611 286.87 265.736 286.435C263.322 285.072 260.995 283.279 259.878 280.737C258.76 278.195 259.264 274.799 261.579 273.289C262.3 272.872 263.097 272.603 263.924 272.498C264.75 272.392 265.59 272.453 266.393 272.675C267.993 273.129 269.525 273.796 270.949 274.658C273.331 275.954 276.242 277.071 278.317 278.797C280.159 280.313 281.811 282.364 283.383 284.151C285.183 286.207 286.87 288.359 288.436 290.598C288.94 291.255 293.183 296.923 292.759 297.518Z" fill="#12174E"/>
<path d="M247.75 284.631C247.541 287.72 246.996 290.778 246.123 293.749C245.626 295.419 244.969 297.157 243.587 298.219C242.418 298.977 241.094 299.461 239.713 299.637C239.231 299.768 238.727 299.799 238.233 299.73C237.385 299.551 236.784 298.821 236.262 298.127C234.211 295.413 232.215 292.545 231.35 289.254C230.122 284.483 231.35 279.368 233.48 274.911C234.246 273.113 235.363 271.487 236.765 270.127C238.498 268.703 240.58 267.768 242.795 267.419C245.061 266.965 247.842 265.995 248.008 268.752C248.251 274.045 248.164 279.348 247.75 284.631Z" fill="#12174E"/>
<path d="M281.724 169.217C285.961 171.409 290.664 174.197 291.549 178.882C292.095 181.743 291.045 184.672 291.217 187.583C291.37 190.143 292.445 192.618 292.31 195.172C292.167 196.379 291.962 197.578 291.696 198.764C291.334 201.03 291.549 203.339 291.456 205.629C291.254 210.787 289.528 215.748 288.693 220.839C288.102 224.473 287.964 228.167 288.282 231.836C288.485 234.206 288.896 236.564 288.896 238.946C288.896 240.662 288.754 242.375 288.472 244.067C287.649 249.384 285.991 254.538 283.56 259.338C280.607 265.153 281.024 272.656 281.337 279.171C281.474 280.069 281.359 280.987 281.006 281.824C280.232 283.23 278.304 283.433 276.708 283.298C270.787 282.757 265.297 279.976 261.357 275.524C260.782 274.964 260.392 274.242 260.239 273.455C260.104 272.141 261.16 271.06 261.922 269.973C264.513 266.289 263.856 261.297 264.163 256.772C264.387 253.479 265.174 250.25 266.49 247.223C267.251 245.473 268.203 243.748 268.375 241.844C268.535 240.07 267.994 238.314 267.46 236.619L265.618 230.774C262.763 221.692 259.889 212.555 255.567 204.076C252.73 205.921 250.701 208.774 249.887 212.058C248.278 217.842 250.568 224.302 248.376 229.865C248.013 230.636 247.712 231.435 247.474 232.253C247.345 232.96 247.295 233.679 247.326 234.396C247.383 240.382 247.748 246.36 248.419 252.308C248.452 253.208 248.705 254.087 249.156 254.868C249.518 255.39 250.046 255.777 250.433 256.274C251.508 257.668 251.305 259.621 251.047 261.358L249.819 269.574C249.797 269.991 249.659 270.393 249.42 270.735C249.131 271.015 248.769 271.21 248.376 271.299C244.475 272.511 240.361 272.888 236.304 272.405C235.107 272.263 234.02 271.459 233.019 270.784C232.915 269.556 234.444 268.739 234.499 267.517C234.44 266.793 234.103 266.12 233.56 265.638C231.276 263.059 228.549 260.321 228.574 256.876C228.574 255.973 228.789 255.071 228.758 254.168C228.678 251.853 227.082 249.87 226.523 247.641C225.835 244.884 226.75 242.023 227.1 239.204C227.579 235.409 227.014 231.566 226.486 227.777L224.429 213.876C224.19 211.718 223.763 209.585 223.152 207.502C222.378 205.451 221.469 203.453 220.432 201.521C218.467 197.53 216.852 193.379 215.243 189.241C214.732 188.116 214.411 186.915 214.292 185.686C214.199 183.579 215.286 181.59 216.637 179.969C219.167 176.957 222.621 174.863 226.462 174.013C227.104 173.834 227.778 173.806 228.433 173.933C228.983 174.116 229.499 174.387 229.962 174.737C234.708 177.842 240.109 179.805 245.741 180.473C251.374 181.141 257.084 180.496 262.425 178.587C263.039 179.054 264.175 178.851 264.881 178.52C266.852 177.617 268.461 176.113 270.193 174.836C273.416 172.392 277.764 170.071 281.724 169.217Z" fill="#12174E"/>
<path d="M154.455 326.907C154.781 327.847 155.272 328.723 155.905 329.492C158.127 332.39 161.228 334.705 162.659 338.088C162.96 338.813 163.181 339.574 163.457 340.311C164.297 342.535 165.667 344.52 167.448 346.095C168.807 347.223 170.283 348.201 171.851 349.012C174.565 350.492 177.5 351.83 180.582 351.75C181.202 351.737 181.819 351.663 182.424 351.529C183.384 351.33 184.309 350.991 185.169 350.522C187.152 349.429 188.853 347.292 188.46 345.064C188.381 344.639 188.247 344.226 188.061 343.835C187.735 343.214 187.36 342.621 186.937 342.061C185.9 340.624 184.831 339.15 183.315 338.229C181.608 337.186 179.459 336.928 177.924 335.638C177.318 335.09 176.795 334.457 176.37 333.759C174.979 331.621 173.942 329.271 173.3 326.802C172.833 324.96 172.52 322.94 171.175 321.589C169.831 320.238 167.982 319.931 166.189 319.624C165.584 319.499 164.966 319.44 164.347 319.446C163.469 319.477 162.561 319.729 161.738 319.317C160.915 318.906 160.639 318.323 159.644 318.402C158.852 318.509 158.106 318.835 157.489 319.342C155.155 321.067 153.608 324.137 154.455 326.907Z" fill="#12174E"/>
<path d="M176.271 329.7C176.67 331.781 177.284 333.998 178.893 335.355C179.918 336.239 181.349 336.792 181.859 338.038C182.368 339.285 181.711 340.85 180.864 341.992C179.782 343.437 178.441 344.667 176.91 345.621C175.608 346.426 174.054 347.04 172.562 346.684C171.334 346.395 170.364 345.511 169.449 344.657C167.349 342.711 165.2 340.691 164.021 338.081C162.793 335.33 162.732 332.143 161.393 329.436C160.613 327.858 159.41 326.476 158.937 324.781C158.725 324.169 158.725 323.503 158.937 322.89C159.166 322.452 159.512 322.086 159.937 321.833C160.363 321.58 160.85 321.451 161.344 321.459C162.333 321.492 163.308 321.7 164.224 322.073C166.996 323.062 169.833 323.856 172.716 324.45C173.864 324.665 174.558 324.658 175.172 325.77C175.739 327.015 176.11 328.341 176.271 329.7Z" fill="#FBBEBE"/>
<path d="M183.394 347.298C182.938 347.994 182.616 348.769 182.442 349.582C182.297 350.215 182.274 350.869 182.374 351.51C183.334 351.311 184.259 350.972 185.119 350.503C187.102 349.41 188.803 347.273 188.41 345.044C188.331 344.62 188.197 344.207 188.011 343.816C187.718 343.751 187.413 343.763 187.126 343.853C186.84 343.942 186.581 344.105 186.378 344.326C185.234 345.155 184.228 346.158 183.394 347.298Z" fill="#FBBEBE"/>
<path d="M161.387 300.644C161.12 301.219 161.04 301.864 161.16 302.486C161.442 303.714 162.701 304.42 163.837 304.979L174.638 310.26C175.387 310.606 176.117 310.994 176.824 311.42C178.666 312.55 180.115 314.147 181.687 315.608C183.259 317.069 185.009 318.439 187.09 318.954C189.168 319.41 191.34 319.125 193.23 318.15C194.249 317.642 195.195 317 196.043 316.24C196.776 315.597 197.454 314.892 198.069 314.134C198.597 313.577 198.975 312.894 199.168 312.151C199.371 311.027 198.812 309.922 198.161 308.995C197.786 308.46 197.376 307.952 196.933 307.472C192.837 302.947 186.126 300.601 180.354 299.68C178.058 299.312 175.878 298.452 173.668 297.752C171.457 297.052 169.118 296.524 166.821 296.849C164.525 297.175 162.265 298.495 161.387 300.644Z" fill="#12174E"/>
<path opacity="0.1" d="M161.387 300.644C161.12 301.219 161.04 301.864 161.16 302.486C161.442 303.714 162.701 304.42 163.837 304.979L174.638 310.26C175.387 310.606 176.117 310.994 176.824 311.42C178.666 312.55 180.115 314.147 181.687 315.608C183.259 317.069 185.009 318.439 187.09 318.954C189.168 319.41 191.34 319.125 193.23 318.15C194.249 317.642 195.195 317 196.043 316.24C196.776 315.597 197.454 314.892 198.069 314.134C198.597 313.577 198.975 312.894 199.168 312.151C199.371 311.027 198.812 309.922 198.161 308.995C197.786 308.46 197.376 307.952 196.933 307.472C192.837 302.947 186.126 300.601 180.354 299.68C178.058 299.312 175.878 298.452 173.668 297.752C171.457 297.052 169.118 296.524 166.821 296.849C164.525 297.175 162.265 298.495 161.387 300.644Z" fill="#12174E"/>
<path d="M188.417 304.016C189.247 304.948 189.93 306.002 190.443 307.141C190.904 307.887 191.068 308.779 190.903 309.64C190.662 310.22 190.275 310.727 189.78 311.114L188.705 312.109C188.381 312.446 188.003 312.728 187.588 312.944C187 313.164 186.372 313.258 185.746 313.22C184.303 313.22 182.749 313.22 181.576 312.354C179.974 311.2 179.685 308.811 180.416 306.975C181.147 305.139 182.676 303.752 184.217 302.511C185.469 301.498 187.539 303.088 188.417 304.016Z" fill="#FBBEBE"/>
<path d="M194.975 310.364C194.776 311.382 194.872 312.437 195.251 313.403C195.521 314.324 195.785 315.245 196.049 316.185C196.049 316.185 196.049 316.185 196.049 316.221C196.783 315.578 197.461 314.873 198.075 314.115C198.603 313.558 198.982 312.875 199.175 312.132C199.377 311.008 198.818 309.903 198.167 308.976C197.793 308.441 197.382 307.933 196.939 307.453C196.651 307.828 196.399 308.196 196.19 308.436C195.653 308.985 195.239 309.642 194.975 310.364Z" fill="#FBBEBE"/>
<path d="M166.759 264.601C165.488 269.943 166.028 275.53 166.704 280.983C167.22 285.134 167.797 289.432 166.569 293.429C166.114 294.922 165.396 296.438 165.672 297.979C166.194 300.884 169.694 302.001 172.592 302.548C173.429 302.76 174.297 302.812 175.153 302.701C176.011 302.468 176.808 302.048 177.486 301.473C181.606 298.478 184.735 294.319 186.469 289.53C187.569 286.325 187.919 282.917 188.256 279.546C188.821 273.873 189.392 268.131 188.563 262.495C188.318 260.837 187.949 259.197 187.796 257.527C187.602 254.622 187.763 251.705 188.275 248.839C189.332 241.739 190.933 234.73 193.064 227.876C187.217 228.652 181.274 227.579 176.068 224.806C177.075 225.346 175.92 233.961 175.798 235.17C175.425 238.777 174.774 242.349 173.851 245.855C172.138 252.406 168.313 258.092 166.759 264.601Z" fill="#12174E"/>
<path opacity="0.1" d="M166.759 264.601C165.488 269.943 166.028 275.53 166.704 280.983C167.22 285.134 167.797 289.432 166.569 293.429C166.114 294.922 165.396 296.438 165.672 297.979C166.194 300.884 169.694 302.001 172.592 302.548C173.429 302.76 174.297 302.812 175.153 302.701C176.011 302.468 176.808 302.048 177.486 301.473C181.606 298.478 184.735 294.319 186.469 289.53C187.569 286.325 187.919 282.917 188.256 279.546C188.821 273.873 189.392 268.131 188.563 262.495C188.318 260.837 187.949 259.197 187.796 257.527C187.602 254.622 187.763 251.705 188.275 248.839C189.332 241.739 190.933 234.73 193.064 227.876C187.217 228.652 181.274 227.579 176.068 224.806C177.075 225.346 175.92 233.961 175.798 235.17C175.425 238.777 174.774 242.349 173.851 245.855C172.138 252.406 168.313 258.092 166.759 264.601Z" fill="#12174E"/>
<path d="M198.64 233.298C201.096 240.414 200.556 248.188 199.494 255.642C198.431 263.096 196.866 270.551 197.326 278.06C197.504 281.008 197.983 284.035 197.123 286.853C196.646 288.228 196.013 289.545 195.238 290.777L175.645 324.659C175.145 325.538 174.435 326.279 173.577 326.815C172.719 327.351 171.742 327.665 170.733 327.729C168.639 327.876 166.582 327.189 164.629 326.421C163.332 325.991 162.126 325.323 161.074 324.45C160.552 324.016 160.144 323.462 159.883 322.835C159.622 322.208 159.517 321.528 159.576 320.852C160.454 314.97 161.774 308.946 162.75 303.045C163.414 299.041 164.862 295.208 167.012 291.765C168.528 289.309 170.395 287.105 171.703 284.551C175.461 277.231 174.159 268.303 171.261 260.604C168.362 252.904 164.046 245.756 161.743 237.884C161.061 235.694 160.67 233.423 160.583 231.13C160.554 228.763 160.993 226.413 161.874 224.215C162.755 222.017 164.06 220.014 165.716 218.322C166.199 217.774 166.808 217.353 167.491 217.093C168.288 216.908 169.119 216.923 169.91 217.136C180.821 219.255 195.036 222.786 198.64 233.298Z" fill="#12174E"/>
<path d="M374.762 127.052C375.118 129.742 374.148 132.462 372.766 134.789C367.541 143.508 355.494 147.364 346.179 143.306C342.341 141.629 339.093 138.866 335.912 136.14C334.844 135.219 333.733 134.255 333.192 132.953C332.241 130.651 333.389 127.906 335.262 126.26C337.134 124.615 339.56 123.804 341.973 123.073C349.937 120.593 372.865 112.77 374.762 127.052Z" fill="#FBBEBE"/>
<path d="M370.102 118.517C377.353 124.35 387.908 129.907 396.124 134.23C398.918 135.703 402.019 137.361 403.026 140.37C403.566 141.979 403.388 143.729 403.21 145.424C402.866 148.684 402.51 151.994 401.251 155.021C399.771 158.564 397.156 161.486 395.056 164.704C391.372 170.341 389.21 176.985 384.66 181.964C387.73 192.163 391.089 202.35 392.182 212.936C392.242 213.227 392.21 213.53 392.09 213.802C391.964 213.98 391.801 214.129 391.611 214.238L383.972 219.248C383.14 219.734 382.394 220.357 381.768 221.09C380.417 222.846 380.595 225.315 379.76 227.359C379.302 228.357 378.648 229.253 377.835 229.991C377.023 230.73 376.069 231.297 375.032 231.658C372.945 232.377 370.721 232.612 368.53 232.345C365.74 232.17 363.053 231.224 360.768 229.613C358.822 228.139 357.434 226.07 356.096 224.031C355.104 222.641 354.279 221.139 353.64 219.555C352.823 217.295 352.774 214.833 352.804 212.426C352.825 207.846 353.263 203.277 354.112 198.776C354.468 196.99 354.911 195.227 355.193 193.428C355.758 189.805 355.647 186.109 356.065 182.468C356.635 178.372 357.549 174.332 358.797 170.39C359.48 167.948 360.013 165.467 360.394 162.96C361.112 158.551 362.543 154.296 363.974 150.066L366.43 142.814C366.952 141.248 367.48 139.688 368.1 138.16C369.254 135.304 370.74 132.523 371.133 129.477C371.569 126.155 367.983 122.213 369.193 119.094C369.291 118.75 369.825 118.296 370.102 118.517Z" fill="#12174E"/>
<path d="M401.061 138.658C402.762 139.425 403.702 141.255 404.31 143.023C405.68 147.009 406.01 151.278 405.267 155.427C405.028 156.47 404.863 157.529 404.776 158.595C404.789 159.831 404.91 161.064 405.138 162.279C405.752 166.977 405.138 171.748 405.341 176.488C405.55 181.818 406.71 187.448 404.475 192.293C402.989 195.511 400.177 197.905 397.402 200.079C387.069 208.132 375.668 214.712 363.526 219.63C365.62 217.112 365.656 213.324 364.263 210.358C362.869 207.392 360.278 205.163 357.508 203.432C361.033 202.648 364.447 201.429 367.67 199.803C374.105 196.536 379.619 191.753 385.066 187.019C385.869 186.441 386.495 185.65 386.871 184.734C387.424 182.892 385.901 181.142 384.845 179.527C381.646 174.615 382.389 168.199 383.727 162.513C385.219 156.28 387.411 150.072 391.409 145.062C393.902 141.93 397.156 139.523 401.061 138.658Z" fill="#12174E"/>
<path d="M362.985 219.783C362.433 220.682 361.717 221.47 360.873 222.104C359.031 223.332 356.501 222.865 354.444 221.993C352.532 221.183 350.769 220.06 349.225 218.671C348.561 217.966 347.777 217.384 346.91 216.952C345.301 216.338 343.054 216.799 342.151 215.319C342.046 215.163 341.994 214.978 342.004 214.791C342.059 214.257 342.759 214.109 343.299 214.079C345.806 213.913 348.239 213.162 350.404 211.886C349.712 211.387 349.121 210.762 348.66 210.044C348.469 209.794 348.365 209.488 348.365 209.172C348.44 208.83 348.628 208.523 348.899 208.301C350.873 206.438 353.357 205.205 356.033 204.759C358.71 204.313 361.46 204.673 363.931 205.795C364.413 205.99 364.836 206.308 365.159 206.716C365.386 207.093 365.538 207.51 365.607 207.944C366.006 209.664 367.449 212.243 366.927 213.98C366.35 215.976 364.17 218.094 362.985 219.783Z" fill="#FBBEBE"/>
<path d="M321.114 212.04C328.752 203.216 332.166 191.605 335.335 180.374L337.6 172.392L343.065 153.167C343.87 150.33 344.674 147.493 345.208 144.601C346.123 139.609 346.209 134.506 346.154 129.434C346.076 127.332 345.594 125.264 344.735 123.343C344.201 122.017 343.943 120.605 343.507 119.235C342.953 117.326 342.123 115.508 341.045 113.838C340.745 113.342 340.37 112.894 339.934 112.512C339.178 111.998 338.322 111.651 337.422 111.493C335.47 110.912 333.447 110.604 331.411 110.578C329.372 110.651 327.272 111.357 325.958 112.905C324.958 114.09 324.497 115.625 323.705 116.957C323.336 117.503 323.002 118.071 322.704 118.658C322.366 119.55 322.18 120.492 322.151 121.446C321.832 125.314 321.56 129.187 321.335 133.063C321.23 134.826 321.138 136.6 321.206 138.369C321.261 139.744 321.409 141.113 321.556 142.483L323.011 155.893C323.349 159.043 323.109 161.99 323.392 165.146C324.08 172.766 322.44 180.386 320.758 187.865C319.953 191.421 319.124 195.025 317.405 198.242C315.888 201.091 313.616 203.984 314.218 207.158C314.427 208.263 314.986 209.295 315.072 210.412C315.03 211.105 315.098 211.799 315.274 212.469C315.525 212.925 315.914 213.29 316.385 213.511C316.856 213.732 317.385 213.797 317.896 213.697C319.112 213.484 320.234 212.906 321.114 212.04Z" fill="#12174E"/>
<path d="M322.048 176.727C322.281 178.49 322.103 180.276 322.189 182.051C322.382 184.336 322.793 186.598 323.417 188.805C324.031 191.261 324.817 194.012 326.985 195.375C327.528 195.658 328.048 195.984 328.538 196.352C328.78 196.542 328.957 196.802 329.047 197.096C329.137 197.39 329.135 197.704 329.042 197.997L327.353 197.715C327.545 197.861 327.703 198.047 327.818 198.258C327.933 198.47 328.002 198.704 328.021 198.945C328.039 199.185 328.007 199.427 327.925 199.654C327.844 199.881 327.715 200.088 327.548 200.262C327.381 200.436 327.18 200.573 326.956 200.663C326.733 200.754 326.492 200.796 326.251 200.788C326.01 200.779 325.774 200.72 325.557 200.613C325.341 200.507 325.149 200.356 324.995 200.171C325.059 200.724 325.007 201.285 324.842 201.816C324.756 202.077 324.593 202.306 324.373 202.471C324.153 202.635 323.888 202.729 323.614 202.738C323.295 202.688 322.994 202.562 322.736 202.369L318.327 199.637C317.006 198.926 315.907 197.863 315.152 196.567L313.224 193.662C312.799 193.102 312.462 192.481 312.223 191.82C311.505 189.364 313.513 186.638 312.469 184.323C312.156 183.752 311.787 183.214 311.37 182.714C309.141 179.644 309.282 175.469 309.528 171.662C309.608 170.378 309.841 168.855 311.002 168.297C311.923 167.848 313.028 168.248 313.881 168.806C314.735 169.365 315.49 170.102 316.46 170.434C317.074 170.642 317.75 170.667 318.364 170.888C319.223 171.189 320.022 172.362 320.599 173.055C321.415 174.12 321.917 175.392 322.048 176.727Z" fill="#FBBEBE"/>
<path d="M268.24 121.544C267.718 122.741 266.986 123.835 266.079 124.774C265.622 125.243 265.063 125.598 264.444 125.812C263.826 126.025 263.166 126.09 262.517 126.002C261.154 125.732 260.153 124.608 259.251 123.546C256.893 120.777 254.504 117.97 252.92 114.692C250.501 109.699 250.114 104.001 249.764 98.4689C249.678 97.0444 249.604 95.5339 250.286 94.2874C251.152 92.6971 252.988 91.9479 254.682 91.3155L264.046 87.8155C264.62 87.5437 265.255 87.4273 265.888 87.4778C267.356 87.7234 267.896 89.4918 268.295 90.9225C269.01 93.4934 270.196 95.9089 271.795 98.0452C273.895 100.845 278.605 104.615 275.915 108.109C272.667 112.297 270.604 116.816 268.24 121.544Z" fill="#BE6F72"/>
<path d="M280.22 105.568C284.322 109.424 285.71 115.429 285.513 121.047C285.317 126.666 283.757 132.143 282.867 137.694C281.976 143.244 281.798 149.17 284.211 154.272C285.04 156.022 286.17 157.643 286.747 159.492C287.231 161.318 287.395 163.215 287.232 165.098C287.222 167.082 286.843 169.048 286.115 170.894C284.807 173.792 282.118 175.806 279.545 177.648C274.295 181.443 268.94 185.299 262.776 187.282C258.6 188.627 254.179 189.069 249.807 189.309C246.847 189.545 243.87 189.46 240.929 189.057C235.782 188.199 231.053 185.696 227.451 181.922C226.823 181.314 226.306 180.601 225.922 179.816C225.547 178.794 225.365 177.711 225.387 176.623C225.24 172.591 225.265 168.559 225.461 164.527C225.574 160.684 226.103 156.865 227.039 153.136C228.212 148.838 230.244 144.81 231.786 140.622C237.152 126.064 236.612 109.497 244.066 95.9028C245.675 92.9678 248.364 89.8792 251.68 90.3459C252.318 90.3843 252.918 90.6603 253.363 91.1196C253.744 91.6784 253.957 92.3347 253.977 93.0108C254.769 99.6177 255.892 106.397 259.005 112.359C260.234 114.698 262.076 118.26 264.906 118.886C267.737 119.512 269.407 116.81 270.924 114.895C273.589 111.382 276.716 108.244 280.22 105.568Z" fill="#E3E8F4"/>
<path d="M299.85 95.627C300.686 96.0792 301.467 96.6274 302.177 97.2604C304.019 99.0042 304.695 101.675 304.682 104.205C304.67 106.735 304.068 109.228 303.7 111.733C302.711 118.487 303.552 125.401 303.945 132.242C304.065 133.346 303.999 134.463 303.749 135.545C303.448 136.577 302.828 137.485 302.429 138.486C301.256 141.446 302.14 144.823 301.452 147.93C300.716 151.24 298.192 154.248 298.665 157.607C298.855 158.921 299.488 160.131 299.758 161.432C300.028 162.734 299.795 164.306 298.671 165.006C297.547 165.706 295.914 165.196 294.575 165.583C294.032 165.784 293.502 166.022 292.991 166.296C290.922 167.229 288.454 166.91 286.415 165.89C284.417 164.8 282.621 163.375 281.104 161.678C278.764 159.283 276.498 156.661 275.473 153.475C273.975 148.857 275.307 143.828 276.934 139.248C278.562 134.667 280.502 130.037 280.213 125.168C280.054 122.442 279.194 119.82 278.678 117.143C278.04 113.433 277.811 109.665 277.997 105.906C278.076 103.155 278.261 100.318 279.446 97.8314C280.291 96.1726 281.538 94.7523 283.075 93.701C284.611 92.6496 286.386 92.0008 288.239 91.8139C292.537 91.3473 296.221 93.5393 299.85 95.627Z" fill="#12174E"/>
<path opacity="0.1" d="M288.239 154.978C288.282 156.943 288.634 158.888 289.283 160.744C290.382 158.238 290.511 155.426 290.658 152.7C291.272 143.311 293.354 134.457 295.57 125.363C293.955 126.591 293.047 129.661 292.273 131.504C289.202 138.932 287.824 146.951 288.239 154.978Z" fill="#12174E"/>
<path d="M246.847 89.5598C243.888 90.3396 241.321 92.0957 238.453 93.244C235.475 94.472 232.27 94.994 229.145 95.7492C221.912 97.5053 214.648 100.766 210.282 106.802C207.064 111.241 205.732 116.724 203.528 121.753C201.685 125.972 199.229 129.926 197.872 134.316C196.098 140.045 196.3 146.185 196.736 152.166C197.093 157.078 197.633 162.046 199.862 166.399C201.028 168.683 202.637 170.728 203.804 173.012C205.204 175.757 205.941 178.784 207.107 181.609C208.274 184.433 209.987 187.258 212.695 188.731L217.177 186.11C223.864 182.198 230.551 178.281 237.029 174.032C242.678 170.347 248.376 166.117 251.385 160.062C254.05 154.714 254.314 148.464 253.626 142.526C252.938 136.588 251.366 130.779 250.556 124.86C249.523 117.41 249.679 109.844 251.016 102.442C251.631 99.1018 253.264 95.651 253.602 92.3229C253.976 88.7677 249.408 88.8844 246.847 89.5598Z" fill="#12174E"/>
<path d="M219.136 187.172C222.568 190.42 227.505 191.366 231.797 193.312C234.986 194.793 237.857 196.878 240.252 199.453C241.572 200.902 242.85 202.873 242.186 204.715C241.628 206.299 239.915 207.109 238.343 207.699C236.39 208.436 234.21 209.087 232.264 208.344C231.122 207.908 230.201 207.036 229.151 206.416C226.578 204.887 223.336 204.881 220.695 203.468C216.974 201.479 215.12 197.101 211.62 194.737C209.704 193.447 207.058 192.391 206.861 190.089C206.852 189.256 207.029 188.432 207.377 187.676C208.083 185.797 209.287 179.343 211.976 179.515C214.905 179.705 216.956 185.619 219.136 187.172Z" fill="#FBBEBE"/>
<path d="M201.152 158.392C202.275 162.433 204.885 165.877 207.593 169.083C209.539 171.385 211.676 173.89 211.744 176.905C211.805 179.754 209.902 182.376 207.446 183.832C204.989 185.287 202.097 185.753 199.254 185.938C196.98 186.157 194.685 185.997 192.463 185.465C186.851 183.942 182.958 179.048 178.543 175.266C175.921 173.025 172.974 171.072 170.966 168.266C168.958 165.46 168.111 161.432 170.088 158.601C170.802 157.684 171.627 156.859 172.544 156.145C175.897 153.238 178.757 149.806 181.012 145.983C181.92 144.442 182.792 142.772 184.321 141.844C186.513 140.512 189.326 141.12 191.806 141.771C194.502 142.477 202.097 143.858 202.625 147.297C202.84 148.709 201.09 150.907 200.826 152.424C200.49 154.413 200.602 156.452 201.152 158.392Z" fill="#FBBEBE"/>
<path d="M215.035 166.092C215.839 167.55 216.502 169.082 217.012 170.667C218.885 177.175 215.539 183.88 213.942 190.463C211.903 198.893 212.769 207.711 212.671 216.387C212.628 220.354 212.204 224.719 209.349 227.47C208.612 228.17 207.728 228.76 207.231 229.644C206.923 230.292 206.695 230.974 206.549 231.676C206.113 233.193 205.34 234.592 204.287 235.769C203.235 236.945 201.93 237.868 200.47 238.469C199.011 239.07 197.434 239.334 195.858 239.24C194.282 239.146 192.748 238.697 191.37 237.927C189.043 236.632 187.023 234.384 184.358 234.317C183.52 234.357 182.686 234.449 181.859 234.593C179.206 234.857 176.609 233.875 174.122 232.911C173.529 232.723 172.975 232.427 172.489 232.039C172.041 231.627 171.752 231.075 171.341 230.632C169.824 228.999 167.233 229.282 165.047 228.827C163.416 228.462 161.922 227.641 160.741 226.459C159.559 225.277 158.737 223.784 158.373 222.153C157.93 220.04 158.305 217.855 158.673 215.724L160.319 206.231C161.01 202.749 161.487 199.228 161.75 195.688C161.951 191.688 161.609 187.678 160.73 183.77C160.006 180.577 158.925 177.452 158.532 174.197C157.847 168.365 159.382 162.488 162.83 157.735C163.684 156.562 164.801 155.389 166.25 155.279C167.423 155.175 168.522 155.801 169.542 156.403C178.396 161.642 187.312 166.774 196.289 171.796C198.745 173.178 201.256 174.566 203.995 175.247C204.818 175.456 205.997 175.37 206.113 174.535C206.128 174.217 206.044 173.901 205.874 173.632C204.339 170.679 202.116 168.143 200.347 165.331C198.579 162.518 197.216 159.19 197.738 155.924C198.45 151.404 202.65 148.414 206.082 151.957C209.932 155.979 212.511 161.149 215.035 166.092Z" fill="#F86D70"/>
<path d="M187.539 223.399C194.742 223.86 202.104 224.351 208.772 227.114C210.915 227.998 213.187 229.14 215.44 228.594C216.562 228.253 217.605 227.693 218.511 226.948C221.287 224.913 223.91 222.676 226.358 220.255C226.112 218.911 224.289 218.727 222.925 218.739C219.602 218.759 216.323 217.971 213.371 216.442C212.401 215.859 211.372 215.379 210.301 215.012C207.384 214.207 204.413 215.742 201.484 216.491C197.149 217.597 192.58 216.952 188.153 216.301L176.204 214.539C175.093 214.379 173.84 214.25 172.956 214.938C172.365 215.496 171.96 216.223 171.795 217.02C170.334 221.932 171.034 222.343 175.897 222.65L187.539 223.399Z" fill="#FBBEBE"/>
<path opacity="0.1" d="M350.698 138.148C361.55 138.148 370.347 129.351 370.347 118.499C370.347 107.648 361.55 98.8506 350.698 98.8506C339.846 98.8506 331.049 107.648 331.049 118.499C331.049 129.351 339.846 138.148 350.698 138.148Z" fill="#12174E"/>
<path d="M350.557 137.294C361.409 137.294 370.206 128.497 370.206 117.645C370.206 106.794 361.409 97.9966 350.557 97.9966C339.705 97.9966 330.908 106.794 330.908 117.645C330.908 128.497 339.705 137.294 350.557 137.294Z" fill="#FBBEBE"/>
<path d="M367.142 92.6976C368.714 93.6678 370.359 94.7116 371.219 96.3449C371.681 97.4538 372.033 98.6056 372.269 99.7835C373.344 103.468 376.205 106.667 376.377 110.504C376.567 114.711 373.411 118.364 369.837 120.568C369.022 121.17 368.038 121.5 367.025 121.514C365.988 121.446 365.091 120.796 364.139 120.378C360.105 118.585 355.592 120.857 351.318 121.901C346.877 122.973 342.218 122.7 337.933 121.115C335.63 120.255 333.395 118.966 331.952 116.97C330.509 114.975 329.993 112.181 331.221 110.038C331.835 108.945 332.855 107.956 332.787 106.71C332.75 105.961 332.308 105.285 332.173 104.548C331.977 103.376 332.591 102.233 333.217 101.233C336.059 96.6596 339.65 92.5974 343.84 89.2161C345.068 88.2091 346.486 87.2266 348.095 87.153C351.325 87.0117 354.1 89.4187 357.422 89.431C361.192 89.4433 363.9 90.6959 367.142 92.6976Z" fill="#12174E"/>
<path opacity="0.1" d="M278.223 113.495C289.414 113.495 298.486 104.423 298.486 93.2317C298.486 82.0408 289.414 72.9688 278.223 72.9688C267.033 72.9688 257.961 82.0408 257.961 93.2317C257.961 104.423 267.033 113.495 278.223 113.495Z" fill="#12174E"/>
<path d="M278.58 112.998C289.771 112.998 298.843 103.926 298.843 92.7346C298.843 81.5437 289.771 72.4717 278.58 72.4717C267.389 72.4717 258.317 81.5437 258.317 92.7346C258.317 103.926 267.389 112.998 278.58 112.998Z" fill="#BE6F72"/>
<path d="M289.405 104.179C292.266 105.782 295.797 105.616 298.99 104.885C300.801 104.545 302.518 103.821 304.025 102.761C304.774 102.226 305.391 101.528 305.83 100.72C306.27 99.9112 306.519 99.0135 306.561 98.0943C306.561 96.0374 305.21 94.183 305.044 92.126C304.842 89.5348 306.53 87.1401 306.708 84.5366C306.886 81.9331 305.603 79.5875 304.351 77.3525C302.195 73.5148 299.954 69.628 296.675 66.693C293.396 63.7579 288.852 61.8851 284.554 62.8737C282.442 63.3588 280.483 64.4947 278.328 64.7158C276.412 64.8939 274.521 64.3167 272.611 64.0711C270.702 63.8255 268.559 63.979 267.19 65.2991C266.44 66.036 265.962 67.0737 265.083 67.614C264.488 67.8886 263.872 68.1165 263.241 68.2956C261.025 69.1859 260.012 71.685 259.226 73.9323L253.957 89.0313C255.72 90.2593 257.844 90.8181 259.772 91.7637C261.7 92.7093 263.573 94.2198 263.966 96.3321C264.267 97.9347 263.696 99.7768 264.629 101.115C265.483 102.343 267.22 102.552 268.694 102.343C270.168 102.135 271.647 101.625 273.121 101.852C276.805 102.411 278.175 104.671 281.582 101.852C284.99 99.0338 286.237 102.399 289.405 104.179Z" fill="#12174E"/>
<path opacity="0.1" d="M192.469 156.851C202.642 156.851 210.89 148.604 210.89 138.431C210.89 128.257 202.642 120.01 192.469 120.01C182.295 120.01 174.048 128.257 174.048 138.431C174.048 148.604 182.295 156.851 192.469 156.851Z" fill="#12174E"/>
<path d="M193.181 155.85C203.355 155.85 211.602 147.603 211.602 137.43C211.602 127.256 203.355 119.009 193.181 119.009C183.008 119.009 174.76 127.256 174.76 137.43C174.76 147.603 183.008 155.85 193.181 155.85Z" fill="#FBBEBE"/>
<path d="M207.286 119.42C202.9 116.055 197.972 113.464 192.715 111.757C189.35 110.664 185.69 109.915 182.276 110.922C177.647 112.242 171.451 114.213 168.584 118.087C167.171 119.991 165.741 121.95 165.059 124.228C163.696 128.808 165.636 133.69 165.507 138.467C165.354 144.036 162.4 149.12 159.177 153.664C155.953 158.208 155.302 164.717 153.399 169.96C152.748 171.76 152.539 174.259 154.215 175.161C155.689 175.978 157.47 174.959 158.833 173.976L167.03 168.051C167.667 167.527 168.402 167.135 169.192 166.896C170.88 166.504 172.532 167.56 173.944 168.561L191.137 180.718C191.477 180.024 191.66 179.265 191.674 178.492C191.688 177.72 191.532 176.954 191.217 176.248C192.832 176.745 194.004 178.09 195.423 179.048C196.841 180.006 198.996 180.319 200.028 178.981C201.06 177.642 200.28 175.843 199.132 174.762C197.983 173.682 196.473 173.037 195.349 171.925C193.12 169.709 192.893 166.209 191.487 163.409C190.48 161.444 188.853 159.798 188.14 157.704C186.98 154.284 188.497 150.6 189.983 147.309C191.757 143.404 193.765 139.235 197.541 137.196C198.812 136.508 200.218 136.103 201.52 135.477C204.762 133.923 208.809 130.257 210.393 126.972C211.781 124.056 209.644 121.237 207.286 119.42Z" fill="#12174E"/>
<path opacity="0.1" d="M179.403 180.295C181.165 181.418 183.155 182.137 184.886 183.309C186.618 184.482 188.134 186.263 188.184 188.351C188.233 190.346 186.955 192.096 185.727 193.68L170.77 213.311L178.396 215.331C177.168 217.026 176.855 219.187 176.216 221.177C175.578 223.166 174.374 225.235 172.335 225.757C170.493 226.23 168.565 225.26 166.662 225.37C165.256 225.456 163.929 226.12 162.523 226.175C160.712 226.242 159.03 225.291 157.519 224.284C154.154 222.03 150.814 218.8 150.838 214.748C150.918 213.377 151.193 212.025 151.655 210.732C153.859 203.542 156.144 196.18 160.712 190.199C163.168 187.006 166.171 184.31 169.173 181.633C169.856 180.946 170.659 180.39 171.543 179.994C173.508 179.257 175.651 180.166 177.684 180.755C179.716 181.345 182.277 181.431 183.449 179.693" fill="#12174E"/>
<path d="M178.759 179.085C180.521 180.203 182.51 180.927 184.242 182.1C185.973 183.273 187.49 185.054 187.545 187.135C187.601 189.217 186.317 190.887 185.089 192.471L170.125 212.083L177.752 214.103C176.524 215.798 176.21 217.953 175.572 219.949C174.933 221.944 173.73 224.007 171.691 224.529C169.849 225.002 167.921 224.032 166.018 224.143C164.611 224.222 163.285 224.892 161.879 224.941C160.068 225.008 158.385 224.057 156.875 223.05C153.51 220.802 150.169 217.566 150.2 213.52C150.274 212.149 150.547 210.796 151.011 209.504C153.215 202.308 155.499 194.945 160.068 188.971C162.524 185.772 165.532 183.076 168.529 180.375C169.215 179.691 170.018 179.136 170.899 178.735C172.864 177.998 175.007 178.907 177.039 179.503C179.072 180.098 181.632 180.178 182.805 178.44" fill="#F86D70"/>
<g opacity="0.1">
<path opacity="0.1" d="M332.59 112.899C334.033 114.894 336.274 116.19 338.571 117.043C342.854 118.634 347.516 118.908 351.957 117.829C356.255 116.785 360.743 114.514 364.778 116.307C365.729 116.73 366.62 117.375 367.657 117.449C368.673 117.43 369.657 117.098 370.476 116.497C372.963 114.962 375.247 112.727 376.34 110.093C376.34 110.228 376.34 110.363 376.376 110.504C376.567 114.71 373.411 118.364 369.837 120.568C369.021 121.169 368.038 121.5 367.025 121.513C365.987 121.446 365.091 120.795 364.139 120.378C360.105 118.585 355.592 120.856 351.318 121.9C346.877 122.973 342.217 122.699 337.932 121.114C335.63 120.255 333.395 118.965 331.952 116.97C330.509 114.974 329.993 112.18 331.221 110.037L331.313 109.884C331.512 110.97 331.948 112 332.59 112.899Z" fill="#12174E"/>
<path opacity="0.1" d="M333.407 102.639C333.456 103.584 332.885 104.376 332.339 105.181C332.263 104.981 332.203 104.776 332.161 104.567C331.977 103.467 332.505 102.399 333.088 101.435C333.255 101.818 333.363 102.223 333.407 102.639Z" fill="#12174E"/>
</g>
<path opacity="0.1" d="M260.663 71.9314L255.395 87.0242C257.157 88.2523 259.282 88.8172 261.21 89.7566C263.138 90.6961 265.011 92.2127 265.404 94.325C265.705 95.9276 265.134 97.7697 266.067 99.1144C266.92 100.342 268.658 100.545 270.132 100.342C271.605 100.14 273.085 99.6241 274.559 99.8513C278.243 100.41 279.612 102.67 283.02 99.882C286.428 97.0943 287.662 100.404 290.831 102.185C293.692 103.793 297.223 103.628 300.416 102.891C302.226 102.552 303.943 101.83 305.451 100.772C305.665 100.597 305.87 100.41 306.065 100.214C305.595 101.22 304.886 102.097 304.001 102.768C302.494 103.828 300.777 104.552 298.966 104.892C295.773 105.623 292.212 105.789 289.381 104.186C286.213 102.406 284.911 99.1574 281.571 101.884C278.231 104.61 276.782 102.412 273.11 101.884C271.636 101.656 270.162 102.166 268.683 102.375C267.203 102.584 265.471 102.375 264.618 101.147C263.684 99.8083 264.255 97.9662 263.955 96.3636C263.562 94.2513 261.689 92.7347 259.761 91.7952C257.833 90.8557 255.708 90.2847 253.946 89.0628L259.239 73.927C259.853 72.263 260.528 70.4639 261.756 69.2788C261.331 70.1366 260.966 71.0229 260.663 71.9314Z" fill="#12174E"/>
<g opacity="0.1">
<path opacity="0.1" d="M192.587 176.911C193.944 177.525 195.657 177.617 196.517 176.469C197.481 175.241 196.769 173.338 195.62 172.251C194.472 171.164 192.962 170.525 191.838 169.414C189.609 167.204 189.382 163.704 187.976 160.904C186.969 158.933 185.342 157.287 184.629 155.193C183.469 151.779 184.986 148.089 186.471 144.804C188.246 140.899 190.254 136.729 194.03 134.691C195.301 134.003 196.707 133.598 198.009 132.972C201.251 131.418 205.298 127.746 206.882 124.461C208.214 121.692 206.335 119.002 204.1 117.179C205.187 117.885 206.249 118.628 207.281 119.42C209.645 121.262 211.776 124.056 210.351 126.96C208.767 130.245 204.72 133.911 201.478 135.464C200.177 136.078 198.77 136.496 197.499 137.184C193.723 139.222 191.715 143.392 189.941 147.297C188.449 150.588 186.932 154.272 188.099 157.692C188.811 159.786 190.438 161.432 191.445 163.397C192.87 166.197 193.078 169.697 195.307 171.913C196.431 173.025 197.942 173.663 199.09 174.75C200.238 175.837 200.932 177.716 199.986 178.968C199.041 180.221 196.793 179.963 195.381 179.036C194.429 178.391 193.563 177.544 192.587 176.911Z" fill="#12174E"/>
<path opacity="0.1" d="M155.347 171.465L163.544 165.546C164.181 165.021 164.915 164.626 165.705 164.386C167.394 163.999 169.046 165.055 170.458 166.056L187.651 178.213C187.991 177.519 188.174 176.758 188.188 175.984C188.202 175.211 188.045 174.444 187.73 173.737C189.309 174.228 190.457 175.542 191.826 176.463C191.627 176.373 191.422 176.297 191.212 176.236C191.527 176.942 191.683 177.708 191.669 178.48C191.655 179.253 191.472 180.013 191.132 180.706L173.939 168.549C172.527 167.548 170.869 166.492 169.187 166.885C168.397 167.123 167.663 167.515 167.025 168.039L158.828 173.964C157.465 174.947 155.684 175.966 154.211 175.149C153.808 174.902 153.477 174.552 153.252 174.136C153.026 173.72 152.914 173.252 152.927 172.779C153.797 172.469 154.613 172.026 155.347 171.465Z" fill="#12174E"/>
</g>
<path d="M360.142 211.567C360.142 211.567 324.958 214.386 317.958 209.4L350.145 204.438L360.142 211.567Z" fill="#E3E8F4"/>
<path opacity="0.1" d="M360.142 211.567C360.142 211.567 324.958 214.386 317.958 209.4L350.145 204.438L360.142 211.567Z" fill="#12174E"/>
<path d="M360.142 211.567L350.287 205.328C350.287 205.328 320.887 213.777 312.831 210.29L321.029 198.789L350.158 204.469L360.142 211.567Z" fill="#00FFF3"/>
<path d="M316.423 128.845C315.336 130.218 314.465 131.748 313.838 133.383C313.556 134.249 313.414 135.151 313.175 136.029C312.501 138.216 311.463 140.273 310.105 142.114C307.078 146.517 303.295 150.766 302.534 156.053C302.165 158.662 302.571 161.315 303.086 163.9C303.366 165.605 303.852 167.269 304.536 168.855C305.315 170.538 306.476 172.018 307.366 173.645C308.18 175.242 308.865 176.901 309.417 178.606C310.467 177.556 311.087 176.15 311.928 174.922C312.77 173.694 314.022 172.589 315.502 172.57C317.209 172.57 318.615 173.982 320.304 174.203C320.567 174.257 320.841 174.231 321.09 174.13C321.704 173.841 321.753 173.012 321.704 172.349C321.219 167.713 318.566 163.139 319.819 158.644C320.973 154.487 325.099 151.89 327.267 148.163C328.839 145.455 329.305 142.262 329.723 139.155C330.245 135.44 330.773 131.694 330.54 127.955C330.423 126.07 328.925 114.158 326.186 115.404C325.234 115.834 324.406 117.658 323.81 118.474L321.354 121.956L316.423 128.845Z" fill="#12174E"/>
<path d="M242.931 205.691L223.178 221.773L197.763 217.229L214.876 203.794L242.931 205.691Z" fill="#00FFF3"/>
<defs>
<linearGradient id="paint0_linear" x1="296" y1="214" x2="296" y2="441.547" gradientUnits="userSpaceOnUse">
<stop stop-color="white"/>
<stop offset="1" stop-color="white" stop-opacity="0"/>
</linearGradient>
</defs>
</svg>
